<svg width="98" height="89" fill="none" xmlns="http://www.w3.org/2000/svg"><path d="M24.762 78.95V89L0 83.988l24.762-5.037z" fill="#700000"/><path d="M95.23 64.632V41.235L.012 60.606v23.397l95.22-19.371z" fill="#C3161C"/><path d="M73.918 9.777V0L98 4.873 73.918 9.777z" fill="#700000"/><path d="M3.613 54.987V24.093L98 4.888v30.896L3.613 54.987z" fill="#C3161C"/><path d="M11.285 72.979c-.043.705.192 1.352.513 1.659.53.521 1.363.374 1.812.283a2.59 2.59 0 001.322-.614 1.687 1.687 0 00.552-1.272c0-.487-.148-.828-.552-1.05-.403-.22-1.257-.276-1.747-.291l-1.501-.026c-2.11-.039-3.151-.547-3.686-.971-.788-.606-1.152-1.504-1.152-2.827a6.113 6.113 0 011.747-4.27c1.428-1.497 3.235-2.018 4.584-2.295 1.15-.23 3.28-.543 4.643.454.749.543 1.474 1.696 1.534 3.353l-4.39.883a1.517 1.517 0 00-.34-1.039c-.216-.216-.647-.385-1.447-.216-.46.078-.896.258-1.277.526a1.514 1.514 0 00-.512 1.057.886.886 0 00.298.727c.362.32 1.044.299 2.157.329l1.452.054c1 .028 2.471.123 3.472 1.01.511.456 1.152 1.343 1.152 2.922a7.508 7.508 0 01-1.408 4.222c-1.49 1.947-3.9 2.574-5.265 2.851-1.47.294-3.751.597-5.22-.779-.766-.7-1.385-2.059-1.404-3.746l4.663-.934zM32.79 63.88v3.826l-6.629 1.34v1.993l7.908-1.6v4.289l-12.551 2.539V60.04l12.38-2.502v4.287l-7.737 1.563v1.835l6.629-1.344zm13.826 7.299l-11.104 2.245V57.2l4.648-.941v11.94l6.456-1.307v4.287zm12.364-2.425l-11.105 2.243V54.771l4.646-.939v11.935l6.458-1.302v4.29zm12.617-12.718v3.826l-6.628 1.341v1.995l7.905-1.599v4.285L60.325 68.42V52.2l12.381-2.505v4.29l-7.737 1.563v1.83l6.628-1.34zm3.196-6.764l8.412-1.697c.936-.189 2.515-.373 3.687.575 1.022.835 1.279 2.15 1.279 3.448a4.865 4.865 0 01-.98 3.12 4.18 4.18 0 01-1.343 1.108v.115a2.177 2.177 0 011.51.783c.554.696.573 1.514.595 2.405l.043 1.315c.024.855.065 1.49.533 2.278l-4.745.962c-.469-.67-.488-1.198-.512-1.892l-.04-.963c-.022-.666.02-1.605-.536-2.048-.431-.35-1.128-.258-1.641-.156l-1.618.327v5.61l-4.646.941V49.281l.002-.009zm4.646 6.2l2.621-.526c.474-.071.91-.3 1.238-.649a1.96 1.96 0 00.468-1.345 1.302 1.302 0 00-.405-1.054c-.406-.313-.982-.216-1.322-.153l-2.6.525v3.202zM20.657 23.6c1.469-.294 3.701-.714 5.295.387.895.617 1.788 1.893 1.788 4.248a6.256 6.256 0 01-1.37 4.024 5.97 5.97 0 01-2.266 1.916v.138c1.85 0 2.968.894 3.158 1.062.83.699 1.596 1.967 1.596 4.222 0 2.706-1.146 4.428-2.103 5.384-1.756 1.81-4.53 2.578-6.189 2.918l-12.531 2.53V26.15l12.622-2.55zm-5.673 10.52l3.57-.72c.574-.12 1.28-.295 1.726-.833.357-.44.538-.996.509-1.562 0-.798-.285-1.192-.574-1.376-.51-.311-1.4-.166-1.752-.093l-3.479.69v3.894zm0 9.432l4.208-.85c.604-.12 1.308-.296 1.819-.884a2.74 2.74 0 00.606-1.826c0-1.008-.384-1.412-.647-1.566-.48-.324-1.245-.238-1.816-.12l-4.178.843v4.406l.008-.003zm33.45-16.413v5.725l-9.918 2.005v2.983l11.831-2.39v6.415l-18.783 3.796V21.396l18.529-3.746v6.415l-11.577 2.34v2.739l9.918-2.005zm10.681 5.091c-.065 1.056.285 2.025.765 2.482.799.776 2.041.56 2.712.432a3.831 3.831 0 001.976-.92 2.515 2.515 0 00.83-1.9c0-.731-.216-1.238-.83-1.568-.615-.332-1.88-.416-2.615-.444l-2.234-.032c-3.156-.057-4.717-.816-5.518-1.452-1.177-.908-1.725-2.256-1.725-4.233 0-3.153 1.531-5.234 2.614-6.39 2.135-2.233 4.849-3.027 6.857-3.43 1.725-.346 4.909-.822 6.95.677 1.117.814 2.202 2.535 2.297 5.014l-6.562 1.324c0-.593-.16-1.218-.51-1.564-.352-.346-.959-.569-2.169-.324-.573.116-1.434.393-1.913.804a2.24 2.24 0 00-.766 1.575 1.301 1.301 0 00.447 1.081c.544.483 1.566.45 3.22.498l2.17.078c1.497.047 3.7.192 5.196 1.514.764.679 1.726 2.01 1.726 4.37a11.247 11.247 0 01-2.106 6.317c-2.23 2.918-5.836 3.852-7.877 4.265-2.2.446-5.608.89-7.814-1.157-1.145-1.055-2.07-3.086-2.101-5.613l6.98-1.403zM74.06 20.06v-6.662l19.58-3.959v6.66l-6.313 1.276v17.62l-6.954 1.406V18.783L74.06 20.06z" fill="#fff"/><path d="M19.706 56.622L3.63 54.918l75.527-15.37 16.074 1.704-75.525 15.37z" fill="#700000"/><path d="M34.78 84.923l.067-1.465L38 82.867l-.11 3.006c-.5.468-1.054.875-1.65 1.212a6.003 6.003 0 01-1.678.555c-.793.145-1.431.12-1.916-.07a2.026 2.026 0 01-1.09-1.082 3.873 3.873 0 01-.303-1.873c.03-.725.22-1.433.552-2.077.322-.61.79-1.13 1.363-1.514a4.816 4.816 0 011.808-.67 4.64 4.64 0 011.613-.1c.331.06.634.227.863.474.247.288.417.635.494 1.008l-1.976.74a.818.818 0 00-.384-.526 1.076 1.076 0 00-.729-.07 1.71 1.71 0 00-1.078.693c-.288.377-.446.924-.475 1.64-.037.762.07 1.283.324 1.56.253.28.621.373 1.106.282.23-.043.454-.12.662-.23.26-.141.504-.308.731-.497l.029-.666-1.374.262zm4.32 1.739l.233-7.01 3.372-.634a4.588 4.588 0 011.43-.102 1.163 1.163 0 01.787.476c.21.313.31.686.285 1.062 0 .363-.087.72-.25 1.043a2.55 2.55 0 01-.647.804c-.221.17-.464.31-.723.413.183.023.361.076.526.159.12.086.228.19.32.307.107.116.2.245.278.382l.962 1.865-2.33.432-1.048-1.96a1.205 1.205 0 00-.356-.473.716.716 0 00-.496-.069l-.181.035-.08 2.874-2.081.396zm2.188-4.588l.863-.162c.185-.05.366-.116.54-.197a.715.715 0 00.337-.28.794.794 0 00.138-.434.531.531 0 00-.19-.478c-.132-.093-.383-.105-.752-.036l-.893.168-.043 1.42zm4.67-.214c.017-1.136.328-2.074.934-2.812a4.076 4.076 0 012.497-1.404c1.089-.204 1.929-.057 2.52.444.59.5.889 1.31.895 2.427a4.986 4.986 0 01-.384 2.085 3.795 3.795 0 01-1.133 1.447 4.227 4.227 0 01-1.855.791 3.774 3.774 0 01-1.865-.032 2.15 2.15 0 01-1.182-.982c-.298-.49-.442-1.145-.432-1.964h.005zm2.038-.374c0 .706.12 1.192.36 1.456a1.034 1.034 0 001.014.274 1.54 1.54 0 001.027-.649c.241-.349.363-.914.364-1.695 0-.655-.124-1.109-.373-1.361a1.063 1.063 0 00-1.014-.257 1.523 1.523 0 00-.99.648c-.251.352-.38.883-.386 1.593m10.142-5.382l2.019-.38.101 4.11a3.94 3.94 0 01-.155 1.202c-.113.393-.302.76-.554 1.081a2.929 2.929 0 01-.814.74c-.447.25-.933.423-1.438.508a8.676 8.676 0 01-1.064.128 2.404 2.404 0 01-.966-.106 1.895 1.895 0 01-.712-.476 1.807 1.807 0 01-.444-.729 4.052 4.052 0 01-.199-1.148l-.028-4.11 2.02-.38.051 4.206a1.086 1.086 0 00.313.837.954.954 0 00.841.165c.325-.05.619-.219.826-.474.205-.274.306-.612.285-.954l-.082-4.22zm3.35-.632l3.362-.631c.732-.144 1.288-.067 1.668.231.38.299.585.781.617 1.447a2.48 2.48 0 01-.531 1.744c-.385.47-.99.783-1.816.938l-1.12.217.089 2.595-2.07.39-.2-6.93zm2.13 2.538l.501-.096c.306-.032.593-.162.82-.37a.813.813 0 00.215-.59.673.673 0 00-.226-.508c-.144-.124-.405-.15-.783-.078l-.578.108.052 1.534zm-37.385-61.63l-.072-3.076-1.052.208-.024-.987 3.078-.605.024.986-1.053.208.071 3.073-.972.193zm5.724-1.663a2.133 2.133 0 01-1.337.88 1.482 1.482 0 01-1.361-.346 1.856 1.856 0 01-.574-1.393 2.542 2.542 0 01.509-1.603 2.135 2.135 0 011.337-.88 1.482 1.482 0 011.361.346 1.857 1.857 0 01.574 1.393 2.542 2.542 0 01-.509 1.605v-.002zm-1.35-.134a.965.965 0 00.647-.446c.16-.245.241-.534.23-.826a1.034 1.034 0 00-.273-.725.678.678 0 00-.647-.195.958.958 0 00-.632.444c-.16.245-.242.533-.231.826-.006.268.091.527.272.725a.67.67 0 00.647.194m4.141.124l-.095-4.06 1.8-.355c.43-.084.753-.024.965.177a.838.838 0 01.242.623 1.147 1.147 0 01-.52 1.013.782.782 0 01.69.554c.03.1.041.206.03.31a1.212 1.212 0 01-.332.89 1.745 1.745 0 01-.97.49l-1.81.358zm.89-2.628l.614-.122c.307-.06.458-.212.452-.456-.005-.244-.154-.33-.446-.262l-.632.126.013.714zm.038 1.537l.752-.147c.311-.06.463-.218.458-.473-.006-.256-.168-.346-.486-.273l-.742.145.018.748zm2.834.348l-.095-4.06 2.821-.555.024.958-1.861.366.015.614 1.684-.33.022.886-1.685.333.015.642 1.885-.37.022.957-2.847.56zm5.936-1.167l-.071-3.074-1.055.208-.022-.987 3.078-.605.024.986-1.052.208.07 3.073-.972.19zm2.627-.517l-.095-4.06.973-.19L48 9.554l1.25-.244-.035-1.521.972-.19.095 4.06-.972.19-.037-1.542-1.25.246.038 1.542-.973.19zm3.99-.786l-.095-4.06 2.824-.553.021.956-1.86.365.016.617 1.684-.333.02.889-1.685.33.016.645 1.885-.372.023.958-2.849.558zm5.08-.997l-.095-4.07 1.799-.355c.431-.084.753-.025.966.177a.837.837 0 01.242.623 1.147 1.147 0 01-.52 1.012.783.783 0 01.72.866 1.214 1.214 0 01-.332.889 1.746 1.746 0 01-.97.49l-1.81.368zm.89-2.628l.613-.12c.308-.061.459-.214.453-.457-.005-.244-.155-.331-.448-.262l-.632.123.015.716zm.037 1.538l.753-.147c.31-.06.463-.218.457-.474-.005-.255-.167-.346-.485-.272l-.742.145.017.748zm2.835.351l-.096-4.062 2.822-.554.023.956-1.861.366.015.616 1.684-.333.02.889-1.685.33.015.645 1.886-.372.023.959-2.847.56zm4.898-.894a1.912 1.912 0 01-1.66-.35l.523-.865a1.435 1.435 0 001.15.264c.267-.052.399-.175.395-.37a.204.204 0 00-.125-.188 1.463 1.463 0 00-.477-.085 4.3 4.3 0 01-.533-.067 1.6 1.6 0 01-.412-.147.672.672 0 01-.302-.305 1.213 1.213 0 01-.108-.508c-.014-.368.11-.729.348-1.01.25-.297.598-.495.981-.558a1.805 1.805 0 011.456.255l-.468.89a1.364 1.364 0 00-.992-.217.472.472 0 00-.26.125.293.293 0 00-.085.216.217.217 0 00.127.197c.157.051.322.078.487.078a2.05 2.05 0 01.997.255.865.865 0 01.343.764c.02.382-.11.757-.363 1.045-.269.296-.63.493-1.024.558m2.92-.621l-.073-3.074-1.053.206-.023-.987 3.08-.605.021.986-1.052.208.073 3.073-.973.193zm2.845-1.888l-.343-2.187-.01-.493 1.078-.217.01.494-.237 2.301-.498.102zm-.215 1.37l-.024-.985.992-.195.024.986-.992.195z" fill="#fff"/></svg>