<svg width="98" height="88" fill="none" xmlns="http://www.w3.org/2000/svg"><g clip-path="url(#clip0_39_121)"><path d="M24.762 78.064V88L0 83.046l24.762-4.982z" fill="#700000"/><path d="M95.233 63.907V40.772L.013 59.927v23.135l95.22-19.155z" fill="#C3161C"/><path d="M73.92 9.667V0L98 4.818l-24.08 4.85z" fill="#700000"/><path d="M3.61 54.368V23.824L98 4.834v30.552L3.61 54.368z" fill="#C3161C"/><path d="M11.288 72.165a2.171 2.171 0 00.513 1.642c.534.517 1.365.373 1.81.28.49-.072.948-.284 1.32-.608a1.67 1.67 0 00.554-1.258 1.042 1.042 0 00-.553-1.037c-.56-.2-1.15-.298-1.745-.288l-1.495-.024c-2.108-.04-3.15-.54-3.683-.961-.808-.601-1.151-1.486-1.151-2.804a6.01 6.01 0 011.749-4.22c1.43-1.478 3.23-2.003 4.584-2.271 1.15-.229 3.28-.537 4.644.448.748.537 1.475 1.678 1.535 3.316l-4.39.873c.021-.373-.1-.74-.34-1.03-.213-.211-.637-.38-1.45-.215a3.165 3.165 0 00-1.28.532 1.492 1.492 0 00-.508 1.045.866.866 0 00.298.721c.364.317 1.046.297 2.153.325l1.45.056c1.002.028 2.472.124 3.474 1.001.508.448 1.15 1.33 1.15 2.887a7.371 7.371 0 01-1.409 4.173c-1.49 1.927-3.898 2.547-5.25 2.804-1.47.292-3.753.588-5.223-.77-.763-.692-1.385-2.038-1.405-3.704l4.648-.913zm21.504-9.002v3.784l-6.628 1.326v1.97l7.904-1.582v4.241l-12.549 2.507V59.366l12.38-2.475v4.241l-7.735 1.546v1.81l6.628-1.325zm13.825 7.22L35.51 72.602V56.559l4.648-.93v11.803l6.459-1.29v4.241zM58.98 67.98L47.877 70.2V54.155l4.645-.929V65.03l6.458-1.285v4.237zm12.617-12.57v3.78l-6.627 1.326v1.97l7.904-1.578v4.237l-12.549 2.507V51.613l12.383-2.475v4.241l-7.738 1.546v1.81l6.627-1.325zm3.215-6.692l8.418-1.679c.936-.184 2.516-.368 3.687.57 1.022.824 1.28 2.126 1.28 3.407a4.779 4.779 0 01-.981 3.088 4.18 4.18 0 01-1.345 1.097v.112a2.202 2.202 0 011.514.773c.554.689.574 1.494.594 2.379l.045 1.297c-.045.786.14 1.568.533 2.251l-4.77.941a2.972 2.972 0 01-.513-1.87l-.04-.953c-.02-.657.02-1.602-.534-2.026-.428-.345-1.127-.253-1.64-.153l-1.615.325v5.558l-4.645.93V48.717h.012zm4.645 6.13l2.621-.52c.472-.07.908-.294 1.236-.637.32-.369.487-.843.469-1.33a1.276 1.276 0 00-.404-1.04 1.67 1.67 0 00-1.32-.153l-2.602.521v3.164-.004zM20.659 23.332c1.47-.293 3.7-.705 5.295.4.897.609 1.79 1.874 1.79 4.201a6.142 6.142 0 01-1.37 3.977 5.946 5.946 0 01-2.266 1.894v.136a4.98 4.98 0 013.159 1.05c.832.692 1.595 1.942 1.595 4.172a7.242 7.242 0 01-.504 2.874 7.29 7.29 0 01-1.6 2.449c-1.757 1.79-4.528 2.55-6.188 2.883L8.05 49.871V25.855l12.609-2.523zm-5.654 10.412l3.57-.713a2.898 2.898 0 001.725-.825 2.24 2.24 0 00.508-1.546c0-.8-.286-1.181-.573-1.361-.509-.309-1.402-.164-1.753-.092l-3.473.692v3.821l-.005.024zm0 9.327l4.208-.841a3.035 3.035 0 001.818-.873c.415-.51.63-1.151.605-1.806 0-.997-.403-1.398-.638-1.55-.476-.32-1.244-.236-1.813-.12l-4.18.833v4.357zm33.429-16.235v5.658l-9.915 1.983v2.951l11.83-2.363v6.344L31.564 45.16V21.157l18.526-3.704v6.343l-11.571 2.31v2.712l9.916-1.982zm10.683 5.034a3.245 3.245 0 00.764 2.454c.807.77 2.04.553 2.71.401a3.847 3.847 0 001.975-.91 2.487 2.487 0 00.828-1.881 1.554 1.554 0 00-.175-.9 1.572 1.572 0 00-.653-.65c-.602-.325-1.878-.4-2.613-.44l-2.234-.033c-3.154-.056-4.717-.8-5.517-1.433-1.18-.898-1.72-2.231-1.72-4.185a9.008 9.008 0 012.613-6.32c2.136-2.21 4.846-2.991 6.866-3.392 1.72-.344 4.911-.8 6.95.669 1.115.8 2.202 2.507 2.299 4.958l-6.567 1.313a2.23 2.23 0 00-.51-1.545c-.318-.313-.957-.565-2.168-.32a4.74 4.74 0 00-1.915.8 2.222 2.222 0 00-.767 1.558 1.28 1.28 0 00.444 1.077c.542.477 1.567.445 3.231.493l2.17.08c1.498.044 3.699.192 5.197 1.502.764.672 1.725 2.002 1.725 4.32a11.038 11.038 0 01-2.104 6.248c-2.23 2.884-5.837 3.809-7.876 4.217-2.197.44-5.614.881-7.816-1.145-1.142-1.045-2.071-3.052-2.1-5.55l6.963-1.386zm14.944-12.035v-6.587l19.58-3.913v6.584L87.33 17.18v17.425l-6.955 1.39V18.574l-6.313 1.261z" fill="#fff"/><path d="M19.706 55.986L3.63 54.3l75.527-15.198 16.075 1.69-75.527 15.194z" fill="#700000"/><path d="M31.172 80.299l5.332-1.03v1.71l-3.486.673v1.194l3.15-.605v1.618l-3.15.605v2.515l-1.846.356V80.3zm6.078 2.775v-3.948l1.875-.36v3.908c0 1.013.484 1.401 1.211 1.261.727-.14 1.212-.697 1.212-1.682v-3.96l1.874-.36v3.9c0 2.27-1.212 3.504-3.122 3.868-1.91.365-3.082-.42-3.082-2.623m7.343-5.358l1.725-.337 2.738 3.192V76.86l1.83-.353v7.033l-1.62.312-2.843-3.308V84.4l-1.83.352V77.72zm7.476-1.442l2.581-.509c2.379-.46 3.756.721 3.756 2.772 0 2.05-1.397 3.808-3.796 4.269l-2.533.488v-7.02h-.008zm2.597 4.806c.521-.07.997-.33 1.337-.727.339-.398.518-.907.5-1.428 0-1.125-.73-1.658-1.837-1.445l-.751.144v3.604l.751-.148zM26.442 16.107l-.072-3.031-1.05.204-.025-.973 3.074-.597.02.973-1.05.204.073 3.032-.97.188zm5.72-1.642c-.314.45-.792.761-1.333.87a1.495 1.495 0 01-1.357-.345 1.83 1.83 0 01-.574-1.374 2.489 2.489 0 01.51-1.602c.313-.45.791-.761 1.332-.869a1.495 1.495 0 011.357.345 1.828 1.828 0 01.574 1.373 2.489 2.489 0 01-.51 1.602zm-1.35-.136a.97.97 0 00.635-.44c.157-.238.237-.518.23-.801a1.013 1.013 0 00-.275-.713.676.676 0 00-.654-.193.968.968 0 00-.63.441 1.384 1.384 0 00-.23.8c-.007.265.09.522.27.718a.672.672 0 00.65.192m4.148.12l-.093-4.005 1.798-.348a1.062 1.062 0 01.965.176.829.829 0 01.242.617 1.122 1.122 0 01-.52.997.788.788 0 01.688.547c.03.1.04.203.03.306a1.193 1.193 0 01-.33.877 1.75 1.75 0 01-.97.485l-1.81.348zm.889-2.595l.61-.12a.454.454 0 00.452-.448c0-.23-.15-.316-.448-.257l-.63.124.016.701zm.036 1.518l.752-.144a.467.467 0 00.424-.292.458.458 0 00.032-.177c0-.24-.162-.33-.485-.268l-.739.144.016.737zm2.828.344l-.093-4.004 2.815-.549.024.945-1.858.36.016.61 1.68-.33.02.878-1.68.324.017.637 1.882-.364.02.94-2.843.553zm5.929-1.15l-.069-3.035-1.054.204-.02-.973 3.07-.597.024.974-1.05.204.072 3.031-.973.193zm2.625-.512l-.097-4.005.97-.188.036 1.498 1.248-.244-.036-1.498.969-.188.097 4.004-.974.193-.032-1.526-1.248.244.037 1.522-.97.188zm3.983-.773l-.097-4.008 2.819-.549.02.945-1.854.36.012.61 1.68-.33.025.878-1.684.328.016.633 1.882-.364.02.945-2.84.552zm5.073-.989l-.093-4.005 1.797-.348a1.063 1.063 0 01.965.176.828.828 0 01.242.617 1.12 1.12 0 01-.52.997.788.788 0 01.688.547.77.77 0 01.03.306 1.193 1.193 0 01-.33.877 1.75 1.75 0 01-.97.485l-1.81.348zm.888-2.595l.61-.12c.12 0 .235-.047.32-.132a.447.447 0 00.132-.317c0-.23-.15-.315-.448-.256l-.63.124.016.701zm.036 1.518l.752-.144a.464.464 0 00.425-.292.453.453 0 00.031-.177c0-.24-.162-.33-.485-.268l-.739.144.016.737zm2.827.349l-.092-4.005 2.815-.549.024.945-1.858.36.012.605 1.685-.324.02.873-1.68.328.012.637 1.882-.368.024.945-2.843.553zm4.892-.882a1.93 1.93 0 01-1.656-.344l.52-.845a1.439 1.439 0 001.148.26.406.406 0 00.404-.364.2.2 0 00-.126-.184 1.47 1.47 0 00-.472-.084 4.297 4.297 0 01-.533-.069 1.625 1.625 0 01-.404-.144.667.667 0 01-.303-.3 1.194 1.194 0 01-.11-.5 1.45 1.45 0 01.348-.998c.252-.292.6-.487.982-.549a1.82 1.82 0 011.454.253l-.469.877a1.375 1.375 0 00-.99-.204.47.47 0 00-.258.124.29.29 0 00-.085.212.203.203 0 00.13.192c.157.05.322.076.488.076.348 0 .69.086.994.253a.858.858 0 01.343.752c.019.377-.112.747-.363 1.03a1.773 1.773 0 01-1.022.548m2.896-.628l-.073-3.036-1.05.204-.024-.969 3.073-.6.02.973-1.05.204.073 3.035-.97.189zm2.839-1.863l-.343-2.158v-.485l1.082-.208v.485l-.238 2.266-.5.1zm-.214 1.354l-.024-.973.99-.192.024.973-.99.192z" fill="#fff"/></g><defs><clipPath id="clip0_39_121"><path fill="#fff" d="M0 0h98v88H0z"/></clipPath></defs></svg>