<svg width="48" height="49" fill="none" xmlns="http://www.w3.org/2000/svg"><g clip-path="url(#clip0_521_670)"><path d="M40.963 41.548c9.37-9.371 9.37-24.565 0-33.936-9.372-9.371-24.565-9.371-33.936 0-9.372 9.371-9.372 24.565 0 33.936 9.37 9.371 24.564 9.371 33.936 0z" fill="#FFC107"/><path d="M38.857 23.17c.44.44.44 1.152 0 1.591L26.953 36.665a10.603 10.603 0 01-7.52 3.11 10.599 10.599 0 01-7.519-3.11c-4.146-4.147-4.146-10.893 0-15.04L21.97 11.572c2.91-2.91 7.646-2.91 10.556 0a7.412 7.412 0 012.179 5.278 7.412 7.412 0 01-2.18 5.279l-9.837 9.837a4.282 4.282 0 01-3.037 1.256c-1.1 0-2.2-.418-3.036-1.256a4.3 4.3 0 010-6.073l9.786-9.786a1.125 1.125 0 011.59 1.59l-9.785 9.787a2.047 2.047 0 000 2.891 2.047 2.047 0 002.891 0l9.838-9.837c.98-.98 1.52-2.29 1.52-3.688 0-1.397-.54-2.707-1.52-3.687a5.22 5.22 0 00-7.374 0L13.505 23.217c-3.269 3.269-3.269 8.588 0 11.857 3.27 3.268 8.588 3.269 11.857 0L37.266 23.17c.44-.44 1.151-.44 1.59 0z" fill="#fff"/></g><defs><clipPath id="clip0_521_670"><rect y=".58" width="48" height="48" rx="24" fill="#fff"/></clipPath></defs></svg>