<svg width="468" height="171" fill="none" xmlns="http://www.w3.org/2000/svg"><g clip-path="url(#clip0_476_570)"><path d="M.861 59.658h467.14v86.126H.861V59.658z" fill="#FFD400"/><path d="M136.269 55.033c-.09-.082-.18-.082-.262-.172l.172-.172.173.172c-.083.09-.083.09-.083.172zm-1.574-10.769l-.345-.172c.082-.261.172-.605.262-.867.083 0 .263.083.345.083-.082.261-.172.612-.262.956zm-4.094-1.3c-.172 0-.262-.09-.435-.09-.09-.695-.18-1.3-.262-2.339.75.082 1.304.082 2.092.172-.524.715-.991 1.47-1.395 2.257zm-.262-9.64c-.09.351-.09.613-.173.956h-.262c0-.35-.09-.695-.09-.956.172-.082.352 0 .525 0zm-1.747-7.817c0-.082-.083-.082-.083-.172 0-.09.083-.09.173-.09.09 0 .09.09.09.18a.322.322 0 00-.18.082zm-.263 5.231h-.345c0-.351-.09-.785-.09-1.136.203-.04.409-.067.615-.082a4.913 4.913 0 00-.202 1.203l.022.015zm-.435 8.348a2.008 2.008 0 01-.434-.262c.082-.133.14-.28.172-.433.187.096.338.247.435.433 0 0-.173.142-.173.262zm-1.499-22.928c-1.14 0-.877-1.038-1.14-1.823 1.312-.172 1.657.351 1.747 1.218-.067.142-.412.575-.585.575l-.022.03zm-1.312 27.703l-.75-.523c0-.083.09-.172.09-.255.352.083.607.172.96.255l-.3.523zm-1.2-24.086c-.75-.515-.607-1.038.263-2.077.172.949.262 1.494.352 1.995a2.252 2.252 0 00-.615.082zm-1.394 75.358l-.435-.351c.172-.262.352-.523.697-.957l.525.523a7.042 7.042 0 01-.787.785zm0-75.896h-.083l.083-.09v.09zm-1.133-5.23c1.567.694 1.567.694 2.182 2.518-.262 0-.697.179-.75.09-.734-.658-1.694-1.264-1.432-2.571v-.038zm-.697 5.298l-.09-.172h.18l-.09.172zm-.525 68.601l-.172-.171c.09-.09.09-.09.172-.09.083 0 .09.09.173.18-.083.037-.083.037-.173.119v-.038zm-1.499-25.96l.525-.262c.262.608.562 1.2.899 1.77-.18.09-.262.18-.442.262-.352-.605-.705-1.21-.967-1.733l-.015-.038zm1.049-45.242h.608v1.823c-1.29-.575-1.027-1.18-.593-1.786l-.015-.037zm-4.258 63.483c-.09-.09-.173-.262-.263-.344l1.05-.747c.082.172.262.344.345.523-.345.164-.697.426-1.132.568zm.525 63.655c-.263-.18-.435-.352-.698-.523a1.54 1.54 0 01.608-.172c.089 0 .179.254.262.344a.694.694 0 00-.172.381v-.03zm.434-125.135l.09.171h-.09v-.171zm-1.747 45.151s-.255-.171-.255-.254a1.72 1.72 0 01.345-.44l.353.35a1.623 1.623 0 00-.443.374v-.03zm-.697-50.622c-.172-.261-.435-.433-.607-.695l.262-.261c.152.27.359.508.608.695-.083.202-.143.291-.263.291v-.03zm0 128.259a.522.522 0 01.09-.351c.01.068.041.131.09.179 0 .142-.06.142-.18.202v-.03zm-6.538-131.009a.284.284 0 01-.172-.09v-.694h.262c.056.264.024.54-.09.784zm-1.395 11.21l-.089-.09h.089v.09zM94.672 138.14c-.09-.09-.172-.09-.172-.18 0-.089.082-.254.082-.433.08.07.168.13.262.179 0 .172-.082.254-.172.434zm-46.216-27.703l.09-.171.082.171h-.172zm-.435 14.326c-.263-.261-.525-.433-.787-.695l.352-.344c.263.262.435.516.697.748l-.262.291zm-1.567-36.468c.071-.53.186-1.052.345-1.562.172 0 .352.082.525.082-.09.523-.263 1.047-.353 1.562-.172.03-.345-.082-.517-.082zm-1.657.605h-.465v-1.3c.209-.014.417.014.615.082-.015.41-.065.817-.15 1.218zm-1.14-9.812a.59.59 0 01.443-.35c.082 0 .255.26.434.44-.262.172-.434.344-.614.433-.083-.09-.338-.433-.263-.523zm-.345 2.78a14.098 14.098 0 01-1.919-.261V81a14.082 14.082 0 011.92-.261c.172 0 .524.433.524.605s-.352.523-.525.523zm-.96 27.785a.18.18 0 01-.172-.172.747.747 0 00.173-.344c.09.082.09.254.172.344.083.09-.172.172-.172.172zm-1.019-20.32c-.082 0-.172-.26-.255-.343a1.3 1.3 0 00.255-.351c.088.192.207.369.352.523a.646.646 0 01-.352.172zm.15 24.482l-.18-.172.18-.171.172.171c-.09.008-.09.09-.172.172zm-.9-43.066c.398-.167.78-.37 1.14-.606.082.172.172.262.172.434-.435.172-.787.433-1.222.612a3.72 3.72 0 00-.09-.44zm-.517-4.342c0-.082.172-.344.255-.344.212.1.418.215.615.344-.263.179-.353.35-.525.44a1.703 1.703 0 01-.323-.44h-.022zm1.5 2.174c-.197.077-.4.135-.608.172a1.829 1.829 0 01-.262-.433.645.645 0 01.352-.172c.082 0 .285.172.517.433zm.18-37.776a.75.75 0 01.344.172c-.09.09-.172.09-.345.18l-.18-.18.18-.172zm-1.838 47.499c-.262 1.307-1.919 2.78-3.134 3.303-.525.172-.96.747-1.394 1.218-.525-1.652-.353-2.175.697-3.303a2.239 2.239 0 00.517-1.652c-.262-.956-.96-.344-1.5-.261-.18 0-.352-.254-.876-.516a22.239 22.239 0 013.576-2.518c.435-.262 1.222.343 1.83.515.18 1.742-1.215.695-1.912 1.218-.013.5.015 1 .082 1.495h2.04a.522.522 0 01.074.5zm-1.919 6.598a.751.751 0 01-.607-.515c-.09-.172.262-.434.352-.695.255.172.607.344 1.132.695-.435.284-.615.515-.877.515zm-.75 6.083c-.09-.09-.172-.09-.172-.172a.642.642 0 01.172-.35.315.315 0 01.173.089.694.694 0 01-.203.433h.03zm-.525 13.81c-.09-.089-.09-.089-.09-.179s.09-.082.18-.172l.173.172c-.143.09-.203.179-.293.179h.03zm-.75-41.602c.09.695.96 1.308.09 2.78a76.453 76.453 0 00-.607-2.6c.105-.09.278-.09.45-.18h.068zm14.996-8.855c0 .09.083.09.083.172 0 .082-.083.09-.173.09-.09 0-.09-.09-.09-.172a.278.278 0 00.12-.09h.06zm.87-34.473l1.304.747c-.082.172-.262.344-.345.516l-1.11-.83a.5.5 0 01.15-.433zm86.794 14.587c-.09-.261.082-.605.082-.956a20.524 20.524 0 00-.435-3.386c-.607-2.346-1.394-4.603-2.182-6.942a31.44 31.44 0 00-1.657-3.565c-.434-.956-1.214-1.823-1.394-2.862-.345-1.562-.87-2.78-2.527-3.213l.263-2.519-2.25-.261-.525.785a8.394 8.394 0 01-.749.605c-.525-1.129-.698-1.995.697-2.175.787-.082 1.222-.433 1.132-1.21-.09-.778-.772-1.129-1.709-1.054a66.097 66.097 0 01-.345 2.242c-.608-1.129-1.05-1.824-1.395-2.519-1.395 0-2.707-.082-3.576-1.21-.495-.673-1.245-1.502-1.995-1.719-1.139-.344-2.444-.172-3.141-1.495a4.56 4.56 0 00-1.575.516c-.298.13-.588.278-.87.441a6.435 6.435 0 00-1.162-1.106c-.697.344-1.747 1.039-1.919.867-1.222-1.046-1.567.172-2.002.747a18.843 18.843 0 00-1.5 3.042c-.697.523-1.394.695-1.657 1.128-.787 1.218-1.222 2.69-2.091 3.737a4.412 4.412 0 00-1.223 3.385c0 .261-.262.523-.434.747a6.332 6.332 0 00-.833 5.396 5.084 5.084 0 01-.18 1.561 30.003 30.003 0 00-.869 3.998c-.435 3.737-.788 7.556-1.222 11.292l-.75 9.117c-.255 2.429-.435 4.858-.75 7.294-.352 2.085-.96 4.17-1.222 6.247a370.55 370.55 0 00-1.567 13.81c-.18 1.913-.353 3.819-.353 5.732 0 2.78.263 5.642.173 8.422-.173 3.819-1.74 7.383-2.79 11.03-.434 1.301-1.132 2.519-1.499 3.909-.435 1.651-.697 3.475-1.042 5.119-.172.874-.172 1.913-.75 2.436a5.4 5.4 0 00-1.304 2.862c-.263.867-.263 2.085-.75 2.608-1.657 1.562-1.74 3.647-2.527 5.47-1.05 2.347-1.394 4.947-2.88 7.294-1.049 1.562-1.499 3.557-2.091 5.47a20.916 20.916 0 01-1.747 3.737c-.517.949-1.5 1.3-2.002 2.085a5.043 5.043 0 01-3.18 2.041 5.054 5.054 0 01-3.71-.741c-2.182-1.495-4.709-2.519-5.998-5.037-.09-.261-.443-.433-.698-.523-1.222-.344-1.837-1.39-2.616-2.242a24.804 24.804 0 01-4.454-8.16c-1.215-3.303-2.354-6.726-3.307-10.164a40.149 40.149 0 01-1.5-7.204c-.352-2.78-.524-5.649-.614-8.511-.082-5.037-1.215-10.074-.75-15.11.083-.957-.525-1.996-.75-2.99.353-.523.96-1.039 1.05-1.651.435-2.863.517-5.732 1.042-8.512.525-2.99-.262-6.165 1.313-8.968.082-.09 0-.351.082-.44.352-2.168.75-4.253 1.132-6.42.525-3.303 1.05-6.726 1.5-9.991.352-2.952.614-5.814.87-8.766.18-1.652-.083-3.475.352-5.037.435-1.562.262-2.518-.96-3.475-.09-.09-.09-.261-.172-.433l1.62-1.181c0-1.913-.09-3.99 0-6.076.172-2.78 1.049-5.388 1.131-8.168a8.797 8.797 0 00-1.657-5.814 26.227 26.227 0 01-2.961-4.453c-.435 0-1.133.171-1.5 0a17.478 17.478 0 00-4.708-1.996c-1.223-.35-2.445-1.128-3.315 0-.75.867-2.249 1.562-1.829 3.214l-.075.127v-.127c-.345.343-.87.695-.96 1.128-.262.957-.262 1.913-.517 2.862-1.05 3.565-.262 7.473-1.92 10.948-.09.254.083.605.083.867-.172 2.78-.172 5.552-.517 8.332-.345 2.78-1.575 5.56-.705 8.512.09.262-.172.605-.255.867a6.594 6.594 0 00-.352 1.823c.09 4.342-.87 8.602-1.395 12.854-.435 3.385-1.132 6.726-1.5 10.073-.367 3.348-.344 6.771-.517 10.164v1.128c-.09 2.167-.262 4.252-.262 6.42 0 .956.172 2.002.262 2.989.255 2.167.607 4.252.697 6.419.173 3.475.173 6.95.255 10.462.032 1.136.15 2.267.353 3.385.262 1.562.787 3.124.96 4.693.434 4.163.96 8.221 2.526 12.152.166.449.284.915.353 1.39a34.424 34.424 0 002.526 7.121c1.133 2.429 2.092 5.037 3.404 7.384a39.47 39.47 0 004.499 6.688c2.354 2.772 5.061 5.291 7.325 8.22 1.222 1.652 3 2.87 4.536 4.26.16.177.373.298.608.344 1.837-.695 2.617.874 3.666 1.651 2.354 1.652 4.709 3.303 7.67 3.737 1.05.171 1.92.956 3 1.3 1.534.529 3.109.936 4.708 1.218 1.132.262 2.437-.262 3.576.605.263.172.87-.082 1.215-.172.345-.089.75-.351 1.14-.261 1.222.172 2.436.261 3.051 1.734a1.66 1.66 0 001.395.874c1.567-.262 2.25 1.128 3.396 1.562.18-.262.443-.523.698-.867 1.222.254 2.354.605 2.534 2.077-.435.441-.877.695-1.222 1.047 1.042.089 2.617.956 2.002-1.218 1.222-.695-.518-1.906.525-2.78.524.351 1.05.784 1.656 1.218.788-1.495 2.25-2.608 2.01-4.342 1.042-.262 2.002-.695 2.872-.605 1.402.171 2.181-.867 3.314-1.219 1.132-.351.179-1.3.697-1.651 1.312-.747 2.617-1.562 4.011-2.339.442-.262 1.14-.441 1.14-.695 0-1.495 2.354-1.824 1.829-3.647-.09-.179.435-.523.608-.874.267-.414.5-.849.697-1.301.18-.433.262-.956.435-1.39.352-.605 1.139-1.128 1.139-1.733.083-1.495 1.043-2.175 2.25-2.87a1.795 1.795 0 01.525-2.429 3.393 3.393 0 001.042-1.995c.18-2.242.262-2.518 1.499-3.908.263-.352.615-.875.525-1.218-.172-.957.435-1.39.787-2.085.608-1.039 1.657-1.824 1.657-3.124a2.884 2.884 0 01.87-2.242 4.475 4.475 0 001.222-2.87c-.09-2.241.87-3.99 2.175-5.642a11.282 11.282 0 002.099-6.337 4.389 4.389 0 011.042-2.869c.173-1.129.353-1.824.435-2.429 0-.172.172-.523.09-.613-.96-.867-.172-1.734.09-2.518.082-.344.345-.748.255-.949-.96-2.003.442-3.737.877-5.47.345-1.39.87-2.609.87-4.088 0-1.21-.09-2.519 1.304-3.124a5.057 5.057 0 01-1.657-4.342c.263-2.085 1.14-4.17.705-6.075-.877-4.342.435-8.34.698-12.51.082-1.644.172-3.214.254-4.858 0-.433-.082-.956-.082-1.39 0-2.436.697-4.864.262-7.383a12.534 12.534 0 01-.18-3.124c.263-2.084.96-4.08.878-6.165-.165-3.624.944-7.271.015-10.918z" fill="#005BBB"/><path d="M212.221 76.51c5.359 4.588 8.038 11.14 8.038 19.654h-19.045c0-3.597-.947-6.444-2.841-8.542-1.895-2.097-4.586-3.148-8.075-3.153-4.034 0-6.998 1.26-8.893 3.781-1.894 2.521-2.849 6.028-2.864 10.522v5.754c0 4.439.948 7.927 2.842 10.462 1.894 2.536 4.799 3.809 8.712 3.819 3.844 0 6.761-.996 8.75-2.989 1.99-1.993 2.989-4.78 2.999-8.362h18.415c0 8.469-2.602 14.946-7.805 19.429-5.204 4.484-12.559 6.726-22.066 6.726-10.587 0-18.605-2.698-24.053-8.093-5.448-5.396-8.17-13.367-8.165-23.914 0-10.552 2.722-18.523 8.165-23.913 5.443-5.39 13.461-8.076 24.053-8.056 9.207 0 16.485 2.292 21.833 6.875zm60.372 56.077l-2.579-8.721H248.27l-2.616 8.721H225.26l22.65-61.876h23.153l22.651 61.876h-21.121zm-20.244-22.568H265.8l-6.501-22.038h-.359l-6.591 22.038zm104.706-10.074a17.675 17.675 0 01-8.929 6.726l13.803 25.901h-22.373l-11.014-22.568h-7.401v22.568h-19.944v-61.86h37.991a23.66 23.66 0 0111.419 2.562 17.3 17.3 0 017.131 6.913 19.468 19.468 0 012.392 9.49 18.046 18.046 0 01-3.075 10.268zM338.199 86.45a5.408 5.408 0 00-3.974-1.614h-13.084v11.419h13.084a5.324 5.324 0 003.974-1.667 5.654 5.654 0 001.627-4.088 5.502 5.502 0 00-1.627-4.05zm33.207-15.74h53.692v14.842h-33.74v8.542h28.873v14.199H391.35v9.445h34.377v14.834h-54.321V70.711z" fill="#151515"/><path d="M165.75 162.105a8.145 8.145 0 01-8.765 0 4.543 4.543 0 01-1.544-3.736v-7.085h3.824v7.032c-.036.58.155 1.15.532 1.592a2.328 2.328 0 003.127 0 2.279 2.279 0 00.539-1.584v-7.032h3.832v7.084a4.545 4.545 0 01-.334 2.045 4.546 4.546 0 01-1.211 1.684zm12.154-10.791h4.739l-4.274 4.88 4.364 6.98h-4.499l-2.474-4.349-2.077 1.696v2.653h-3.824v-11.86h3.824v5.097l4.221-5.097zm17.051 5.598a3.322 3.322 0 01-1.71 1.293l2.647 4.969h-4.289l-2.114-4.327h-1.417v4.327h-3.824v-11.859h7.288a4.51 4.51 0 012.182.485c.578.3 1.055.763 1.372 1.331.302.558.459 1.182.457 1.816.009.7-.198 1.386-.592 1.965zm-3.614-2.586a1.05 1.05 0 00-.75-.306h-2.512v2.19h2.512a1.024 1.024 0 00.75-.322 1.127 1.127 0 000-1.562zm14.336 8.848l-.503-1.674h-4.138l-.503 1.674h-3.906l4.341-11.86h4.446l4.342 11.86h-4.079zm-3.892-4.327h2.58l-1.245-4.222h-.067l-1.268 4.222zm9.545 4.327v-11.86h3.824v11.86h-3.824zm15.063 0l-5.001-5.762v5.762h-3.509v-11.86h3.336l5.001 5.844v-5.844h3.509v11.86h-3.336zm5.892-11.86h10.295v2.855h-6.471v1.637h5.533v2.727h-5.533v1.809h6.59v2.847h-10.414v-11.875zm14.187 5h-1.2l-.817-2.466v-2.534h2.819v2.534l-.802 2.466zm11.862-4.29a3.115 3.115 0 011.499 2.735v.209h-3.583v-.052a1.115 1.115 0 00-.383-.859 1.648 1.648 0 00-1.154-.344 2.466 2.466 0 00-1.17.224.654.654 0 00-.405.553.744.744 0 00.555.688c.577.207 1.172.362 1.777.463a20.95 20.95 0 012.362.613c.617.211 1.173.57 1.619 1.046.482.54.736 1.243.712 1.965a3.582 3.582 0 01-1.394 3.124 6.463 6.463 0 01-3.809 1.016 8.413 8.413 0 01-4.334-.934c-1.034-.622-1.552-1.721-1.552-3.295h3.614a1.323 1.323 0 00.472 1.203c.446.231.947.335 1.448.299.408.01.815-.043 1.207-.157a.617.617 0 00.472-.635c0-.292-.172-.501-.525-.65a11.167 11.167 0 00-1.724-.456 18.79 18.79 0 01-2.4-.643 4.076 4.076 0 01-1.664-1.113 2.986 2.986 0 01-.75-2.108 3.143 3.143 0 011.5-2.869 7.278 7.278 0 013.831-.92 6.989 6.989 0 013.779.897zm19.066-.344a2.94 2.94 0 011.192 1.046c.292.444.446.964.443 1.495a2.584 2.584 0 01-1.987 2.765v.067a2.724 2.724 0 011.723 1.047c.419.557.607 1.252.526 1.942a3.02 3.02 0 01-.457 1.644 3.138 3.138 0 01-1.26 1.114 3.87 3.87 0 01-1.747.396h-8.022v-11.882h7.925a3.695 3.695 0 011.664.366zm-5.751 4.252h2.625a.844.844 0 00.637-.269.94.94 0 00.247-.665v-.172a.854.854 0 00-.262-.642.83.83 0 00-.622-.269h-2.625v2.017zm0 4.484h2.902a.842.842 0 00.637-.269.94.94 0 00.248-.665v-.172a.945.945 0 00-.248-.665.83.83 0 00-.637-.262h-2.902v2.033zm9.613-9.102h10.294v2.855h-6.47v1.637h5.533v2.727h-5.533v1.809h6.59v2.847h-10.414v-11.875zm21.256.71a3.128 3.128 0 011.499 2.735v.209h-3.583v-.052a1.112 1.112 0 00-.383-.859 1.666 1.666 0 00-1.155-.344 2.464 2.464 0 00-1.169.224.647.647 0 00-.405.553.742.742 0 00.547.687c.58.207 1.178.362 1.785.464a20.95 20.95 0 012.362.613 4.076 4.076 0 011.619 1.046c.482.539.735 1.244.705 1.965a3.58 3.58 0 01-1.425 3.124 6.477 6.477 0 01-3.816 1.016 8.453 8.453 0 01-4.334-.934c-1.029-.623-1.544-1.721-1.544-3.295h3.614a1.338 1.338 0 00.464 1.203 2.75 2.75 0 001.455.299c.406.011.811-.042 1.2-.157a.622.622 0 00.48-.636c0-.291-.173-.5-.525-.65a11.41 11.41 0 00-1.725-.456 19.273 19.273 0 01-2.407-.642 4.098 4.098 0 01-1.657-1.114 2.98 2.98 0 01-.749-2.107 3.133 3.133 0 01.351-1.642c.264-.505.661-.93 1.148-1.228a7.292 7.292 0 013.832-.919 6.988 6.988 0 013.816.897zm10.579 2.324v8.826h-3.823v-8.826h-3.907v-3.034h11.622v3.034h-3.892zm20.042-2.525c.571.329 1.038.81 1.35 1.39.327.613.495 1.3.487 1.995v.224a4.174 4.174 0 01-.487 2.003 3.596 3.596 0 01-1.35 1.405 3.838 3.838 0 01-1.972.508h-2.849v3.826h-3.824v-11.86h6.673a3.758 3.758 0 011.972.509zm-4.821 4.745h1.574a1.227 1.227 0 00.908-.306 1.173 1.173 0 00.3-.845v-.142a1.14 1.14 0 00-.3-.852 1.238 1.238 0 00-.908-.299h-1.574v2.444zm19.365.343a3.32 3.32 0 01-1.709 1.293l2.647 4.97h-4.297l-2.107-4.327H340.8v4.327h-3.823v-11.86h7.265a4.505 4.505 0 012.189.486 3.248 3.248 0 011.365 1.33c.307.556.467 1.181.465 1.816a3.466 3.466 0 01-.578 1.965zm-3.614-2.585a1.065 1.065 0 00-.749-.307h-2.505v2.19h2.505a1.023 1.023 0 00.749-.322 1.148 1.148 0 000-1.561zm17.035-1.652a7.065 7.065 0 011.679 4.57 7.065 7.065 0 01-1.679 4.57 7.993 7.993 0 01-9.507 0 7.105 7.105 0 010-9.155 8.001 8.001 0 019.507 0v.015zm-6.628 2.018a2.941 2.941 0 00-.637 1.995v1.106a2.984 2.984 0 00.637 2.003 2.33 2.33 0 001.867.747 2.366 2.366 0 001.882-.747c.451-.568.68-1.279.645-2.003v-1.106a2.98 2.98 0 00-.645-1.995 2.357 2.357 0 00-1.882-.747 2.345 2.345 0 00-1.867.747zm21.758 2.549c0 3.955-2.081 5.933-6.245 5.933h-5.151v-11.86h5.151c4.164 0 6.245 1.976 6.245 5.927zm-7.572 3.086h1.259c1.605 0 2.407-.852 2.407-2.571v-1.031c0-1.709-.802-2.566-2.407-2.571h-1.259v6.173zm19.936 1.778a8.146 8.146 0 01-8.765 0 4.543 4.543 0 01-1.544-3.736v-7.085h3.823v7.032a2.313 2.313 0 00.533 1.592 2.326 2.326 0 003.126 0 2.28 2.28 0 00.54-1.584v-7.032h3.824v7.084a4.525 4.525 0 01-1.537 3.729zm13.955-9.684a4.694 4.694 0 011.544 3.773h-3.621a2.343 2.343 0 00-.548-1.644 1.952 1.952 0 00-1.544-.597 2.026 2.026 0 00-1.71.747 3.321 3.321 0 00-.539 2.018v1.106c-.041.71.148 1.414.539 2.01a1.962 1.962 0 001.672.747 2.249 2.249 0 001.68-.568 2.24 2.24 0 00.57-1.607h3.531a4.671 4.671 0 01-1.499 3.737 6.287 6.287 0 01-4.229 1.293c-2.032 0-3.569-.523-4.611-1.555-1.042-1.031-1.567-2.563-1.567-4.588s.525-3.55 1.567-4.588c1.042-1.039 2.579-1.547 4.611-1.547a6.24 6.24 0 014.154 1.263zm10.443 1.927v8.826h-3.824v-8.826h-3.906v-3.034h11.621v3.034h-3.891zm14.389-2.324a3.115 3.115 0 011.499 2.735v.209H425.3v-.052a1.114 1.114 0 00-.382-.859 1.65 1.65 0 00-1.155-.344 2.464 2.464 0 00-1.169.224.654.654 0 00-.405.553.744.744 0 00.555.688c.577.207 1.172.362 1.777.463.798.158 1.587.363 2.361.613a4.038 4.038 0 011.62 1.046 2.81 2.81 0 01.75 1.965 3.585 3.585 0 01-1.432 3.124 6.465 6.465 0 01-3.809 1.016 8.411 8.411 0 01-4.334-.934c-1.035-.622-1.552-1.721-1.552-3.295h3.614a1.323 1.323 0 00.472 1.203 2.72 2.72 0 001.447.299 3.98 3.98 0 001.208-.157.624.624 0 00.472-.635c0-.292-.173-.501-.525-.65a11.167 11.167 0 00-1.724-.456 18.746 18.746 0 01-2.4-.643 4.076 4.076 0 01-1.664-1.113 2.986 2.986 0 01-.75-2.108 3.143 3.143 0 011.5-2.869 7.278 7.278 0 013.831-.92 6.989 6.989 0 013.779.897z" fill="#fff"/></g><defs><clipPath id="clip0_476_570"><path fill="#fff" transform="translate(.846 .226)" d="M0 0h467.154v170.548H0z"/></clipPath></defs></svg>