<svg width="281" height="48" fill="none" xmlns="http://www.w3.org/2000/svg"><g clip-path="url(#clip0_476_498)"><path d="M.004 16.727H132v24.24H.004v-24.24z" fill="#FFD400"/><path d="M38.267 15.425c-.026-.023-.051-.023-.075-.048l.05-.048.048.048c-.023.025-.023.025-.023.048zm-.445-3.03l-.098-.049c.024-.073.049-.17.074-.244.024 0 .075.023.098.023a6.272 6.272 0 00-.074.27zm-1.157-.366c-.049 0-.074-.026-.123-.026-.025-.195-.05-.366-.074-.658.212.023.368.023.591.048-.148.201-.28.414-.394.636zm-.074-2.714c-.026.1-.026.173-.049.27h-.074c0-.1-.026-.196-.026-.27.05-.023.1 0 .149 0zm-.494-2.2c0-.023-.023-.023-.023-.048s.023-.025.049-.025c.025 0 .025.025.025.05a.091.091 0 00-.05.023zm-.074 1.473h-.098c0-.1-.025-.221-.025-.32a1.48 1.48 0 01.174-.023 1.38 1.38 0 00-.057.339l.006.004zm-.123 2.35a.568.568 0 01-.123-.075.377.377 0 00.049-.121c.053.026.096.07.123.121 0 0-.049.04-.049.074zm-.424-6.454c-.322 0-.248-.292-.322-.513.371-.048.469.099.494.343-.02.04-.117.162-.165.162l-.007.008zm-.37 7.797l-.212-.147c0-.023.025-.049.025-.072.1.023.172.049.271.072l-.084.147zm-.34-6.779c-.211-.145-.17-.292.075-.584.049.267.074.42.1.561a.64.64 0 00-.174.023zm-.393 21.21l-.123-.1c.048-.073.1-.147.197-.269l.148.148a1.922 1.922 0 01-.222.22zm0-21.361h-.024l.024-.025v.025zm-.32-1.472c.443.195.443.195.616.708-.074 0-.197.05-.212.026-.207-.185-.478-.356-.404-.724v-.01zm-.197 1.49l-.026-.048h.051l-.025.049zm-.149 19.309l-.048-.049c.025-.025.025-.025.048-.025.024 0 .026.025.05.05-.024.01-.024.01-.05.034v-.01zm-.423-7.307l.148-.074c.074.171.159.338.254.499-.05.025-.074.05-.125.073-.1-.17-.199-.34-.273-.488l-.004-.01zm.296-12.733h.172v.513c-.364-.162-.29-.332-.168-.503l-.004-.01zm-1.203 17.867c-.026-.025-.049-.074-.074-.097l.296-.21c.024.048.075.096.098.147-.098.046-.197.12-.32.16zm.148 17.915c-.074-.05-.123-.099-.197-.147a.44.44 0 01.172-.048c.025 0 .05.071.074.096a.198.198 0 00-.049.108v-.009zm.123-35.218l.025.048h-.025v-.048zm-.494 12.707s-.072-.048-.072-.071a.479.479 0 01.098-.124l.1.099a.457.457 0 00-.126.105v-.009zm-.197-14.247c-.048-.074-.122-.122-.171-.196l.074-.073a.632.632 0 00.172.195c-.024.057-.04.082-.075.082v-.008zm0 36.098a.147.147 0 01.026-.1c.003.02.011.038.025.051 0 .04-.017.04-.05.057v-.008zM30.11 2.888a.08.08 0 01-.049-.025v-.196h.075a.349.349 0 01-.026.221zm-.394 3.155l-.025-.025h.025v.025zm-3.203 32.772c-.026-.025-.049-.025-.049-.05s.023-.072.023-.122c.023.02.048.037.074.05 0 .049-.023.072-.048.122zm-13.06-7.796l.026-.049.024.049h-.05zm-.122 4.032c-.074-.074-.148-.122-.223-.196l.1-.097c.074.074.123.145.197.21l-.074.083zm-.443-10.264c.02-.15.053-.296.098-.44.048 0 .1.023.148.023-.026.148-.074.295-.1.44-.048.008-.097-.023-.146-.023zm-.468.17h-.131v-.366a.447.447 0 01.173.023c-.004.116-.018.23-.042.343zm-.322-2.761a.165.165 0 01.125-.1c.023 0 .072.074.123.125-.074.048-.123.097-.174.122-.023-.025-.095-.122-.074-.147zm-.098.782a4.01 4.01 0 01-.542-.074v-.17a4.12 4.12 0 01.543-.074c.048 0 .148.122.148.17 0 .05-.1.148-.148.148zm-.27 7.82a.05.05 0 01-.049-.048.21.21 0 00.048-.097c.026.023.026.071.049.097.023.025-.049.048-.049.048zm-.289-5.719c-.023 0-.049-.073-.072-.096a.365.365 0 00.072-.1.546.546 0 00.1.148.183.183 0 01-.1.048zm.042 6.89l-.05-.048.05-.048.05.048c-.026.002-.026.025-.05.048zm-.254-12.12a1.99 1.99 0 00.322-.17c.024.048.049.073.049.121-.123.049-.222.122-.345.172a1.029 1.029 0 00-.026-.123zm-.146-1.223c0-.023.049-.096.072-.096.06.028.118.06.174.096-.074.051-.1.1-.148.125a.48.48 0 01-.091-.125h-.007zm.424.612a.91.91 0 01-.172.049.514.514 0 01-.074-.122.183.183 0 01.1-.049c.023 0 .08.049.146.122zm.05-10.631a.21.21 0 01.098.048c-.025.025-.049.025-.097.05l-.051-.05.05-.048zm-.518 13.368c-.075.368-.543.782-.886.93-.148.048-.271.21-.394.342-.148-.465-.1-.612.197-.93a.63.63 0 00.146-.464c-.074-.27-.271-.097-.424-.074-.05 0-.1-.071-.247-.145a6.285 6.285 0 011.01-.709c.123-.073.345.097.517.145.051.49-.343.196-.54.343-.003.14.004.282.023.42h.576a.146.146 0 01.022.142zm-.543 1.857a.213.213 0 01-.171-.145c-.026-.049.074-.122.1-.196.071.049.17.097.32.196-.124.08-.175.145-.249.145zm-.212 1.712c-.025-.025-.048-.025-.048-.048a.18.18 0 01.048-.1.089.089 0 01.05.026.195.195 0 01-.058.122h.008zm-.148 3.887c-.025-.025-.025-.025-.025-.05 0-.026.025-.024.05-.05l.05.05c-.041.025-.058.05-.083.05h.008zm-.212-11.709c.026.196.271.368.026.782a22.01 22.01 0 00-.172-.731c.03-.026.078-.026.127-.05h.02zm4.237-2.492c0 .025.024.025.024.048s-.024.025-.049.025-.025-.025-.025-.048a.08.08 0 00.034-.025h.016zm.246-9.702l.369.21c-.024.048-.074.097-.098.145l-.313-.233a.14.14 0 01.042-.122zm24.525 4.105c-.026-.074.023-.17.023-.27a5.768 5.768 0 00-.123-.952c-.171-.66-.394-1.296-.616-1.954a8.87 8.87 0 00-.468-1.003c-.123-.27-.344-.513-.395-.806-.097-.44-.245-.782-.714-.904l.075-.709-.636-.073-.148.22a2.286 2.286 0 01-.212.17c-.148-.317-.197-.56.197-.611.222-.023.345-.122.32-.341-.026-.219-.218-.318-.483-.297a18.9 18.9 0 01-.098.631c-.171-.317-.296-.513-.394-.708-.394 0-.764-.023-1.01-.341-.14-.19-.352-.423-.564-.484-.322-.097-.69-.048-.888-.42a1.29 1.29 0 00-.444.145 2.469 2.469 0 00-.246.124 1.825 1.825 0 00-.328-.312c-.198.097-.494.293-.543.244-.345-.294-.443.049-.565.21a5.279 5.279 0 00-.424.857c-.197.147-.394.195-.469.317-.222.343-.345.758-.59 1.052a1.244 1.244 0 00-.346.953c0 .073-.074.147-.123.21a1.777 1.777 0 00-.235 1.519c.006.148-.011.296-.05.44a8.28 8.28 0 00-.246 1.124c-.123 1.052-.223 2.127-.346 3.178l-.212 2.566c-.072.684-.123 1.367-.212 2.053-.1.587-.27 1.174-.345 1.758-.172 1.296-.32 2.592-.443 3.887-.05.539-.1 1.075-.1 1.613 0 .783.075 1.588.05 2.37-.05 1.076-.492 2.079-.789 3.105-.123.366-.32.709-.423 1.1-.123.465-.197.978-.295 1.44-.049.247-.049.54-.212.686-.2.227-.328.507-.368.806-.074.244-.074.587-.212.734-.468.44-.492 1.026-.714 1.54-.297.66-.394 1.392-.814 2.052-.296.44-.423 1.002-.59 1.54a5.87 5.87 0 01-.494 1.052c-.147.267-.424.366-.566.586a1.432 1.432 0 01-1.947.366c-.616-.42-1.33-.708-1.695-1.417-.025-.074-.125-.122-.197-.148-.345-.096-.519-.39-.74-.63a6.971 6.971 0 01-1.258-2.297 36.731 36.731 0 01-.934-2.86 11.267 11.267 0 01-.424-2.028c-.1-.783-.148-1.59-.173-2.396-.024-1.417-.344-2.835-.212-4.253.023-.269-.149-.561-.212-.84.1-.148.271-.293.296-.466.123-.805.147-1.613.295-2.395.148-.841-.074-1.735.37-2.524.024-.025 0-.099.024-.124.1-.61.212-1.197.32-1.807.148-.93.296-1.893.424-2.812.1-.83.173-1.636.245-2.467.051-.465-.023-.978.1-1.417.123-.44.074-.71-.271-.979-.026-.025-.026-.073-.049-.121l.458-.333c0-.538-.026-1.123 0-1.71.048-.782.296-1.516.32-2.299a2.47 2.47 0 00-.469-1.636A7.383 7.383 0 0114.54.884c-.123 0-.32.048-.424 0a4.95 4.95 0 00-1.33-.562c-.346-.099-.691-.318-.937 0-.212.244-.636.44-.517.904l-.021.036v-.036c-.098.097-.246.196-.271.318-.075.27-.075.538-.147.806-.296 1.003-.074 2.103-.542 3.08-.025.072.023.171.023.245-.048.782-.048 1.562-.146 2.345-.097.782-.445 1.565-.199 2.396.025.073-.049.17-.072.243a1.85 1.85 0 00-.1.514c.026 1.222-.245 2.42-.394 3.617-.122.953-.32 1.893-.423 2.835-.104.943-.098 1.906-.146 2.86v.318c-.026.61-.075 1.197-.075 1.807 0 .27.05.564.075.841.072.61.171 1.197.197 1.807.048.978.048 1.956.072 2.945.009.32.042.638.1.952.073.44.222.88.27 1.321.123 1.172.271 2.314.714 3.42.047.127.08.258.1.391.163.692.403 1.364.714 2.005.32.683.59 1.417.962 2.078.358.668.784 1.3 1.27 1.882.666.78 1.43 1.489 2.07 2.313.346.465.848.808 1.282 1.2.046.05.106.083.172.096.519-.195.74.246 1.036.465.665.465 1.33.93 2.167 1.051.297.049.543.27.848.366.433.15.878.264 1.33.343.32.074.689-.073 1.01.17.075.049.246-.023.344-.048.097-.025.212-.099.322-.073.345.048.688.073.862.488a.465.465 0 00.394.246c.443-.074.636.317.96.44.05-.074.125-.148.197-.245.345.072.665.17.716.585-.123.124-.248.196-.345.294.294.026.74.27.565-.342.346-.196-.146-.537.149-.783.148.1.296.221.468.343.222-.42.636-.734.568-1.222.294-.074.565-.196.811-.17.396.048.617-.244.936-.343.32-.099.051-.366.198-.465.37-.21.739-.44 1.133-.658.125-.074.322-.124.322-.196 0-.42.665-.513.517-1.026-.026-.05.123-.147.172-.246.075-.117.14-.24.197-.366.05-.122.074-.27.123-.392.099-.17.322-.317.322-.487.023-.421.294-.613.635-.808a.503.503 0 01.148-.684.952.952 0 00.295-.561c.05-.631.074-.709.424-1.1.074-.099.173-.246.148-.343-.049-.27.123-.391.222-.587.172-.292.468-.513.468-.879a.804.804 0 01.246-.63 1.26 1.26 0 00.346-.809c-.026-.63.245-1.123.614-1.587.374-.522.58-1.144.593-1.784a1.233 1.233 0 01.295-.808c.048-.317.1-.513.122-.683 0-.049.05-.148.026-.173-.271-.244-.049-.488.025-.709.024-.096.098-.21.072-.267-.27-.563.125-1.051.248-1.54.098-.39.246-.733.246-1.15 0-.34-.025-.708.369-.879a1.425 1.425 0 01-.468-1.222c.074-.587.321-1.173.199-1.71-.248-1.222.122-2.347.197-3.52.023-.463.048-.905.072-1.368 0-.122-.024-.269-.024-.39 0-.687.197-1.37.075-2.079a3.506 3.506 0 01-.051-.879c.074-.587.27-1.148.248-1.735-.047-1.02.267-2.047.004-3.073z" fill="#005BBB"/><path d="M59.726 21.47c1.514 1.292 2.271 3.135 2.271 5.532h-5.381c0-1.013-.268-1.814-.803-2.404-.535-.59-1.296-.886-2.282-.888-1.14 0-1.977.355-2.512 1.064-.536.71-.805 1.697-.81 2.962v1.62c0 1.248.268 2.23.803 2.944.535.713 1.356 1.072 2.462 1.075 1.086 0 1.91-.281 2.472-.842.563-.56.845-1.345.848-2.353h5.203c0 2.383-.735 4.206-2.205 5.468-1.47 1.262-3.549 1.893-6.235 1.893-2.992 0-5.257-.76-6.797-2.278s-2.308-3.762-2.307-6.73c0-2.97.77-5.213 2.307-6.73 1.538-1.518 3.804-2.273 6.797-2.268 2.601 0 4.658.645 6.169 1.935zm17.059 15.783l-.73-2.455h-6.143l-.74 2.455H63.41l6.4-17.415h6.543l6.4 17.415h-5.968zm-5.72-6.352h3.8l-1.837-6.203h-.101l-1.862 6.203zm29.586-2.835a4.997 4.997 0 01-2.524 1.893l3.901 7.29h-6.322l-3.112-6.352h-2.091v6.351h-5.636v-17.41h10.735a6.707 6.707 0 013.227.721 4.875 4.875 0 012.014 1.946 5.45 5.45 0 01.676 2.67 5.071 5.071 0 01-.868 2.89zm-5.329-3.799a1.529 1.529 0 00-1.123-.454h-3.696v3.214H94.2a1.509 1.509 0 001.122-.47 1.59 1.59 0 00.46-1.15 1.543 1.543 0 00-.46-1.14zm9.385-4.429h15.171v4.177h-9.533v2.404h8.158v3.996h-8.161v2.659h9.714v4.175h-15.349V19.837zM46.596 45.56a2.309 2.309 0 01-2.477 0 1.277 1.277 0 01-.436-1.052v-1.993h1.08v1.979a.629.629 0 00.15.448.66.66 0 00.884 0 .641.641 0 00.153-.446v-1.98h1.082v1.995a1.27 1.27 0 01-.436 1.05zm3.435-3.037h1.339l-1.208 1.374 1.233 1.964h-1.27l-.7-1.224-.587.478v.746h-1.08v-3.338h1.08v1.435l1.193-1.435zm4.817 1.575a.938.938 0 01-.483.364l.747 1.399h-1.211l-.598-1.218h-.4v1.218h-1.08v-3.338h2.059c.213-.007.425.04.616.137a.935.935 0 01.388.374c.085.157.13.333.129.511a.958.958 0 01-.167.553zm-1.022-.727a.296.296 0 00-.211-.087h-.71v.617h.71a.285.285 0 00.211-.09.317.317 0 000-.44zm4.051 2.49l-.142-.47h-1.169l-.142.47H55.32l1.227-3.338h1.256l1.227 3.338h-1.153zm-1.1-1.217h.73l-.352-1.189h-.02l-.357 1.189zm2.698 1.217v-3.338h1.08v3.338h-1.08zm4.255 0l-1.412-1.621v1.621h-.992v-3.338h.943l1.413 1.645v-1.645h.992v3.338h-.943zm1.667-3.338h2.908v.804h-1.828v.46h1.563v.768h-1.563v.51h1.862v.8h-2.942v-3.342zm4.007 1.407h-.34l-.23-.694v-.713h.797v.713l-.227.695zm3.353-1.207a.878.878 0 01.424.77v.06h-1.013v-.016a.312.312 0 00-.108-.242.469.469 0 00-.326-.096.697.697 0 00-.33.063.184.184 0 00-.115.155.21.21 0 00.157.194c.163.058.33.102.502.13.225.045.448.102.667.173.175.06.332.16.458.294a.79.79 0 01.201.553 1.004 1.004 0 01-.394.88 1.84 1.84 0 01-1.076.286 2.388 2.388 0 01-1.225-.263c-.292-.175-.438-.485-.438-.928h1.02a.372.372 0 00.134.339.77.77 0 00.41.084c.115.003.23-.012.34-.044a.176.176 0 00.134-.179c0-.082-.049-.14-.149-.183a3.2 3.2 0 00-.487-.128 5.303 5.303 0 01-.678-.181 1.148 1.148 0 01-.47-.314.837.837 0 01-.212-.593.879.879 0 01.424-.807c.33-.184.704-.273 1.082-.259a1.99 1.99 0 011.068.252zm5.386-.096a.83.83 0 01.337.294.753.753 0 01.125.42.724.724 0 01-.561.779v.019a.77.77 0 01.487.294.76.76 0 01.148.547.85.85 0 01-.129.463.886.886 0 01-.356.313 1.097 1.097 0 01-.493.112h-2.267v-3.344h2.239a1.03 1.03 0 01.47.103zm-1.625 1.196h.742a.243.243 0 00.18-.075.263.263 0 00.07-.188v-.048a.24.24 0 00-.074-.18.232.232 0 00-.176-.077h-.742v.568zm0 1.262h.82a.24.24 0 00.18-.075.264.264 0 00.07-.188v-.048a.266.266 0 00-.07-.187.239.239 0 00-.18-.074h-.82v.572zm2.716-2.562h2.91v.804h-1.83v.46h1.564v.768h-1.563v.51h1.862v.8h-2.943v-3.342zm6.006.2a.881.881 0 01.424.77v.059h-1.013v-.015a.312.312 0 00-.108-.242.473.473 0 00-.326-.097.697.697 0 00-.33.063.185.185 0 00-.115.156.21.21 0 00.155.194 3 3 0 00.504.13c.226.044.448.102.667.172.174.06.331.162.458.295a.78.78 0 01.2.553 1 1 0 01-.403.88 1.841 1.841 0 01-1.079.285 2.398 2.398 0 01-1.224-.263c-.291-.175-.437-.484-.437-.927h1.021a.376.376 0 00.132.338.778.778 0 00.41.084c.115.004.23-.011.34-.044a.176.176 0 00.135-.178c0-.083-.048-.141-.148-.183a3.2 3.2 0 00-.487-.129 5.446 5.446 0 01-.68-.18 1.155 1.155 0 01-.468-.314.838.838 0 01-.212-.593.88.88 0 01.423-.808c.33-.183.705-.273 1.083-.258.376-.02.75.067 1.078.252zm2.991.654v2.484h-1.08v-2.484h-1.104v-.854h3.284v.854h-1.1zm5.663-.711a1 1 0 01.381.39c.093.174.14.367.138.563v.063c.002.196-.045.39-.138.563-.088.165-.22.301-.381.396-.17.096-.362.146-.557.143h-.805v1.077h-1.08v-3.338h1.885c.195-.005.388.045.557.143zM92.532 44h.445a.35.35 0 00.256-.086.33.33 0 00.085-.238v-.04a.32.32 0 00-.085-.24.347.347 0 00-.257-.084h-.444V44zm5.472.099a.938.938 0 01-.483.363l.748 1.399h-1.214l-.596-1.218h-.4v1.218h-1.08v-3.338h2.052c.215-.007.428.04.619.137a.916.916 0 01.386.374 1.046 1.046 0 01-.032 1.065zm-1.021-.728a.302.302 0 00-.212-.087h-.708v.617h.708a.29.29 0 00.212-.09.322.322 0 000-.44zm4.812-.465a1.98 1.98 0 010 2.572 2.263 2.263 0 01-2.686 0 1.996 1.996 0 010-2.576 2.265 2.265 0 012.686 0v.004zm-1.873.568a.825.825 0 00-.18.561v.312a.837.837 0 00.18.563.66.66 0 00.528.21.672.672 0 00.532-.21.84.84 0 00.182-.563v-.312a.84.84 0 00-.182-.561.673.673 0 00-.532-.21.663.663 0 00-.528.21zm6.148.717c0 1.114-.588 1.67-1.765 1.67h-1.455v-3.338h1.455c1.177 0 1.765.556 1.765 1.668zm-2.14.869h.356c.453 0 .68-.24.68-.724v-.29c0-.48-.227-.722-.68-.723h-.356v1.737zm5.635.5a2.311 2.311 0 01-2.477 0 1.265 1.265 0 01-.436-1.052v-1.993h1.08v1.979a.652.652 0 00.15.448.66.66 0 00.884 0 .638.638 0 00.152-.446v-1.98h1.081v1.995a1.283 1.283 0 01-.434 1.05zm3.942-2.726c.149.133.265.298.34.482.076.184.109.382.097.58h-1.024a.656.656 0 00-.154-.462.552.552 0 00-.437-.169.574.574 0 00-.483.21.936.936 0 00-.152.569v.31a.93.93 0 00.152.567.56.56 0 00.473.21.642.642 0 00.474-.16.623.623 0 00.161-.452h.998a1.307 1.307 0 01-.424 1.052c-.34.26-.765.39-1.194.363-.575 0-1.009-.147-1.303-.437-.295-.29-.443-.722-.443-1.291 0-.57.148-1 .443-1.292.294-.292.728-.435 1.303-.435.421-.025.838.1 1.173.355zm2.951.543v2.484h-1.081v-2.484h-1.104v-.854h3.284v.854h-1.099zm4.065-.654a.872.872 0 01.423.77v.06h-1.012v-.016a.32.32 0 00-.108-.242.47.47 0 00-.327-.096.695.695 0 00-.33.063.178.178 0 00-.114.156.21.21 0 00.156.193c.163.058.331.102.502.13a5.9 5.9 0 01.668.173c.174.06.331.16.457.294a.79.79 0 01.212.553 1.01 1.01 0 01-.404.88c-.32.204-.697.304-1.077.286a2.387 2.387 0 01-1.224-.263c-.293-.175-.439-.485-.439-.928h1.021a.383.383 0 00.023.187.37.37 0 00.111.152.77.77 0 00.409.084c.115.003.23-.012.341-.044a.173.173 0 00.133-.179c0-.082-.048-.14-.148-.183a3.221 3.221 0 00-.487-.128 5.265 5.265 0 01-.678-.181 1.15 1.15 0 01-.471-.314.835.835 0 01-.211-.593.873.873 0 01.099-.462.894.894 0 01.324-.345c.33-.184.705-.273 1.083-.259a1.99 1.99 0 011.068.252z" fill="#151515"/></g><path d="M159 23h-6v-6a.998.998 0 00-1-1 1 1 0 00-1 1v6h-6a1 1 0 100 2h6v6a.998.998 0 001 1 1 1 0 001-1v-6h6a1 1 0 100-2z" fill="#fff"/><rect x="172" y="1" width="109" height="46" rx="4" fill="#001E35"/><path d="M182.737 22.017V11.186h8.187v2.166h-5.821v2.305h5.13v2.167h-5.13v4.193h-2.366zm19.388-1.439c-1.085 1.083-2.447 1.625-4.085 1.625-1.639 0-3.001-.542-4.086-1.625-1.075-1.083-1.613-2.409-1.613-3.977 0-1.557.543-2.878 1.628-3.96 1.096-1.094 2.463-1.641 4.101-1.641 1.639 0 2.996.542 4.071 1.625 1.085 1.083 1.628 2.408 1.628 3.976 0 1.558-.548 2.883-1.644 3.977zm-6.389-1.563c.614.66 1.392.99 2.334.99.942 0 1.716-.325 2.32-.974.604-.66.906-1.47.906-2.43 0-.949-.307-1.753-.922-2.413-.614-.66-1.392-.99-2.334-.99-.942 0-1.716.33-2.32.99-.604.65-.906 1.454-.906 2.413 0 .95.307 1.754.922 2.414zm19.439 1.563c-1.085 1.083-2.447 1.625-4.085 1.625-1.639 0-3.001-.542-4.086-1.625-1.075-1.083-1.613-2.409-1.613-3.977 0-1.557.543-2.878 1.628-3.96 1.096-1.094 2.463-1.641 4.101-1.641 1.639 0 2.995.542 4.071 1.625 1.085 1.083 1.628 2.408 1.628 3.976 0 1.558-.548 2.883-1.644 3.977zm-6.389-1.563c.614.66 1.392.99 2.334.99.942 0 1.715-.325 2.32-.974.604-.66.906-1.47.906-2.43 0-.949-.307-1.753-.922-2.413-.614-.66-1.392-.99-2.334-.99-.943 0-1.716.33-2.32.99-.604.65-.906 1.454-.906 2.413 0 .95.307 1.754.922 2.414zm10.131 3.002V11.186h4.193c1.68 0 3.052.515 4.117 1.547 1.065 1.021 1.597 2.31 1.597 3.868 0 1.548-.537 2.837-1.613 3.869-1.064 1.031-2.432 1.547-4.101 1.547h-4.193zm2.366-2.15h1.827c.973 0 1.757-.3 2.35-.898.594-.609.891-1.398.891-2.368 0-.96-.302-1.743-.906-2.352-.594-.608-1.372-.913-2.335-.913h-1.827v6.53zm11.538 2.15v-8.634h-3.272v-2.197h8.909v2.197h-3.272v8.634h-2.365zm7.456 0V11.186h8.11v2.12h-5.76v2.197h5.069v2.12h-5.069v2.274h5.837v2.12h-8.187zm15.328.186c-1.577 0-2.893-.537-3.947-1.61-1.045-1.083-1.567-2.413-1.567-3.992 0-1.568.527-2.893 1.582-3.976 1.055-1.083 2.396-1.625 4.024-1.625.932 0 1.715.155 2.35.464.635.3 1.239.733 1.813 1.3l-1.413 1.64c-.461-.423-.896-.727-1.306-.913-.399-.196-.886-.294-1.459-.294-.901 0-1.649.33-2.243.99-.583.65-.875 1.455-.875 2.414 0 .95.292 1.754.875 2.414.594.66 1.342.99 2.243.99.573 0 1.07-.103 1.49-.31.42-.205.865-.525 1.336-.958l1.505 1.624c-.583.63-1.218 1.094-1.904 1.393-.676.299-1.511.448-2.504.448zm6.302-.186V11.186h2.365v4.286h4.363v-4.286H271v10.83h-2.365V17.67h-4.363v4.348h-2.365zM186.562 37c-1.761 0-3.282-.578-4.562-1.733l1.398-1.687c1.054.877 2.125 1.316 3.21 1.316.481 0 .86-.093 1.137-.279a.882.882 0 00.414-.773c0-.31-.143-.558-.43-.743-.286-.196-.865-.408-1.735-.635a13.736 13.736 0 01-1.49-.448 5.403 5.403 0 01-1.091-.604 2.275 2.275 0 01-.753-.928c-.153-.382-.23-.836-.23-1.362 0-.98.348-1.769 1.045-2.367.706-.599 1.612-.898 2.718-.898 1.526 0 2.857.46 3.994 1.377l-1.229 1.795c-1.014-.711-1.946-1.067-2.795-1.067-.441 0-.784.093-1.03.278a.828.828 0 00-.353.697c0 .35.149.613.446.789.297.175.921.386 1.873.634 1.168.31 2.028.707 2.581 1.192.553.484.829 1.18.829 2.088 0 1.052-.363 1.878-1.09 2.476-.717.588-1.669.882-2.857.882zm6-.155v-10.83h2.366V30.3h4.362v-4.286h2.365v10.831h-2.365v-4.348h-4.362v4.348h-2.366zm11.67 0v-10.83h8.11v2.119h-5.76v2.197h5.069v2.12h-5.069v2.274h5.837v2.12h-8.187zm10.29 0v-10.83h2.366v8.664h5.36v2.166h-7.726zm9.51 0v-10.83h8.187v2.165h-5.821v2.306h5.13v2.166h-5.13v4.193h-2.366z" fill="#fff"/><defs><clipPath id="clip0_476_498"><path fill="#fff" d="M0 0h132v48H0z"/></clipPath></defs></svg>