<svg xmlns="http://www.w3.org/2000/svg"><symbol viewBox="0 0 10 6" id="arrow"><path d="M1 1l4 4 4-4" fill="transparent" xmlns="http://www.w3.org/2000/svg"/></symbol><symbol viewBox="0 0 81 80" id="factoryIcon"><g clip-path="url(#clip0_481_660)"><path d="M55.339 17.233v-5.806c0-1.051.852-1.903 1.902-1.903H68.86c1.05 0 1.902.852 1.902 1.903v5.806c0 .743-.426 1.387-1.047 1.7v12.61a1.902 1.902 0 01-3.805 0v-14.31c0-.743.426-1.387 1.047-1.7V13.33h-7.814v2.204a1.902 1.902 0 011.047 1.7V28.82a1.902 1.902 0 01-3.804 0v-9.889a1.902 1.902 0 01-1.047-1.699zm4.816-11.269c.85.618 2.04.43 2.657-.419 1.197-1.646 2.058-1.474 4.936-.089 2.077 1 4.475 2.154 7.099 2.154 1.515 0 3.106-.385 4.754-1.408a1.902 1.902 0 10-2.007-3.232c-2.593 1.61-4.804.69-8.196-.942C67.99 1.35 66.536.65 64.928.565c-2.042-.11-3.789.813-5.192 2.742-.618.85-.43 2.04.419 2.657zm20.344 72.133A1.902 1.902 0 0178.597 80H2.402a1.902 1.902 0 010-3.805h2.86v-31.47c0-1.05.852-1.902 1.902-1.902h4.426l1.18-10.373h-1.375a1.902 1.902 0 010-3.805h1.808l.708-6.221H7.208a1.891 1.891 0 01-.994-.254c-.247-.142-.807-.656-.923-1.315a1.902 1.902 0 01.1-1.025l3.617-9.943c.04-.12.107-.226.154-.34.337-.809.852-.877 1.315-.924.125-.013.25-.032.379-.03h4.628l.786-6.906A1.902 1.902 0 0118.16 0h4.954c.967 0 1.78.726 1.89 1.687l.785 6.907h4.628c.129-.004.256.007.381.03.723.126 1.102.477 1.311.92.053.113.115.223.156.344l3.616 9.943c.045.113.078.233.1.356.041.225.032.45 0 .67-.063.438-.358.99-.917 1.31a1.919 1.919 0 01-.999.257h-6.702l.708 6.222h1.808a1.902 1.902 0 010 3.804h-1.376l1.18 10.373h7.654v-12.57a1.902 1.902 0 012.425-1.829l33.335 9.524c.817.234 1.38.98 1.38 1.83v36.418h4.12c1.05 0 1.903.85 1.903 1.901zM19.313 8.594h2.647l-.544-4.79h-1.558l-.545 4.79zm-1.14 10.025H23.1l-.708-6.221H18.88l-.708 6.221zm-1.141 10.026h7.21l-.708-6.221h-5.795l-.707 6.221zM14.343 18.62l.708-6.221h-2.908l-2.263 6.22h4.463zm1.589 28.008H9.067v29.568h6.865V46.627zm1.902-3.804h8.02l-1.18-10.373H16.6l-1.18 10.373h2.415zm8.834 3.804h-6.932v29.568h6.932V46.627zm.262-28.008h4.463l-2.263-6.221h-2.908l.708 6.221zm10.407 28.008h-6.865v29.568h6.865V46.627zm33.335-5.415l-29.53-8.438v43.421h29.53V41.212zm-23.383 24.5h17.236a1.902 1.902 0 100-3.804H47.289a1.902 1.902 0 100 3.805zm0-9.523h17.236a1.902 1.902 0 100-3.805H47.289a1.902 1.902 0 100 3.805z" fill="#0057B8"/></g><defs><clipPath id="clip0_481_660"><path fill="#fff" transform="translate(.5)" d="M0 0h80v80H0z"/></clipPath></defs></symbol><symbol viewBox="0 0 81 80" id="rocketIcon"><g clip-path="url(#clip0_39_448)" fill="#0057B8"><path d="M42.478 38.024a1.563 1.563 0 10-2.21 2.208 1.563 1.563 0 002.21-2.208zm19.886-19.888a7.81 7.81 0 00-11.048 0c-3.046 3.045-3.046 8.001 0 11.049 3.046 3.044 8.003 3.046 11.048 0a7.809 7.809 0 000-11.05zm-2.21 8.839a4.694 4.694 0 01-6.628 0 4.694 4.694 0 010-6.63 4.686 4.686 0 016.629 0 4.685 4.685 0 010 6.63z"/><path d="M80.042.458A1.557 1.557 0 0078.882 0c-.354.013-8.766.35-18.765 3.885-8.012 2.83-14.691 6.88-19.85 12.039a59.454 59.454 0 00-3.358 3.656c-5.1-3.003-9.189-2.062-11.773-.679-5.95 3.185-9.633 11.83-9.633 18.015a1.564 1.564 0 002.668 1.105c3.138-3.138 7.008-2.942 8.273-2.775l.547.547a54.965 54.965 0 00-2.58 7.589 4.423 4.423 0 00.188 2.714c-1.504.693-2.956 1.711-4.22 2.975-4.021 4.022-4.838 13.824-4.87 14.24a1.563 1.563 0 001.68 1.68c.415-.033 10.218-.85 14.24-4.871 1.263-1.264 2.28-2.715 2.974-4.219a4.413 4.413 0 002.715.188 54.968 54.968 0 007.588-2.58l.547.547c.167 1.264.363 5.135-2.775 8.273a1.563 1.563 0 001.105 2.667c6.184 0 14.83-3.683 18.015-9.633 1.383-2.584 2.324-6.672-.679-11.773a59.492 59.492 0 003.656-3.358c5.16-5.16 9.21-11.838 12.039-19.85 3.534-10 3.872-18.411 3.885-18.764a1.562 1.562 0 00-.457-1.161zM18.996 33.557c.971-4.698 3.79-9.852 7.615-11.9 2.556-1.367 5.35-1.233 8.32.393a63.174 63.174 0 00-6.564 10.7c-.023-.014-.305-.367-.827-.485-.215-.048-4.35-.938-8.544 1.291zM29.22 57.91c-2.149 2.148-7.188 3.281-10.374 3.744.463-3.186 1.596-8.225 3.745-10.373 1.203-1.204 2.598-2.116 4-2.63l5.258 5.258c-.514 1.403-1.426 2.798-2.63 4zm7.123-4.848c-.452.116-.976-.054-1.365-.443l-3.06-3.06-4.036-4.036c-.39-.39-.56-.914-.444-1.365a50.733 50.733 0 011.951-5.968L42.31 51.112a50.71 50.71 0 01-5.967 1.95zm22.5.826c-2.046 3.825-7.2 6.644-11.898 7.615 1.498-2.819 1.828-6.406 1.28-8.582-.126-.505-.456-.759-.474-.789a63.202 63.202 0 0010.7-6.565c1.627 2.971 1.76 5.766.393 8.321zm3.524-15.866a56.733 56.733 0 01-4.507 4.043 60.03 60.03 0 01-12.456 7.721l-14.69-14.69a60.024 60.024 0 017.721-12.456 56.724 56.724 0 014.043-4.506c4.629-4.63 10.603-8.313 17.761-10.965l13.093 13.092c-2.652 7.158-6.336 13.132-10.965 17.761zm12.089-21.056L63.534 6.045c5.95-1.848 11.126-2.54 13.71-2.788-.249 2.584-.941 7.76-2.79 13.71z"/><path d="M38.058 64.539c-.61-.61-1.6-.61-2.21 0l-4.419 4.42a1.563 1.563 0 002.21 2.21l4.42-4.42c.61-.61.61-1.6-.001-2.21zM15.962 42.442c-.61-.61-1.6-.61-2.21 0l-4.42 4.419a1.563 1.563 0 002.209 2.21l4.42-4.419c.61-.61.61-1.6 0-2.21zM27.01 66.75c-.61-.61-1.6-.61-2.21 0L14.216 77.332a1.562 1.562 0 102.21 2.21L27.01 68.96c.61-.61.61-1.6 0-2.21zm-12.5 0c-.61-.61-1.6-.61-2.21 0L1.716 77.332a1.562 1.562 0 102.21 2.21L14.51 68.96c.61-.61.61-1.6 0-2.21zm-.76-13.26c-.61-.61-1.6-.61-2.21 0L.959 64.075a1.563 1.563 0 002.21 2.21L13.75 55.7c.61-.61.61-1.6 0-2.21zm35.357-22.097c-.61-.61-1.6-.61-2.21 0l-2.21 2.21a1.563 1.563 0 002.21 2.21l2.21-2.21c.61-.61.61-1.6 0-2.21z"/></g><defs><clipPath id="clip0_39_448"><path fill="#fff" transform="translate(.5)" d="M0 0h80v80H0z"/></clipPath></defs></symbol><symbol viewBox="0 0 81 80" id="globalIcon"><g clip-path="url(#clip0_39_479)" fill="#0057B8"><path d="M72.993 16.67a6.526 6.526 0 001.258-3.858 6.57 6.57 0 00-6.563-6.562c-1.44 0-2.773.468-3.857 1.258C57.008 2.593 48.97 0 40.5 0c-8.308 0-16.275 2.524-23.04 7.298a1.563 1.563 0 001.802 2.553A36.573 36.573 0 0134.265 3.65a20.066 20.066 0 00-1.877 2.908c-1.896 3.522-3.46 8.371-4.55 14.087a6.575 6.575 0 00-5.9 4.981H6.533A36.748 36.748 0 019.87 19.46a1.562 1.562 0 00-2.594-1.742C2.843 24.315.5 32.02.5 40c0 8.466 2.593 16.507 7.507 23.331a6.526 6.526 0 00-1.257 3.856 6.57 6.57 0 006.563 6.563 6.53 6.53 0 003.856-1.257C23.993 77.407 32.033 80 40.5 80c10.684 0 20.73-4.16 28.284-11.716C76.34 60.73 80.5 50.684 80.5 40c0-8.468-2.593-16.507-7.507-23.33zm2.625 34.58H58.956a6.587 6.587 0 00-4.27-4.652c.123-2.171.189-4.383.189-6.598 0-3.863-.187-7.644-.548-11.25h21.31A36.886 36.886 0 0177.375 40c0 3.922-.618 7.702-1.757 11.25zM40.5 76.875c-2.618 0-5.45-3.81-7.578-10.19-1.191-3.576-2.114-7.754-2.736-12.31h16.023a6.589 6.589 0 003.864 4.5c-2.377 12.42-6.475 18-9.573 18zm-27.188-16.25a6.52 6.52 0 00-2.91.683 36.756 36.756 0 01-3.879-6.933h20.512c.65 4.917 1.635 9.435 2.923 13.298 1.238 3.715 2.68 6.62 4.286 8.677a36.412 36.412 0 01-15.052-6.252 6.521 6.521 0 00.683-2.91 6.57 6.57 0 00-6.563-6.563zM29.25 40c0-2.132.063-4.26.18-6.347a6.58 6.58 0 005.255-4.903h16.502c.37 3.593.563 7.375.563 11.25 0 2.125-.062 4.246-.179 6.328a6.58 6.58 0 00-5.361 4.922H29.813A110.24 110.24 0 0129.25 40zm23.333 16.25a3.441 3.441 0 01-3.438-3.438 3.441 3.441 0 013.438-3.437 3.441 3.441 0 013.437 3.438 3.441 3.441 0 01-3.437 3.437zm-1.54-43.923c-1.24-3.715-2.681-6.621-4.287-8.677a36.404 36.404 0 0115.053 6.252 6.521 6.521 0 00-.683 2.91 6.57 6.57 0 006.562 6.563 6.523 6.523 0 002.91-.683 36.727 36.727 0 013.879 6.933H53.965c-.65-4.917-1.635-9.436-2.923-13.298zm20.083.486a3.441 3.441 0 01-3.438 3.437 3.441 3.441 0 01-3.437-3.438 3.441 3.441 0 013.437-3.437 3.441 3.441 0 013.438 3.438zM40.5 3.124c2.618 0 5.45 3.81 7.578 10.19 1.191 3.576 2.114 7.754 2.736 12.31H34.685a6.589 6.589 0 00-3.766-4.459c2.375-12.447 6.477-18.04 9.581-18.04zM28.312 23.75a3.441 3.441 0 013.437 3.438 3.441 3.441 0 01-3.437 3.437 3.441 3.441 0 01-3.438-3.437 3.441 3.441 0 013.438-3.438zm-6.373 5a6.587 6.587 0 004.373 4.688A116.588 116.588 0 0026.125 40c0 3.864.187 7.644.548 11.25H5.363A36.886 36.886 0 013.626 40c0-3.857.595-7.643 1.748-11.25H21.94zM9.875 67.188a3.441 3.441 0 013.438-3.438 3.441 3.441 0 013.437 3.438 3.441 3.441 0 01-3.438 3.437 3.441 3.441 0 01-3.437-3.438zm36.865 9.156a20.06 20.06 0 001.86-2.88c1.902-3.524 3.472-8.385 4.564-14.116a6.576 6.576 0 005.792-4.973h15.501c-4.83 11.368-15.209 19.828-27.717 21.97z"/><path d="M13.01 14.697c.412 0 .813-.166 1.106-.458.29-.29.456-.694.456-1.105 0-.41-.166-.812-.456-1.104a1.577 1.577 0 00-1.107-.458c-.41 0-.814.167-1.104.458-.29.292-.458.693-.458 1.104a1.567 1.567 0 001.563 1.563z"/></g><defs><clipPath id="clip0_39_479"><path fill="#fff" transform="translate(.5)" d="M0 0h80v80H0z"/></clipPath></defs></symbol><symbol viewBox="0 0 81 80" id="storeIcon"><g clip-path="url(#clip0_39_487)" fill="#0057B8"><path d="M2.063 71.83a1.563 1.563 0 000 3.125h76.874a1.563 1.563 0 000-3.125h-3v-8.44a1.563 1.563 0 00-3.124 0v8.44H30.065V48.604c0-.863-.7-1.563-1.562-1.563H14.73c-.863 0-1.562.7-1.562 1.563V71.83h-4.98V41.892a9.325 9.325 0 001.627.13c3.04-.021 5.93-1.587 7.623-4.11 1.705 2.541 4.624 4.111 7.687 4.111 3.06 0 5.985-1.57 7.688-4.111 1.71 2.539 4.62 4.111 7.687 4.111 3.063 0 5.983-1.57 7.688-4.111 1.627 2.426 4.368 3.977 7.29 4.101 3.2.136 6.3-1.443 8.084-4.101 2.014 3.002 5.684 4.585 9.25 3.98v7.774a1.563 1.563 0 003.126 0v-8.923a9.253 9.253 0 004.562-7.97v-8.155c0-2.521-1.898-4.74-4.392-5.127L65.991 6.971a5.164 5.164 0 00-4.035-1.926H19.06a5.162 5.162 0 00-4.057 1.953L5.05 19.482C2.572 19.84.544 22.021.5 24.526v8.247a9.252 9.252 0 004.563 7.97V71.83h-3zm14.23-21.664h10.648V71.83H16.293V50.166zM62 32.773a6.132 6.132 0 01-6.125 6.125 6.132 6.132 0 01-6.125-6.125V31.4H62v1.372zm0-4.497H49.75v-5.72H62v5.72zm15.375 4.497c0 3.335-2.792 6.125-6.125 6.125a6.132 6.132 0 01-6.125-6.125V31.4h12.25v1.372zm0-8.155v3.658h-12.25v-5.72h10.188c1.137 0 2.062.925 2.062 2.062zM61.956 8.17c.626 0 1.21.279 1.604.766l8.48 10.494h-7.549L58.363 8.17h3.593zm-7.15 0l6.127 11.26H49.56L48.092 8.17h6.713zm-18.888 0h9.023l1.467 11.26H34.573l1.345-11.26zm-1.543 14.385h12.25v5.721h-12.25v-5.72zm0 8.846h12.25v1.372a6.132 6.132 0 01-6.125 6.125 6.132 6.132 0 01-6.125-6.125V31.4zm-3.125 1.372a6.132 6.132 0 01-6.125 6.125A6.132 6.132 0 0119 32.773v-.041l-.036-1.33H31.25v1.37zm0-4.497H18.922v-5.72H31.25v5.72zM26.19 8.17h6.58l-1.344 11.26H20l6.19-11.26zm-8.744.777a2.052 2.052 0 011.613-.777h3.566l-6.19 11.26H9.088l8.358-10.483zM3.718 24.58a2.072 2.072 0 012.062-2.026h10.017v5.721H3.718V24.58zm-.093 8.192V31.4h12.213l.037 1.383c-.006 3.324-2.793 6.114-6.125 6.114-3.333 0-6.125-2.79-6.125-6.125z"/><path d="M46.316 49.795H37.84c-.863 0-1.563.7-1.563 1.563v10.365H35.9a1.563 1.563 0 000 3.125h12.357a1.563 1.563 0 000-3.125h-.379V51.358c0-.863-.7-1.563-1.562-1.563zm-1.563 11.928h-5.35V52.92h5.35v8.803zm20.91-11.928h-8.475c-.863 0-1.563.7-1.563 1.563v10.365h-.378a1.563 1.563 0 000 3.125h12.357a1.563 1.563 0 000-3.125h-.379V51.358c0-.863-.7-1.563-1.562-1.563zM64.1 61.723h-5.35V52.92h5.35v8.803zm-46.03-.059a1.574 1.574 0 001.922.969c.867-.264 1.339-1.253.99-2.092-.76-1.825-3.577-.727-2.912 1.123zm55.376-6.585a1.576 1.576 0 00-.35 2.149c.478.687 1.45.866 2.146.403.709-.47.902-1.46.431-2.165-.481-.737-1.526-.908-2.227-.387z"/></g><defs><clipPath id="clip0_39_487"><path fill="#fff" transform="translate(.5)" d="M0 0h80v80H0z"/></clipPath></defs></symbol><symbol viewBox="0 0 88 80" id="retailIcon-1"><g xmlns="http://www.w3.org/2000/svg"><path fill-rule="evenodd" clip-rule="evenodd" d="M41.185.017c8.616-.198 17.507 1.325 23.805 7.242 6.481 6.09 7.64 15.203 9.394 23.949 2.463 12.28 10.544 26.375 2.64 36.054-7.949 9.73-23.332 5.138-35.839 4.594-11.674-.508-24.667.791-32.868-7.582-8.17-8.342-9.026-21.545-6.942-33.066 1.765-9.753 9.29-16.792 17.064-22.883C25.055 3.142 32.802.208 41.185.017z" fill="gold"/><path d="M57.077 42h-3.333v-5a1.666 1.666 0 00-1.667-1.667h-10V32h3.333a1.666 1.666 0 001.667-1.667v-10a1.667 1.667 0 00-1.667-1.666h-10a1.667 1.667 0 00-1.666 1.666v10A1.667 1.667 0 0035.41 32h3.334v3.333h-10A1.666 1.666 0 0027.077 37v5h-3.333a1.667 1.667 0 00-1.667 1.667v10a1.667 1.667 0 001.667 1.666h10a1.667 1.667 0 001.666-1.666v-10A1.667 1.667 0 0033.744 42H30.41v-3.333h20V42h-3.333a1.667 1.667 0 00-1.667 1.667v10a1.667 1.667 0 001.667 1.666h10a1.667 1.667 0 001.667-1.666v-10A1.667 1.667 0 0057.077 42zm-25 3.333V52H25.41v-6.667h6.667zm5-16.666V22h6.667v6.667h-6.667zM55.41 52h-6.666v-6.667h6.666V52z" fill="#0057B8"/></g></symbol><symbol viewBox="0 0 84 80" id="retailIcon-2"><g xmlns="http://www.w3.org/2000/svg"><path fill-rule="evenodd" clip-rule="evenodd" d="M42.312 77.606c12.6-.006 27.512 6.649 36.285-2.396 8.759-9.031 1.862-23.72 1.232-36.285-.575-11.474 3.468-24.738-4.697-32.82-8.153-8.07-21.573-6.57-32.82-4.317C33.25 3.604 26.996 10.54 20.45 17.063 13.885 23.605 7.28 29.931 5.044 38.925c-3.036 12.218-7.785 27.252.95 36.318 8.75 9.082 23.706 2.368 36.318 2.363z" fill="gold"/><path d="M38.664 28.333a1.667 1.667 0 100 3.334 1.667 1.667 0 000-3.334zm-6.667 0a1.667 1.667 0 100 3.334 1.667 1.667 0 000-3.334zm13.333 0a1.667 1.667 0 100 3.334 1.667 1.667 0 000-3.334zm10-6.666H28.664a5 5 0 00-5 5v26.666a5 5 0 005 5H55.33a5 5 0 005-5V26.667a5 5 0 00-5-5zm1.667 31.666A1.667 1.667 0 0155.33 55H28.664a1.666 1.666 0 01-1.667-1.667v-15h30v15zm0-18.333h-30v-8.333A1.667 1.667 0 0128.664 25H55.33a1.667 1.667 0 011.667 1.667V35z" fill="#0057B8"/></g></symbol><symbol viewBox="0 0 86 80" id="retailIcon-3"><g xmlns="http://www.w3.org/2000/svg"><path fill-rule="evenodd" clip-rule="evenodd" d="M40.47.008c8.043-.298 13.28 8.084 19.853 13.15 9.115 7.024 23.197 9.724 25.343 21.677 2.229 12.412-7.114 23.71-15.661 32.247C61.872 75.205 51.49 79.699 40.47 79.98c-11.31.287-23.12-2.438-30.943-11.36-7.7-8.78-11.345-21.994-8.641-33.785 2.36-10.294 13.464-13.599 21.032-20.257C28.085 9.153 32.556.3 40.47.008z" fill="gold"/><path d="M59.183 53.817L53 47.683A15 15 0 1050.683 50l6.134 6.133a1.666 1.666 0 002.366 0 1.666 1.666 0 000-2.316zM41.333 50a11.666 11.666 0 110-23.332 11.666 11.666 0 010 23.332z" fill="#0057B8"/></g></symbol><symbol viewBox="0 0 80 80" id="retailIcon-4"><g xmlns="http://www.w3.org/2000/svg"><path fill-rule="evenodd" clip-rule="evenodd" d="M45.43 78.538c-10.843 1.249-22.719 3.648-31.351-3.031C4.768 68.303.29 55.907.99 44.157c.668-11.21 8.636-19.923 16.615-27.825C25.53 8.482 34.373-1.321 45.43.147c10.695 1.421 14.758 14.13 21.299 22.71 5.162 6.771 11.593 12.81 12.25 21.3.706 9.101-2.297 18.342-8.673 24.876-6.445 6.604-15.709 8.45-24.876 9.505z" fill="gold"/><path d="M53.103 45.85h-7.55a1.666 1.666 0 100 3.333h4A13.333 13.333 0 0126.586 40a1.667 1.667 0 00-3.333 0 16.667 16.667 0 0028.133 12.05V55a1.666 1.666 0 103.333 0v-7.5a1.667 1.667 0 00-1.616-1.65zM39.919 23.333a16.667 16.667 0 00-11.466 4.617V25a1.667 1.667 0 00-3.334 0v7.5a1.666 1.666 0 001.667 1.667h7.5a1.666 1.666 0 100-3.334h-4A13.334 13.334 0 0153.253 40a1.667 1.667 0 003.333 0 16.667 16.667 0 00-16.667-16.667z" fill="#0057B8"/></g></symbol><symbol viewBox="0 0 88 80" id="retailManufacturesIcon-1"><g xmlns="http://www.w3.org/2000/svg"><path fill-rule="evenodd" clip-rule="evenodd" d="M41.19.017c8.616-.198 17.507 1.325 23.806 7.242 6.48 6.09 7.64 15.203 9.394 23.949 2.462 12.28 10.544 26.375 2.638 36.054-7.947 9.73-23.33 5.138-35.838 4.594-11.674-.508-24.666.791-32.868-7.582C.152 55.932-.704 42.729 1.38 31.208c1.765-9.753 9.291-16.792 17.065-22.883C25.06 3.142 32.807.208 41.19.017z" fill="#1A70D0"/><path d="M55.833 45a5 5 0 00-3.166-4.633L55.783 28.7a1.666 1.666 0 00-.3-1.45 1.668 1.668 0 00-1.316-.583H31.333l-.55-2.1a1.668 1.668 0 00-1.616-1.234h-3.334v3.334h2.05L32.017 42.1a1.667 1.667 0 001.666 1.233h17.15a1.667 1.667 0 010 3.334H29.167a1.666 1.666 0 100 3.333h1.966a5 5 0 109.4 0h3.934a5 5 0 109.7 1.667 4.9 4.9 0 00-.667-2.45A5 5 0 0055.833 45zm-6.516-5H35l-2.767-10H52l-2.683 10zM35.833 53.333a1.667 1.667 0 110-3.334 1.667 1.667 0 010 3.334zm13.334 0a1.667 1.667 0 110-3.334 1.667 1.667 0 010 3.334z" fill="gold"/></g></symbol><symbol viewBox="0 0 83 80" id="retailManufacturesIcon-2"><g xmlns="http://www.w3.org/2000/svg"><path fill-rule="evenodd" clip-rule="evenodd" d="M41.317 77.606c12.601-.006 27.512 6.649 36.285-2.396 8.76-9.031 1.862-23.72 1.232-36.285-.575-11.474 3.468-24.738-4.697-32.82-8.152-8.07-21.573-6.57-32.82-4.317-9.061 1.816-15.315 8.752-21.861 15.275C12.89 23.605 6.285 29.931 4.05 38.925c-3.036 12.218-7.786 27.252.949 36.318 8.75 9.082 23.706 2.368 36.318 2.363z" fill="#1A70D0"/><path d="M39.333 35H46a1.667 1.667 0 000-3.333h-3.333V30a1.666 1.666 0 10-3.334 0v1.667a5 5 0 000 10h3.334a1.667 1.667 0 010 3.333H36a1.667 1.667 0 000 3.333h3.333V50a1.667 1.667 0 003.334 0v-1.667a5 5 0 000-10h-3.334a1.667 1.667 0 010-3.333zM41 21.667a18.333 18.333 0 100 36.667 18.333 18.333 0 000-36.667zM41 55a15 15 0 110-30 15 15 0 010 30z" fill="gold"/></g></symbol><symbol viewBox="0 0 87 80" id="retailManufacturesIcon-3"><g xmlns="http://www.w3.org/2000/svg"><path fill-rule="evenodd" clip-rule="evenodd" d="M40.476.008c8.042-.298 13.279 8.084 19.853 13.15 9.114 7.024 23.196 9.724 25.342 21.677 2.229 12.412-7.114 23.71-15.66 32.247-8.133 8.123-18.515 12.617-29.535 12.898-11.31.287-23.12-2.438-30.943-11.36C1.834 59.84-1.811 46.626.893 34.835c2.36-10.294 13.464-13.599 21.031-20.257C28.09 9.153 32.562.3 40.476.008z" fill="#1A70D0"/><path d="M46.333 35h-6.666A1.667 1.667 0 0038 36.667v20a1.667 1.667 0 001.667 1.666h6.666A1.667 1.667 0 0048 56.667v-20A1.667 1.667 0 0046.333 35zm-1.666 20h-3.334V38.333h3.334V55zm15-33.333H53a1.666 1.666 0 00-1.667 1.666v33.334A1.667 1.667 0 0053 58.333h6.667a1.667 1.667 0 001.666-1.666V23.333a1.667 1.667 0 00-1.666-1.666zM58 55h-3.333V25H58v30zM33 45h-6.667a1.667 1.667 0 00-1.666 1.667v10a1.667 1.667 0 001.666 1.666H33a1.667 1.667 0 001.667-1.666v-10A1.667 1.667 0 0033 45zm-1.667 10H28v-6.667h3.333V55z" fill="gold"/></g></symbol><symbol viewBox="0 0 80 80" id="retailManufacturesIcon-4"><g xmlns="http://www.w3.org/2000/svg"><path fill-rule="evenodd" clip-rule="evenodd" d="M45.435 78.538c-10.843 1.249-22.718 3.648-31.35-3.031-9.312-7.204-13.79-19.6-13.09-31.35.669-11.21 8.636-19.923 16.615-27.825C25.536 8.482 34.378-1.321 45.435.147c10.695 1.421 14.758 14.13 21.3 22.71 5.161 6.771 11.592 12.81 12.25 21.3.705 9.101-2.298 18.342-8.674 24.876-6.444 6.604-15.709 8.45-24.876 9.505z" fill="#1A70D0"/><path d="M51.667 30h-5v-1.667A3.333 3.333 0 0043.333 25h-6.666a3.333 3.333 0 00-3.334 3.333V30h-5a5 5 0 00-5 5v15a5 5 0 005 5h23.334a5 5 0 005-5V35a5 5 0 00-5-5zm-15-1.667h6.666V30h-6.666v-1.667zM53.333 50a1.666 1.666 0 01-1.666 1.667H28.333A1.667 1.667 0 0126.667 50v-8.333h6.666v1.666a1.666 1.666 0 103.334 0v-1.666h6.666v1.666a1.666 1.666 0 103.334 0v-1.666h6.666V50zm0-11.667H26.667V35a1.667 1.667 0 011.666-1.667h23.334A1.667 1.667 0 0153.333 35v3.333z" fill="gold"/></g></symbol><symbol viewBox="0 0 160 150" id="conditions-1"><g xmlns="http://www.w3.org/2000/svg"><path fill-rule="evenodd" clip-rule="evenodd" d="M79.872.509c19.4 1.654 36.197 11.515 50.39 24.829 14.779 13.864 29.522 30.083 29.736 50.335.214 20.388-13.564 37.686-28.664 51.405-14.289 12.983-32.235 19.543-51.462 21.395-21.836 2.103-46.245 4.354-62.443-10.425C.847 122.919-.406 98.1.08 75.673c.474-21.82 4.104-44.756 19.999-59.729C35.649 1.278 58.549-1.309 79.872.509z" fill="#0057B8"/><path d="M111.067 66.833l-6.3-2.1 2.966-5.933a3.327 3.327 0 00-.633-3.8l-7.1-7.1a3.333 3.333 0 00-3.833-.633l-5.934 2.966-2.1-6.3A3.333 3.333 0 0085 41.667H75a3.333 3.333 0 00-3.167 2.266l-2.1 6.3-5.933-2.966a3.333 3.333 0 00-3.8.633L52.9 55a3.333 3.333 0 00-.633 3.833l2.966 5.934-6.3 2.1A3.332 3.332 0 0046.667 70v10a3.333 3.333 0 002.266 3.167l6.3 2.1-2.966 5.933A3.332 3.332 0 0052.9 95l7.1 7.1a3.336 3.336 0 003.833.633l5.934-2.966 2.1 6.3a3.335 3.335 0 003.166 2.266h10a3.337 3.337 0 003.167-2.266l2.1-6.3 5.933 2.966A3.33 3.33 0 00100 102.1l7.1-7.1a3.337 3.337 0 00.633-3.833l-2.966-5.934 6.3-2.1A3.335 3.335 0 00113.333 80V70a3.337 3.337 0 00-2.266-3.167zm-4.4 10.767l-4 1.333a6.662 6.662 0 00-4.109 3.806 6.665 6.665 0 00.242 5.594l1.9 3.8-3.667 3.667-3.7-2a6.667 6.667 0 00-9.3 3.867l-1.333 4h-5.3l-1.333-4a6.667 6.667 0 00-9.4-3.867l-3.8 1.9-3.667-3.667 2-3.7a6.666 6.666 0 00-3.867-9.4l-4-1.333v-5.2l4-1.333a6.668 6.668 0 003.867-9.4l-1.9-3.7 3.667-3.667 3.7 1.9a6.666 6.666 0 009.4-3.867l1.333-4h5.2l1.333 4a6.668 6.668 0 009.4 3.867l3.8-1.9 3.667 3.667-2 3.7a6.667 6.667 0 003.867 9.3l4 1.333v5.3zM80 61.667a13.333 13.333 0 100 26.666 13.333 13.333 0 000-26.666zm0 20a6.666 6.666 0 110-13.332 6.666 6.666 0 010 13.332z" fill="gold"/></g></symbol><symbol viewBox="0 0 160 150" id="conditions-2"><g xmlns="http://www.w3.org/2000/svg"><path fill-rule="evenodd" clip-rule="evenodd" d="M72.518.173c22.037-.253 45.615-1.763 62.359 12.06C152.578 26.845 159.983 49.916 160 72.39c.017 22.491-7.864 45.029-25.032 60.245-16.579 14.695-39.946 17.925-62.45 17.291-21.715-.613-44.415-5.096-58.901-20.714C-.322 114.185.949 92.552.6 72.391.245 51.707-3.229 28.567 11.627 13.65 26.625-1.41 50.871.422 72.518.173z" fill="gold"/><path d="M103.333 55h-10v-3.333A6.667 6.667 0 0086.667 45H73.333a6.201 6.201 0 00-2.033.333 3.333 3.333 0 00-2.133 4.234 3.333 3.333 0 004.166 2.1h13.334V55H82.2a3.333 3.333 0 000 6.667h21.133A3.333 3.333 0 01106.667 65v4.267L98.1 72.133a3.332 3.332 0 00-2.1 4.234 3.334 3.334 0 003.167 2.266c.361-.006.72-.062 1.066-.166l6.434-2.167v9.833a3.334 3.334 0 106.666 0V65a9.997 9.997 0 00-10-10zM52.367 42.633A3.348 3.348 0 0046.653 45c0 .888.353 1.739.98 2.367L55.4 55a10 10 0 00-8.733 10v30a10 10 0 0010 10h46.666a10.185 10.185 0 001.767-.2l2.533 2.567a3.34 3.34 0 004.734 0 3.34 3.34 0 000-4.734l-60-60zM53.333 65a3.333 3.333 0 013.334-3.333h5.3L75.3 75h-4.767l-17.2-5.733V65zm3.334 33.333A3.333 3.333 0 0153.333 95V76.3l15.6 5.367c.354.048.713.048 1.067 0h11.967l16.666 16.666H56.667z" fill="#0057B8"/></g></symbol><symbol viewBox="0 0 160 150" id="conditions-3"><g xmlns="http://www.w3.org/2000/svg"><path fill-rule="evenodd" clip-rule="evenodd" d="M87.356 0c19.478.063 37.054 10.883 50.578 25.402 13.259 14.235 20.909 32.634 21.879 52.387 1.028 20.921-1.882 43.477-16.458 58.001-14.397 14.345-36.021 14.28-56 14.198-19.864-.083-40.028-1.823-55.552-14.66-17.329-14.33-32.73-34.594-31.76-57.54.949-22.439 19.98-38.064 36.42-52.712C51.268 11.886 67.826-.063 87.356 0z" fill="#0057B8"/><path d="M109.567 92.5l-9.034-15.6a22.988 22.988 0 002.8-11.067 23.333 23.333 0 10-46.666 0 23.002 23.002 0 002.8 11.067l-9.034 15.6a3.333 3.333 0 002.9 5H62.9l4.867 8.2c.164.272.366.519.6.733.618.596 1.441.93 2.3.934h.466a3.336 3.336 0 002.434-1.634L80 94.667l6.433 11.166a3.327 3.327 0 002.434 1.6h.466a3.328 3.328 0 002.334-.933 2.9 2.9 0 00.566-.7l4.867-8.2h9.567a3.333 3.333 0 002.9-1.667 3.338 3.338 0 000-3.433zm-38.934 5.1l-2.966-4.967A3.334 3.334 0 0064.833 91h-5.766l4.766-8.267a23.333 23.333 0 0011.9 6.134l-5.1 8.733zM80 82.5a16.667 16.667 0 110-33.334A16.667 16.667 0 0180 82.5zM95.167 91a3.333 3.333 0 00-2.834 1.633L89.367 97.6 84.3 88.767a23.533 23.533 0 0011.867-6.134l4.766 8.267-5.766.1z" fill="gold"/></g></symbol><symbol viewBox="0 0 160 150" id="conditions-4"><g xmlns="http://www.w3.org/2000/svg"><path fill-rule="evenodd" clip-rule="evenodd" d="M81.49.15c21.084 1.474 36.128 17.32 50.474 31.665 13.548 13.548 26.371 28.22 27.81 46.614 1.54 19.678-4.763 39.996-19.949 53.873-15.122 13.817-37.069 18.174-58.334 17.658-20.644-.502-40.377-7.279-55.342-20.421C10.782 116.044.669 98.003.036 78.429c-.651-20.147 7.586-39.722 22.708-54.255C38.171 9.35 59.291-1.404 81.491.15z" fill="gold"/><path d="M78.333 101.667h-20A3.335 3.335 0 0155 98.333V51.667a3.333 3.333 0 013.333-3.334H75v10a10 10 0 0010 10h10V85a3.334 3.334 0 006.667 0V64.8a4.4 4.4 0 00-.2-.9v-.3a3.57 3.57 0 00-.634-.934l-20-20a3.564 3.564 0 00-.933-.633.967.967 0 00-.333 0 3.664 3.664 0 00-1.034-.367h-20.2a10 10 0 00-10 10v46.667a10 10 0 0010 10h20a3.334 3.334 0 100-6.666zm3.334-48.634l8.633 8.633H85a3.333 3.333 0 01-3.333-3.333v-5.3zM65 81.666h20A3.333 3.333 0 1085 75H65a3.333 3.333 0 000 6.666zm13.333 6.667H65A3.333 3.333 0 0065 95h13.333a3.333 3.333 0 100-6.667zM65 68.333h3.333a3.333 3.333 0 000-6.666H65a3.333 3.333 0 000 6.666zM110.7 89.3a3.338 3.338 0 00-3.649-.73c-.406.17-.775.417-1.084.73L95 100.3l-4.3-4.334a3.346 3.346 0 10-4.733 4.734l6.666 6.667a3.334 3.334 0 004.734 0L110.7 94.033a3.337 3.337 0 000-4.733z" fill="#0057B8"/></g></symbol><symbol viewBox="0 0 160 150" id="conditions-5"><g xmlns="http://www.w3.org/2000/svg"><path fill-rule="evenodd" clip-rule="evenodd" d="M83.656.012c21.252-.19 43.936 1.702 59.022 16.633 15.125 14.97 16.955 37.617 17.26 58.868.311 21.667.04 45.483-15.545 60.579-15.458 14.974-39.231 14.665-60.737 13.309-19.827-1.25-38.646-7.371-53.515-20.512C14.218 114.817.902 96.715.052 75.513c-.877-21.89 9.349-43.118 25.63-57.822C41.256 3.628 62.65.2 83.657.012z" fill="#0057B8"/><path d="M108.3 60.067a.631.631 0 010-.267.573.573 0 010-.233v-.3l-.2-.5a1.586 1.586 0 00-.3-.367l-.3-.267h-.167l-13.133-8.3-12.4-7.666a2.832 2.832 0 00-.967-.5h-.266a2.736 2.736 0 00-.9 0h-.334a3.767 3.767 0 00-1.1.433l-24.9 15.5-.3.233-.3.267-.333.233-.167.2-.2.5v.5a2.298 2.298 0 000 .667v29.1a3.333 3.333 0 001.567 2.833l25 15.467.5.2h.267a2.863 2.863 0 001.733 0h.267l.5-.2 24.8-15.233a3.334 3.334 0 001.566-2.834v-29.1s.067-.233.067-.366zM80 48.9l5.933 3.667L67.3 64.1l-5.967-3.667L80 48.9zm-3.333 50L58.333 87.7V66.4l18.334 11.333V98.9zM80 71.867l-6.367-3.834 18.634-11.566 6.4 3.966L80 71.867zM101.667 87.6L83.333 99V77.733L101.667 66.4v21.2z" fill="gold"/></g></symbol><symbol viewBox="0 0 80 80" id="likeIcon"><path d="M71.5 33.6a10 10 0 00-7.667-3.6h-15.2l1.867-4.767A13.767 13.767 0 0037.533 6.667 3.333 3.333 0 0034.5 8.633L25 30h-7.833a10 10 0 00-10 10v23.333a10 10 0 0010 10H59.6a10 10 0 009.833-8.2L73.667 41.8a10 10 0 00-2.167-8.2zM23.833 66.667h-6.666a3.333 3.333 0 01-3.334-3.334V40a3.333 3.333 0 013.334-3.333h6.666v30zM67.167 40.6l-4.234 23.333a3.333 3.333 0 01-3.333 2.734H30.5V34.033l9.067-20.4a7.034 7.034 0 014.6 9.267L42.4 27.667a6.666 6.666 0 006.233 9h15.2a3.333 3.333 0 012.567 1.2 3.332 3.332 0 01.767 2.733z" fill="#0057B8" xmlns="http://www.w3.org/2000/svg"/></symbol><symbol viewBox="0 0 80 80" id="infoIcon"><path d="M40.5 36.666A3.333 3.333 0 0037.167 40v13.333a3.333 3.333 0 006.666 0V40a3.333 3.333 0 00-3.333-3.334zM41.767 23.6a3.333 3.333 0 00-2.534 0 3.332 3.332 0 00-1.1.7 3.835 3.835 0 00-.7 1.1 2.8 2.8 0 00-.266 1.267 3.332 3.332 0 00.966 2.366c.324.295.697.531 1.1.7a3.334 3.334 0 004.6-3.067 3.5 3.5 0 00-.966-2.366 3.336 3.336 0 00-1.1-.7zM40.5 6.666a33.333 33.333 0 100 66.667 33.333 33.333 0 000-66.666zm0 60a26.667 26.667 0 110-53.334 26.667 26.667 0 010 53.334z" fill="#0057B8" xmlns="http://www.w3.org/2000/svg"/></symbol><symbol viewBox="0 0 80 80" id="shareIcon"><path d="M60.5 46.667A13.333 13.333 0 0050.233 51.6l-17-7.833c.8-2.448.8-5.086 0-7.533l17-7.834a13.333 13.333 0 10-3.066-8.4c.01.794.088 1.586.233 2.367l-17.6 8.1a13.334 13.334 0 100 19.067l17.6 8.1A13.9 13.9 0 0047.167 60 13.333 13.333 0 1060.5 46.667zm0-33.333a6.666 6.666 0 110 13.332 6.666 6.666 0 010-13.332zm-40 33.333a6.667 6.667 0 110-13.334 6.667 6.667 0 010 13.334zm40 20a6.667 6.667 0 110-13.334 6.667 6.667 0 010 13.334z" fill="#0057B8" xmlns="http://www.w3.org/2000/svg"/></symbol><symbol viewBox="0 0 24 24" id="languageIcon"><path d="M21.41 8.64v-.05a10 10 0 00-18.78 0v.05a9.86 9.86 0 000 6.72v.05a10 10 0 0018.78 0v-.05a9.86 9.86 0 000-6.72zM4.26 14a7.82 7.82 0 010-4h1.86a16.73 16.73 0 000 4H4.26zm.82 2h1.4c.234.892.57 1.754 1 2.57A7.999 7.999 0 015.08 16zm1.4-8h-1.4a8 8 0 012.37-2.57A12.15 12.15 0 006.48 8zM11 19.7A6.34 6.34 0 018.57 16H11v3.7zm0-5.7H8.14a14.36 14.36 0 010-4H11v4zm0-6H8.57A6.34 6.34 0 0111 4.3V8zm7.92 0h-1.4a12.148 12.148 0 00-1-2.57A8 8 0 0118.92 8zM13 4.3A6.34 6.34 0 0115.43 8H13V4.3zm0 15.4V16h2.43A6.34 6.34 0 0113 19.7zm2.86-5.7H13v-4h2.86a14.36 14.36 0 010 4zm.69 4.57a12.26 12.26 0 001-2.57h1.4a7.999 7.999 0 01-2.4 2.57zM19.74 14h-1.86c.08-.663.12-1.331.12-2a16.285 16.285 0 00-.12-2h1.86a7.82 7.82 0 010 4z" xmlns="http://www.w3.org/2000/svg"/></symbol><symbol viewBox="0 0 24 24" id="shortArrow"><path d="M6.08 12.38a1 1 0 00.21.33l5 5a1.003 1.003 0 001.638-.326 1.005 1.005 0 00-.218-1.094L9.41 13H17a1 1 0 000-2H9.41l3.3-3.29a1 1 0 00-.325-1.639 1 1 0 00-1.095.22l-5 5a1 1 0 00-.21.33 1 1 0 000 .76z" xmlns="http://www.w3.org/2000/svg"/></symbol><symbol viewBox="0 0 24 24" id="closeIcon"><path d="M19 6.41L17.59 5 12 10.59 6.41 5 5 6.41 10.59 12 5 17.59 6.41 19 12 13.41 17.59 19 19 17.59 13.41 12 19 6.41z" fill="#C4C4C4" xmlns="http://www.w3.org/2000/svg"/></symbol><symbol viewBox="0 0 15 25" id="arrowSlider"><path d="M5.932 12.5l7.818-7.817a2.208 2.208 0 00-2.418-3.598 2.203 2.203 0 00-.718.484L1.25 10.932a2.208 2.208 0 000 3.136l9.364 9.474a2.21 2.21 0 001.568.64 2.207 2.207 0 001.568-.64 2.208 2.208 0 000-3.114L5.932 12.5z" xmlns="http://www.w3.org/2000/svg"/></symbol></svg>