<svg width="233" height="48" fill="none" xmlns="http://www.w3.org/2000/svg"><path d="M143.826 46.845h8.233V1.967h-8.233v44.878zm24.946 0h8.251V13.516h-8.251v33.33zm36.63-9.038c-2.723 5.198-4.869 9.17-4.989 9.17h-8.561l8.729-16.938-10.166-16.447h8.928l5.241 8.58 4.4-8.58h8.918s-4.192 8.265-8.487 16.547l10.277 16.838h-8.57l-5.72-9.17zM48.949 32.438l-.014-18.92h7.802c.17 6.165-.099 13.16 0 18.996 0 4 3.259 7.47 7.336 7.47 4.074 0 7.347-2.987 7.347-7.001l-.022-19.465h7.915c-.015 9.85-.102 11.808 0 19.196 0 8.256-6.953 14.945-15.341 14.945-8.398 0-15.023-6.961-15.023-15.22zm62.369 7.26c5.235 0 9.493-4.183 9.493-9.344 0-5.158-4.258-9.337-9.493-9.337-5.244 0-9.501 4.179-9.501 9.337 0 5.161 4.257 9.344 9.501 9.344zm.059-27.032c9.923 0 17.969 7.911 17.969 17.667 0 9.76-8.046 17.667-17.969 17.667-9.918 0-18.062-8.45-18.062-18.207l.018-27.847h8.236l-.058 14.018c2.868-1.905 6.154-3.298 9.867-3.298h-.001zM17.926 27.644c5.224 0 9.459-4.158 9.459-9.297 0-5.131-4.235-9.295-9.459-9.295-5.214 0-9.447 4.164-9.447 9.295 0 5.139 4.233 9.297 9.447 9.297zM17.944.661c9.913 0 17.957 7.915 17.957 17.67 0 9.756-8.044 17.67-17.957 17.67-3.557 0-6.894-.897-9.685-2.654l-.02 13.55H0v-28.9C0 8.24 8.03.662 17.948.662h-.004zm211.538 42.68c.488 0 .918-.05.918-.618 0-.478-.466-.545-.861-.545h-.788v1.163h.731zm-.731 2.234h-.668V41.64h1.51c.977 0 1.463.325 1.463 1.128 0 .712-.438 1.014-1.051 1.08l1.128 1.727h-.713l-1.04-1.698h-.629v1.698zm-2.085-1.976c0 1.633 1.222 2.844 2.787 2.844 1.547 0 2.768-1.211 2.768-2.843 0-1.614-1.221-2.823-2.768-2.823-1.565 0-2.787 1.21-2.787 2.822zm-.777 0c0-2.019 1.652-3.437 3.564-3.437 1.899 0 3.547 1.418 3.547 3.438 0 2.03-1.648 3.461-3.547 3.461-1.912 0-3.564-1.43-3.564-3.462zm-52.616-33.58c2.812 0 5.092-2.242 5.092-5.007 0-2.77-2.28-5.012-5.092-5.012-2.814 0-5.103 2.243-5.103 5.012 0 2.765 2.289 5.007 5.103 5.007" fill="#3E902D"/></svg>