<svg width="160" height="169" fill="none" xmlns="http://www.w3.org/2000/svg"><path d="M153.568 162.584H6.378V6.418h147.19v156.166z" fill="#fff"/><path d="M160 169V0H0v169h160zm-6.434-6.417H6.377V6.417h147.189v156.166z" fill="#C80000"/><path d="M14.39 154.519V120.73h131.218v33.789H14.391z" fill="#001E78"/><path d="M133.589 150.487v-25.782h-11.514v25.782h11.514zm-14.11-12.834c0-7.099-5.7-12.891-12.698-12.891H89.793v25.725h16.988c6.998 0 12.698-5.736 12.698-12.834zm-10.553 0c0 3.066-2.314 5.622-5.193 5.622h-2.483v-11.188h2.483c2.879-.056 5.193 2.442 5.193 5.566zm-43.119 12.834h21.729v-7.44H77.49v-18.342H65.807v25.782zm-13.093 0H64.34l-13.094-25.782H39.507l-13.093 25.782H38.04l1.242-2.726h12.247l1.185 2.726zm-4.684-9.484h-5.362l2.596-5.735 2.766 5.735z" fill="#fff"/><path d="M124.446 117.494c1.75-3.293 2.709-6.7 2.653-10.562-.057-4.316-1.863-7.099-4.29-10.79l-35.555-53.72 5.756-8.803 39.563 59.514c3.273 4.883 5.136 8.575 5.249 14.026.056 3.18-.903 7.155-2.371 10.279h-11.005v.056z" fill="#00B4DC"/><path d="M137.085 117.493c.282-.624.451-1.022.677-1.59.847-2.271 1.919-5.395 1.806-8.688-.113-5.736-2.088-9.54-5.418-14.481L93.967 32.312l4.627-7.042 43.739 65.987c3.838 5.793 5.644 9.2 5.644 14.538 0 6.133-1.636 8.859-2.878 11.641h-8.014v.057zm-24.55 0c2.37-2.498 4.063-6.53 3.837-10.789-.169-3.635-2.427-7.212-5.023-11.188l-29.63-44.691 4.516-6.872 34.934 52.756c2.427 3.691 4.064 6.247 4.12 10.279.057 3.804-.903 7.212-2.765 10.505h-9.989zM68.175 14.481L17.663 91.314c-3.838 5.793-5.643 9.2-5.643 14.538 0 6.133 1.636 8.859 2.878 11.641h8.07a16.194 16.194 0 01-.677-1.647c-.846-2.271-1.693-5.394-1.637-8.631.113-5.736 2.089-9.54 5.418-14.481l51.64-78.253h-9.537z" fill="#001E78"/><path d="M79.406 14.48l-51.98 78.765c-3.272 4.884-5.135 8.575-5.248 14.026-.056 3.181.903 7.156 2.37 10.279h11.006c-1.75-3.294-2.71-6.701-2.653-10.562.057-4.316 1.863-7.099 4.29-10.79L90.918 14.48H79.406zM46.954 98.185h62.871l-4.289-6.473H51.187l-2.54 3.804a69.803 69.803 0 00-1.693 2.67z" fill="#00B4DC"/><path d="M92.67 14.48L38.603 96.71c-2.427 3.691-4.064 6.247-4.12 10.279-.057 3.804.903 7.212 2.765 10.505h10.215c-2.37-2.498-4.063-6.53-3.837-10.789.056-.852.225-1.988.451-2.84h68.797c-.451-1.363-.903-2.498-2.088-4.089h-64.79c.734-1.306 1.75-2.896 2.653-4.259l3.555-5.338h52.318l-2.879-4.316h-46.56l46.899-71.325H92.67v-.057z" fill="#001E78"/></svg>