<svg width="284" height="52" fill="none" xmlns="http://www.w3.org/2000/svg"><path d="M229.642 1.935a.548.548 0 01.374-.189.356.356 0 01.332.396.61.61 0 01-.187.4c-4.951 6.21-8.552 13.47-8.552 23.54 0 10.07 3.618 17.178 8.552 23.387a.61.61 0 01.187.401.364.364 0 01-.194.358.358.358 0 01-.138.037.54.54 0 01-.374-.188l-21.109-20.584a4.374 4.374 0 01-1.724-3.481 4.374 4.374 0 011.724-3.481l21.109-20.59" fill="#ED1C24"/><path d="M245.86.19c-8.262 0-11.489 11.809-11.489 25.886s3.227 25.734 11.489 25.734c4.958 0 9.186-2.931 9.204-5.34a2.037 2.037 0 00-.64-1.471c-2.352-2.286-3.269-4.579-3.281-6.598 0-3.855 3.306-6.725 6.363-6.725 4.222 0 6.682 3.332 6.682 7.644 0 4.086-1.73 7.497-3.618 10.222a.62.62 0 00-.109.346.343.343 0 00.075.262.339.339 0 00.239.127.602.602 0 00.392-.206l21.109-20.584c.536-.406.97-.931 1.27-1.535a4.388 4.388 0 000-3.892 4.349 4.349 0 00-1.27-1.536l-21.109-20.59a.602.602 0 00-.392-.206c-.193 0-.313.176-.313.395a.61.61 0 00.108.347c1.876 2.724 3.619 6.129 3.619 10.216 0 4.31-2.479 7.65-6.683 7.65-3.057 0-6.375-2.877-6.363-6.732 0-2.013.929-4.306 3.281-6.598a2.066 2.066 0 00.64-1.471c0-2.433-4.222-5.34-9.204-5.34V.19zM30.02 34.79c-.019-.986.2-1.962.638-2.843a6.067 6.067 0 011.877-2.216 10.587 10.587 0 016.345-1.825c1.498-.019 2.986.25 4.384.79v-2.432c-.036-2.432-.947-3.806-3.654-3.837a9.36 9.36 0 00-2.564.45c.09.344.14.697.145 1.052a3.16 3.16 0 01-.742 2.11 2.708 2.708 0 01-2.074.888 2.749 2.749 0 01-1.951-.841 2.793 2.793 0 01-.787-1.987c.036-2.949 3.582-4.931 8.322-4.937 3.764 0 6.122.9 7.388 2.536 1.146 1.471 1.207 3.611 1.207 6.64v7.905c0 1.526.88 1.94 2.762 2.237h.217v.22c-.108 2.079-1.629 2.942-3.257 3.07h-.422a4.124 4.124 0 01-2.304-.628 4.172 4.172 0 01-1.58-1.804 9.948 9.948 0 01-6.224 2.432c-4.373 0-7.696-2.98-7.702-7.054l-.024.073zm134.276 5.953a5.738 5.738 0 01-.784-2.05c-.217.25-.471.511-.862.888a7.807 7.807 0 01-5.429 2.165 7.015 7.015 0 01-3.011-.57 7.07 7.07 0 01-2.489-1.802c-1.912-2.304-1.899-5.223-1.899-9.37v-3.995c-.042-1.618-.544-2.171-2.033-2.208a5.693 5.693 0 00-.603.037h-.175l-.066-.17a2.325 2.325 0 01-.175-.864c.048-1.933 2.472-2.967 3.896-3.265.47-.088.945-.14 1.423-.158a3.093 3.093 0 012.557 1.052c.548.783.814 1.73.754 2.687l-.036 6.823c0 2.518.175 4.403.73 5.619.555 1.216 1.405 1.77 2.961 1.781a3.592 3.592 0 001.944-.426 3.626 3.626 0 001.427-1.398 8.007 8.007 0 00.893-4v-5.523c-.042-1.617-.549-2.17-2.032-2.207a5.623 5.623 0 00-.604.037h-.18l-.067-.17a2.335 2.335 0 01-.217-.773c.048-1.934 2.473-2.967 3.902-3.265.47-.088.946-.141 1.424-.159a3.115 3.115 0 012.563 1.052c.552.782.82 1.731.76 2.688 0 .785-.073 2.171-.073 7.984 0 2.433-.042 3.765-.042 4.16.036 1.672.603 2.432 2.135 2.432h.7l.066.17c.111.266.17.551.175.84-.06 1.885-2.491 2.645-3.902 2.925a9.276 9.276 0 01-1.333.151 2.6 2.6 0 01-2.286-1.033l-.012-.085zM87.382 30.86a12.118 12.118 0 013.015-8.397 10.671 10.671 0 013.642-2.499 10.596 10.596 0 014.331-.803 8.623 8.623 0 013.608.635 8.682 8.682 0 013.027 2.077 8.38 8.38 0 012.141 5.57 6.317 6.317 0 01-.724 3.04l-.067.122H93.063c.223 3.91 2.69 6.646 6.99 6.689a7.188 7.188 0 002.926-.601 7.247 7.247 0 002.436-1.74l.144-.183.187.14c.27.2.484.468.622.775.138.308.196.646.169.983 0 2.256-2.636 5.144-8.444 5.144-1.419 0-2.824-.284-4.133-.836a10.706 10.706 0 01-3.493-2.379 10.808 10.808 0 01-2.312-3.553 10.879 10.879 0 01-.773-4.178v-.006zm47.241 10.921a10.78 10.78 0 01-4.175-.785 10.854 10.854 0 01-3.557-2.34 11.38 11.38 0 01-2.43-3.78 11.45 11.45 0 01-.784-4.435 11.178 11.178 0 01.805-4.327 11.131 11.131 0 012.408-3.671 11.013 11.013 0 013.632-2.442 10.948 10.948 0 014.288-.828c1.453-.04 2.899.215 4.252.747a10.889 10.889 0 013.631 2.354 11.4 11.4 0 013.131 5.854 11.47 11.47 0 01-.652 6.618 11.35 11.35 0 01-4.212 5.119 11.212 11.212 0 01-6.331 1.868l-.006.048zm40.849-.656c-.929-.255-1.526-.766-1.52-1.539a2.4 2.4 0 01.253-.979l.048-.11h.115a3.475 3.475 0 001.454-.662c.554-.456.765-1.095.765-2.888V25.88c-.042-1.52-.386-2.049-1.64-2.086a5.392 5.392 0 00-.995.11l-.193.036-.073-.182a2.69 2.69 0 01-.192-.967c.03-1.824 1.99-2.737 3.304-3.15.48-.154.98-.236 1.484-.243 1.809 0 2.762 1.295 3.172 2.961 1.171-1.94 3.016-3.223 4.88-3.229 1.731 0 3.467 1.143 3.473 3.308a3.054 3.054 0 01-.79 2.174 3.008 3.008 0 01-2.08.982 2.748 2.748 0 01-1.771-.595 2.789 2.789 0 01-.992-1.594c-1.013.335-2.448 1.624-2.46 6.081v5.472c0 1.788.253 2.433.754 2.883a5.477 5.477 0 001.948.663h.114l.048.11c.167.328.261.688.278 1.057 0 .73-.537 1.216-1.405 1.472a14.722 14.722 0 01-3.908.358 15.734 15.734 0 01-4.071-.377zm-64.533 0c-.929-.256-1.532-.773-1.532-1.545.012-.339.096-.67.247-.973l.049-.11h.12a3.61 3.61 0 001.472-.656c.537-.462.754-1.101.766-2.889V23.047l-3.161-.11-.054-.139a2.929 2.929 0 01-.241-1.119 1.924 1.924 0 011.237-1.81c.242-.09.501-.13.759-.117h1.369v-1.314c0-3.174.603-4.98 1.388-6.19 1.206-1.928 3.371-3.253 6.634-3.253 4.095 0 7.533 1.921 7.551 5.01a2.907 2.907 0 01-1.737 2.761 2.856 2.856 0 01-1.116.237 2.807 2.807 0 01-1.938-.818 2.85 2.85 0 01-.836-1.943c.007-.557.17-1.1.47-1.568a3.255 3.255 0 00-2.038-.609c-1.273 0-1.967.45-2.413 1.186a6.126 6.126 0 00-.603 3.04v3.412h5.428l.06.146c.154.361.234.75.236 1.143a2.125 2.125 0 01-.52 1.466 2.094 2.094 0 01-1.374.711 11.94 11.94 0 01-1.207.042c-.904 0-1.809-.066-2.46-.078v11.772c0 1.782.295 2.432.832 2.882.537.45 1.81.608 2.214.663h.114l.049.116c.138.28.214.587.223.9 0 .815-.658 1.325-1.653 1.599a16.612 16.612 0 01-4.258.395 15.805 15.805 0 01-4.089-.377l.012.042zm-37.887-.043c-.923-.255-1.52-.766-1.514-1.538.016-.339.103-.67.253-.973l.049-.11h.12a3.604 3.604 0 001.472-.657c.537-.462.76-1.1.766-2.888V25.88c-.042-1.52-.398-2.049-1.647-2.086a5.387 5.387 0 00-.995.11l-.193.036-.072-.182a2.626 2.626 0 01-.2-.985c.031-1.825 1.991-2.719 3.318-3.132a4.953 4.953 0 011.46-.243c1.809 0 2.774 1.277 3.196 2.919 1.206-1.916 3.052-3.18 4.891-3.193 1.707 0 3.462 1.137 3.468 3.302a3.055 3.055 0 01-.8 2.182 3.005 3.005 0 01-2.095.974 2.717 2.717 0 01-1.761-.595c-.5-.4-.846-.964-.977-1.594-1.025.34-2.479 1.624-2.497 6.08v5.474c0 1.787.265 2.432.796 2.882a5.218 5.218 0 001.942.663h.115l.054.109c.161.326.252.682.266 1.046 0 .73-.537 1.216-1.412 1.477a14.81 14.81 0 01-3.92.365 15.711 15.711 0 01-4.071-.377l-.012-.03zm-17.888.03c-.923-.255-1.514-.766-1.514-1.538.013-.338.098-.67.247-.973l.049-.11h.12a3.603 3.603 0 001.472-.656c.537-.462.76-1.1.766-2.888V25.88c-.049-1.52-.398-2.049-1.653-2.086a5.387 5.387 0 00-.995.11l-.193.036-.072-.182a2.63 2.63 0 01-.2-.985c.03-1.825 1.99-2.719 3.318-3.132.47-.153.96-.235 1.453-.243 1.81 0 2.774 1.277 3.197 2.913 1.206-1.91 3.052-3.175 4.891-3.187 1.707 0 3.468 1.137 3.474 3.308a3.055 3.055 0 01-.8 2.183 3.005 3.005 0 01-2.095.973 2.723 2.723 0 01-1.76-.597c-.5-.4-.846-.963-.978-1.592-1.026.34-2.479 1.624-2.491 6.081v5.472c0 1.788.259 2.433.796 2.883a5.194 5.194 0 001.942.663h.12l.049.11c.163.325.256.681.271 1.045 0 .73-.543 1.216-1.417 1.478a14.8 14.8 0 01-3.92.364 15.727 15.727 0 01-4.071-.377l-.006-.005zm74.646-11.285c0 5.928 2.57 8.482 5.078 8.513 2.865 0 4.94-2.555 4.958-7.547 0-2.608-.573-4.694-1.508-6.08a4.38 4.38 0 00-1.562-1.568 4.332 4.332 0 00-2.123-.597c-2.979 0-4.825 2.718-4.825 7.333l-.018-.054zm-89.947 1.307c-2.364 0-3.95 1.143-3.963 3.357 0 2.091 1.412 3.496 3.619 3.508a5.065 5.065 0 002.114-.55 5.105 5.105 0 001.692-1.39v-3.04a1.559 1.559 0 00-.857-1.216 4.954 4.954 0 00-2.605-.608v-.061zm61.167-3.527c.422 0 .537-.104.603-.243.091-.253.127-.523.103-.79a4.05 4.05 0 00-1.219-2.84 3.982 3.982 0 00-2.858-1.126c-3.082 0-4.33 2.487-4.524 5h7.871l.024-.001zM6.125 37.885c-2.6-2.689-4.276-6.617-4.276-11.506a16.613 16.613 0 014.222-11.401 13.273 13.273 0 014.398-3.212 13.178 13.178 0 015.306-1.166c6.58 0 11.223 4.652 11.248 8.665 0 2.147-1.351 3.807-3.173 3.813a3.404 3.404 0 01-2.358-.9 3.335 3.335 0 01-1-2.493 3.673 3.673 0 011.115-2.56c-.893-1.539-2.605-2.755-5.29-2.755-2.28 0-4.221 1.216-5.584 3.296-1.363 2.08-2.201 5.114-2.201 8.684 0 3.57.85 6.56 2.273 8.652 1.424 2.092 3.384 3.278 5.663 3.284 2.684 0 4.397-1.216 5.26-2.76a3.662 3.662 0 01-1.11-2.549 3.38 3.38 0 011.001-2.499 3.416 3.416 0 012.358-.906c1.81 0 3.166 1.654 3.172 3.794 0 4.032-4.668 8.654-11.248 8.672a13.523 13.523 0 01-5.309-1.076 13.615 13.615 0 01-4.473-3.078h.006zm-.006 0c-2.6-2.688-4.276-6.616-4.276-11.505a16.613 16.613 0 014.222-11.402 13.272 13.272 0 014.398-3.212 13.176 13.176 0 015.306-1.166c6.58 0 11.223 4.652 11.247 8.665 0 2.147-1.35 3.807-3.172 3.813a3.404 3.404 0 01-2.358-.9 3.332 3.332 0 01-1-2.493 3.673 3.673 0 011.115-2.56c-.887-1.539-2.6-2.755-5.283-2.755-2.28 0-4.222 1.216-5.585 3.296-1.363 2.08-2.201 5.114-2.201 8.684 0 3.57.85 6.56 2.273 8.652 1.424 2.092 3.384 3.278 5.663 3.284 2.684 0 4.397-1.216 5.26-2.76a3.662 3.662 0 01-1.11-2.549 3.38 3.38 0 011.001-2.499 3.416 3.416 0 012.358-.906c1.81 0 3.166 1.654 3.172 3.794 0 4.032-4.668 8.654-11.248 8.672a13.523 13.523 0 01-5.309-1.076 13.615 13.615 0 01-4.473-3.078zm0 0c-2.6-2.688-4.276-6.616-4.276-11.505a16.613 16.613 0 014.222-11.402 13.272 13.272 0 014.398-3.212 13.176 13.176 0 015.306-1.166c6.58 0 11.223 4.652 11.247 8.665 0 2.147-1.35 3.807-3.172 3.813a3.404 3.404 0 01-2.358-.9 3.332 3.332 0 01-1-2.493 3.673 3.673 0 011.115-2.56c-.887-1.539-2.6-2.755-5.283-2.755-2.28 0-4.222 1.216-5.585 3.296-1.363 2.08-2.201 5.114-2.201 8.684 0 3.57.85 6.56 2.273 8.652 1.424 2.092 3.384 3.278 5.663 3.284 2.684 0 4.397-1.216 5.26-2.76a3.662 3.662 0 01-1.11-2.549 3.38 3.38 0 011.001-2.499 3.416 3.416 0 012.358-.906c1.81 0 3.166 1.654 3.172 3.794 0 4.032-4.668 8.654-11.248 8.672a13.523 13.523 0 01-5.309-1.076 13.615 13.615 0 01-4.473-3.078" fill="#005BAB"/></svg>