<svg width="160" height="132" fill="none" xmlns="http://www.w3.org/2000/svg"><g clip-path="url(#clip0_507_618)"><path d="M80 8.9c39.225 0 71.021 25.53 71.021 57.026 0 31.484-31.796 57.02-71.021 57.02-39.232 0-71.027-25.535-71.027-57.02C8.973 34.43 40.768 8.9 80 8.9" fill="#fff"/><path d="M79.999 6.41c-19.533 0-37.927 6.128-51.783 17.25-6.79 5.45-12.128 11.814-15.859 18.902-3.891 7.396-5.869 15.252-5.869 23.365 0 8.1 1.971 15.963 5.87 23.358 3.737 7.089 9.074 13.447 15.865 18.903 13.856 11.135 32.25 17.243 51.782 17.243 19.533 0 37.927-6.108 51.776-17.243 6.791-5.456 12.128-11.808 15.872-18.903 3.885-7.395 5.869-15.258 5.869-23.358 0-8.113-1.978-15.97-5.869-23.365-3.75-7.088-9.081-13.453-15.872-18.908C117.925 12.538 99.538 6.41 79.999 6.41" fill="#0468B3"/><path d="M80 0C58.72 0 38.7 6.806 23.616 19.165c-7.392 6.05-13.19 13.1-17.248 20.97C2.138 48.318 0 57.02 0 65.997c0 8.977 2.138 17.679 6.368 25.868 4.058 7.857 9.862 14.913 17.248 20.97 15.085 12.352 35.11 19.159 56.39 19.159s41.3-6.807 56.384-19.165c7.38-6.064 13.184-13.12 17.255-20.97 4.217-8.19 6.361-16.898 6.361-25.869 0-8.977-2.137-17.672-6.361-25.862-4.071-7.87-9.875-14.919-17.255-20.97C121.299 6.806 101.28 0 80 0zm0 2.49c42.81 0 77.51 28.437 77.51 63.5 0 35.083-34.7 63.506-77.51 63.506S2.49 101.073 2.49 65.99c0-35.063 34.7-63.5 77.51-63.5" fill="#0468B3"/><path d="M59.074 55.718s-.877-.454-2.445-.429c-2.784.039-4.717 1.825-4.717 1.825l-.71-1.85h-5.389l-.032 28.647h6.707V66.565c0-1.581.75-2.35 1.357-2.9 1.786-1.62 5.229-1.672 5.229-1.672v-6.275zm83.84 0s-.883-.454-2.451-.429c-2.797.039-4.717 1.825-4.717 1.825l-.71-1.85h-5.396l-.032 28.647h6.714V66.565c0-1.581.742-2.35 1.344-2.9 1.798-1.62 5.242-1.672 5.242-1.672v-6.275h.006zm-34.49 33.079h.154l.179.013c.122.006.199.025.269.044a.372.372 0 01.211.218c.019.058.051.186.051.371.013.173.02.314.045.41h.749l-.019-.083a.223.223 0 01-.019-.09c-.013-.025-.013-.057-.013-.09v-.268c0-.301-.083-.525-.263-.666-.089-.07-.236-.128-.428-.173a.894.894 0 00.518-.199c.147-.115.211-.294.211-.544 0-.333-.128-.57-.39-.717a1.689 1.689 0 00-.595-.154c-.052-.006-.25-.006-.621-.006h-.832v2.99h.787l.006-1.056zm.724-.647c-.103.077-.244.102-.423.102h-.301v-.87h.18c.198 0 .345.019.46.064.16.07.244.172.244.339 0 .173-.052.282-.16.365zm1.574-1.71c-.525-.525-1.158-.78-1.907-.78a2.62 2.62 0 00-1.85.736c-.569.518-.851 1.171-.851 1.965 0 .756.256 1.39.787 1.915.512.525 1.152.781 1.907.781.736 0 1.37-.25 1.888-.756a2.612 2.612 0 00.807-1.94 2.572 2.572 0 00-.781-1.92zm-.326.34c.428.442.646.967.646 1.575a2.22 2.22 0 01-.646 1.588c-.436.435-.948.66-1.575.66-.621 0-1.133-.225-1.568-.654-.448-.435-.659-.967-.659-1.594 0-.602.211-1.14.646-1.575.436-.442.96-.666 1.581-.666.615 0 1.133.224 1.575.666zm-44.877-17.2c0-5.129 1.273-8.843 4.499-8.843 3.238 0 4.5 3.714 4.5 8.843s-1.262 8.843-4.5 8.843c-3.226 0-4.5-3.714-4.5-8.843zM81 69.607c0-7.927-3.75-14.337-11.008-14.337-7.09 0-11.008 6.41-11.008 14.337 0 7.907 3.373 14.336 11.008 14.336C77.48 83.943 81 77.514 81 69.607zm35.687-8.869c2.195 0 3.469 1.697 4.083 4.367h-8.134c.601-2.67 1.888-4.367 4.051-4.367zm4.793 11.66c-.409 3.612-1.728 6.026-4.332 6.026-3.156 0-4.448-3.58-4.5-8.542h8.992v.006h6.49v-.006c.083-2.619-.429-4.777-.429-4.777h-.013c-1.184-5.718-4.742-9.841-10.566-9.841-7.091 0-11.008 6.41-11.008 14.336 0 7.908 3.379 14.337 11.008 14.337 6.586 0 10.099-4.963 10.848-11.545l-6.49.006z" fill="#fff"/><path d="M93.594 78.443c-3.232 0-4.53-3.726-4.53-8.88 0-5.155 1.292-8.895 4.53-8.895 3.258 0 4.519 3.74 4.519 8.894 0 5.155-1.261 8.881-4.519 8.881zm10.983 6.403c-.019-2.087 0-29.64 0-29.64h-7.11v1.57c-.865-.91-2.65-1.48-3.898-1.506-7.13-.172-11.06 6.346-11.06 14.311 0 7.96 3.399 14.337 11.073 14.337 1.497 0 2.816-.628 3.993-1.089.326 5.603.519 24.089-11.757 24.473-13.299.301-11.852-18.966-11.968-19.517-.902 0-7.238.02-7.238.02 0 .038-.973 24.312 18.42 24.312 21.01.007 19.57-25.177 19.545-27.27zM55.694 25.221c-9.338 0-14.63 5.244-17.223 11.41l-.02-.006c-.038.115-.082.224-.12.345a.243.243 0 00-.04.084c-1.24 3.272-1.388 6.019-1.388 6.358.429 15.425-6.963 16.386-6.963 16.386-.122-1.32 0-17.987 0-17.987h-7.104v42.107h7.13V66.367c0-.71 6.297-.038 6.726 7.985.038.717 0 9.566 0 9.566h7.526c-.16-1.153 1.53-19.94-7.885-20.08-1.497-.026 7.757-2.139 7.476-15.995-.07-3.093.281-5.885.96-8.299 1.555-4.956 4.364-9.412 10.137-9.489 13.012-.166 11.533 21.04 11.7 21.374l7.244-.007c0-.032 1.28-26.201-18.156-26.201" fill="#fff"/><path d="M73.499 129.137c-29.715-2.401-54.509-17.57-65.414-40C2.03 76.67 1.083 62.532 5.44 49.508c3.06-9.137 7.43-16.04 14.88-23.48 5.767-5.756 11.15-9.713 18.087-13.286 8.672-4.47 16.697-7.146 26.912-8.965 6.06-1.082 23.104-1.082 29.254-.006 18.656 3.265 33.274 10.488 45.043 22.238 5.703 5.692 8.858 9.976 11.988 16.264 8.038 16.148 7.436 34.73-1.632 50.59-9.44 16.508-27.757 29.192-49.351 34.174-7.046 1.614-20.326 2.644-27.123 2.1zm21.933-4.86c17.049-3.048 31.129-10.117 42.016-21.098 21.741-21.937 21.645-52.922-.243-74.782-5.524-5.52-10.938-9.368-18.503-13.145-26.118-13.056-58.81-11.846-83.194 3.08C11.131 33.257.758 58.889 9.371 82.881c7.801 21.719 30.681 38.072 58.746 41.978 6.624.922 20.55.627 27.315-.583z" fill="#fff"/></g><defs><clipPath id="clip0_507_618"><path fill="#fff" d="M0 0h160v132H0z"/></clipPath></defs></svg>