<svg width="233" height="39" fill="none" xmlns="http://www.w3.org/2000/svg"><path fill-rule="evenodd" clip-rule="evenodd" d="M185.833 38.431H0V.518h185.873l-.04 37.913z" fill="#CC2229"/><path fill-rule="evenodd" clip-rule="evenodd" d="M227.827 13.313c2.167 5.12.886 11.964-3.103 15.964-1.929 1.635-4.003 3.354-6.678 2.816-1.459-.343-2.507-1.359-2.87-2.74-.316-1.2-.236-2.355-.079-3.6l10.852-.019-.294-.372c-5.476-6.463-9.821-13.758-12.73-21.44-3.126 7.78-7.511 15.468-12.73 21.853l10.633-.022c-.062 1.422.269 3.16-.388 4.382-.66 1.339-2.213 2.003-3.647 2.034-4.29-.402-7.142-4.177-8.774-7.747-1.898-4.388-1.2-10.413 1.787-14.164 4.151-5.518 11.487-7.748 18.319-5.633 4.168 1.31 7.872 4.557 9.702 8.688zm3.028-2.974c3.562 6.333 2.436 14.9-2.017 20.345-5.168 6.172-14.208 8.872-22.203 6.342-7.527-2.183-13.347-9.146-13.738-17.138-.465-7.46 3.94-14.324 10.325-17.608 6.227-3.327 15.074-3.012 21.034.939 2.653 1.68 5 4.32 6.599 7.12z" fill="#27824D"/><path fill-rule="evenodd" clip-rule="evenodd" d="M68.078 10.732c.32.657.487 1.372.466 2.25l-20.541.008c-.627 0-1.61.36-1.97 1.185-.45 1.028.068 2.208 1.086 2.662.406.18 1.124.157 1.124.157h14.944c2.674.19 5.057 1.921 5.977 4.773.801 2.482.388 4.546-1.243 6.575-1.882 2.341-4.459 2.37-7.296 2.365l-16.535-.02c-1.795 0-3.304-1.78-3.56-3.612l-.011-.926 21.828.022c.73 0 1.666-1.014 1.69-2.056.029-1.125-.742-2.191-1.855-2.191H46.457c-2.72 0-5.492-2.575-5.938-5.79-.362-2.604.488-4.572 2.491-6.253 1.513-1.268 2.663-1.631 4.777-1.634l14.544-.02c2.25-.041 4.695.348 5.747 2.505zm33.999-2.407c3.516.003 6.366 3.647 6.27 7.46-.091 3.678-3.274 7.076-6.192 7.076H89.89c-1.795-.223-3.172-1.535-3.882-3.052-.242-.594-.255-1.428-.322-2.048l.634.013h14.825c.64 0 1.25-.59 1.553-1.33.277-.68.26-1.229-.078-1.88-.372-.72-1.045-1.173-1.707-1.173H84.379l-.154.157v14.758c0 1.373-1.19 2.384-2.592 2.356-1.23-.022-2.376-1.026-2.376-2.33v-15.8c0-1.306.492-2.077 1.414-2.957a4.719 4.719 0 013.166-1.268l18.24.018zm26.618 5.958c1.63 2.283 3.422 4.483 4.975 6.857h-10.966l5.456-6.887s.146-.232.288-.22c.136.013.247.25.247.25zm4.484-2.56c2.829 3.965 8.541 11.405 11.439 15.597.364.95-.063 1.969-.544 2.74-.781.736-2.061.892-2.952.47-1.399-1.26-2.368-2.826-3.492-4.225l-18.863-.04-2.231 3.046c-.703.96-1.596 1.621-2.971 1.373-.714-.144-1.393-.752-1.629-1.407-.366-.849-.326-1.651.154-2.427l11.956-15.963c1.002-1.511 2.085-2.593 3.957-2.582 2.947.04 3.148.786 5.176 3.418zm42.409-3.398c2.593.003 5.02 1.984 5.994 4.838 1.045 3.06.082 5.77-2.268 7.977-.521.492-1.475 1.094-1.475 1.094l3.242 4.678c.296.427.391 1.277.114 2.012-.256.682-.595 1.08-1.26 1.368-.903.391-2.096.03-2.481-.447 0 0-3.099-3.804-4.815-5.969-.302-.318-.459-.613-.777-.937l-8.263.04c-2.048.009-4.467-2.46-4.467-4.427v-.76l15.385-.02c.576-.001 1.222-.543 1.537-1.252.285-.64.279-1.157 0-1.8-.337-.767-1.095-1.312-1.692-1.31l-16.736.048-.046.168V28.66c0 1.002-1.371 2.291-2.715 2.162-1.239-.117-2.257-1.39-2.254-2.276l.019-15.935c.003-1.66.481-2.305 1.521-3.219 1.014-.89 1.929-1.087 3.273-1.084l18.164.018z" fill="#fff"/></svg>