<svg width="253" height="74" fill="none" xmlns="http://www.w3.org/2000/svg"><g clip-path="url(#clip0_507_602)"><path d="M249.072 16.805c-4.317-5.21-11.939-8.198-20.901-8.198-9.484 0-18.021 3.21-23.934 8.416l.964-6.012-2.562-.758c-3.631-1.076-7.658-1.646-11.653-1.646a34.396 34.396 0 00-18.736 5.592l1.526-5.004H132.72l-.486 1.598c-3.647-1.458-7.661-2.186-12.183-2.186-8.45 0-17.6 3.265-22.348 9.548a16.79 16.79 0 00-1-1.35c-4.32-5.21-11.938-8.198-20.902-8.198-9.204 0-17.525 3.018-23.41 7.958l2.29-13.862-2.605-.75C47.629.676 42.688-.001 37.784-.001c-17.992 0-34.366 11.377-37.277 25.9C-.733 32.074.714 38.06 4.58 42.75c3.296 3.996 8.162 6.845 13.942 8.3H.697v22.68H91.49l.141-.275.018.276h10.929l1.481-2.403-.457 2.403h24.708l.364-1.894c2.17 1.399 4.989 2.157 8.237 2.157 2.901 0 5.593-.597 7.914-1.66l-.265 1.397h34.644l.058-.308c1.606.36 3.294.573 4.907.573.977 0 1.986-.086 2.989-.263h13.21l.98-2.07h.881l.267 2.07h40.74l2.025-10.614h-.745l.28-1.458h.533l2.028-10.612h-1.128c.921-.827 1.589-1.89 1.822-3.1a4.827 4.827 0 00-1.029-4.009 5.07 5.07 0 00-.816-.768c3.233-3.302 5.472-7.299 6.343-11.792 1.061-5.508-.138-10.55-3.478-14.576zM225.503 62.33h-1.251l1.888-9.868c.43-.055.858-.117 1.283-.184l-1.92 10.052zm-29.156-32.1c-.13.659-.219 1.311-.286 1.952-2.748 1.829-5.324 2.694-8.08 2.694-1.864 0-3.479-.606-4.318-1.62-.479-.576-.64-1.22-.491-1.97.491-2.527 3.937-4.743 7.373-4.743 2.15 0 4.17.756 6.15 2.304-.123.457-.259.913-.348 1.383zm2.782 20.822l-1.341 2.2-1.114-.622a13.86 13.86 0 00-2.337-1c.595-.14 1.151-.3 1.635-.475l1.564-.567 1.538-6.704c.208.288.405.583.637.86 2.318 2.796 5.662 4.935 9.697 6.307l-10.279.001zm13.606.928l-.534 2.792-.742-3.1c.42.108.842.214 1.276.309zm13.072-25.144c1.674 0 2.962.442 3.632 1.245.612.74.592 1.683.459 2.346-.534 2.735-3.353 4.645-6.871 4.645-1.712 0-3.064-.45-3.71-1.232-.449-.542-.584-1.303-.397-2.262.454-2.356 2.967-4.742 6.887-4.742zM148.491 53.09a11.827 11.827 0 00-1.551-.869h1.719l-.168.87zm-9.452 9.237c-.222.197-.583.328-1.001.353.214-.183.549-.334 1.001-.353zm-2.687-35.236l-2.039 6.678a9.798 9.798 0 00-1.668-4.847 10.657 10.657 0 00-1.416-1.64l5.123-.19zm-58.828 3.335c-.53 2.736-3.355 4.646-6.87 4.646-1.71 0-3.063-.45-3.71-1.232-.453-.542-.585-1.303-.397-2.262.457-2.359 2.97-4.742 6.89-4.742 1.674 0 2.963.442 3.632 1.245.608.74.584 1.685.456 2.345zm23.563 21.712l-.066.14-.014-.152c.027.002.053.008.08.012zm30.337-8.89l-2.381 7.804h-9.146c4.676-1.534 8.867-4.108 11.527-7.804zm.991 8.973h.51c-.188.08-.372.159-.555.245l.045-.245zM34.039 31.75c-2.61 0-4.87-.853-6.048-2.279-.681-.826-.91-1.74-.7-2.795.681-3.397 5.234-6.266 9.942-6.266 3.178 0 6.119 1.187 8.995 3.61a22.078 22.078 0 00-1.804 4.435c-3.511 2.233-6.83 3.295-10.385 3.295zm53.787 16.08l2.97 1.331c1.64.735 3.464 1.363 5.375 1.893h-5.527l-.593 1.18-.077-1.18h-9.553a34.543 34.543 0 007.405-3.223zm72.397 14.5l2.155-11.278H151.92l7.328-24.03 2.234.084a21.239 21.239 0 00-.986 3.369c-1.042 5.361.225 10.539 3.574 14.573 2.205 2.659 5.234 4.68 8.777 6.003h-9.218l-2.155 11.278-1.251.001zM43.72 50.208l1.574-.552 1.376-5.819c.222.307.427.615.67.907 2.32 2.797 5.662 4.935 9.695 6.307H40.353c1.262-.235 2.42-.514 3.367-.843zm189.075.843a36.976 36.976 0 003.914-1.444c.185.438.407.862.715 1.235.068.078.153.138.222.21h-4.851z" fill="#fff"/><path d="M87.11 54.09l.631 9.912h.158c.328-1.013.69-2.07 1.197-3.061l3.436-6.851h5.58l.842 9.912h.16c.292-.971.619-1.985 1.065-2.93l3.352-6.982h7.573l-10.241 16.608h-6.35l-.559-9.031h-.24c-.243.86-.456 1.696-.852 2.511l-3.264 6.52h-6.193L79.562 54.09h7.548z" fill="#005DAA"/><path d="M110.576 54.09h7.014l-1.067 5.594h4.464l1.068-5.594h7.014l-3.172 16.608h-7.014l1.1-5.77h-4.465l-1.101 5.77h-7.015l3.174-16.608z" fill="#005DAA"/><path d="M149.613 62.437c-1.018 5.33-6.599 8.524-12.706 8.524-6.113 0-10.474-3.194-9.454-8.524.998-5.22 6.641-8.613 12.726-8.613 6.084 0 10.43 3.393 9.434 8.613zm-14.843.088c-.363 1.893.93 3.194 3.136 3.194s3.995-1.3 4.359-3.194c.335-1.764-.817-3.237-3.127-3.237-2.317 0-4.032 1.474-4.368 3.237zm16.439-8.436h7.281l-2.155 11.278h6.112l-1.019 5.33h-13.392l3.173-16.608zm28.463 10.66l.324.245c1.141.836 2.578 1.52 4.254 1.52.718 0 1.906-.245 2.049-.991.144-.747-.8-.814-1.441-.926l-1.421-.22c-2.765-.42-4.888-1.808-4.394-4.404.756-3.943 5.506-6.146 9.863-6.146 2.285 0 4.3.465 6.074 1.454l-2.779 4.252c-1.114-.703-2.417-1.256-3.986-1.256-.636 0-1.606.196-1.733.878-.119.616.767.705 1.305.815l1.59.308c2.97.576 4.943 1.939 4.408 4.758-.76 3.965-5.493 5.925-9.825 5.925-2.521 0-5.336-.573-7.413-1.52l3.125-4.692z" fill="#005DAA"/><path d="M204.685 64.684l-.291-2.93c-.078-.704-.073-1.43-.069-2.137h-.266l-2.295 5.067h2.921zm-6.339 6.014h-7.705l10.135-16.608h8.05l3.975 16.608h-7.705l-.268-2.07h-5.499l-.983 2.07z" fill="#005DAA"/><path d="M215.367 54.09h7.281l-2.155 11.278h6.113l-1.02 5.329h-13.391l3.172-16.607zm14.743 0h13.475l-.868 4.538h-6.139l-.305 1.586h5.606l-.823 4.318h-5.606l-.31 1.63h6.352l-.869 4.536h-13.684l3.171-16.608z" fill="#005DAA"/><path d="M131.324 24.24l9.193-.344-7.714 25.289h16.494l7.711-25.289 8.986.343 3.66-12.007h-34.671l-3.659 12.007zm-34.152 6.565C94.865 42.66 82.228 49.77 68.383 49.77c-13.842 0-23.718-7.107-21.411-18.965 2.258-11.617 15.041-19.16 28.826-19.16 13.783 0 23.633 7.546 21.374 19.16zM63.545 31c-.818 4.214 2.112 7.106 7.107 7.106S79.7 35.216 80.521 31c.761-3.92-1.851-7.202-7.088-7.202-5.238-.002-9.125 3.282-9.888 7.202z" fill="#E31837"/><path d="M92.047 46.389c4.707 2.104 11.081 3.382 16.8 3.382 9.811 0 20.53-4.361 22.246-13.183 1.218-6.272-3.245-9.31-9.981-10.585l-3.598-.686c-1.217-.247-3.226-.44-2.96-1.816.296-1.518 2.489-1.96 3.935-1.96 3.549 0 6.503 1.225 9.026 2.793l6.293-9.458c-4.028-2.204-8.582-3.23-13.759-3.23-9.872 0-20.637 4.9-22.34 13.671-1.125 5.783 3.691 8.87 9.95 9.801l3.216.488c1.458.25 3.597.393 3.272 2.058-.324 1.666-3.016 2.205-4.644 2.205-3.794 0-7.049-1.519-9.635-3.38l-.737-.54-7.084 10.44zm109.715-33.225c-3.299-.98-7.048-1.519-10.783-1.519-13.302 0-25.391 8.625-27.488 19.407-2.051 10.536 6.473 18.72 19.414 18.72 2.948 0 9.172-.441 12.025-1.47l3.169-13.819c-3.061 2.107-6.325 3.43-10.117 3.43-4.934 0-8.6-3.137-7.807-7.202.781-4.019 5.436-7.203 10.37-7.203 3.732 0 6.708 1.715 8.969 3.727l2.248-14.071zm26.409-1.519c-13.782 0-26.566 7.544-28.826 19.16-2.306 11.856 7.57 18.966 21.415 18.966 13.841 0 26.482-7.107 28.786-18.967 2.255-11.612-7.593-19.159-21.375-19.159zm-2.364 12.152c5.237 0 7.852 3.281 7.085 7.202-.818 4.215-4.873 7.107-9.869 7.107-4.995 0-7.924-2.891-7.105-7.107.763-3.917 4.653-7.202 9.889-7.202zM51.224 4.871c-4.117-1.185-8.788-1.836-13.444-1.836-16.591 0-31.67 10.425-34.284 23.457-2.554 12.735 8.073 22.625 24.213 22.625 3.679 0 11.445-.533 14.997-1.774l3.95-16.707c-3.812 2.549-7.887 4.148-12.617 4.148-6.156 0-10.726-3.791-9.739-8.71.975-4.857 6.778-8.71 12.931-8.71 4.653 0 8.367 2.075 11.183 4.503l2.81-16.996z" fill="#E31837"/><path d="M239.395 47.388c.247-1.29 1.693-2.33 3.266-2.33 1.561 0 2.621 1.04 2.375 2.33-.252 1.299-1.704 2.337-3.267 2.337-1.572 0-2.619-1.043-2.374-2.337zm4.904 0c.197-1.038-.55-1.72-1.757-1.72-1.224 0-2.216.682-2.41 1.72-.198 1.039.528 1.728 1.755 1.728 1.206 0 2.214-.688 2.412-1.728zm-1.003 1.22h-.729l-.46-1.035h-.476l-.197 1.034h-.619l.466-2.441h1.429c.632 0 .972.173.864.748-.082.418-.412.633-.792.663l.514 1.03zm-.904-1.502c.31 0 .576 0 .628-.26.04-.215-.227-.215-.537-.215h-.671l-.088.475h.668z" fill="#E31837"/><path d="M4.652 70.725h77.195l-.006-.027h-.065l-.973-4.223H4.653v4.25zm0-6.037h75.736l-.986-4.25H4.652v4.25zm0-6.062H78.96l-.333-1.549-.684-2.955H4.652v4.504zm161.305-4.536h13.472l-.868 4.538h-6.137l-.304 1.586h5.605l-.822 4.318h-5.605l-.311 1.63h6.35l-.866 4.536h-13.688l3.174-16.608z" fill="#005DAA"/></g><defs><clipPath id="clip0_507_602"><path fill="#fff" d="M0 0h253v74H0z"/></clipPath></defs></svg>