<svg width="397" height="96" fill="none" xmlns="http://www.w3.org/2000/svg"><path d="M95.872 23.936h-8.347l-2.028 2.553c-.356.357-.239.737.117.855l2.741 1.208 7.752-3.624a.52.52 0 00-.235-.992z" fill="#4A835B"/><path d="M79.368 28.488a2.32 2.32 0 00-.005-3.278 2.31 2.31 0 00-3.272.004 2.32 2.32 0 00.004 3.278c.905.904 2.37.902 3.273-.004z" fill="#fff"/><path d="M64.885 64.969H54.612a51.956 51.956 0 01-7.169 3.373c-.254.11-.356.16-.235.514l9.181 25.517h5.016l-8.414-23.25h.227c5.481 0 18.562-1.37 25.64-12.826a16.758 16.758 0 01-6.17 5.05 16.728 16.728 0 01-7.803 1.622zm1.457-15.261c.564-.855 1.1-1.8 1.609-2.687-.235-.125-.446-.274-.681-.027a36.49 36.49 0 01-12.974 9.505 36.43 36.43 0 01-15.791 2.998H26.43c-.364 0-.665-.33-.392-.686a177.067 177.067 0 0127.31-29.557L33.12 46.292a9.058 9.058 0 01-6.096 2.263H1.576c-.72 0-.481.521-.364.878a14.812 14.812 0 005.689 7.754 14.768 14.768 0 009.244 2.616l-5.955 6.24c-.235.236-.235.977.356.977h22.708a36.98 36.98 0 0018.881-4.176 37.06 37.06 0 0014.207-13.14v.004zm-6.715 25.721l6.805 18.944h5.023L64.267 74.37c-1.52.46-3.07.814-4.64 1.059zm36.306-51.493H87.57l-2.028 2.541c-.356.365-.235.734.118.851l2.74 1.2 7.76-3.604a.517.517 0 00-.227-.988zm-16.57 4.553a2.312 2.312 0 01-3.943-1.645 2.32 2.32 0 011.424-2.14 2.31 2.31 0 012.52.495 4.158 4.158 0 00-5.879.02 4.173 4.173 0 00.007 5.89 4.158 4.158 0 005.879.006 4.173 4.173 0 00.02-5.889 2.316 2.316 0 01-.027 3.263z" fill="#00985F"/><path d="M79.262 28.13a1.96 1.96 0 000-2.768c-.763-.764-2-.764-2.763 0a1.96 1.96 0 000 2.768c.763.764 2 .764 2.763 0z" fill="#fff"/><path d="M78.853 58.298a91.046 91.046 0 009.553-29.714l-2.74-1.216c-.357-.117-.475-.486-.118-.85l2.028-2.523a14.61 14.61 0 00-5.417-4.908 14.579 14.579 0 00-7.112-1.665 18.742 18.742 0 00-10.571 3.098 133.483 133.483 0 00-11.147 8.806 176.247 176.247 0 00-27.308 29.49c-.255.357.047.686.391.686h12.094A36.493 36.493 0 0054.31 56.48a36.553 36.553 0 0012.977-9.528.493.493 0 01.681-.079.577.577 0 01.157.745A37.768 37.768 0 0154.633 64.97h10.274c2.688.09 5.359-.468 7.786-1.629a16.758 16.758 0 006.16-5.043zm-5.38-27.18a4.176 4.176 0 012.937-7.133 4.16 4.16 0 013.85 2.582 4.18 4.18 0 01-.914 4.551 4.166 4.166 0 01-5.869 0h-.004zm9.616 29.714a30.16 30.16 0 01-14.314 12.01l7.709 21.532h22.434c-4.487-12.994-9.29-25.765-13.82-37.35-.611 1.258-1.285 2.643-2.005 3.808h-.004zM0 94.374h22.708l7.345-22.568H7.897A780.138 780.138 0 000 94.374zm29.893-52.102l13.104-10.891c2.165-5.852 4.393-11.645 6.722-16.642 1.175 2.663 2.267 5.354 3.422 8.19 5.059-4.185 8.379-6.444 8.543-6.554l.075-.04a23.898 23.898 0 016.722-3.137C65.498 6.664 63.391 2.05 62.377 0H36.94c-2.118 4.789-10.023 21.203-19.27 43.084h9.357a4.051 4.051 0 002.866-.812zm97.282 38.861a7.735 7.735 0 01-6.342-2.1 7.775 7.775 0 01-2.357-6.261v-35.16h-18.433v37.653c0 13.856 6.17 20.669 19.185 20.669" fill="#E0001A"/><path d="M136.224 77.078a13.142 13.142 0 01-9.056 3.957 7.74 7.74 0 01-6.353-2.114 7.767 7.767 0 01-2.343-6.283V36.947h-18.429v38.229c0 13.915 6.119 20.752 19.185 20.752a23.719 23.719 0 0010.565-1.626 23.765 23.765 0 008.784-6.1l1.143 6.188h14.948V36.931h-18.444v40.147zm58.575 2.875c-9.22 0-14.016-5.754-14.016-14.512 0-8.393 4.792-13.555 13.895-13.555a21.667 21.667 0 0112.333 3.597l2.639-15.72a45.178 45.178 0 00-19.522-3.84c-18.562 0-28.745 10.68-28.745 30.236 0 19.673 9.58 29.753 28.268 29.753a43.533 43.533 0 0021.197-5.158l-2.635-14.637a28.153 28.153 0 01-13.414 3.836zm57.123-44.03a25.763 25.763 0 00-16.71 4.919V15.74h-19.118v78.635h19.114V54.76a12.279 12.279 0 018.712-3.957 7.486 7.486 0 016.228 2.152 7.526 7.526 0 012.131 6.245v35.173h19.114V56.68c0-13.916-6.417-20.756-19.471-20.756zm125.754 0a23.934 23.934 0 00-10.593 1.493 23.978 23.978 0 00-8.89 5.96l-1.276-6.456h-15.211v57.454h19.115V54.761a12.291 12.291 0 018.711-3.957 7.488 7.488 0 016.225 2.154 7.513 7.513 0 012.13 6.243v35.173h19.114V56.68c0-13.916-6.393-20.756-19.325-20.756zm-99.807 32.162c0 19.438 7.184 27.847 21.083 27.847a20.2 20.2 0 009.785-1.632 20.24 20.24 0 007.834-6.095l.959 6.19h15.32V39.52a79.518 79.518 0 00-26.165-3.597c-18.586 0-28.816 11.398-28.816 32.158v.004zm35.847 8.997a12.132 12.132 0 01-9.036 3.957c-5.027 0-7.811-4.679-7.811-13.676 0-11.037 3.038-16.555 9.005-16.555 2.636-.06 5.267.223 7.831.84l.011 25.434z" fill="#E0001A"/></svg>