<svg width="160" height="160" fill="none" xmlns="http://www.w3.org/2000/svg"><path d="M0 0v160h160V0H0z" fill="#fff"/><path d="M1.39 1.39h157.218v157.218H1.391V1.391z" fill="#0050AA"/><path d="M80.002 5.564a74.448 74.448 0 1074.434 74.463A74.475 74.475 0 0080.002 5.564z" fill="#E60A14"/><path fill-rule="evenodd" clip-rule="evenodd" d="M80.002 10.268a69.732 69.732 0 1069.732 69.76 69.762 69.762 0 00-69.732-69.76z" fill="#FFF000"/><path fill-rule="evenodd" clip-rule="evenodd" d="M75.672 81.962L63.36 69.648l-14.191 14.22v4.772l3.576-3.59 9.906 9.934-3.66 3.645 2.38 2.393 19.812-19.84v-4.758l-5.51 5.537z" fill="#E60A14"/><path fill-rule="evenodd" clip-rule="evenodd" d="M18.2 67.06h21.926v4.731h-3.659v15.304l12.703-7.067V92.98H18.2v-4.759h3.672v-16.43H18.2v-4.73zm92.451 0v4.731h3.673v16.431h-3.673v4.759h30.999V80.028l-12.717 7.067V71.791h3.673v-4.73h-21.955z" fill="#0050AA"/><path fill-rule="evenodd" clip-rule="evenodd" d="M61.551 52.326a7.805 7.805 0 11-7.805 7.778 7.777 7.777 0 017.805-7.778z" fill="#E60A14"/><path d="M77.565 67.06v4.731h3.66v16.431h-3.702v4.759h20.87c15.499 0 15.694-25.92.042-25.92h-20.87zm16.89 8.07h.877c4.578 0 4.578 9.74.167 9.74h-1.043v-9.74z" fill="#0050AA"/></svg>