<svg width="255" height="61" fill="none" xmlns="http://www.w3.org/2000/svg"><g clip-path="url(#clip0_507_637)"><path d="M223.958 20.535c1.42 0 2.588-.743 2.746-1.703l1.402-15.96c0-1.577-1.836-2.872-4.143-2.872-2.306 0-4.14 1.295-4.14 2.873l1.401 15.959c.154.96 1.323 1.703 2.739 1.703h-.005zm-8.567 4.985c.712-1.236.658-2.626-.092-3.243l-13.03-9.202c-1.354-.79-3.385.16-4.538 2.174-1.157 2.01-.952 4.255.399 5.045l14.427 6.763c.902.337 2.132-.31 2.838-1.546l-.004.009zm17.142-.009c.711 1.236 1.934 1.884 2.837 1.547l14.427-6.763c1.36-.79 1.553-3.035.407-5.045-1.158-2.011-3.193-2.964-4.544-2.174l-13.03 9.202c-.745.616-.801 2.007-.093 3.243l-.004-.01zm-8.575 14.96c1.42 0 2.588.737 2.746 1.698l1.402 15.957c0 1.582-1.836 2.874-4.143 2.874-2.306 0-4.14-1.292-4.14-2.874l1.401-15.957c.154-.961 1.323-1.698 2.739-1.698h-.005zm8.575-4.986c.711-1.239 1.934-1.881 2.837-1.54l14.427 6.758c1.36.79 1.553 3.038.407 5.05-1.158 2.004-3.193 2.96-4.544 2.17l-13.03-9.193c-.745-.621-.801-2.012-.093-3.248h-.005l.001.003zm-17.142-.002c.712 1.235.658 2.626-.092 3.248l-13.03 9.193c-1.354.79-3.385-.166-4.538-2.17-1.157-2.012-.952-4.26.399-5.05l14.427-6.759c.902-.34 2.132.302 2.838 1.541h-.004" fill="#FDBB30"/><path d="M141.77 38.7c0 .49-.043.995-.176 1.439-.553 1.842-2.448 3.4-4.818 3.4-1.977 0-3.547-1.13-3.547-3.517 0-3.654 3.995-4.664 8.542-4.638l-.001 3.316zm7.133-6.367c0-6.026-2.557-11.327-11.198-11.327-4.435 0-7.955 1.254-9.877 2.372l1.407 4.843c1.756-1.116 4.555-2.04 7.204-2.04 4.382-.012 5.1 2.5 5.1 4.106v.38c-9.553-.014-15.593 3.317-15.593 10.102 0 4.145 3.076 8.028 8.423 8.028 3.286 0 6.037-1.32 7.684-3.437h.163s1.089 4.596 7.105 2.838c-.314-1.912-.417-3.952-.417-6.406l-.001-9.46zM.047 12.8s6.243 25.755 7.24 29.935c1.163 4.88 3.259 6.675 9.299 5.463l3.898-15.968c.988-3.968 1.65-6.797 2.287-10.83h.11c.447 4.076 1.082 6.875 1.895 10.843 0 0 1.586 7.25 2.4 11.056.814 3.805 3.081 6.205 8.998 4.899l9.29-35.4h-7.498l-3.173 15.306c-.853 4.453-1.626 7.937-2.223 12.01h-.106c-.542-4.037-1.232-7.379-2.098-11.718l-3.3-15.597h-7.814L15.72 28.002c-1 4.622-1.938 8.352-2.531 12.29h-.108a436.891 436.891 0 00-2.3-12.87S8.684 16.547 7.946 12.8l-7.9.001zm59.598 25.9c0 .49-.043.995-.178 1.439-.552 1.842-2.448 3.4-4.818 3.4-1.977 0-3.545-1.13-3.545-3.517 0-3.654 3.994-4.664 8.542-4.638l-.001 3.316zm7.132-6.367c0-6.026-2.558-11.327-11.196-11.327-4.437 0-7.96 1.254-9.88 2.372l1.405 4.843c1.756-1.116 4.555-2.04 7.204-2.04 4.386-.012 5.104 2.5 5.104 4.106v.38c-9.558-.014-15.594 3.317-15.594 10.102 0 4.145 3.074 8.028 8.417 8.028 3.29 0 6.04-1.32 7.689-3.437h.16s1.093 4.596 7.108 2.838c-.315-1.912-.417-3.952-.417-6.406v-9.46zm11.902 8.35V12.8h-7.14v35.399h7.14v-7.515zM172.097 12.8v26.113c0 3.602.674 6.123 2.112 7.665 1.26 1.35 3.331 2.222 5.814 2.222 2.112 0 4.188-.405 5.168-.771l-.092-5.617c-.729.18-1.566.325-2.712.325-2.433 0-3.247-1.57-3.247-4.802v-9.991h6.218V21.17h-6.218V12.8h-7.043zm-18.432 8.806v26.593h7.366V34.583c0-.736.044-1.377.16-1.964.545-2.854 2.711-4.675 5.823-4.675.853 0 1.463.093 2.125.188V21.17a7.126 7.126 0 00-1.623-.164c-2.749 0-5.876 1.786-7.189 5.617h-.199v-5.017h-6.463zm-69.986 0v26.593h7.177V32.605c0-.732.086-1.506.337-2.177.595-1.57 2.046-3.409 4.362-3.409 2.898 0 4.25 2.465 4.25 6.023v15.155h7.172V32.413c0-.698.095-1.54.3-2.156.589-1.787 2.152-3.24 4.305-3.24 2.936 0 4.345 2.422 4.345 6.61v14.569h7.177V32.533c0-8.26-4.166-11.53-8.869-11.53-2.081 0-3.726.526-5.213 1.443-1.248.774-2.368 1.872-3.345 3.314h-.106c-1.134-2.866-3.803-4.755-7.28-4.755-4.467 0-6.475 2.28-7.692 4.213h-.107v-3.613h-6.813" fill="#1A75CF"/><path d="M253.415 46.907h.108c.144 0 .236-.06.236-.149 0-.1-.086-.156-.22-.156-.046 0-.093.01-.124.01v.297-.002zm-.017.717h-.381v-1.252c.086-.017.288-.047.547-.047.281 0 .406.04.499.102a.326.326 0 01.134.275c0 .128-.117.237-.29.284v.016c.141.038.218.141.258.322a1.3 1.3 0 00.086.3h-.432c-.037-.046-.06-.157-.085-.267-.025-.127-.084-.19-.211-.19h-.126l.001.457zm.158-1.66c-.548 0-.961.45-.961 1.023 0 .558.414 1.013.976 1.013.564.01.978-.455.978-1.022 0-.565-.414-1.013-.984-1.013h-.009zm.025-.339c.763 0 1.372.605 1.372 1.352 0 .757-.609 1.363-1.383 1.363a1.37 1.37 0 01-1.39-1.362c0-.748.617-1.353 1.39-1.353h.009" fill="#FDBB30"/></g><defs><clipPath id="clip0_507_637"><path fill="#fff" d="M0 0h255v61H0z"/></clipPath></defs></svg>