<svg width="257" height="70" fill="none" xmlns="http://www.w3.org/2000/svg"><path d="M20.466 57.33c-5.102 0-9.233 2.912-11.227 4.975 0 0-4.853 4.796-8.138 6.457-.144.079-.142.238.058.238h29.7c5.872 0 8.632-1.984 12.117-5.095 0 0 5.073-4.702 8.553-6.22.35-.132.267-.355 0-.355H20.466zm51.023 0c-5.102 0-9.229 2.912-11.227 4.975 0 0-4.851 4.796-8.137 6.457-.145.079-.142.238.059.238h29.759c5.87 0 8.633-1.984 12.116-5.095 0 0 5.017-4.702 8.494-6.22.351-.132.325-.355.059-.355H71.489zm51.082 0c-5.1 0-9.23 2.912-11.227 4.975 0 0-4.852 4.796-8.138 6.457-.143.079-.139.238.061.238h29.759c5.87 0 8.572-1.984 12.057-5.095 0 0 5.074-4.702 8.552-6.22.352-.132.326-.355.06-.355h-31.124zm51.023 0c-5.099 0-9.17 2.912-11.168 4.975 0 0-4.911 4.796-8.198 6.457-.143.079-.139.238.061.238h29.757c5.872 0 8.633-1.984 12.118-5.095 0 0 5.077-4.702 8.554-6.22.353-.132.265-.355 0-.355h-31.124zm51.08 0c-5.1 0-9.232 2.912-11.226 4.975 0 0-4.855 4.796-8.14 6.457-.145.079-.14.238.059.238h29.761c5.87 0 8.629-1.984 12.118-5.095 0 0 5.018-4.702 8.491-6.22.351-.132.329-.355.06-.355h-31.123z" fill="#0054A4" stroke="#fff" stroke-width=".363" stroke-miterlimit="11.474"/><path d="M124.413 1c-10.857 0-21.443 3.214-21.443 13.979 0 18.64 32.608 8.793 32.608 20.198 0 3.718-5.782 5.213-10.453 5.213-8.389 0-14.171-1.244-21.501-5.627v9.358c5.464 1.797 12.899 2.666 20.967 2.666 11.262 0 21.799-2.9 21.799-13.92 0-19.464-32.61-10.718-32.61-20.257 0-3.841 5.233-5.153 9.803-5.153 7.689 0 15.991 2.244 20.552 6.455v-9.95C138.233 2.103 130.396 1 124.413 1zm57.615.118c-19.583 0-32.55 9.388-32.55 23.693 0 13.13 11.901 21.916 29.699 21.916 5.765 0 10.911-.753 16.927-2.193V33.457c-4.252 4.48-9.306 6.279-14.73 6.279-10.512 0-17.701-6.53-17.701-15.935 0-9.275 7.453-16.052 17.877-16.052 5.68 0 10.233 2.06 13.898 5.629V2.3c-3.811-.784-8.591-1.183-13.42-1.183v0zm45.674 0c-16.874 0-28.807 9.688-28.807 23.337 0 13.39 10.715 22.274 26.67 22.274 16.952 0 28.628-9.445 28.628-23.16.004-13.458-10.614-22.45-26.491-22.45v0zM2.766 2.48v10.485c3.668-2.836 11.34-3.905 19.719-3.969v28.609c0 4.16-.369 5.345-2.138 7.523h16.572c-1.86-2.178-2.14-3.363-2.14-7.523V8.757c7.263.064 15.933 1.37 19.601 4.209V2.48H2.766v0zm56.07 0c1.735 2.177 2.079 3.418 2.079 7.582v27.543c0 4.16-.314 5.41-1.96 7.523H98.99V34.763c-5.493 3.9-15.946 3.913-20.195 3.849h-5.82V26.707h4.276c2.898 0 8.127.342 11.167 1.245v-8.884c-2.996.96-8.278 1.244-11.167 1.244h-4.276V9.002h5.82c5.201 0 14.246 1.073 17.641 3.91V2.485H58.837V2.48zm167.742 5.095c8.838 0 14.67 7.292 14.67 16.289 0 8.997-5.832 16.29-14.67 16.29-8.983 0-14.734-7.293-14.734-16.29.001-8.996 5.751-16.29 14.734-16.29z" fill="#F02E25" stroke="#fff" stroke-width=".138" stroke-miterlimit="3.864"/></svg>