<svg width="161" height="157" fill="none" xmlns="http://www.w3.org/2000/svg"><path d="M160.326 156.223H.816V1.191h159.51v155.032z" fill="#fff"/><path d="M161 157H0V0h161v157z" fill="#008061"/><path d="M99.267 146.669v6.286H60.65v-6.297H31.43c-2.855 0-5.181-2.995-5.181-6.688L14.023 15.866c0-3.695 2.855-6.692 6.379-6.692H138.48c3.501 0 6.356 2.997 6.356 6.692L132.747 139.97c0 3.693-2.326 6.688-5.181 6.688l-28.3.011z" fill="#fff"/><path d="M35.527 27.346h79.05c-7.783 2.927-31.477 19.028-37.394 29.852H35.597l-.07-29.852z" fill="#F5821F"/><path d="M98.53 112.885c-1.127 10.81-1.174 23.975-1.174 37.804H63.094c0-13.829.575-26.994 1.703-37.804h33.734z" fill="#ED1B2D"/><path d="M40.042 101.453v4.191h5.48v4.803H32.996v-22.35h12.526v4.979h-5.48v4.187h5.48v4.19h-5.48zm29.153 0v4.191h5.456v4.803H62.148v-22.35h12.503v4.979h-5.456v4.187h5.456v4.19h-5.456zm32.074 0v4.191h5.48v4.803H94.223v-22.35h12.526v4.979h-5.48v4.187h5.48v4.19h-5.48zm-40.872 4.191v4.803H47.87v-22.35h7.046v17.547h5.48zm15.544-17.546l3.5 22.349h9.05l4.236-22.35H87.5l-2.74 15.105-2.671-15.104H75.94zm40.548 22.346h-6.77V88.098h6.77v22.346z" fill="#008061"/><path d="M116.488 94.732c.369-2.447 3.823-1.79 3.823-.393v16.107h6.792V91.504c0-4.017-5.641-5.633-10.568-2.097l-.047 5.325z" fill="#008061"/><path d="M101.709 84.955c.691-8.553 12.365-22.52 23.671-26.188V25.771c-31.108 13.968-51.325 35.092-55.7 59.1l32.029.083z" fill="#ED1B2D"/></svg>