<svg width="75" height="77" fill="none" xmlns="http://www.w3.org/2000/svg"><g clip-path="url(#clip0_527_590)"><ellipse cx="37.5" cy="38.416" rx="37.5" ry="38" fill="#5AAC52"/><path opacity=".2" d="M37.736 52.683C27.431 60.989 15.955 65.26 5.181 65.499c-7.963-13.766-6.324-47.23 3.045-56.96 8.431-8.782 34.897-10.443 50.12-4.984 3.748 15.664-3.98 35.6-20.61 49.128z" fill="#fff"/><path d="M32.113 59.566c-1.64 0-3.28-.712-4.216-2.136L14.78 40.342c-1.874-2.373-1.405-5.696.937-7.595 2.342-1.898 5.621-1.424 7.495.95l8.9 11.63 19.673-25.87c1.874-2.373 5.153-2.848 7.495-.95 2.342 1.9 2.81 5.222.937 7.595L36.328 57.43c-1.17 1.187-2.576 2.136-4.215 2.136z" fill="#fff"/></g><defs><clipPath id="clip0_527_590"><path fill="#fff" transform="translate(0 .416)" d="M0 0h75v76H0z"/></clipPath></defs></svg>