<svg width="95" height="72" fill="none" xmlns="http://www.w3.org/2000/svg"><g clip-path="url(#clip0_39_109)" fill="#fff"><path d="M50.684 24.697c.332 4.554-.274 9.177.505 13.695a.859.859 0 001.058.602c1.609-.507 3.28-.79 4.965-.844.844-.041 1.69-.026 2.53 0 .756.023 1.499.173 2.229-.06.56-.18.766-1.03.173-1.329-.047-.023-.094-.042-.143-.064-.041-.567-.184-1.184-.19-1.669-.016-1.197.1-2.392.213-3.585.165-1.888.72-4.002.405-5.887a.617.617 0 00-.443-.444.574.574 0 00-.238-.034c-.745.262-.72 1.253-.805 1.928-.115.923-.25 1.845-.379 2.768a.192.192 0 00-.15-.122c-.697-.122-1.412.081-2.116.135-.606.045-1.212.07-1.82.085 0-.75 0-1.5.073-2.247.047-.546.184-1.052.19-1.598 0-.388-.042-.428-.09-.379l-.128-.373a.16.16 0 00-.163-.115.158.158 0 00-.068.021.69.69 0 00-.214.538c.028 1.051-.263 2.142-.31 3.213-.013.323-.022.643-.024.966h-.03c-.997.015-2.393-.141-3.347.31-.06-1.86-.215-3.707-.724-5.505 1.147.495 3.21.215 4.067.232 1.22.01 2.44.017 3.658.043.92.019 2.37.379 3.033-.448a.493.493 0 00.075-.58c-.537-.92-1.834-.742-2.748-.76-1.34-.025-2.68-.012-4.018 0-.443 0-5.208-.284-4.81.815.035.093.082.18.142.26a.408.408 0 00-.362.447l.004-.015zm5.056 5.709c0 1.878.1 3.736-.36 5.6a.381.381 0 00.734.2c.54-1.792.428-3.684.37-5.533v-.252c1.266.066 2.944.287 3.982-.326a.228.228 0 00.058-.053c-.037.265-.073.531-.107.799-.17 1.3-.27 2.609-.3 3.92 0 .428-.043.996 0 1.557-.99-.05-2.031.052-2.896.082a19.2 19.2 0 00-4.512.66c-.306-2.143-.266-4.334-.323-6.51a36.065 36.065 0 013.365-.146"/><path d="M94.576 42.749c-1.22-1.549-3.934-2.175-5.64-3-1.22-.593-2.292-1.404-3.553-1.946-1.483-.643-3.022-1.168-4.474-1.877.583-.891.56-2.142-.659-2.68.214.094-.197-.259-.338-.49-.25-.412-.473-.842-.7-1.268a22.74 22.74 0 00-2.061-3.188c-1.002-1.3-1.927-2.646-3.029-3.856-.103-.113-.214-.214-.321-.328 4.23-5.481 9.632-10.018 13.793-15.558.34-.452-.036-1.071-.496-1.221.385.128-.36-.24-.45-.266a7.767 7.767 0 01-1.181-.702c-1.285-.84-2.573-1.68-3.866-2.52C79.64 2.58 77.517.801 75.28.043a.714.714 0 00-.781.31c-2.106 2.74-3.521 5.893-5.223 8.884-1.417 2.491-3.425 4.608-4.848 7.08-.25-.182-.501-.362-.756-.538-.815-.557-1.66-1.071-2.489-1.617a21.73 21.73 0 00-1.17-.707c-.084-.047-.226-.14-.369-.23-.4-.528-1.122-.805-1.976-.387-2.722 1.326-5.01 3.44-7.303 5.396l-.702.6a.55.55 0 00-.064-.08.896.896 0 00-.27-.72c-2.782-2.306-5.518-4.69-8.273-7.038a262.879 262.879 0 00-3.801-3.194c-1.753-1.427-3.39-3.064-5.351-4.195a.971.971 0 00-1.167.152c-3.21 3.357-4.884 7.732-7.526 11.497-.317.452-.045.999.336 1.286 1.482 1.107 3.177 1.741 4.91 2.337a64.362 64.362 0 016.486 2.731c2.605 1.227 5.034 2.659 7.556 4.004-1.614 1.555-3.373 2.909-4.938 4.53-1.678 1.738-4.234 4.409-4.307 6.937-.079 2.784 5.08 3.886 5.882.985.28-1.017.1-2.142.769-3.582.507-1.094.623-1.713 1.316-2.694 1.402-1.978 2.783-3.87 4.358-5.71 1.832-2.141 3.677-4.264 5.71-6.211 2.141-2.05 4.924-3.034 7.612-4.13.073-.03.145-.064.214-.101 1.216.522 2.374 1.411 3.395 2.142 2.38 1.714 4.495 3.952 6.657 5.936 2.05 1.88 3.71 4.05 5.188 6.377.178 3.912.533 7.808.732 11.718.26 5.102-.019 10.258-.595 15.316-.284 2.5-.954 4.548-1.406 7.01l-.734 3.998c-.144.784-.428 1.624-.351 2.421.12 1.305 1.586 2.076 2.202.72.794-1.744.897-4.394 1.25-6.352l1.674-16.91c3.404 2.357 7.197 4.222 10.274 7.005a.829.829 0 001.285-.167c1.393-2.543 2.294-5.167 4.225-7.412 1.038-1.208 2.95-3.089 1.678-4.713l-.013.022zm-58.24-4.017a1.989 1.989 0 01-1.839-1.23 1.995 1.995 0 011.451-2.716 1.989 1.989 0 012.38 1.954 1.993 1.993 0 01-1.992 1.992zm12.46-19.166a236.2 236.2 0 00-2.168 1.928 27.148 27.148 0 01-4.326-2.29l.122-.182c.503-.739.993-1.5 1.498-2.232.129-.188.253-.338.34-.484a76.594 76.594 0 003.965 3.164.85.85 0 00.563.124l.006-.028zm-5.12-3.761c-.693.529-1.284 1.909-1.646 2.435-.118.176-.244.354-.377.532-1.2-.801-2.375-1.65-3.561-2.477a20.183 20.183 0 012.19-3.4c1.132.967 2.258 1.944 3.392 2.91h.002zm-7.181 4.53c.316-1.14.73-2.25 1.237-3.318 1.141.808 2.282 1.618 3.438 2.404a20.637 20.637 0 00-1.687 2.47 55.675 55.675 0 00-2.997-1.555h.009zm3.459-7.711a16.3 16.3 0 00-2.117 3.502 57.798 57.798 0 00-2.389-1.59 12.456 12.456 0 00-.713-.372 49.803 49.803 0 001.94-4.302c1.102.91 2.192 1.836 3.281 2.762h-.002zm-3.85-3.246c-.737 1.468-1.428 2.941-2.165 4.39-1-.485-2.307-1.102-3.424-1.624.926-1.714 1.969-3.387 2.975-5.002.869.728 1.712 1.5 2.579 2.21l.034.028v-.002zm-4.53-3.69c.548.366 1.076.76 1.584 1.182-1.105 1.662-2.168 3.327-3.146 5.04l-1.84-.857-.033.073a.214.214 0 00.034.253c.458.43.973.797 1.53 1.088a45.921 45.921 0 00-2.046 4.137 14.841 14.841 0 01-2.355-1.118c2.14-3.237 3.68-6.879 6.266-9.799h.006zm-3.153 11.205a27.473 27.473 0 011.774-4.16c.598.3 1.208.57 1.77.857.564.287 1.1.548 1.636.831a37.363 37.363 0 01-2.123 3.627 92.685 92.685 0 00-1.058-.429c-.665-.253-1.338-.484-1.997-.724l-.002-.002zm3.842 1.48a38.493 38.493 0 002.126-3.53c.663.37 1.318.767 1.962 1.215.386.268.77.538 1.154.81-.481 1.07-.935 2.172-1.485 3.245a104.531 104.531 0 00-3.757-1.74zm11.542 5.9c-1.206-.643-2.385-1.305-3.569-1.962a19.826 19.826 0 001.63-2.413l.108.075c1.208.8 2.522 1.689 3.913 2.235a50.742 50.742 0 00-2.082 2.067v-.002zm33.119-6.425c-1.141-.505-2.241-1.143-3.35-1.773a136.9 136.9 0 011.749-2.755 58.046 58.046 0 013.82 2.228c-.73.77-1.456 1.546-2.178 2.324l-.041-.024zm1.67-8.8c1.05.555 2.101 1.112 3.163 1.646.419.25.855.467 1.306.653a222.86 222.86 0 01-3.506 3.764 19.224 19.224 0 00-3.832-2.41c.856-1.266 1.783-2.502 2.684-3.753l.184.098v.002zm-3.271-7.486c.708.334 1.391.856 2.031 1.253 1.374.857 2.731 1.75 4.084 2.639 1.23.81 2.46 1.624 3.688 2.433l.58.38c-.214-.129-.152-.065-.032.04a68.599 68.599 0 01-1.984 2.335c-.495-.36-1.24-.563-1.755-.816-1.026-.501-2.04-1.024-3.055-1.544a32.57 32.57 0 001.837-2.869.176.176 0 00-.274-.214c-.84.835-1.61 1.738-2.303 2.7-1.563-.815-3.145-1.676-4.806-2.252a.295.295 0 00-.28.062.18.18 0 00-.1.325.355.355 0 00.213.215c1.552.612 3.031 1.484 4.495 2.3-.897 1.266-1.733 2.582-2.568 3.798l-.03.043c-1.635-.752-3.341-1.367-4.955-1.928a.224.224 0 00-.067 0l.06-.09c1.828-2.885 3.17-6.053 5.214-8.802l.007-.008zm-5.478 9.2a.215.215 0 00.142.15c1.598.598 3.16 1.29 4.677 2.072a105.08 105.08 0 00-1.79 2.703c-1.62-.906-3.275-1.733-5.094-2.065a48.506 48.506 0 002.065-2.86zm-4.589 6.212c.722-1.015 1.486-1.996 2.246-2.982 1.832.36 3.456 1.243 5.049 2.2l-.11.168c-.678 1.07-1.581 2.21-1.926 3.427a.32.32 0 00.53.309c.77-.82 1.253-1.943 1.836-2.903.12-.2.246-.396.368-.594a32.893 32.893 0 003.225 1.806c-1.36 1.49-2.682 3-3.912 4.6-.803-.654-1.648-1.269-2.421-1.928-1.616-1.367-3.198-2.815-4.878-4.12l-.007.017zm21.707 23.354c.672.407 1.365.76 2.065 1.097a19.97 19.97 0 00-2.179 3.569 67.271 67.271 0 00-2.318-1.324c-.53-.287-1.203-.71-1.926-1.116l1.284-3.766c1.057.455 2.087.97 3.084 1.542l-.01-.002zm-9.896-4.732c.202.308.45.582.737.812.856.656 1.688.623 2.33.25 1.05.84 2.225 1.427 3.425 1.98-.488 1.217-.933 2.446-1.385 3.678-1.158-.615-2.403-1.12-3.411-.947-.3.052-.215.504.068.51.991.024 2.07.497 3.104 1.071-.069.189-.137.375-.214.561a36.052 36.052 0 01-1.308 3.042c-.193.4-.441.712-.574 1.071a59.537 59.537 0 01-2.55-1.74l.234-2.608c-.075-2.57-.267-5.141-.458-7.695l.002.015zM88.703 51.35c-.19.377-.428 1.274-.747 1.865-1.34-1.347-3.095-2.375-4.656-3.39-.922-.6-1.862-1.18-2.793-1.774.747-.84 1.07-2.524 1.38-3.45.162-.466.322-.934.482-1.402.867.518 1.691 1.086 2.387 1.5.578.34 1.151.691 1.725 1.04l-.265.579c-.392.87-.764 1.745-1.154 2.617-.23.514-.614 1.02-.522 1.596a.243.243 0 00.355.144c.944-.44 1.45-2.785 1.813-3.67l.37-.902c1.145.7 2.297 1.389 3.485 2.003-.287.414-.552.84-.811 1.286a44.987 44.987 0 00-1.05 1.951v.007zm4.647-7.001c-.467.996-1.284 1.847-1.987 2.686-.096.118-.186.236-.278.354-1.252-.643-2.466-1.365-3.68-2.087a18.573 18.573 0 011.974-3.73c.856.408 1.736.798 2.599 1.228.661.332 1.772.69 1.372 1.549z"/><path d="M31.69 31.098c-.105.456-1.6 4.946-1.985 5.998l-4.263 11.996s-4.054-12.57-4.763-14.781c-.708-2.211-4.527-1.26-4.127 0 .4 1.26 6.355 19.493 6.355 19.493h1.65L30.5 37.31a48.201 48.201 0 012.816-6.11c1.02-1.713-1.263-1.636-1.62-.098m5.717 22.291a.66.66 0 00.657-.657v-11.05a.644.644 0 00-.657-.642l-2.151.017a.665.665 0 00-.657.662v11.019a.66.66 0 00.657.658h2.162l-.011-.007zm9.553.193a2.443 2.443 0 001.265-1.21c.321-.606.472-1.432.454-2.479h-.715c0 2.22-.577 3.249-1.732 3.085a.91.91 0 01-.687-.538 2.848 2.848 0 01-.26-1.06c-.028-.404-.042-.9-.042-1.487v-8.2h1.486v-.643h-1.486v-3.427c0-1.695-3.44-1.797-3.44.066v3.361h-1.401v.643h1.402v8.354c-.01.176.008.353.055.523a4.85 4.85 0 00.88 2.106c.477.67 1.348 1.04 2.614 1.114a3.445 3.445 0 001.61-.215M14.61 49.463h-2.73a.66.66 0 00-.657.657v6.787a.66.66 0 01-.658.657h-5.81a.659.659 0 01-.658-.657v-6.789a.66.66 0 00-.657-.658H.653a.657.657 0 00-.657.658v17.298a.66.66 0 00.657.658h2.783a.66.66 0 00.657-.658v-8.11a.66.66 0 01.657-.658h5.811a.659.659 0 01.657.658v8.112a.66.66 0 00.657.658h2.732a.66.66 0 00.657-.658v-17.3a.66.66 0 00-.657-.658m11.731 7.119a5.91 5.91 0 00-7.47 1.005c-1.184 1.266-1.776 2.873-1.774 4.82a7.384 7.384 0 00.715 3.193 5.909 5.909 0 002.14 2.45 5.72 5.72 0 003.316.91c1.815 0 3.305-.643 4.471-1.929a6.643 6.643 0 001.747-4.625 6.97 6.97 0 00-.84-3.386 6.383 6.383 0 00-2.305-2.438zm-.798 8.3c0 1.267-.193 2.196-.578 2.785a2.252 2.252 0 01-1.712.772 2.418 2.418 0 01-1.65-.772c-.367-.477-.588-1.405-.662-2.784a41.178 41.178 0 01-.056-2.477c0-1.08.019-1.915.056-2.506.025-.554.085-1.105.18-1.652a2.23 2.23 0 01.481-1.07 2.01 2.01 0 011.65-.8 2.062 2.062 0 011.713.8c.385.513.578 1.422.578 2.724.073 1.175.11 2.01.11 2.506s-.037 1.321-.11 2.477m34.13-23.399a5.912 5.912 0 00-7.47 1.005c-1.183 1.266-1.775 2.872-1.775 4.817a7.376 7.376 0 00.715 3.194 5.916 5.916 0 002.14 2.45 5.72 5.72 0 003.316.91c1.815 0 3.306-.644 4.471-1.929a6.643 6.643 0 001.747-4.625 6.969 6.969 0 00-.839-3.386 6.375 6.375 0 00-2.305-2.436zm-.797 8.292c0 1.267-.192 2.195-.577 2.785a2.253 2.253 0 01-1.713.771 2.415 2.415 0 01-1.65-.771c-.368-.477-.589-1.405-.661-2.785a40.417 40.417 0 01-.054-2.478c.001-1.081.02-1.917.053-2.507.026-.553.086-1.105.18-1.651a2.24 2.24 0 01.482-1.071 2.008 2.008 0 011.65-.8 2.065 2.065 0 011.713.8c.385.514.578 1.423.578 2.727.072 1.175.109 2.01.109 2.506s-.037 1.32-.11 2.474zm-17.397 6.433H39.29a.657.657 0 00-.658.658v6.914c0 1.285-.325 2.313-.976 3.084-.65.771-1.315 1.128-1.995 1.071-.77-.091-1.233-.458-1.389-1.1-.156-.643-.214-2.4-.214-2.4a45.067 45.067 0 01-.021-1.315v-6.255a.66.66 0 00-.657-.658h-2.072a.659.659 0 00-.657.658v6.308a19.12 19.12 0 00.181 2.73c.514 1.983 1.642 3.002 3.385 3.056a4.614 4.614 0 002.489-.55c.796-.429 1.537-1.38 1.537-1.38.214-.287.402-.214.402.137v.724a.66.66 0 00.657.658h2.216a.657.657 0 00.655-.658l-.032-11.021a.662.662 0 00-.66-.658m12.377 5.863a4.017 4.017 0 00-1.472-1.102 9.605 9.605 0 00-2.008-.522c-.571-.151-1.15-.27-1.734-.358-.918-.22-1.488-.413-1.712-.578a1.33 1.33 0 01-.497-1.02 2.357 2.357 0 01.537-1.446c.358-.468.996-.693 1.912-.675 1.357 0 2.411.588 3.163 1.763.037.092.12.27.249.538l.214.454c.042.063.089.123.139.18a.313.313 0 01.083.214h.799v-3.836h-.799c-.202.458-.514.687-.935.687a1.016 1.016 0 01-.578-.165l-.51-.152-.618-.18a5.96 5.96 0 00-1.21-.192 4.279 4.279 0 00-2.887 1.07 3.57 3.57 0 00-1.24 2.837c.055 2.276 1.651 3.671 4.789 4.185.615.117 1.221.273 1.815.47 1.284.495 1.872 1.248 1.762 2.258a1.95 1.95 0 01-.812 1.405c-.503.404-1.205.578-2.104.522-1.448-.128-2.518-.614-3.21-1.458a6.323 6.323 0 01-1.334-2.753h-.824v4.736h.824c0-.311.23-.485.69-.522.29-.025.581.013.856.109.397.044.792.108 1.183.193.6.166 1.221.238 1.843.214 1.394-.019 2.504-.409 3.329-1.17a3.596 3.596 0 001.245-2.733 4.317 4.317 0 00-.164-1.5 4.051 4.051 0 00-.784-1.473zm13.295.136c-.037-1.395-.3-2.574-.786-3.538a5.4 5.4 0 00-1.967-2.217 5.196 5.196 0 00-2.806-.772 5.408 5.408 0 00-4.236 1.9c-1.12 1.267-1.707 2.838-1.762 4.713a7.055 7.055 0 00.715 3.413 5.782 5.782 0 002.284 2.438 6.105 6.105 0 003.44.811c1.485-.018 2.64-.454 3.465-1.306a6.444 6.444 0 001.65-2.785h-.642a4.788 4.788 0 01-1.526 2.41 3.53 3.53 0 01-2.682.923c-1.027-.056-1.756-.432-2.187-1.129-.431-.697-.692-1.67-.784-2.918a16.195 16.195 0 01-.027-1.128v-.8h7.84l.01-.014zm-7.36-4.363c.322-1 .932-1.49 1.83-1.474.9.017 1.491.504 1.775 1.461.285.841.411 1.728.373 2.616 0 .495-.106.798-.317.908-.211.11-.61.165-1.197.165h-2.955a12.159 12.159 0 01.481-3.676"/></g><defs><clipPath id="clip0_39_109"><path fill="#fff" d="M0 0h95v72H0z"/></clipPath></defs></svg>