<svg width="259" height="86" fill="none" xmlns="http://www.w3.org/2000/svg"><path d="M0 0h170v34H0V0z" fill="#FFD400"/><path d="M28.359 38l-5.152-22.016h7.36l1.92 9.408c.042.17.096.437.16.8.064.341.139.725.224 1.152.085.405.16.779.224 1.12h.128c.043-.192.085-.416.128-.672.064-.277.117-.555.16-.832.064-.277.117-.555.16-.832.064-.277.117-.523.16-.736l1.888-9.408h6.976l2.016 9.408c.043.213.096.501.16.864.085.363.17.747.256 1.152.085.384.16.736.224 1.056h.128c.043-.213.085-.448.128-.704.064-.277.117-.555.16-.832.042-.277.085-.544.128-.8.064-.277.117-.523.16-.736l1.792-9.408h7.04L49.735 38h-7.776l-2.176-10.304a12.708 12.708 0 00-.192-.96l-.256-1.152c-.086-.384-.16-.715-.224-.992h-.128c-.064.256-.139.576-.224.96-.064.363-.139.736-.224 1.12-.085.363-.16.704-.224 1.024L36.135 38h-7.776zm29.056 0V15.984h7.072v8.032h7.776v-8.032h7.072V38h-7.072v-8.352h-7.776V38h-7.072zm37.6.384c-2.496 0-4.63-.427-6.4-1.28-1.77-.853-3.125-2.123-4.064-3.808-.939-1.707-1.408-3.808-1.408-6.304 0-2.517.47-4.619 1.408-6.304.939-1.685 2.293-2.955 4.064-3.808 1.77-.853 3.904-1.28 6.4-1.28 2.517 0 4.662.427 6.432 1.28 1.771.853 3.125 2.123 4.064 3.808.939 1.685 1.408 3.787 1.408 6.304 0 2.496-.469 4.597-1.408 6.304-.939 1.685-2.293 2.955-4.064 3.808-1.77.853-3.915 1.28-6.432 1.28zm0-5.28c.768 0 1.44-.117 2.016-.352a3.952 3.952 0 001.472-1.056c.406-.448.704-.981.896-1.6.192-.64.288-1.333.288-2.08v-2.048c0-.747-.096-1.43-.288-2.048a4.184 4.184 0 00-.896-1.632 3.663 3.663 0 00-1.472-1.024c-.576-.256-1.248-.384-2.016-.384s-1.45.128-2.048.384a3.703 3.703 0 00-1.44 1.024c-.384.448-.672.992-.864 1.632a6.886 6.886 0 00-.288 2.048v2.048c0 .747.096 1.44.288 2.08a4.45 4.45 0 00.864 1.6c.384.448.864.8 1.44 1.056.597.235 1.28.352 2.048.352zm31.958 5.28c-2.496 0-4.597-.427-6.304-1.28-1.685-.853-2.965-2.123-3.84-3.808-.853-1.707-1.28-3.808-1.28-6.304 0-3.755.96-6.592 2.88-8.512 1.942-1.92 4.79-2.88 8.544-2.88 2.134 0 3.99.363 5.568 1.088 1.6.704 2.838 1.76 3.712 3.168.875 1.408 1.312 3.136 1.312 5.184h-6.752c0-.853-.149-1.59-.448-2.208a3.298 3.298 0 00-1.312-1.44c-.554-.341-1.258-.512-2.112-.512-1.002 0-1.813.213-2.432.64-.597.427-1.034 1.024-1.312 1.792-.277.768-.416 1.653-.416 2.656v2.048c0 1.003.139 1.888.416 2.656.299.768.747 1.365 1.344 1.792.598.427 1.376.64 2.336.64.939 0 1.707-.16 2.304-.48a3.063 3.063 0 001.376-1.376c.32-.619.48-1.344.48-2.176h6.528c0 2.005-.416 3.701-1.248 5.088-.832 1.387-2.037 2.443-3.616 3.168-1.578.704-3.488 1.056-5.728 1.056zM138.711 38l8.032-22.016h8.224L162.999 38h-7.488l-.928-3.104h-7.712L145.943 38h-7.232zm9.632-8.032h4.8l-1.056-3.52a38.513 38.513 0 01-.608-2.08c-.107-.405-.214-.8-.32-1.184a58.204 58.204 0 00-.288-1.056h-.256c-.086.384-.203.821-.352 1.312-.128.49-.267 1.003-.416 1.536-.15.512-.299 1.003-.448 1.472l-1.056 3.52zM165.665 38V15.984h13.792c1.643 0 3.008.33 4.096.992 1.109.661 1.941 1.525 2.496 2.592a7.377 7.377 0 01.832 3.456c0 1.408-.331 2.667-.992 3.776a7.541 7.541 0 01-2.688 2.624l4.32 8.576h-7.936l-3.36-7.392h-3.488V38h-7.072zm7.072-12.288h4.96c.555 0 1.024-.213 1.408-.64.384-.448.576-1.035.576-1.76a2.61 2.61 0 00-.256-1.184 1.98 1.98 0 00-.704-.8 1.718 1.718 0 00-1.024-.32h-4.96v4.704zM190.667 38V15.984h19.04v5.28h-11.968v3.04h10.24v5.056h-10.24v3.36h12.192V38h-19.264zm32.886.384c-1.515 0-2.933-.117-4.256-.352-1.301-.213-2.453-.587-3.456-1.12a6.286 6.286 0 01-2.336-2.272c-.555-.981-.832-2.208-.832-3.68v-.16c0-.085.011-.17.032-.256h6.688c-.021.085-.032.17-.032.256v.192c0 .64.149 1.13.448 1.472.299.341.715.576 1.248.704.555.107 1.173.16 1.856.16h.8c.299-.021.576-.053.832-.096a3.34 3.34 0 00.736-.256c.235-.107.416-.245.544-.416a1.24 1.24 0 00.192-.704c0-.405-.181-.725-.544-.96-.363-.235-.853-.437-1.472-.608-.619-.17-1.312-.33-2.08-.48a72.38 72.38 0 01-2.4-.512 17.585 17.585 0 01-2.4-.8 8.734 8.734 0 01-2.08-1.216 5.583 5.583 0 01-1.472-1.888c-.363-.768-.544-1.685-.544-2.752 0-1.28.267-2.368.8-3.264a6.25 6.25 0 012.176-2.176c.939-.555 1.995-.96 3.168-1.216a17.83 17.83 0 013.744-.384c1.323 0 2.56.139 3.712.416 1.173.256 2.208.661 3.104 1.216.896.555 1.6 1.259 2.112 2.112.512.853.779 1.867.8 3.04v.384h-6.624v-.128c0-.384-.096-.747-.288-1.088-.192-.341-.501-.619-.928-.832-.405-.213-.949-.32-1.632-.32-.64 0-1.184.064-1.632.192-.427.128-.747.31-.96.544-.213.213-.32.448-.32.704 0 .405.181.736.544.992.363.256.853.47 1.472.64.619.17 1.312.33 2.08.48.768.15 1.568.32 2.4.512.832.17 1.632.405 2.4.704a7.981 7.981 0 012.08 1.184 5.123 5.123 0 011.472 1.76c.363.704.544 1.568.544 2.592 0 1.813-.427 3.285-1.28 4.416-.832 1.13-1.984 1.963-3.456 2.496-1.451.512-3.104.768-4.96.768zm18.006-8.256v-1.6c0-.384.096-.747.288-1.088a6.5 6.5 0 01.768-.992c.32-.32.661-.64 1.024-.96.362-.32.693-.64.992-.96.32-.341.576-.693.768-1.056.213-.384.32-.79.32-1.216 0-.299-.043-.576-.128-.832a2.226 2.226 0 00-.384-.736 1.653 1.653 0 00-.608-.48 1.713 1.713 0 00-.832-.192c-.47 0-.854.075-1.152.224a1.84 1.84 0 00-.672.608c-.15.256-.256.544-.32.864-.064.32-.096.65-.096.992v.448c0 .128.01.267.032.416h-5.888l-.064-.608a5.353 5.353 0 01-.032-.608c0-.832.138-1.6.416-2.304a5.626 5.626 0 011.184-1.856 7.376 7.376 0 011.888-1.408 9.409 9.409 0 012.4-.864 12.28 12.28 0 012.848-.32c.981 0 1.888.107 2.72.32a8 8 0 012.272.864 6.08 6.08 0 011.728 1.344 5.843 5.843 0 011.088 1.824 5.98 5.98 0 01.384 2.176c0 .725-.139 1.376-.416 1.952a5.54 5.54 0 01-1.024 1.504c-.406.448-.843.853-1.312 1.216-.448.341-.886.661-1.312.96a8.93 8.93 0 00-1.024.864c-.256.277-.384.555-.384.832v.672h-5.472zM241.175 38v-5.92h6.336V38h-6.336z" fill="#151515"/><path d="M116 52h143v34H116V52z" fill="#FFD400"/><path d="M39.714 69V46.984h19.04v5.28H46.786v3.04h10.24v5.056h-10.24v3.36h12.192V69H39.714zm28.982 0l-7.808-22.016h7.552l3.04 10.176c.085.277.202.683.352 1.216l.48 1.696c.192.597.352 1.141.48 1.632h.256c.128-.448.277-.96.448-1.536.17-.576.33-1.13.48-1.664.17-.555.298-1.003.384-1.344l3.072-10.176h7.232L76.888 69h-8.192zm19.018 0V46.984h19.04v5.28H94.786v3.04h10.24v5.056h-10.24v3.36h12.192V69H87.714zm22.998 0V46.984h13.792c1.642 0 3.008.33 4.096.992 1.109.661 1.941 1.525 2.496 2.592a7.389 7.389 0 01.832 3.456c0 1.408-.331 2.667-.992 3.776a7.558 7.558 0 01-2.688 2.624l4.32 8.576h-7.936l-3.36-7.392h-3.488V69h-7.072zm7.072-12.288h4.96c.554 0 1.024-.213 1.408-.64.384-.448.576-1.035.576-1.76 0-.448-.086-.843-.256-1.184a1.987 1.987 0 00-.704-.8 1.718 1.718 0 00-1.024-.32h-4.96v4.704zM141.585 69v-8.544l-8.736-13.472h8.128l4.224 7.328h.128l4.224-7.328h7.712l-8.608 13.472V69h-7.072zm28.321.384c-2.496 0-4.63-.427-6.4-1.28-1.771-.853-3.126-2.123-4.064-3.808-.939-1.707-1.408-3.808-1.408-6.304 0-2.517.469-4.619 1.408-6.304.938-1.685 2.293-2.955 4.064-3.808 1.77-.853 3.904-1.28 6.4-1.28 2.517 0 4.661.427 6.432 1.28 1.77.853 3.125 2.123 4.064 3.808.938 1.685 1.408 3.787 1.408 6.304 0 2.496-.47 4.597-1.408 6.304-.939 1.685-2.294 2.955-4.064 3.808-1.771.853-3.915 1.28-6.432 1.28zm0-5.28c.768 0 1.44-.117 2.016-.352a3.955 3.955 0 001.472-1.056 4.21 4.21 0 00.896-1.6c.192-.64.288-1.333.288-2.08v-2.048c0-.747-.096-1.43-.288-2.048a4.19 4.19 0 00-.896-1.632 3.666 3.666 0 00-1.472-1.024c-.576-.256-1.248-.384-2.016-.384s-1.451.128-2.048.384a3.703 3.703 0 00-1.44 1.024c-.384.448-.672.992-.864 1.632a6.886 6.886 0 00-.288 2.048v2.048c0 .747.096 1.44.288 2.08a4.45 4.45 0 00.864 1.6c.384.448.864.8 1.44 1.056.597.235 1.28.352 2.048.352zM185.618 69V46.984h6.016l6.848 7.904c.192.213.448.523.768.928s.64.821.96 1.248c.341.405.597.736.768.992l.16-.064a50.116 50.116 0 01-.032-1.76v-9.248h6.432V69h-5.984l-7.712-8.8a24.41 24.41 0 01-.928-1.152 67.314 67.314 0 00-.736-1.024l-.16.064c.021.405.032.81.032 1.216V69h-6.432zm26.752 0V46.984h19.04v5.28h-11.968v3.04h10.24v5.056h-10.24v3.36h12.192V69H212.37z" fill="#151515"/></svg>