<svg width="98" height="88" viewBox="0 0 98 88" fill="none" xmlns="http://www.w3.org/2000/svg">
<g clip-path="url(#clip0_39_121)">
<path d="M24.7625 78.0645V88.0002L0 83.0463L24.7625 78.0645Z" fill="#700000"/>
<path d="M95.2334 63.9073V40.772L0.012207 59.9266V83.062L95.2334 63.9073Z" fill="#C3161C"/>
<path d="M73.9199 9.66742V0L97.9999 4.81769L73.9199 9.66742Z" fill="#700000"/>
<path d="M3.61084 54.368V23.8239L98.0001 4.8335V35.3856L3.61084 54.368Z" fill="#C3161C"/>
<path d="M11.2884 72.1653C11.2578 72.4591 11.2875 72.756 11.3757 73.0382C11.4638 73.3204 11.6086 73.5819 11.8014 73.8072C12.3345 74.3238 13.1665 74.1796 13.6108 74.0875C14.1009 74.0148 14.5595 73.8034 14.9315 73.4788C15.1083 73.32 15.249 73.1258 15.3444 72.909C15.4398 72.6922 15.4877 72.4578 15.4848 72.2213C15.5073 72.0135 15.4667 71.8037 15.3681 71.6188C15.2695 71.434 15.1175 71.2827 14.9315 71.1841C14.3724 70.9837 13.7811 70.886 13.1867 70.8958L11.6923 70.8718C9.58399 70.8317 8.54195 70.3311 8.00882 69.9106C7.20104 69.3099 6.85774 68.4249 6.85774 67.1073C6.86108 65.5276 7.48897 64.0121 8.60659 62.8863C10.0364 61.4086 11.8377 60.8839 13.1907 60.6156C14.3418 60.3873 16.4703 60.079 17.8355 61.0642C18.5827 61.6008 19.3097 62.7421 19.3703 64.3801L14.98 65.2531C15.0011 64.88 14.88 64.5126 14.6407 64.2239C14.4267 64.0116 14.0026 63.8434 13.1907 64.0076C12.7293 64.0886 12.2919 64.2705 11.9104 64.5403C11.7594 64.6719 11.6365 64.8322 11.5491 65.0117C11.4617 65.1913 11.4115 65.3864 11.4015 65.5855C11.3916 65.7204 11.4134 65.8557 11.4653 65.9808C11.5172 66.1059 11.5977 66.2174 11.7004 66.3063C12.0639 66.6227 12.7465 66.6027 13.8531 66.6307L15.3031 66.6868C16.3047 66.7148 17.7749 66.8109 18.7766 67.688C19.2855 68.1365 19.9276 69.0176 19.9276 70.5754C19.8946 72.0758 19.4031 73.5309 18.5181 74.7483C17.0277 76.6746 14.6205 77.2953 13.2675 77.5516C11.7973 77.844 9.51534 78.1403 8.04518 76.7827C7.28183 76.0899 6.65984 74.7443 6.63965 73.0784L11.2884 72.1653Z" fill="white"/>
<path d="M32.7916 63.1625V66.947L26.1638 68.2726V70.2429L34.0679 68.661V72.902L21.519 75.409V59.366L33.8983 56.8911V61.1321L26.1638 62.6779V64.4881L32.7916 63.1625Z" fill="white"/>
<path d="M46.6168 70.3833L35.5098 72.6019V56.559L40.1585 55.6299V67.4318L46.6168 66.1423V70.3833Z" fill="white"/>
<path d="M58.9801 67.9805L47.8772 70.1991V54.1561L52.5219 53.2271V65.029L58.9801 63.7435V67.9805Z" fill="white"/>
<path d="M71.5975 55.4096V59.1901L64.9697 60.5156V62.486L72.8738 60.9081V65.1451L60.325 67.6521V51.6131L72.7082 49.1382V53.3792L64.9697 54.925V56.7352L71.5975 55.4096Z" fill="white"/>
<path d="M74.8124 48.7175L83.2295 47.0395C84.1665 46.8553 85.7457 46.671 86.917 47.6081C87.9389 48.4331 88.1974 49.7347 88.1974 51.0162C88.2402 52.127 87.8933 53.2181 87.2159 54.1038C86.8502 54.5592 86.392 54.933 85.8709 55.2011V55.3132C86.1627 55.335 86.4472 55.4146 86.7073 55.5473C86.9675 55.6801 87.1981 55.8633 87.3855 56.0862C87.9389 56.775 87.9591 57.5799 87.9792 58.465L88.0237 59.7625C87.9791 60.548 88.1642 61.3295 88.5568 62.0132L83.7869 62.9543C83.4113 62.4046 83.2308 61.7466 83.2739 61.0841L83.2335 60.131C83.2133 59.4742 83.2537 58.5291 82.7004 58.1046C82.2723 57.7601 81.5735 57.8523 81.0606 57.9524L79.445 58.2768V63.8353L74.8003 64.7644V48.7175H74.8124ZM79.4572 54.8487L82.0784 54.3281C82.5505 54.2587 82.9857 54.0345 83.3143 53.6913C83.6335 53.3223 83.8007 52.8476 83.7828 52.3618C83.7987 52.1693 83.7706 51.9757 83.7007 51.7954C83.6308 51.6152 83.5208 51.4529 83.3789 51.3205C83.1812 51.2063 82.9619 51.1338 82.7346 51.1076C82.5074 51.0814 82.277 51.1021 82.0582 51.1684L79.4572 51.689V54.8527V54.8487Z" fill="white"/>
<path d="M20.659 23.3317C22.1292 23.0394 24.3587 22.6269 25.954 23.7322C26.8507 24.3409 27.7432 25.6064 27.7432 27.9331C27.7697 29.3766 27.2853 30.7837 26.3741 31.9098C25.7918 32.7204 25.0124 33.372 24.1083 33.8041V33.9402C25.2517 33.9178 26.3677 34.2886 27.2667 34.9895C28.0987 35.6823 28.862 36.9318 28.862 39.1624C28.8907 40.1443 28.719 41.1219 28.3575 42.0364C27.9959 42.951 27.4518 43.7837 26.7578 44.4847C25.0009 46.2748 22.2302 47.0357 20.5702 47.3681L8.04956 49.8711V25.8547L20.659 23.3317ZM15.0045 33.744L18.5749 33.0312C19.2277 32.9587 19.8361 32.6676 20.2996 32.2062C20.6572 31.7716 20.8386 31.2205 20.8085 30.6604C20.8085 29.8594 20.5217 29.479 20.2349 29.2988C19.726 28.9904 18.8334 29.1346 18.4821 29.2066L15.0086 29.8995V33.72L15.0045 33.744ZM15.0045 43.071L19.2131 42.23C19.9019 42.1541 20.5435 41.8459 21.0306 41.357C21.4464 40.8475 21.6616 40.2058 21.6364 39.5509C21.6364 38.5537 21.2325 38.1532 20.9983 38.001C20.5217 37.6807 19.7543 37.7648 19.1848 37.8809L15.0045 38.7139V43.071Z" fill="white"/>
<path d="M48.4345 26.8357V32.4944L38.519 34.4768V37.4282L50.3489 35.0654V41.4089L31.564 45.1614V21.157L50.0904 17.4526V23.7961L38.519 26.1069V28.8181L48.4345 26.8357Z" fill="white"/>
<path d="M59.1174 31.8696C59.071 32.3087 59.1147 32.7526 59.2459 33.1745C59.3771 33.5964 59.593 33.9876 59.8807 34.3245C60.6885 35.0934 61.9204 34.8772 62.5908 34.725C63.3239 34.6177 64.01 34.3019 64.5658 33.8159C64.8311 33.5787 65.0421 33.2881 65.1849 32.9635C65.3277 32.6389 65.3989 32.2878 65.3938 31.9337C65.4276 31.6229 65.3668 31.3093 65.2192 31.0331C65.0717 30.7569 64.8441 30.5308 64.5658 30.3839C63.964 30.0595 62.6878 29.9834 61.9527 29.9434L59.7192 29.9113C56.5648 29.8552 55.0017 29.1104 54.202 28.4776C53.0226 27.5805 52.4814 26.247 52.4814 24.2927C52.4863 21.9286 53.4243 19.6602 55.0946 17.9732C57.2312 15.7626 59.9413 14.9817 61.9608 14.5812C63.6813 14.2368 66.8721 13.7803 68.9117 15.25C70.0264 16.0509 71.1129 17.757 71.2098 20.2078L64.6426 21.5214C64.6739 20.9611 64.4924 20.4096 64.1337 19.9756C63.8146 19.6632 63.1764 19.4109 61.9648 19.6552C61.2745 19.7778 60.6205 20.0514 60.0503 20.4561C59.8235 20.6514 59.6387 20.89 59.5068 21.1577C59.375 21.4253 59.2989 21.7165 59.283 22.014C59.2667 22.2155 59.2984 22.418 59.3756 22.6051C59.4527 22.7923 59.5732 22.9588 59.7272 23.0913C60.2685 23.5678 61.2943 23.5358 62.9584 23.5838L65.1273 23.6639C66.6257 23.708 68.8269 23.8562 70.3253 25.1657C71.0887 25.8385 72.0499 27.1681 72.0499 29.4868C72.0021 31.7324 71.2683 33.9108 69.9456 35.7342C67.7162 38.6176 64.1094 39.5427 62.0698 39.9512C59.8726 40.3917 56.4557 40.8322 54.2545 38.8058C53.1115 37.7606 52.1826 35.7542 52.1543 33.2553L59.1174 31.8696Z" fill="white"/>
<path d="M74.0613 19.8354V13.2476L93.6419 9.33496V15.9187L87.3291 17.1802V34.6048L80.3741 35.9945V18.5739L74.0613 19.8354Z" fill="white"/>
<path d="M19.7057 55.986L3.63086 54.3L79.1584 39.1021L95.2332 40.792L19.7057 55.986Z" fill="#700000"/>
<path d="M31.1721 80.2987L36.5035 79.2695V80.9796L33.0179 81.6523V82.8458L36.1682 82.241V83.859L33.0179 84.4637V86.9786L31.1721 87.3351V80.2987Z" fill="white"/>
<path d="M37.2506 83.0742V79.1255L39.1246 78.7651V82.6737C39.1246 83.6869 39.6093 84.0754 40.3363 83.9352C41.0633 83.7951 41.548 83.2384 41.548 82.2532V78.2925L43.422 77.9321V81.8327C43.422 84.1034 42.2104 85.3369 40.3 85.7013C38.3895 86.0657 37.2183 85.2808 37.2183 83.0782" fill="white"/>
<path d="M44.5613 77.7198L46.2859 77.3834L49.0243 80.5752V76.8588L50.8539 76.5063V83.5387L49.2343 83.851L46.3909 80.5431V84.3997L44.5613 84.7521V77.7198Z" fill="white"/>
<path d="M52.0371 76.2781L54.618 75.7695C56.9969 75.309 58.3742 76.4904 58.3742 78.5408C58.3742 80.5912 56.9767 82.3493 54.5776 82.8099L52.0452 83.2984V76.2781H52.0371ZM54.6341 81.0838C55.155 81.0137 55.6311 80.7547 55.9706 80.3567C56.31 79.9588 56.4886 79.4502 56.4718 78.9293C56.4718 77.8039 55.7408 77.2713 54.6341 77.4836L53.8829 77.6277V81.232L54.6341 81.0838Z" fill="white"/>
<path d="M26.4425 16.1072L26.3698 13.0756L25.3196 13.2798L25.2954 12.3067L28.369 11.71L28.3892 12.6831L27.3391 12.8874L27.4118 15.9189L26.4425 16.1072Z" fill="white"/>
<path d="M32.1617 14.4651C31.8475 14.9149 31.3697 15.2264 30.8288 15.3342C30.5915 15.3922 30.3434 15.391 30.1067 15.331C29.8699 15.2709 29.6518 15.1536 29.4718 14.9898C29.2846 14.8133 29.1368 14.5999 29.038 14.3633C28.9392 14.1267 28.8916 13.8721 28.8982 13.6161C28.8767 13.04 29.0565 12.4741 29.4071 12.0142C29.7213 11.5645 30.199 11.253 30.74 11.1452C30.9773 11.0872 31.2253 11.0884 31.4621 11.1484C31.6989 11.2085 31.917 11.3257 32.097 11.4896C32.2844 11.6659 32.4323 11.8793 32.5312 12.1159C32.63 12.3526 32.6775 12.6072 32.6706 12.8632C32.6921 13.4394 32.5123 14.0052 32.1617 14.4651ZM30.8127 14.329C30.9433 14.3029 31.0671 14.2503 31.1762 14.1745C31.2853 14.0987 31.3775 14.0013 31.4468 13.8884C31.6041 13.651 31.6844 13.3715 31.677 13.0875C31.6822 12.8236 31.5837 12.5679 31.4024 12.3747C31.3204 12.2878 31.2165 12.2242 31.1015 12.1904C30.9865 12.1567 30.8645 12.1539 30.7481 12.1824C30.6181 12.2088 30.495 12.2615 30.3865 12.3373C30.2781 12.4131 30.1866 12.5104 30.118 12.623C29.9607 12.8604 29.8804 13.1399 29.8878 13.4239C29.8813 13.6885 29.9782 13.9454 30.1583 14.1407C30.2397 14.2272 30.3429 14.2907 30.4572 14.3245C30.5715 14.3583 30.6928 14.3612 30.8087 14.333" fill="white"/>
<path d="M34.9564 14.4532L34.8635 10.4485L36.6609 10.1001C36.8241 10.0496 36.9973 10.0393 37.1654 10.07C37.3336 10.1007 37.4917 10.1715 37.6262 10.2763C37.7071 10.3571 37.7704 10.4535 37.8121 10.5597C37.8538 10.6658 37.873 10.7792 37.8685 10.893C37.8769 11.0899 37.8332 11.2855 37.7418 11.4604C37.6504 11.6353 37.5145 11.7835 37.3475 11.8902C37.4516 11.8982 37.5531 11.9268 37.6459 11.9743C37.7388 12.0217 37.8211 12.0871 37.8881 12.1666C37.955 12.2461 38.0054 12.338 38.036 12.437C38.0666 12.5361 38.0769 12.6402 38.0664 12.7432C38.0732 12.9039 38.0474 13.0644 37.9905 13.2151C37.9336 13.3657 37.8468 13.5035 37.7352 13.6203C37.4723 13.8799 37.1327 14.0496 36.7659 14.1048L34.9564 14.4532ZM35.845 11.8582L36.4549 11.738C36.5749 11.738 36.6899 11.6908 36.7747 11.6067C36.8595 11.5225 36.9072 11.4085 36.9072 11.2895C36.9072 11.0599 36.7578 10.9744 36.4589 11.0332L35.8288 11.1573L35.845 11.8582ZM35.8813 13.376L36.6326 13.2318C36.6936 13.2308 36.7538 13.2178 36.8097 13.1937C36.8657 13.1696 36.9163 13.1348 36.9587 13.0913C37.001 13.0477 37.0344 12.9964 37.0567 12.9401C37.0791 12.8838 37.09 12.8237 37.089 12.7632C37.089 12.5229 36.9274 12.4335 36.6043 12.4949L35.8652 12.6391L35.8813 13.376Z" fill="white"/>
<path d="M38.7086 13.7204L38.6157 9.71564L41.4308 9.16699L41.4551 10.1121L39.5972 10.4725L39.6133 11.0813L41.2935 10.7529L41.3137 11.6299L39.6335 11.9543L39.6497 12.591L41.5318 12.2266L41.552 13.1677L38.7086 13.7204Z" fill="white"/>
<path d="M44.6379 12.5706L44.5692 9.53505L43.5151 9.73929L43.4949 8.76614L46.5644 8.16943L46.5887 9.14258L45.5386 9.34683L45.6113 12.3784L44.6379 12.5706Z" fill="white"/>
<path d="M47.2632 12.0581L47.1663 8.05335L48.1356 7.86513L48.1719 9.3629L49.42 9.11861L49.3836 7.62084L50.353 7.43262L50.4499 11.4373L49.4765 11.6296L49.4442 10.1038L48.1962 10.3481L48.2325 11.8699L47.2632 12.0581Z" fill="white"/>
<path d="M51.2456 11.2854L51.1487 7.27668L53.9678 6.72803L53.988 7.67314L52.1342 8.03357L52.1463 8.64229L53.8265 8.3139L53.8507 9.19094L52.1665 9.51933L52.1826 10.1521L54.0648 9.78764L54.085 10.7328L51.2456 11.2854Z" fill="white"/>
<path d="M56.3185 10.296L56.2256 6.29128L58.0229 5.94287C58.1862 5.89241 58.3593 5.88208 58.5275 5.91278C58.6957 5.94348 58.8538 6.01428 58.9882 6.11908C59.0691 6.19986 59.1325 6.29632 59.1741 6.40242C59.2158 6.50853 59.235 6.62201 59.2305 6.7358C59.239 6.93264 59.1953 7.12824 59.1039 7.30317C59.0125 7.4781 58.8765 7.62626 58.7095 7.73298C58.8137 7.74099 58.9152 7.76957 59.008 7.81704C59.1008 7.8645 59.1831 7.9299 59.2501 8.00938C59.3171 8.08885 59.3674 8.18082 59.398 8.27984C59.4287 8.37886 59.439 8.48294 59.4285 8.58599C59.4353 8.74671 59.4095 8.90718 59.3526 9.05783C59.2957 9.20849 59.2088 9.34627 59.0972 9.46302C58.8343 9.72264 58.4947 9.89239 58.1279 9.94761L56.3185 10.296ZM57.2071 7.70096L57.8169 7.58079C57.9369 7.58079 58.0519 7.53355 58.1368 7.44944C58.2216 7.36532 58.2693 7.25122 58.2693 7.13227C58.2693 6.90266 58.1199 6.81722 57.821 6.87596L57.1909 7.00013L57.2071 7.70096ZM57.2434 9.21874L57.9946 9.07458C58.0558 9.07407 58.1162 9.06147 58.1724 9.03755C58.2286 9.01362 58.2795 8.97882 58.3219 8.9352C58.3644 8.89158 58.3977 8.84001 58.4199 8.78349C58.4421 8.72697 58.4526 8.66663 58.451 8.60601C58.451 8.36572 58.2895 8.27629 57.9664 8.3377L57.2272 8.48186L57.2434 9.21874Z" fill="white"/>
<path d="M60.0707 9.56754L59.9778 5.56281L62.7929 5.01416L62.8171 5.95928L60.9592 6.3197L60.9714 6.92442L62.6556 6.60003L62.6758 7.47307L60.9956 7.80145L61.0077 8.43821L62.8898 8.06977L62.9141 9.01489L60.0707 9.56754Z" fill="white"/>
<path d="M64.9616 8.68633C64.6774 8.75857 64.3803 8.76509 64.0932 8.70538C63.8061 8.64566 63.5366 8.52131 63.3057 8.34193L63.8267 7.49694C63.9884 7.61831 64.1743 7.70427 64.372 7.74914C64.5698 7.79401 64.7748 7.79676 64.9737 7.75723C65.0748 7.75764 65.1724 7.72043 65.2472 7.65296C65.322 7.58549 65.3685 7.49266 65.3776 7.39281C65.3774 7.35328 65.3654 7.3147 65.3432 7.28192C65.3209 7.24913 65.2893 7.22361 65.2524 7.20859C65.1006 7.15486 64.941 7.12645 64.7799 7.1245C64.6009 7.11296 64.4228 7.0902 64.2467 7.05641C64.1062 7.02638 63.9704 6.9779 63.8428 6.91224C63.7114 6.84766 63.605 6.74216 63.5399 6.61189C63.4677 6.45473 63.4305 6.28399 63.4308 6.11129C63.417 5.74756 63.541 5.39186 63.7782 5.11412C64.0295 4.82177 64.3773 4.62735 64.7597 4.56547C65.0063 4.50358 65.2633 4.49406 65.5138 4.53753C65.7644 4.58101 66.0029 4.67652 66.2137 4.81777L65.7452 5.69481C65.4538 5.50371 65.0997 5.43061 64.7556 5.49057C64.6585 5.50409 64.5681 5.54752 64.4971 5.61471C64.4692 5.6425 64.4472 5.67567 64.4326 5.71217C64.418 5.74866 64.4111 5.78771 64.4123 5.82695C64.4118 5.86818 64.4238 5.90862 64.4469 5.94293C64.4699 5.97724 64.5029 6.00383 64.5415 6.01919C64.6995 6.06928 64.8644 6.09495 65.0303 6.09528C65.3777 6.09445 65.7196 6.18128 66.0238 6.34758C66.1404 6.43422 66.233 6.54865 66.293 6.68028C66.3531 6.81191 66.3785 6.95646 66.3671 7.10048C66.3857 7.47738 66.2553 7.84658 66.0036 8.12967C65.735 8.42142 65.375 8.61474 64.9818 8.67832" fill="white"/>
<path d="M67.8778 8.04964L67.8051 5.01405L66.7549 5.21829L66.7307 4.24915L69.8043 3.64844L69.8245 4.62159L68.7744 4.82583L68.8471 7.86142L67.8778 8.04964Z" fill="white"/>
<path d="M70.7171 6.1873L70.3738 4.02875V3.54419L71.4562 3.33594V3.82052L71.2179 6.08719L70.7171 6.1873ZM70.503 7.54091L70.4788 6.56776L71.4683 6.37552L71.4926 7.34869L70.503 7.54091Z" fill="white"/>
</g>
<defs>
<clipPath id="clip0_39_121">
<rect width="98" height="88" fill="white"/>
</clipPath>
</defs>
</svg>
