<svg width="98" height="89" viewBox="0 0 98 89" fill="none" xmlns="http://www.w3.org/2000/svg">
<path d="M24.7615 78.9507V88.9999L0 83.9883L24.7615 78.9507Z" fill="#700000"/>
<path d="M95.2307 64.6318V41.2349L0.0109863 60.6065V84.0034L95.2307 64.6318Z" fill="#C3161C"/>
<path d="M73.918 9.77665V0L98.0001 4.87319L73.918 9.77665Z" fill="#700000"/>
<path d="M3.61279 54.987V24.0933L97.9999 4.88818V35.7841L3.61279 54.987Z" fill="#C3161C"/>
<path d="M11.2849 72.9787C11.2417 73.6838 11.4768 74.3306 11.7982 74.6377C12.3288 75.159 13.1614 75.0119 13.61 74.9211C14.1003 74.8475 14.5592 74.6343 14.9322 74.3068C15.1089 74.1461 15.2495 73.9497 15.3447 73.7304C15.4399 73.5111 15.4875 73.2741 15.4844 73.035C15.4844 72.5483 15.3356 72.2065 14.9322 71.9859C14.5289 71.7653 13.6747 71.709 13.1851 71.6939L11.6839 71.668C9.57441 71.629 8.53261 71.1207 7.99769 70.6968C7.21041 70.0911 6.8459 69.1935 6.8459 67.8698C6.84859 66.2721 7.47585 64.7392 8.593 63.6001C10.0209 62.1033 11.8284 61.582 13.1765 61.3051C14.3261 61.0759 16.4572 60.7622 17.8203 61.7594C18.5688 62.3023 19.2935 63.4551 19.3539 65.112L14.9646 65.9945C14.9839 65.6179 14.8623 65.2477 14.6238 64.9562C14.4081 64.7399 13.9767 64.5712 13.1765 64.7399C12.7173 64.8183 12.2812 64.9978 11.8996 65.2655C11.7484 65.3988 11.6252 65.561 11.5375 65.7426C11.4497 65.9243 11.399 66.1217 11.3884 66.3232C11.3787 66.4592 11.4005 66.5956 11.4521 66.7217C11.5038 66.8478 11.5838 66.9601 11.686 67.05C12.0484 67.3701 12.73 67.3485 13.843 67.3788L15.2946 67.4329C16.2954 67.461 17.7664 67.5561 18.7672 68.443C19.2784 68.8993 19.919 69.7862 19.919 71.3651C19.8869 72.8831 19.3957 74.3554 18.5106 75.5873C17.0201 77.5339 14.6108 78.1612 13.2455 78.4381C11.7766 78.7322 9.4946 79.035 8.02573 77.6594C7.26002 76.9586 6.64099 75.6002 6.62158 73.9131L11.2849 72.9787Z" fill="white"/>
<path d="M32.7897 63.8794V67.7058L26.1614 69.0468V71.0389L34.0687 69.4383V73.7275L21.5176 76.2668V60.0402L33.8983 57.5376V61.8246L26.1614 63.3884V65.2227L32.7897 63.8794Z" fill="white"/>
<path d="M46.6156 71.179L35.5117 73.4242V57.1997L40.1599 56.2588V68.1984L46.6156 66.892V71.179Z" fill="white"/>
<path d="M58.9791 68.7544L47.8752 70.9974V54.7708L52.5213 53.832V65.7673L58.9791 64.4652V68.7544Z" fill="white"/>
<path d="M71.5973 56.0362V59.8625L64.9691 61.2035V63.1978L72.8742 61.5994V65.8842L60.3252 68.4192V52.1991L72.706 49.6943V53.9835L64.9691 55.5474V57.3772L71.5973 56.0362Z" fill="white"/>
<path d="M74.7934 49.2724L83.2054 47.5745C84.1415 47.3863 85.7204 47.2025 86.8916 48.1498C87.914 48.9848 88.1707 50.2998 88.1707 51.5976C88.2142 52.7203 87.8681 53.8233 87.1914 54.7188C86.8259 55.1784 86.3681 55.5557 85.8477 55.8262V55.9409C86.1388 55.9635 86.4224 56.0445 86.6817 56.179C86.9411 56.3134 87.1709 56.4987 87.3575 56.7239C87.9119 57.4204 87.9313 58.238 87.9528 59.1291L87.996 60.4442C88.0197 61.2986 88.0607 61.9345 88.5287 62.7218L83.7835 63.6843C83.3155 63.0138 83.296 62.486 83.2723 61.7917L83.2313 60.8292C83.2098 60.163 83.2529 59.2243 82.6964 58.7809C82.265 58.4305 81.5683 58.5235 81.055 58.6251L79.4373 58.9517V64.5625L74.7913 65.5034V49.2811L74.7934 49.2724ZM79.4394 55.4715L82.0601 54.9459C82.5337 54.8749 82.9697 54.6464 83.2982 54.297C83.6172 53.9235 83.7843 53.4432 83.7662 52.9517C83.7821 52.7568 83.7539 52.5608 83.6837 52.3784C83.6135 52.196 83.5031 52.0319 83.3608 51.8983C82.9553 51.5847 82.3794 51.682 82.0386 51.7447L79.4394 52.2703V55.4672V55.4715Z" fill="white"/>
<path d="M20.657 23.6002C22.1259 23.306 24.3583 22.8864 25.9523 23.9873C26.8474 24.6038 27.7404 25.8799 27.7404 28.2354C27.7671 29.6958 27.2824 31.1194 26.3707 32.2586C25.788 33.0785 25.0082 33.7377 24.1038 34.175V34.3134C25.9544 34.3134 27.0717 35.2067 27.2615 35.3754C28.0919 36.074 28.8576 37.3416 28.8576 39.5975C28.8576 42.3034 27.7123 44.0251 26.7546 44.9812C24.9989 46.7916 22.2251 47.5595 20.5664 47.899L8.03467 50.4297V26.1503L20.657 23.6002ZM14.9843 34.1187L18.554 33.3984C19.1277 33.2795 19.8331 33.1043 20.2795 32.5657C20.6369 32.1267 20.8184 31.5699 20.7886 31.004C20.7886 30.2059 20.5039 29.8122 20.2148 29.6284C19.7058 29.3169 18.815 29.4618 18.4634 29.5354L14.9843 30.2254V34.1187ZM14.9843 43.5515L19.1924 42.7014C19.7964 42.5803 20.4995 42.4051 21.0107 41.8168C21.4265 41.3019 21.6419 40.6532 21.6168 39.9912C21.6168 38.9833 21.2329 38.5788 20.9698 38.4252C20.4909 38.1008 19.7252 38.1873 19.1536 38.3041L14.9757 39.1476V43.5536L14.9843 43.5515Z" fill="white"/>
<path d="M48.4338 27.1389V32.8643L38.5162 34.8694V37.8521L50.347 35.462V41.8774L31.5645 45.6734V21.3962L50.0925 17.6499V24.0653L38.5162 26.4056V29.144L48.4338 27.1389Z" fill="white"/>
<path d="M59.1148 32.2306C59.0501 33.2861 59.3995 34.2552 59.8805 34.7115C60.6786 35.4881 61.921 35.2718 62.5918 35.1441C63.3251 35.0356 64.0114 34.7163 64.5676 34.2249C64.8329 33.9855 65.0442 33.692 65.1874 33.3641C65.3306 33.0363 65.4024 32.6815 65.398 32.3236C65.398 31.5925 65.1823 31.0864 64.5676 30.7555C63.9528 30.4245 62.6889 30.3402 61.9533 30.3121L59.7188 30.2796C56.5632 30.2234 55.0016 29.4642 54.2013 28.8283C53.0237 27.9198 52.4758 26.5723 52.4758 24.5953C52.4758 21.4417 54.0072 19.3609 55.09 18.2059C57.2254 15.9715 59.9388 15.1777 61.9469 14.7754C63.6724 14.4293 66.856 13.9535 68.8965 15.4524C70.0138 16.2657 71.0987 17.9874 71.1936 20.4662L64.6322 21.7899C64.6322 21.1973 64.4726 20.5722 64.1211 20.2261C63.7695 19.88 63.1634 19.6572 61.9533 19.9016C61.3796 20.0184 60.519 20.2953 60.0402 20.7063C59.8137 20.9038 59.6292 21.145 59.4977 21.4155C59.3661 21.6861 59.2902 21.9804 59.2744 22.2809C59.2592 22.4837 59.2916 22.6872 59.3692 22.875C59.4467 23.0629 59.5672 23.2298 59.7209 23.3624C60.2645 23.8448 61.2869 23.8123 62.9412 23.8599L65.1111 23.9378C66.608 23.9853 68.8102 24.1303 70.3071 25.4518C71.0707 26.131 72.0327 27.4613 72.0327 29.8211C71.9846 32.0922 71.2505 34.2952 69.9275 36.1391C67.6973 39.057 64.0909 39.9914 62.0504 40.4045C59.8503 40.8501 56.4424 41.2935 54.2359 39.2473C53.0905 38.1918 52.1652 36.1607 52.135 33.6344L59.1148 32.2306Z" fill="white"/>
<path d="M74.0601 20.0597V13.3977L93.6406 9.43945V16.0993L87.3273 17.3754V34.995L80.3734 36.401V18.7835L74.0601 20.0597Z" fill="white"/>
<path d="M19.7057 56.6224L3.63013 54.918L79.1571 39.5479L95.2305 41.2523L19.7057 56.6224Z" fill="#700000"/>
<path d="M34.7805 84.9228L34.8474 83.4585L37.9987 82.8658L37.8887 85.8724C37.3885 86.3403 36.8346 86.7469 36.2386 87.0837C35.7096 87.3508 35.1441 87.5381 34.5605 87.6395C33.7682 87.7837 33.1298 87.7599 32.6452 87.5682C32.1547 87.3649 31.7635 86.9765 31.5559 86.4867C31.3008 85.8974 31.1963 85.2536 31.2518 84.6135C31.2828 83.8893 31.4713 83.1806 31.804 82.5371C32.1262 81.9269 32.5947 81.4066 33.1672 81.023C33.7186 80.6799 34.3333 80.4518 34.9747 80.3525C35.5025 80.2252 36.0486 80.1915 36.588 80.253C36.9191 80.3134 37.2217 80.4796 37.4508 80.7267C37.6983 81.015 37.8683 81.362 37.9448 81.7346L35.969 82.4743C35.9444 82.365 35.8976 82.262 35.8315 82.1715C35.7655 82.0811 35.6816 82.0053 35.5851 81.9487C35.3575 81.8411 35.0997 81.8166 34.856 81.8795C34.4208 81.9617 34.0343 82.2098 33.7776 82.5717C33.49 82.9495 33.3318 83.496 33.303 84.2112C33.2657 84.974 33.3735 85.4946 33.6266 85.7729C33.8797 86.0512 34.2485 86.1449 34.7331 86.0541C34.9638 86.0107 35.187 85.9334 35.3953 85.8248C35.6542 85.6827 35.8991 85.5161 36.1265 85.3273L36.1545 84.6611L34.7805 84.9228Z" fill="white"/>
<path d="M39.1006 86.662L39.3335 79.6518L42.7048 79.018C43.1733 78.9094 43.6558 78.8751 44.1349 78.9164C44.2914 78.938 44.4419 78.9913 44.5773 79.0731C44.7126 79.1549 44.83 79.2635 44.9221 79.3922C45.1324 79.7045 45.2326 80.0783 45.2068 80.4542C45.2062 80.8166 45.1205 81.1738 44.9567 81.4968C44.798 81.8065 44.5778 82.0803 44.3096 82.3014C44.0889 82.4719 43.8457 82.6109 43.587 82.7145C43.7701 82.7366 43.9482 82.79 44.1133 82.8725C44.2336 82.9593 44.341 83.0627 44.4325 83.1796C44.5396 83.2961 44.6329 83.4246 44.7108 83.5624L45.6728 85.4269L43.3433 85.8595L42.295 83.8999C42.2176 83.7147 42.0952 83.5519 41.9391 83.4262C41.7874 83.3442 41.6113 83.3196 41.443 83.357L41.2618 83.3916L41.182 86.2662L39.1006 86.662ZM41.2877 82.0743L42.1505 81.9121C42.3362 81.862 42.5173 81.7961 42.6919 81.7152C42.8306 81.6592 42.9483 81.5608 43.0284 81.4341C43.1155 81.3065 43.1635 81.1561 43.1664 81.0015C43.1779 80.9122 43.1664 80.8214 43.1332 80.7378C43.1 80.6542 43.0461 80.5804 42.9766 80.5234C42.8443 80.4297 42.5934 80.4175 42.2238 80.4867L41.3309 80.6554L41.2877 82.0743Z" fill="white"/>
<path d="M45.9577 81.86C45.9749 80.7237 46.2863 79.7864 46.8916 79.0481C47.5277 78.2929 48.415 77.7942 49.3894 77.6444C50.4779 77.4396 51.3177 77.5874 51.9086 78.0878C52.4996 78.5882 52.798 79.3971 52.8038 80.5146C52.8267 81.2293 52.6958 81.9405 52.4198 82.5998C52.1664 83.1679 51.7775 83.6648 51.2875 84.0468C50.7417 84.4566 50.1054 84.7282 49.4325 84.8384C48.8176 84.9839 48.1762 84.9728 47.5668 84.806C47.066 84.6351 46.6454 84.2856 46.3848 83.824C46.0871 83.3337 45.9433 82.6791 45.9534 81.86H45.9577ZM47.996 81.4858C47.996 82.1924 48.1161 82.6776 48.3562 82.9415C48.4854 83.0738 48.6475 83.169 48.8258 83.2173C49.004 83.2656 49.1919 83.2652 49.3699 83.2162C49.5759 83.1832 49.7731 83.1087 49.9495 82.9971C50.126 82.8856 50.2781 82.7394 50.3966 82.5673C50.6382 82.2184 50.7597 81.6531 50.7612 80.8715C50.7612 80.2169 50.6368 79.7634 50.388 79.511C50.2555 79.3842 50.0925 79.2938 49.9149 79.2487C49.7373 79.2036 49.551 79.2053 49.3743 79.2536C49.1745 79.2903 48.9841 79.3666 48.8141 79.4781C48.6441 79.5895 48.4979 79.7338 48.3842 79.9025C48.1326 80.2544 48.0039 80.785 47.9981 81.4945" fill="white"/>
<path d="M58.1399 76.1131L60.1588 75.7324L60.2602 79.8421C60.2708 80.2486 60.2184 80.6543 60.1049 81.0447C59.9917 81.4378 59.8034 81.8051 59.5506 82.1262C59.3285 82.422 59.0526 82.673 58.7374 82.8659C58.2904 83.1167 57.8038 83.2886 57.2987 83.3742C56.9472 83.4386 56.5921 83.4812 56.2354 83.5018C55.9094 83.5326 55.5807 83.4966 55.2691 83.3958C54.9988 83.2937 54.7553 83.1309 54.5573 82.92C54.3532 82.7161 54.2008 82.4662 54.113 82.1911C53.9918 81.8198 53.925 81.433 53.9145 81.0425L53.8865 76.9329L55.9054 76.5522L55.9571 80.7592C55.9468 80.913 55.9693 81.0673 56.0232 81.2116C56.0772 81.356 56.1613 81.4871 56.2699 81.5962C56.3877 81.6874 56.525 81.7498 56.6711 81.7783C56.8171 81.8069 56.9678 81.8008 57.1111 81.7606C57.4355 81.711 57.73 81.5422 57.9372 81.2869C58.1418 81.0129 58.2427 80.6748 58.2219 80.3331L58.1399 76.1131Z" fill="white"/>
<path d="M61.4897 75.4813L64.8524 74.8498C65.5843 74.7056 66.1401 74.7827 66.5197 75.0812C66.8993 75.3797 67.1049 75.862 67.1366 76.5282C67.1874 77.1559 66.9976 77.7793 66.606 78.2716C66.2206 78.7417 65.6152 79.0546 64.7898 79.2103L63.6704 79.4266L63.7588 82.0222L61.6882 82.4115L61.4897 75.4813ZM63.6208 78.0185L64.1212 77.9233C64.4268 77.891 64.714 77.7614 64.9408 77.5535C65.0141 77.4743 65.0709 77.3814 65.1079 77.28C65.1449 77.1786 65.1615 77.0708 65.1565 76.963C65.1573 76.8669 65.1374 76.7718 65.0984 76.6841C65.0593 76.5965 65.0019 76.5182 64.93 76.4547C64.7862 76.3307 64.5253 76.3047 64.1471 76.3768L63.569 76.485L63.6208 78.0185Z" fill="white"/>
<path d="M26.2346 16.3888L26.1635 13.313L25.1109 13.5207L25.0872 12.5343L28.1651 11.9287L28.1888 12.915L27.1362 13.1227L27.2074 16.1963L26.2346 16.3888Z" fill="white"/>
<path d="M31.959 14.7257C31.6439 15.182 31.1644 15.4976 30.6217 15.606C30.3839 15.6653 30.1353 15.6647 29.8978 15.6043C29.6604 15.5439 29.4415 15.4256 29.2606 15.2599C29.0731 15.081 28.9251 14.8645 28.8262 14.6246C28.7274 14.3846 28.6799 14.1265 28.6869 13.867C28.6699 13.2902 28.8494 12.7249 29.1959 12.2642C29.5111 11.8081 29.9906 11.4925 30.5332 11.3839C30.771 11.3246 31.0196 11.3252 31.2571 11.3856C31.4945 11.4459 31.7134 11.5642 31.8943 11.7299C32.0818 11.9089 32.2298 12.1254 32.3287 12.3653C32.4275 12.6053 32.475 12.8634 32.468 13.1229C32.4855 13.7004 32.3059 14.2666 31.959 14.7278V14.7257ZM30.6087 14.5916C30.7417 14.5668 30.8679 14.5144 30.9794 14.4376C31.0909 14.3609 31.185 14.2615 31.2558 14.146C31.4164 13.9013 31.4971 13.6125 31.4866 13.3197C31.4926 13.0517 31.3944 12.7918 31.2127 12.5951C31.1312 12.5087 31.0286 12.4453 30.915 12.4111C30.8015 12.377 30.681 12.3733 30.5656 12.4005C30.4354 12.4265 30.312 12.4794 30.2032 12.5557C30.0944 12.632 30.0026 12.7302 29.9336 12.8439C29.7731 13.0886 29.6924 13.3774 29.7028 13.6701C29.6966 13.9378 29.794 14.1975 29.9746 14.3947C30.0556 14.4817 30.1582 14.5455 30.2719 14.5797C30.3856 14.6139 30.5063 14.6173 30.6217 14.5894" fill="white"/>
<path d="M34.7631 14.7126L34.6682 10.6527L36.4671 10.298C36.8985 10.2143 37.2206 10.2735 37.4334 10.4753C37.5142 10.557 37.5773 10.6544 37.6189 10.7616C37.6604 10.8688 37.6795 10.9834 37.675 11.0983C37.684 11.2978 37.6407 11.4963 37.5495 11.6739C37.4583 11.8515 37.3224 12.002 37.1552 12.1106C37.2596 12.1187 37.3613 12.1476 37.4544 12.1958C37.5475 12.2439 37.63 12.3103 37.6972 12.3909C37.7643 12.4715 37.8147 12.5648 37.8453 12.6652C37.8759 12.7657 37.8862 12.8713 37.8756 12.9757C37.8829 13.1387 37.8572 13.3015 37.8001 13.4543C37.743 13.6071 37.6557 13.7467 37.5434 13.8647C37.2802 14.1277 36.9402 14.2997 36.5728 14.3557L34.7631 14.7126ZM35.6539 12.0846L36.2665 11.9635C36.5742 11.9029 36.7252 11.7508 36.7195 11.5071C36.7137 11.2634 36.5649 11.1761 36.273 11.2454L35.641 11.3708L35.6539 12.0846ZM35.6906 13.6225L36.4434 13.4754C36.754 13.4148 36.9064 13.2569 36.9006 13.0017C36.8949 12.7465 36.7331 12.6556 36.4153 12.7292L35.6733 12.8741L35.6906 13.6225Z" fill="white"/>
<path d="M38.5248 13.9708L38.4299 9.91087L41.2512 9.35498L41.2749 10.3132L39.4135 10.6787L39.4286 11.293L41.1131 10.9621L41.1347 11.8489L39.4502 12.182L39.4653 12.8244L41.3504 12.4545L41.372 13.4106L38.5248 13.9708Z" fill="white"/>
<path d="M44.461 12.8026L44.3898 9.72903L43.335 9.93668L43.3135 8.95036L46.3914 8.34473L46.4151 9.33104L45.3626 9.53869L45.4337 12.6123L44.461 12.8026Z" fill="white"/>
<path d="M47.0878 12.2858L46.9929 8.2259L47.9657 8.03555L48.0002 9.55396L49.2491 9.30955L49.2146 7.78897L50.1873 7.59863L50.2822 11.6585L49.3095 11.8489L49.2728 10.3067L48.0239 10.5533L48.0606 12.0955L47.0878 12.2858Z" fill="white"/>
<path d="M51.0781 11.5004L50.9832 7.44044L53.8066 6.88672L53.8282 7.84275L51.9689 8.2083L51.984 8.82475L53.6685 8.49165L53.688 9.38063L52.0034 9.71157L52.0185 10.3561L53.9036 9.9841L53.9274 10.9423L51.0781 11.5004Z" fill="white"/>
<path d="M56.1579 10.5032L56.063 6.4325L57.8619 6.07776C58.2933 5.99413 58.6153 6.05325 58.8282 6.25513C58.9089 6.33675 58.9721 6.43419 59.0136 6.54137C59.0552 6.64855 59.0743 6.76316 59.0697 6.87807C59.0787 7.07762 59.0355 7.27605 58.9443 7.45365C58.8531 7.63124 58.7171 7.78179 58.5499 7.89034C58.6544 7.89845 58.7561 7.92744 58.8492 7.97558C58.9423 8.02373 59.0248 8.09006 59.0919 8.17069C59.1591 8.25131 59.2094 8.34459 59.2401 8.44503C59.2707 8.54547 59.281 8.65104 59.2703 8.75553C59.2775 8.9185 59.2518 9.08125 59.1947 9.23402C59.1376 9.38678 59.0504 9.52641 58.9382 9.64452C58.6749 9.90753 58.3349 10.0795 57.9676 10.1355L56.1579 10.5032ZM57.0487 7.8752L57.6613 7.75407C57.969 7.69351 58.12 7.54138 58.1142 7.29769C58.1085 7.05399 57.9589 6.96675 57.6656 7.03597L57.0336 7.15925L57.0487 7.8752ZM57.0854 9.41308L57.8381 9.266C58.1487 9.20543 58.3012 9.04754 58.2954 8.7923C58.2896 8.53707 58.1279 8.44623 57.8101 8.51977L57.0681 8.66469L57.0854 9.41308Z" fill="white"/>
<path d="M59.9191 9.76374L59.8242 5.70167L62.6455 5.14795L62.6692 6.10399L60.8078 6.46953L60.8229 7.08598L62.5074 6.75288L62.5269 7.64186L60.8423 7.9728L60.8574 8.61736L62.7425 8.24533L62.7663 9.20353L59.9191 9.76374Z" fill="white"/>
<path d="M64.8181 8.87051C64.533 8.94384 64.2349 8.95037 63.9469 8.88961C63.6589 8.82885 63.3887 8.70242 63.1572 8.52011L63.6813 7.65492C63.8434 7.77798 64.0297 7.86514 64.2279 7.91063C64.4261 7.95612 64.6317 7.95891 64.831 7.91881C65.0985 7.86689 65.23 7.74361 65.2257 7.54894C65.2258 7.50868 65.2139 7.46929 65.1917 7.43579C65.1694 7.40229 65.1377 7.37618 65.1006 7.36076C64.9475 7.30636 64.7864 7.27785 64.6239 7.2764C64.4451 7.26517 64.2672 7.24277 64.0912 7.20935C63.9478 7.17943 63.8092 7.12994 63.6792 7.06227C63.548 6.99646 63.4419 6.88933 63.3772 6.75729C63.305 6.5977 63.2682 6.42426 63.2694 6.24899C63.255 5.88057 63.3789 5.52013 63.6167 5.23888C63.8675 4.94213 64.2153 4.74436 64.598 4.68083C64.845 4.61824 65.1023 4.60862 65.3532 4.6526C65.6041 4.69658 65.8429 4.79317 66.054 4.93606L65.5859 5.82505C65.2951 5.62793 64.9399 5.55049 64.5937 5.60875C64.4966 5.62258 64.4061 5.66643 64.3349 5.7342C64.3065 5.76238 64.2842 5.79614 64.2693 5.83335C64.2545 5.87056 64.2474 5.91044 64.2486 5.9505C64.2487 5.9921 64.2608 6.0328 64.2833 6.06771C64.3059 6.10263 64.3381 6.13027 64.3759 6.14733C64.5334 6.19847 64.6978 6.22475 64.8634 6.2252C65.2117 6.22413 65.5547 6.31196 65.8599 6.48043C65.9768 6.56818 66.0696 6.68427 66.1296 6.81781C66.1896 6.95136 66.2148 7.09798 66.2028 7.24396C66.2224 7.62625 66.0924 8.0011 65.8404 8.28867C65.5714 8.58519 65.2104 8.78185 64.8159 8.84672" fill="white"/>
<path d="M67.7363 8.22568L67.663 5.15209L66.6104 5.35758L66.5867 4.37126L69.6668 3.76562L69.6883 4.75194L68.6357 4.95959L68.7091 8.03318L67.7363 8.22568Z" fill="white"/>
<path d="M70.5813 6.33763L70.2383 4.15086L70.2275 3.6577L71.306 3.44141L71.3168 3.93456L71.0795 6.23597L70.5813 6.33763ZM70.3656 7.70895L70.3418 6.72264L71.334 6.52797L71.3578 7.51429L70.3656 7.70895Z" fill="white"/>
</svg>
