<svg width="11" height="9" viewBox="0 0 11 9" fill="none" xmlns="http://www.w3.org/2000/svg">
<path d="M10.2531 1.10711C10.1873 1.04072 10.109 0.98802 10.0226 0.952059C9.93632 0.916097 9.84374 0.897583 9.75023 0.897583C9.65672 0.897583 9.56414 0.916097 9.47782 0.952059C9.3915 0.98802 9.31316 1.04072 9.24731 1.10711L3.97023 6.39127L1.75315 4.16711C1.68478 4.10106 1.60407 4.04913 1.51563 4.01428C1.42719 3.97943 1.33275 3.96233 1.23771 3.96398C1.14266 3.96562 1.04887 3.98597 0.961692 4.02386C0.874511 4.06175 0.795648 4.11645 0.729604 4.18482C0.66356 4.25318 0.611629 4.33389 0.576776 4.42233C0.541924 4.51077 0.524831 4.60521 0.526476 4.70025C0.52812 4.7953 0.548469 4.88909 0.58636 4.97627C0.624251 5.06345 0.678943 5.14231 0.747312 5.20836L3.46731 7.92836C3.53316 7.99475 3.6115 8.04744 3.69782 8.0834C3.78414 8.11937 3.87672 8.13788 3.97023 8.13788C4.06374 8.13788 4.15632 8.11937 4.24264 8.0834C4.32895 8.04744 4.4073 7.99475 4.47315 7.92836L10.2531 2.14836C10.325 2.08203 10.3824 2.00152 10.4217 1.91192C10.4609 1.82232 10.4812 1.72555 10.4812 1.62773C10.4812 1.52991 10.4609 1.43315 10.4217 1.34354C10.3824 1.25394 10.325 1.17344 10.2531 1.10711Z" fill="#0057B8"/>
</svg>