<svg width="48" height="49" viewBox="0 0 48 49" fill="none" xmlns="http://www.w3.org/2000/svg">
<g clip-path="url(#clip0_521_670)">
<path d="M40.9626 41.5481C50.3338 32.1769 50.3338 16.9832 40.9626 7.61209C31.5914 -1.75908 16.3978 -1.75908 7.0266 7.61209C-2.34457 16.9832 -2.34457 32.1769 7.0266 41.5481C16.3978 50.9192 31.5914 50.9192 40.9626 41.5481Z" fill="#FFC107"/>
<path d="M38.8568 23.17C39.2961 23.6094 39.2962 24.3217 38.8568 24.7611L26.9532 36.6646C24.8803 38.7374 22.1565 39.774 19.4337 39.7742C16.7102 39.7745 13.9877 38.7379 11.9143 36.6646C7.76814 32.5183 7.76814 25.772 11.9143 21.6257L21.9686 11.5714C24.879 8.6611 29.6146 8.6611 32.525 11.5714C33.9298 12.9762 34.7036 14.8507 34.7036 16.8495C34.7036 18.8484 33.9298 20.7228 32.5249 22.1277L22.6872 31.9653C21.8501 32.8025 20.75 33.2211 19.6504 33.2212C18.5505 33.2214 17.4509 32.8027 16.6136 31.9653C14.9392 30.2908 14.9392 27.5662 16.6136 25.8917L26.3996 16.1056C26.8391 15.6663 27.5513 15.6663 27.9907 16.1056C28.43 16.545 28.4301 17.2572 27.9907 17.6966L18.2047 27.4826C17.4075 28.2799 17.4075 29.577 18.2047 30.3743C19.0019 31.1714 20.2991 31.1714 21.0963 30.3743L30.934 20.5366C31.9139 19.5566 32.4536 18.2472 32.4536 16.8494C32.4536 15.4517 31.9139 14.1422 30.934 13.1623C28.9008 11.1293 25.5927 11.1293 23.5597 13.1623L13.5054 23.2167C10.2364 26.4857 10.2364 31.8046 13.5054 35.0737C16.7742 38.3424 22.0932 38.3425 25.3623 35.0737L37.2657 23.1701C37.7051 22.7308 38.4174 22.7308 38.8568 23.17V23.17Z" fill="white"/>
</g>
<defs>
<clipPath id="clip0_521_670">
<rect y="0.580078" width="48" height="48" rx="24" fill="white"/>
</clipPath>
</defs>
</svg>
