<svg width="468" height="171" viewBox="0 0 468 171" fill="none" xmlns="http://www.w3.org/2000/svg">
<g clip-path="url(#clip0_476_570)">
<path d="M0.861328 59.6582H468.001V145.784H0.861328V59.6582Z" fill="#FFD400"/>
<path d="M136.269 55.0328C136.179 54.9506 136.089 54.9506 136.007 54.8609L136.179 54.689L136.352 54.8609C136.269 54.9506 136.269 54.9506 136.269 55.0328ZM134.695 44.2642L134.35 44.0924C134.432 43.8308 134.522 43.487 134.612 43.2255C134.695 43.2255 134.875 43.3077 134.957 43.3077C134.875 43.5692 134.785 43.9205 134.695 44.2642V44.2642ZM130.601 42.9639C130.429 42.9639 130.339 42.8743 130.166 42.8743C130.076 42.1793 129.986 41.574 129.904 40.5352C130.654 40.6174 131.208 40.6174 131.996 40.7071C131.472 41.4215 131.005 42.1762 130.601 42.9639V42.9639ZM130.339 33.3238C130.249 33.675 130.249 33.9366 130.166 34.2803H129.904C129.904 33.9291 129.814 33.5853 129.814 33.3238C129.986 33.2416 130.166 33.3238 130.339 33.3238V33.3238ZM128.592 25.507C128.592 25.4248 128.509 25.4248 128.509 25.3352C128.509 25.2455 128.592 25.2455 128.682 25.2455C128.772 25.2455 128.772 25.3352 128.772 25.4248C128.704 25.4328 128.642 25.4615 128.592 25.507V25.507ZM128.329 30.7381H127.984C127.984 30.3869 127.894 29.9535 127.894 29.6022C128.097 29.5625 128.303 29.535 128.509 29.52C128.392 29.9112 128.324 30.3153 128.307 30.7232L128.329 30.7381ZM127.894 39.0855C127.739 39.017 127.593 38.9291 127.46 38.8239C127.542 38.6906 127.6 38.5439 127.632 38.3905C127.819 38.4865 127.97 38.638 128.067 38.8239C128.067 38.8239 127.894 38.9659 127.894 39.0855ZM126.395 16.1583C125.255 16.1583 125.518 15.1196 125.255 14.3349C126.567 14.1631 126.912 14.6862 127.002 15.553C126.935 15.695 126.59 16.1285 126.417 16.1285L126.395 16.1583ZM125.083 43.8607L124.333 43.3376C124.333 43.2554 124.423 43.1657 124.423 43.0835C124.775 43.1657 125.03 43.2554 125.383 43.3376L125.083 43.8607ZM123.883 19.7753C123.133 19.2596 123.276 18.7365 124.146 17.6978C124.318 18.6468 124.408 19.1924 124.498 19.6931C124.29 19.692 124.083 19.7197 123.883 19.7753V19.7753ZM122.489 95.1328L122.054 94.7816C122.226 94.52 122.406 94.2585 122.751 93.8251L123.276 94.3482C123.035 94.6302 122.771 94.8926 122.489 95.1328V95.1328ZM122.489 19.2372H122.406L122.489 19.1475V19.2372ZM121.356 14.0061C122.923 14.7011 122.923 14.7011 123.538 16.5245C123.276 16.5245 122.841 16.7039 122.788 16.6142C122.054 15.9566 121.094 15.3513 121.356 14.0435V14.0061ZM120.659 19.3045L120.569 19.1326H120.749L120.659 19.3045ZM120.134 87.9065L119.962 87.7346C120.052 87.6449 120.052 87.6449 120.134 87.6449C120.217 87.6449 120.224 87.7346 120.307 87.8243C120.224 87.8616 120.224 87.8616 120.134 87.9438V87.9065ZM118.635 61.9453L119.16 61.6838C119.422 62.2925 119.722 62.884 120.059 63.4549C119.879 63.5445 119.797 63.6342 119.617 63.7164C119.265 63.1111 118.912 62.5058 118.65 61.9827L118.635 61.9453ZM119.684 16.7039H120.292V18.5273C119.002 17.9519 119.265 17.3465 119.699 16.7412L119.684 16.7039ZM115.426 80.1869C115.336 80.0972 115.253 79.9253 115.163 79.8431L116.213 79.0958C116.295 79.2677 116.475 79.4396 116.558 79.6189C116.213 79.7833 115.861 80.0449 115.426 80.1869ZM115.951 143.842C115.688 143.662 115.516 143.49 115.253 143.319C115.442 143.22 115.648 143.162 115.861 143.147C115.95 143.147 116.04 143.401 116.123 143.491C116.028 143.597 115.968 143.73 115.951 143.872V143.842ZM116.385 18.7066L116.475 18.8785H116.385V18.7066ZM114.638 63.8584C114.638 63.8584 114.383 63.6865 114.383 63.6043C114.473 63.4394 114.59 63.2904 114.728 63.1634L115.081 63.5146C114.912 63.6117 114.762 63.7382 114.638 63.8883V63.8584ZM113.941 13.2364C113.769 12.9749 113.506 12.803 113.334 12.5414L113.596 12.2799C113.748 12.5509 113.955 12.7876 114.204 12.9749C114.121 13.1766 114.061 13.2663 113.941 13.2663V13.2364ZM113.941 141.495C113.928 141.371 113.96 141.247 114.031 141.144C114.041 141.212 114.072 141.275 114.121 141.323C114.121 141.465 114.061 141.465 113.941 141.525V141.495ZM107.403 10.4863C107.337 10.4775 107.276 10.4458 107.231 10.3967V9.70169H107.493C107.549 9.96605 107.517 10.2414 107.403 10.4863V10.4863ZM106.008 21.6958L105.919 21.6061H106.008V21.6958ZM94.6719 138.14C94.5819 138.05 94.4995 138.05 94.4995 137.96C94.4995 137.871 94.5819 137.706 94.5819 137.527C94.6619 137.597 94.75 137.657 94.8444 137.706C94.8444 137.878 94.7619 137.96 94.6719 138.14ZM48.4558 110.437L48.5458 110.266L48.6283 110.437H48.4558ZM48.021 124.763C47.7585 124.502 47.4961 124.33 47.2337 124.068L47.5861 123.724C47.8485 123.986 48.021 124.24 48.2834 124.472L48.021 124.763ZM46.4539 88.295C46.525 87.7658 46.6404 87.2433 46.7988 86.7332C46.9713 86.7332 47.1512 86.8154 47.3237 86.8154C47.2337 87.3385 47.0613 87.8616 46.9713 88.3773C46.7988 88.4071 46.6264 88.295 46.4539 88.295V88.295ZM44.7969 88.9004H44.3321V87.6001C44.5405 87.5864 44.7495 87.6143 44.9469 87.6823C44.9318 88.0918 44.8816 88.4993 44.7969 88.9004V88.9004ZM43.6573 79.0883C43.6958 78.9977 43.7564 78.918 43.8337 78.8567C43.911 78.7954 44.0024 78.7542 44.0996 78.7371C44.1821 78.7371 44.3546 78.9987 44.5345 79.178C44.2721 79.3499 44.0997 79.5218 43.9197 79.6114C43.8372 79.5218 43.5823 79.178 43.6573 79.0883ZM43.3124 81.8683C42.6673 81.8252 42.026 81.7378 41.393 81.6067V81.0014C42.026 80.8703 42.6673 80.7829 43.3124 80.7399C43.4848 80.7399 43.8372 81.1733 43.8372 81.3452C43.8372 81.5171 43.4848 81.8683 43.3124 81.8683ZM42.3527 109.653C42.3075 109.651 42.2647 109.632 42.2328 109.6C42.2008 109.569 42.1821 109.526 42.1802 109.481C42.2668 109.383 42.3262 109.265 42.3527 109.137C42.4427 109.219 42.4427 109.391 42.5251 109.481C42.6076 109.571 42.3527 109.653 42.3527 109.653ZM41.333 89.3338C41.2505 89.3338 41.1605 89.0722 41.0781 88.99C41.1823 88.8881 41.2684 88.7693 41.333 88.6388C41.4211 88.8311 41.5401 89.0078 41.6854 89.1619C41.5887 89.2543 41.4655 89.3144 41.333 89.3338V89.3338ZM41.4829 113.815L41.303 113.643L41.4829 113.472L41.6554 113.643C41.5654 113.651 41.5654 113.733 41.4829 113.815ZM40.5832 70.7485C40.981 70.5821 41.3625 70.3795 41.7229 70.1432C41.8053 70.3151 41.8953 70.4047 41.8953 70.5766C41.4604 70.7485 41.1081 71.01 40.6732 71.1894C40.6521 71.0408 40.6221 70.8935 40.5832 70.7485V70.7485ZM40.0659 66.4067C40.0659 66.3245 40.2383 66.0629 40.3208 66.0629C40.5333 66.1634 40.7387 66.2783 40.9356 66.4067C40.6732 66.586 40.5832 66.7579 40.4108 66.8476C40.2802 66.7188 40.1714 66.57 40.0884 66.4067H40.0659ZM41.5654 68.5813C41.3692 68.6584 41.1657 68.716 40.9581 68.7532C40.8509 68.6215 40.7626 68.4757 40.6957 68.3198C40.7924 68.2274 40.9155 68.1673 41.0481 68.1479C41.1305 68.1479 41.333 68.3198 41.5654 68.5813ZM41.7454 30.8054C41.8734 30.8317 41.9923 30.891 42.0903 30.9773C42.0003 31.0669 41.9178 31.0669 41.7454 31.1566L41.5654 30.9773L41.7454 30.8054ZM39.9084 78.3037C39.646 79.6114 37.989 81.0836 36.7744 81.6067C36.2495 81.7786 35.8146 82.354 35.3798 82.8248C34.8549 81.1733 35.0274 80.6502 36.0771 79.5218C36.2688 79.2944 36.4132 79.0313 36.502 78.7477C36.5908 78.4642 36.6222 78.166 36.5944 77.8702C36.332 76.9137 35.6347 77.5265 35.0949 77.6087C34.9149 77.6087 34.7425 77.3546 34.2176 77.093C35.3237 76.1384 36.5217 75.2948 37.7941 74.5747C38.2289 74.3131 39.0162 74.9184 39.6235 75.0903C39.8034 76.8315 38.4089 75.7853 37.7116 76.3084C37.6995 76.808 37.7271 77.3077 37.7941 77.803H39.8334C39.8874 77.8733 39.9226 77.9561 39.9357 78.0437C39.9489 78.1313 39.9395 78.2207 39.9084 78.3037V78.3037ZM37.989 84.9023C37.8493 84.882 37.7182 84.8229 37.6108 84.7317C37.5034 84.6405 37.424 84.5209 37.3817 84.3867C37.2917 84.2148 37.6441 83.9532 37.7341 83.6917C37.989 83.8636 38.3414 84.0355 38.8662 84.3867C38.4314 84.6707 38.2514 84.9023 37.989 84.9023ZM37.2392 90.9853C37.1492 90.8956 37.0668 90.8956 37.0668 90.8134C37.0863 90.6814 37.1465 90.5586 37.2392 90.4622C37.3048 90.4732 37.3651 90.5046 37.4117 90.5519C37.3977 90.7157 37.326 90.8693 37.2092 90.9853H37.2392ZM36.7144 104.795C36.6244 104.706 36.6244 104.706 36.6244 104.616C36.6244 104.526 36.7144 104.534 36.8043 104.444L36.9768 104.616C36.8343 104.706 36.7744 104.795 36.6844 104.795H36.7144ZM35.9646 63.1933C36.0546 63.8883 36.9243 64.5011 36.0546 65.9733C35.7922 64.7626 35.6197 64.0676 35.4473 63.3727C35.5522 63.283 35.7247 63.283 35.8971 63.1933H35.9646ZM50.9601 54.3378C50.9601 54.4275 51.0426 54.4275 51.0426 54.5097C51.0426 54.5919 50.9601 54.5994 50.8701 54.5994C50.7801 54.5994 50.7801 54.5097 50.7801 54.4275C50.8276 54.4091 50.8691 54.3781 50.9001 54.3378H50.9601ZM51.8298 19.8649L53.1344 20.6122C53.052 20.7841 52.872 20.956 52.7895 21.1279L51.6799 20.2984C51.6684 20.2194 51.6761 20.1389 51.7021 20.0635C51.7282 19.9882 51.772 19.9201 51.8298 19.8649ZM138.624 34.4522C138.534 34.1907 138.706 33.8469 138.706 33.4957C138.655 32.3572 138.51 31.2249 138.271 30.1104C137.664 27.7639 136.877 25.507 136.089 23.168C135.612 21.9467 135.058 20.7562 134.432 19.6034C133.998 18.6468 133.218 17.78 133.038 16.7412C132.693 15.1794 132.168 13.9613 130.511 13.5279L130.774 11.0095L128.524 10.7479L127.999 11.5326C127.761 11.7486 127.511 11.9507 127.25 12.1379C126.725 11.0095 126.552 10.1426 127.947 9.96324C128.734 9.88104 129.169 9.52981 129.079 8.75262C128.989 7.97543 128.307 7.6242 127.37 7.69893C127.287 8.31171 127.197 8.91702 127.025 9.94082C126.417 8.8124 125.975 8.11741 125.63 7.42243C124.235 7.42243 122.923 7.34022 122.054 6.2118C121.559 5.53923 120.809 4.70973 120.059 4.49302C118.92 4.14926 117.615 4.32114 116.918 2.99842C116.366 3.07263 115.832 3.24742 115.343 3.51406C115.045 3.64476 114.755 3.79196 114.473 3.95496C114.134 3.5396 113.743 3.16807 113.311 2.84896C112.614 3.19272 111.564 3.88771 111.392 3.71583C110.17 2.66961 109.825 3.88771 109.39 4.46313C108.799 5.42998 108.298 6.44794 107.89 7.50463C107.193 8.02774 106.496 8.19962 106.233 8.63305C105.446 9.85115 105.011 11.3233 104.142 12.3695C103.711 12.817 103.38 13.3496 103.17 13.9328C102.959 14.5159 102.874 15.1367 102.919 15.7548C102.919 16.0164 102.657 16.2779 102.485 16.5021C101.952 17.283 101.6 18.1726 101.456 19.1061C101.312 20.0395 101.379 20.9932 101.652 21.8976C101.673 22.4243 101.613 22.9511 101.472 23.4594C101.092 24.7709 100.801 26.1067 100.603 27.4575C100.168 31.194 99.8154 35.0127 99.3805 38.7492L98.6307 47.8662C98.3758 50.2949 98.1958 52.7237 97.8809 55.1598C97.5286 57.2448 96.9212 59.3298 96.6588 61.4073C96.049 66.0106 95.5267 70.614 95.0918 75.2173C94.9118 77.1304 94.7394 79.036 94.7394 80.9491C94.7394 83.7291 95.0018 86.5912 94.9118 89.3712C94.7394 93.1899 93.1724 96.7545 92.1227 100.401C91.6878 101.702 90.9905 102.92 90.6231 104.31C90.1883 105.961 89.9258 107.785 89.5809 109.429C89.4085 110.303 89.4085 111.342 88.8312 111.865C88.1217 112.669 87.6676 113.665 87.5266 114.727C87.2641 115.594 87.2641 116.812 86.7768 117.335C85.1198 118.897 85.0373 120.982 84.25 122.805C83.2004 125.152 82.8555 127.752 81.3709 130.099C80.3212 131.661 79.8714 133.656 79.279 135.569C78.8215 136.869 78.2364 138.12 77.5321 139.306C77.0147 140.255 76.0325 140.606 75.5302 141.391C74.7761 142.457 73.6353 143.189 72.3492 143.432C71.0631 143.674 69.7328 143.409 68.6398 142.691C66.4579 141.196 63.9312 140.172 62.6416 137.654C62.5516 137.393 62.1992 137.221 61.9443 137.131C60.7221 136.787 60.1073 135.741 59.3276 134.889C57.3411 132.472 55.83 129.704 54.8739 126.729C53.6593 123.426 52.5196 120.003 51.5674 116.565C50.8481 114.215 50.3462 111.803 50.0679 109.361C49.7155 106.581 49.543 103.712 49.453 100.85C49.3706 95.8129 48.2384 90.7761 48.7033 85.7393C48.7857 84.7827 48.1784 83.744 47.9535 82.7501C48.3059 82.227 48.9132 81.7114 49.0032 81.0986C49.438 78.2364 49.5205 75.3668 50.0454 72.5868C50.5702 69.5976 49.7829 66.4216 51.3575 63.6193C51.4399 63.5296 51.3575 63.268 51.4399 63.1784C51.7923 61.0112 52.1897 58.9262 52.5721 56.7591C53.0969 53.456 53.6218 50.0334 54.0716 46.7677C54.424 43.8159 54.6865 40.9537 54.9414 38.0019C55.1213 36.3503 54.8589 34.5269 55.2938 32.9651C55.7286 31.4032 55.5562 30.4467 54.3341 29.4901C54.2441 29.4005 54.2441 29.2286 54.1616 29.0567L55.7811 27.876C55.7811 25.9629 55.6912 23.8854 55.7811 21.8004C55.9536 19.0205 56.8308 16.4124 56.9133 13.6325C57.0654 11.5604 56.4785 9.50142 55.2563 7.81849C54.1196 6.43818 53.1272 4.94581 52.2947 3.3646C51.8598 3.3646 51.1625 3.53647 50.7951 3.3646C49.3325 2.47249 47.7459 1.80017 46.0866 1.36931C44.8644 1.01808 43.6423 0.24089 42.7725 1.36931C42.0228 2.23618 40.5232 2.93116 40.9431 4.58269L40.8681 4.70973V4.58269C40.5232 4.92645 39.9984 5.27768 39.9084 5.71111C39.646 6.66766 39.646 7.6242 39.3911 8.57327C38.3414 12.1379 39.1286 16.0462 37.4716 19.5212C37.3817 19.7753 37.5541 20.1265 37.5541 20.3881C37.3817 23.168 37.3817 25.9405 37.0368 28.7204C36.6919 31.5004 35.4623 34.2803 36.332 37.2322C36.422 37.4937 36.1595 37.8375 36.0771 38.099C35.8742 38.6873 35.7555 39.3011 35.7247 39.9224C35.8146 44.2642 34.8549 48.5238 34.3301 52.776C33.8952 56.1612 33.1979 59.5016 32.8305 62.8495C32.4632 66.1974 32.4857 69.6201 32.3132 73.0128V74.1412C32.2232 76.3084 32.0508 78.3933 32.0508 80.5605C32.0508 81.5171 32.2232 82.5633 32.3132 83.5497C32.5681 85.7169 32.9205 87.8018 33.0105 89.969C33.1829 93.4439 33.1829 96.9189 33.2654 100.431C33.2974 101.567 33.4152 102.698 33.6178 103.816C33.8802 105.378 34.4051 106.94 34.5775 108.509C35.0124 112.672 35.5372 116.73 37.1043 120.661C37.27 121.11 37.3881 121.576 37.4567 122.051C38.0348 124.509 38.8822 126.898 39.9834 129.172C41.1156 131.601 42.0753 134.209 43.3874 136.556C44.6541 138.932 46.1615 141.173 47.886 143.244C50.2403 146.016 52.947 148.535 55.2113 151.464C56.4334 153.116 58.2104 154.334 59.7474 155.724C59.9071 155.901 60.1203 156.022 60.3548 156.068C62.1917 155.373 62.9715 156.942 64.0211 157.719C66.3754 159.371 68.7297 161.022 71.6913 161.456C72.741 161.627 73.6108 162.412 74.6904 162.756C76.2254 163.285 77.7998 163.692 79.399 163.974C80.5312 164.236 81.8358 163.712 82.9754 164.579C83.2379 164.751 83.8452 164.497 84.1901 164.407C84.535 164.318 84.9398 164.056 85.3297 164.146C86.5519 164.318 87.7665 164.407 88.3813 165.88C88.5171 166.134 88.7172 166.348 88.9618 166.502C89.2065 166.655 89.4871 166.742 89.7759 166.754C91.3429 166.492 92.0252 167.882 93.1724 168.316C93.3523 168.054 93.6147 167.793 93.8696 167.449C95.0918 167.703 96.2239 168.054 96.4039 169.526C95.969 169.967 95.5266 170.221 95.1818 170.573C96.2239 170.662 97.7985 171.529 97.1837 169.355C98.4058 168.66 96.6663 167.449 97.7085 166.575C98.2333 166.926 98.7582 167.359 99.3655 167.793C100.153 166.298 101.615 165.185 101.375 163.451C102.417 163.189 103.377 162.756 104.247 162.846C105.649 163.017 106.428 161.979 107.561 161.627C108.693 161.276 107.74 160.327 108.258 159.976C109.57 159.229 110.875 158.414 112.269 157.637C112.711 157.375 113.409 157.196 113.409 156.942C113.409 155.447 115.763 155.118 115.238 153.295C115.148 153.116 115.673 152.772 115.846 152.421C116.113 152.007 116.346 151.572 116.543 151.12C116.723 150.687 116.805 150.164 116.978 149.73C117.33 149.125 118.117 148.602 118.117 147.997C118.2 146.502 119.16 145.822 120.367 145.127C120.125 144.733 120.044 144.26 120.142 143.808C120.239 143.356 120.508 142.959 120.892 142.698C121.456 142.171 121.824 141.467 121.934 140.703C122.114 138.461 122.196 138.185 123.433 136.795C123.696 136.443 124.048 135.92 123.958 135.577C123.786 134.62 124.393 134.187 124.745 133.492C125.353 132.453 126.402 131.668 126.402 130.368C126.377 129.954 126.441 129.539 126.591 129.152C126.741 128.765 126.974 128.415 127.272 128.126C128.011 127.346 128.444 126.328 128.494 125.256C128.404 123.015 129.364 121.266 130.669 119.614C131.992 117.761 132.724 115.552 132.768 113.277C132.761 112.227 133.13 111.21 133.81 110.408C133.983 109.279 134.163 108.584 134.245 107.979C134.245 107.807 134.417 107.456 134.335 107.366C133.375 106.499 134.163 105.632 134.425 104.848C134.507 104.504 134.77 104.1 134.68 103.899C133.72 101.896 135.122 100.162 135.557 98.4284C135.902 97.0384 136.427 95.8203 136.427 94.3407C136.427 93.1301 136.337 91.8223 137.731 91.217C137.128 90.6774 136.663 90.0018 136.374 89.2465C136.086 88.4912 135.983 87.6781 136.074 86.8752C136.337 84.7902 137.214 82.7053 136.779 80.7996C135.902 76.4578 137.214 72.4598 137.477 68.2899C137.559 66.6458 137.649 65.0765 137.731 63.4324C137.731 62.999 137.649 62.4759 137.649 62.0425C137.649 59.6063 138.346 57.1775 137.911 54.6592C137.721 53.6295 137.66 52.5801 137.731 51.5354C137.994 49.4505 138.691 47.4552 138.609 45.3702C138.444 41.7458 139.553 38.099 138.624 34.4522Z" fill="#005BBB"/>
<path d="M212.221 76.51C217.58 81.0984 220.259 87.6498 220.259 96.164H201.214C201.214 92.567 200.267 89.7198 198.373 87.6223C196.478 85.5249 193.787 84.4737 190.298 84.4688C186.264 84.4688 183.3 85.7292 181.405 88.2501C179.511 90.771 178.556 94.2783 178.541 98.772V104.526C178.541 108.965 179.489 112.453 181.383 114.988C183.277 117.524 186.182 118.797 190.095 118.807C193.939 118.807 196.856 117.811 198.845 115.818C200.835 113.825 201.834 111.038 201.844 107.456H220.259C220.259 115.925 217.657 122.402 212.454 126.885C207.25 131.369 199.895 133.611 190.388 133.611C179.801 133.611 171.783 130.913 166.335 125.518C160.887 120.122 158.165 112.151 158.17 101.604C158.17 91.0525 160.892 83.0813 166.335 77.6908C171.778 72.3002 179.796 69.6149 190.388 69.6349C199.595 69.6349 206.873 71.9266 212.221 76.51Z" fill="#151515"/>
<path d="M272.593 132.587L270.014 123.866H248.27L245.654 132.587H225.26L247.91 70.7109H271.063L293.714 132.587H272.593ZM252.349 110.019H265.8L259.299 87.981H258.94L252.349 110.019Z" fill="#151515"/>
<path d="M357.055 99.9455C354.888 103.092 351.754 105.452 348.126 106.671L361.929 132.572H339.556L328.542 110.004H321.141V132.572H301.197V70.7112H339.188C343.15 70.5961 347.077 71.4776 350.607 73.2744C353.611 74.8345 356.09 77.2377 357.738 80.1869C359.331 83.0966 360.154 86.3629 360.13 89.6776C360.169 93.3311 359.097 96.9107 357.055 99.9455V99.9455ZM338.199 86.4493C337.682 85.9241 337.063 85.51 336.379 85.2323C335.696 84.9547 334.963 84.8195 334.225 84.8351H321.141V96.2538H334.225C334.967 96.2685 335.705 96.1278 336.389 95.8408C337.074 95.5537 337.69 95.1267 338.199 94.5873C338.73 94.049 339.148 93.4098 339.428 92.7077C339.707 92.0056 339.842 91.2548 339.826 90.4996C339.845 89.7497 339.711 89.0037 339.431 88.3073C339.151 87.6108 338.732 86.9786 338.199 86.4493V86.4493Z" fill="#151515"/>
<path d="M371.406 70.7109H425.098V85.5523H391.358V94.0939H420.231V108.293H391.35V117.738H425.727V132.572H371.406V70.7109Z" fill="#151515"/>
<path d="M165.75 162.105C164.442 162.94 162.921 163.384 161.368 163.384C159.814 163.384 158.294 162.94 156.985 162.105C156.456 161.643 156.041 161.066 155.773 160.417C155.505 159.769 155.392 159.068 155.441 158.369V151.284H159.265V158.316C159.229 158.896 159.42 159.466 159.797 159.908C160.225 160.296 160.782 160.51 161.36 160.51C161.938 160.51 162.496 160.296 162.924 159.908C163.298 159.467 163.491 158.901 163.463 158.324V151.292H167.295V158.376C167.343 159.074 167.228 159.774 166.961 160.421C166.693 161.068 166.278 161.644 165.75 162.105V162.105Z" fill="white"/>
<path d="M177.904 151.314H182.643L178.369 156.194L182.733 163.174H178.234L175.76 158.825L173.683 160.521V163.174H169.859V151.314H173.683V156.411L177.904 151.314Z" fill="white"/>
<path d="M194.955 156.912C194.544 157.52 193.943 157.974 193.245 158.205L195.892 163.174H191.603L189.489 158.847H188.072V163.174H184.248V151.315H191.536C192.293 151.291 193.043 151.458 193.718 151.8C194.296 152.1 194.773 152.563 195.09 153.131C195.392 153.689 195.549 154.313 195.547 154.947C195.556 155.647 195.349 156.333 194.955 156.912ZM191.341 154.326C191.243 154.228 191.126 154.151 190.997 154.098C190.868 154.046 190.73 154.019 190.591 154.02H188.079V156.21H190.591C190.732 156.211 190.871 156.183 191 156.128C191.129 156.073 191.245 155.991 191.341 155.888C191.543 155.678 191.656 155.398 191.656 155.107C191.656 154.816 191.543 154.536 191.341 154.326V154.326Z" fill="white"/>
<path d="M205.677 163.174L205.174 161.5H201.036L200.533 163.174H196.627L200.968 151.314H205.414L209.756 163.174H205.677ZM201.785 158.847H204.365L203.12 154.625H203.053L201.785 158.847Z" fill="white"/>
<path d="M211.33 163.174V151.314H215.154V163.174H211.33Z" fill="white"/>
<path d="M226.393 163.174L221.392 157.412V163.174H217.883V151.314H221.219L226.22 157.158V151.314H229.729V163.174H226.393Z" fill="white"/>
<path d="M232.285 151.314H242.58V154.169H236.109V155.806H241.642V158.533H236.109V160.342H242.699V163.189H232.285V151.314Z" fill="white"/>
<path d="M246.472 156.314H245.272L244.455 153.848V151.314H247.274V153.848L246.472 156.314Z" fill="white"/>
<path d="M258.334 152.024C258.803 152.308 259.189 152.711 259.452 153.191C259.716 153.671 259.847 154.212 259.833 154.759V154.968H256.25V154.916C256.253 154.754 256.22 154.593 256.154 154.444C256.088 154.296 255.99 154.164 255.867 154.057C255.54 153.801 255.127 153.678 254.713 153.713C254.31 153.691 253.908 153.768 253.543 153.937C253.43 153.983 253.333 154.059 253.261 154.156C253.19 154.254 253.147 154.37 253.138 154.49C253.145 154.649 253.203 154.801 253.303 154.924C253.402 155.048 253.539 155.137 253.693 155.178C254.27 155.385 254.865 155.54 255.47 155.641C256.268 155.799 257.057 156.004 257.832 156.254C258.449 156.465 259.005 156.824 259.451 157.3C259.933 157.84 260.187 158.543 260.163 159.265C260.21 159.861 260.107 160.458 259.864 161.004C259.62 161.549 259.244 162.025 258.769 162.389C257.637 163.116 256.305 163.471 254.96 163.405C253.458 163.487 251.961 163.164 250.626 162.471C249.592 161.849 249.074 160.75 249.074 159.176H252.688C252.658 159.4 252.685 159.628 252.768 159.838C252.851 160.049 252.986 160.235 253.16 160.379C253.606 160.61 254.107 160.714 254.608 160.678C255.016 160.688 255.423 160.635 255.815 160.521C255.955 160.486 256.079 160.404 256.166 160.288C256.252 160.172 256.295 160.03 256.287 159.886C256.287 159.594 256.115 159.385 255.762 159.236C255.2 159.038 254.624 158.886 254.038 158.78C253.225 158.619 252.423 158.404 251.638 158.137C250.999 157.91 250.427 157.527 249.974 157.024C249.46 156.444 249.191 155.689 249.224 154.916C249.19 154.347 249.311 153.78 249.575 153.274C249.84 152.769 250.236 152.345 250.724 152.047C251.891 151.394 253.217 151.076 254.555 151.127C255.874 151.063 257.185 151.374 258.334 152.024V152.024Z" fill="white"/>
<path d="M277.4 151.68C277.886 151.913 278.298 152.275 278.592 152.726C278.884 153.17 279.038 153.69 279.035 154.221C279.095 154.843 278.927 155.466 278.562 155.975C278.196 156.483 277.658 156.842 277.048 156.986V157.053C277.736 157.169 278.352 157.544 278.771 158.1C279.19 158.657 279.378 159.352 279.297 160.042C279.306 160.623 279.147 161.193 278.84 161.686C278.529 162.165 278.094 162.55 277.58 162.8C277.037 163.067 276.439 163.202 275.833 163.196H267.811V151.314H275.736C276.312 151.305 276.882 151.43 277.4 151.68V151.68ZM271.649 155.932H274.274C274.393 155.935 274.511 155.912 274.621 155.866C274.731 155.819 274.83 155.75 274.911 155.663C275.077 155.482 275.166 155.243 275.158 154.998V154.826C275.162 154.707 275.14 154.588 275.095 154.477C275.05 154.367 274.982 154.267 274.896 154.184C274.817 154.097 274.721 154.029 274.614 153.982C274.506 153.936 274.391 153.913 274.274 153.915H271.649V155.932ZM271.649 160.416H274.551C274.67 160.418 274.789 160.396 274.898 160.349C275.008 160.303 275.107 160.234 275.188 160.147C275.355 159.966 275.443 159.727 275.436 159.482V159.31C275.443 159.065 275.354 158.826 275.188 158.645C275.107 158.559 275.008 158.491 274.898 158.446C274.788 158.401 274.67 158.38 274.551 158.383H271.649V160.416Z" fill="white"/>
<path d="M281.262 151.314H291.556V154.169H285.086V155.806H290.619V158.533H285.086V160.342H291.676V163.189H281.262V151.314Z" fill="white"/>
<path d="M302.518 152.024C302.986 152.309 303.371 152.712 303.634 153.192C303.898 153.672 304.03 154.212 304.017 154.759V154.968H300.434V154.916C300.437 154.754 300.404 154.592 300.338 154.444C300.272 154.296 300.174 154.163 300.051 154.057C299.723 153.802 299.311 153.68 298.896 153.713C298.494 153.691 298.092 153.768 297.727 153.937C297.614 153.982 297.517 154.058 297.445 154.156C297.374 154.254 297.331 154.369 297.322 154.49C297.329 154.647 297.385 154.799 297.484 154.922C297.582 155.046 297.717 155.135 297.869 155.177C298.449 155.384 299.047 155.539 299.654 155.641C300.452 155.799 301.241 156.004 302.016 156.254C302.631 156.468 303.187 156.827 303.635 157.3C304.117 157.839 304.37 158.544 304.34 159.265C304.384 159.863 304.276 160.462 304.028 161.008C303.779 161.554 303.396 162.029 302.915 162.389C301.781 163.116 300.446 163.472 299.099 163.405C297.597 163.485 296.1 163.162 294.765 162.471C293.736 161.848 293.221 160.75 293.221 159.176H296.835C296.805 159.399 296.832 159.626 296.913 159.836C296.994 160.046 297.127 160.233 297.299 160.379C297.747 160.61 298.251 160.714 298.754 160.678C299.16 160.689 299.565 160.636 299.954 160.521C300.096 160.488 300.221 160.406 300.309 160.29C300.397 160.174 300.441 160.031 300.434 159.885C300.434 159.594 300.261 159.385 299.909 159.235C299.347 159.038 298.77 158.886 298.184 158.779C297.369 158.617 296.565 158.403 295.777 158.137C295.141 157.908 294.572 157.525 294.12 157.023C293.606 156.444 293.338 155.689 293.371 154.916C293.336 154.347 293.458 153.78 293.722 153.274C293.986 152.769 294.383 152.344 294.87 152.046C296.038 151.394 297.364 151.076 298.702 151.127C300.034 151.056 301.358 151.367 302.518 152.024Z" fill="white"/>
<path d="M313.097 154.348V163.174H309.274V154.348H305.367V151.314H316.989V154.348H313.097Z" fill="white"/>
<path d="M333.139 151.823C333.71 152.152 334.177 152.633 334.489 153.213C334.816 153.826 334.984 154.513 334.976 155.208V155.432C334.984 156.13 334.816 156.818 334.489 157.435C334.177 158.018 333.71 158.505 333.139 158.84C332.54 159.184 331.858 159.359 331.167 159.348H328.318V163.174H324.494V151.314H331.167C331.859 151.299 332.541 151.475 333.139 151.823V151.823ZM328.318 156.568H329.892C330.057 156.58 330.221 156.559 330.377 156.506C330.533 156.454 330.677 156.37 330.8 156.262C330.903 156.147 330.983 156.014 331.034 155.869C331.086 155.724 331.108 155.571 331.1 155.417V155.275C331.11 155.12 331.089 154.965 331.037 154.819C330.985 154.672 330.905 154.538 330.8 154.423C330.676 154.316 330.532 154.234 330.376 154.182C330.221 154.131 330.056 154.111 329.892 154.124H328.318V156.568Z" fill="white"/>
<path d="M347.683 156.911C347.273 157.519 346.671 157.973 345.974 158.204L348.621 163.174H344.324L342.217 158.847H340.8V163.174H336.977V151.314H344.242C345.001 151.289 345.754 151.456 346.431 151.8C347.009 152.097 347.485 152.561 347.796 153.13C348.103 153.686 348.263 154.311 348.261 154.946C348.271 155.644 348.069 156.329 347.683 156.911ZM344.069 154.326C343.87 154.129 343.6 154.019 343.32 154.019H340.815V156.209H343.32C343.46 156.21 343.599 156.181 343.728 156.126C343.857 156.071 343.973 155.99 344.069 155.887C344.266 155.675 344.376 155.396 344.376 155.106C344.376 154.817 344.266 154.538 344.069 154.326V154.326Z" fill="white"/>
<path d="M361.104 152.674C362.188 153.952 362.783 155.571 362.783 157.244C362.783 158.917 362.188 160.536 361.104 161.814C359.729 162.831 358.063 163.38 356.351 163.38C354.639 163.38 352.972 162.831 351.597 161.814C350.517 160.531 349.926 158.911 349.926 157.237C349.926 155.563 350.517 153.942 351.597 152.659C352.972 151.643 354.639 151.094 356.351 151.094C358.063 151.094 359.729 151.643 361.104 152.659V152.674ZM354.476 154.692C354.026 155.257 353.799 155.967 353.839 156.687V157.793C353.801 158.516 354.028 159.227 354.476 159.796C354.712 160.052 355.002 160.252 355.325 160.381C355.648 160.51 355.996 160.566 356.343 160.543C356.693 160.566 357.043 160.51 357.369 160.381C357.694 160.252 357.987 160.052 358.225 159.796C358.676 159.228 358.905 158.517 358.87 157.793V156.687C358.904 155.967 358.675 155.258 358.225 154.692C357.987 154.436 357.694 154.236 357.369 154.107C357.043 153.978 356.693 153.922 356.343 153.945C355.996 153.923 355.648 153.978 355.325 154.107C355.002 154.237 354.712 154.437 354.476 154.692V154.692Z" fill="white"/>
<path d="M376.234 157.241C376.234 161.196 374.153 163.174 369.989 163.174H364.838V151.314H369.989C374.153 151.314 376.234 153.29 376.234 157.241ZM368.662 160.327H369.921C371.526 160.327 372.328 159.475 372.328 157.756V156.725C372.328 155.016 371.526 154.159 369.921 154.154H368.662V160.327Z" fill="white"/>
<path d="M388.598 162.105C387.29 162.94 385.769 163.384 384.215 163.384C382.662 163.384 381.141 162.94 379.833 162.105C379.304 161.643 378.889 161.066 378.621 160.417C378.353 159.769 378.239 159.068 378.289 158.369V151.284H382.112V158.316C382.084 158.895 382.274 159.462 382.645 159.908C383.073 160.296 383.63 160.51 384.208 160.51C384.786 160.51 385.343 160.296 385.771 159.908C386.146 159.467 386.338 158.901 386.311 158.324V151.292H390.135V158.376C390.184 159.074 390.071 159.773 389.804 160.42C389.538 161.067 389.125 161.643 388.598 162.105Z" fill="white"/>
<path d="M402.553 152.421C403.077 152.894 403.488 153.479 403.756 154.132C404.023 154.785 404.14 155.49 404.097 156.194H400.476C400.51 155.597 400.315 155.009 399.928 154.55C399.73 154.344 399.49 154.184 399.223 154.08C398.956 153.977 398.67 153.933 398.384 153.953C398.06 153.931 397.735 153.987 397.437 154.117C397.139 154.247 396.878 154.447 396.674 154.7C396.282 155.297 396.093 156.005 396.135 156.718V157.824C396.094 158.534 396.283 159.238 396.674 159.834C396.871 160.085 397.126 160.284 397.417 160.414C397.709 160.545 398.028 160.602 398.346 160.581C398.65 160.605 398.956 160.567 399.245 160.469C399.533 160.371 399.799 160.216 400.026 160.013C400.421 159.573 400.625 158.996 400.596 158.406H404.127C404.172 159.101 404.06 159.797 403.801 160.444C403.542 161.09 403.141 161.671 402.628 162.143C401.422 163.072 399.919 163.531 398.399 163.436C396.367 163.436 394.83 162.913 393.788 161.881C392.746 160.85 392.221 159.318 392.221 157.293C392.221 155.268 392.746 153.743 393.788 152.705C394.83 151.666 396.367 151.158 398.399 151.158C399.891 151.068 401.365 151.517 402.553 152.421V152.421Z" fill="white"/>
<path d="M412.996 154.348V163.174H409.172V154.348H405.266V151.314H416.887V154.348H412.996Z" fill="white"/>
<path d="M427.385 152.024C427.854 152.308 428.24 152.711 428.503 153.191C428.767 153.671 428.898 154.212 428.884 154.759V154.968H425.3V154.916C425.303 154.754 425.271 154.593 425.205 154.444C425.139 154.296 425.041 154.164 424.918 154.057C424.59 153.801 424.178 153.678 423.763 153.713C423.361 153.691 422.959 153.768 422.594 153.937C422.481 153.983 422.384 154.059 422.312 154.156C422.241 154.254 422.198 154.37 422.189 154.49C422.196 154.649 422.254 154.801 422.354 154.924C422.453 155.048 422.59 155.137 422.744 155.178C423.321 155.385 423.916 155.54 424.521 155.641C425.319 155.799 426.108 156.004 426.882 156.254C427.499 156.467 428.055 156.826 428.502 157.3C428.997 157.834 429.266 158.538 429.252 159.265C429.294 159.864 429.185 160.463 428.935 161.009C428.685 161.555 428.301 162.029 427.82 162.389C426.687 163.116 425.356 163.471 424.011 163.405C422.508 163.487 421.012 163.164 419.677 162.471C418.642 161.849 418.125 160.75 418.125 159.176H421.739C421.709 159.4 421.736 159.628 421.819 159.838C421.901 160.049 422.036 160.235 422.211 160.379C422.656 160.61 423.158 160.714 423.658 160.678C424.066 160.688 424.474 160.635 424.866 160.521C425.006 160.486 425.13 160.404 425.216 160.288C425.303 160.172 425.346 160.03 425.338 159.886C425.338 159.594 425.165 159.385 424.813 159.236C424.251 159.038 423.675 158.886 423.089 158.78C422.275 158.619 421.474 158.404 420.689 158.137C420.05 157.91 419.478 157.527 419.025 157.024C418.511 156.444 418.242 155.689 418.275 154.916C418.241 154.347 418.362 153.78 418.626 153.274C418.89 152.769 419.287 152.345 419.775 152.047C420.942 151.394 422.268 151.076 423.606 151.127C424.925 151.063 426.236 151.374 427.385 152.024V152.024Z" fill="white"/>
</g>
<defs>
<clipPath id="clip0_476_570">
<rect width="467.154" height="170.548" fill="white" transform="translate(0.845703 0.225586)"/>
</clipPath>
</defs>
</svg>
