<svg width="281" height="48" viewBox="0 0 281 48" fill="none" xmlns="http://www.w3.org/2000/svg">
<g clip-path="url(#clip0_476_498)">
<path d="M0.00390625 16.7266H132V40.9663H0.00390625V16.7266Z" fill="#FFD400"/>
<path d="M38.2666 15.4254C38.2411 15.4022 38.2157 15.4022 38.1924 15.377L38.2411 15.3286L38.2899 15.377C38.2666 15.4022 38.2666 15.4022 38.2666 15.4254ZM37.8217 12.3946L37.7242 12.3462C37.7475 12.2726 37.7729 12.1759 37.7984 12.1022C37.8217 12.1022 37.8725 12.1254 37.8958 12.1254C37.8725 12.199 37.8471 12.2978 37.8217 12.3946V12.3946ZM36.6649 12.0286C36.6162 12.0286 36.5908 12.0034 36.542 12.0034C36.5166 11.8078 36.4912 11.6374 36.4679 11.3451C36.6797 11.3682 36.8365 11.3682 37.059 11.3935C36.9109 11.5945 36.7792 11.8069 36.6649 12.0286V12.0286ZM36.5908 9.31546C36.5653 9.41431 36.5653 9.48793 36.542 9.58467H36.4679C36.4679 9.48582 36.4425 9.38907 36.4425 9.31546C36.4912 9.29232 36.542 9.31546 36.5908 9.31546V9.31546ZM36.0971 7.11548C36.0971 7.09234 36.0738 7.09234 36.0738 7.0671C36.0738 7.04186 36.0971 7.04186 36.1226 7.04186C36.148 7.04186 36.148 7.0671 36.148 7.09234C36.129 7.09457 36.1112 7.10266 36.0971 7.11548V7.11548ZM36.023 8.58774H35.9255C35.9255 8.48889 35.9001 8.3669 35.9001 8.26805C35.9575 8.25685 36.0155 8.24913 36.0738 8.24491C36.0407 8.35499 36.0215 8.46874 36.0166 8.58354L36.023 8.58774ZM35.9001 10.9371C35.8562 10.9178 35.8149 10.8931 35.7772 10.8634C35.8005 10.8259 35.817 10.7846 35.826 10.7415C35.8787 10.7685 35.9216 10.8111 35.9488 10.8634C35.9488 10.8634 35.9001 10.9034 35.9001 10.9371ZM35.4764 4.48433C35.1544 4.48433 35.2285 4.19198 35.1544 3.97114C35.5251 3.92277 35.6226 4.06999 35.648 4.31397C35.6289 4.35393 35.5315 4.47592 35.4828 4.47592L35.4764 4.48433ZM35.1056 12.281L34.8938 12.1338C34.8938 12.1107 34.9192 12.0854 34.9192 12.0623C35.0188 12.0854 35.0908 12.1107 35.1904 12.1338L35.1056 12.281ZM34.7667 5.5023C34.5548 5.35717 34.5951 5.20995 34.8408 4.9176C34.8896 5.18471 34.915 5.33824 34.9404 5.47916C34.8817 5.47887 34.8232 5.48666 34.7667 5.5023V5.5023ZM34.3726 26.7113L34.2497 26.6125C34.2985 26.5388 34.3493 26.4652 34.4468 26.3432L34.5951 26.4905C34.527 26.5698 34.4526 26.6437 34.3726 26.7113V26.7113ZM34.3726 5.35086H34.3493L34.3726 5.32563V5.35086ZM34.0527 3.8786C34.4955 4.0742 34.4955 4.0742 34.6692 4.58739C34.5951 4.58739 34.4722 4.63787 34.4574 4.61263C34.2497 4.42754 33.9786 4.25718 34.0527 3.88912V3.8786ZM33.8557 5.36979L33.8303 5.32142H33.8811L33.8557 5.36979ZM33.7074 24.6775L33.6587 24.6291C33.6841 24.6039 33.6841 24.6039 33.7074 24.6039C33.7307 24.6039 33.7328 24.6291 33.7561 24.6543C33.7328 24.6649 33.7328 24.6649 33.7074 24.688V24.6775ZM33.2837 17.3708L33.432 17.2972C33.506 17.4685 33.5909 17.635 33.6862 17.7957C33.6354 17.8209 33.6121 17.8462 33.5612 17.8693C33.4616 17.699 33.3621 17.5286 33.2879 17.3814L33.2837 17.3708ZM33.5803 4.63787H33.7519V5.15106C33.3875 4.98911 33.4616 4.81875 33.5845 4.64838L33.5803 4.63787ZM32.3769 22.5048C32.3515 22.4796 32.3282 22.4312 32.3028 22.4081L32.5994 22.1978C32.6227 22.2461 32.6735 22.2945 32.6968 22.345C32.5994 22.3913 32.4998 22.4649 32.3769 22.5048ZM32.5252 40.4202C32.4511 40.3697 32.4023 40.3213 32.3282 40.273C32.3815 40.2453 32.4399 40.2289 32.4998 40.2246C32.5252 40.2246 32.5506 40.2961 32.5739 40.3213C32.5471 40.3514 32.5301 40.3888 32.5252 40.4286V40.4202ZM32.6481 5.20153L32.6735 5.24991H32.6481V5.20153ZM32.1545 17.9093C32.1545 17.9093 32.0824 17.8609 32.0824 17.8378C32.1078 17.7914 32.1407 17.7494 32.1799 17.7137L32.2795 17.8125C32.2318 17.8398 32.1894 17.8755 32.1545 17.9177V17.9093ZM31.9574 3.66197C31.9087 3.58835 31.8346 3.53998 31.7858 3.46637L31.86 3.39275C31.9029 3.46905 31.9614 3.53566 32.0316 3.58835C32.0083 3.64514 31.9913 3.67038 31.9574 3.67038V3.66197ZM31.9574 39.7598C31.9538 39.7249 31.9628 39.6898 31.9829 39.6609C31.9856 39.6801 31.9945 39.6978 32.0083 39.7114C32.0083 39.7514 31.9913 39.7514 31.9574 39.7682V39.7598ZM30.11 2.88798C30.0913 2.8855 30.0741 2.87657 30.0613 2.86274V2.66714H30.1355C30.1513 2.74154 30.1424 2.81904 30.11 2.88798V2.88798ZM29.716 6.04283L29.6906 6.01759H29.716V6.04283ZM26.5127 38.8154C26.4873 38.7902 26.464 38.7902 26.464 38.7649C26.464 38.7397 26.4873 38.6934 26.4873 38.643C26.5099 38.6627 26.5348 38.6796 26.5614 38.6934C26.5614 38.7418 26.5381 38.7649 26.5127 38.8154ZM13.4538 31.0187L13.4792 30.9704L13.5025 31.0187H13.4538ZM13.3309 35.0506C13.2568 34.977 13.1826 34.9286 13.1085 34.855L13.208 34.7583C13.2822 34.8319 13.3309 34.9034 13.4051 34.9686L13.3309 35.0506ZM12.8881 24.7869C12.9082 24.6379 12.9408 24.4908 12.9856 24.3473C13.0343 24.3473 13.0852 24.3704 13.1339 24.3704C13.1085 24.5176 13.0597 24.6649 13.0343 24.81C12.9856 24.8184 12.9369 24.7869 12.8881 24.7869V24.7869ZM12.4199 24.9572H12.2886V24.5912C12.3475 24.5874 12.4065 24.5953 12.4623 24.6144C12.458 24.7296 12.4439 24.8443 12.4199 24.9572V24.9572ZM12.0979 22.1957C12.1088 22.1701 12.1259 22.1477 12.1478 22.1305C12.1696 22.1132 12.1954 22.1016 12.2229 22.0968C12.2462 22.0968 12.2949 22.1704 12.3458 22.2209C12.2716 22.2693 12.2229 22.3177 12.1721 22.3429C12.1488 22.3177 12.0767 22.2209 12.0979 22.1957ZM12.0005 22.9781C11.8182 22.9659 11.637 22.9414 11.4581 22.9045V22.7341C11.637 22.6972 11.8182 22.6726 12.0005 22.6605C12.0492 22.6605 12.1488 22.7825 12.1488 22.8308C12.1488 22.8792 12.0492 22.9781 12.0005 22.9781ZM11.7293 30.7979C11.7165 30.7974 11.7044 30.7921 11.6954 30.7832C11.6864 30.7742 11.6811 30.7622 11.6806 30.7495C11.705 30.722 11.7218 30.6887 11.7293 30.6528C11.7547 30.6759 11.7547 30.7243 11.778 30.7495C11.8013 30.7748 11.7293 30.7979 11.7293 30.7979ZM11.4412 25.0792C11.4179 25.0792 11.3924 25.0056 11.3691 24.9825C11.3986 24.9538 11.4229 24.9203 11.4412 24.8836C11.4661 24.9377 11.4997 24.9875 11.5407 25.0308C11.5134 25.0568 11.4786 25.0737 11.4412 25.0792V25.0792ZM11.4835 31.9694L11.4327 31.921L11.4835 31.8726L11.5323 31.921C11.5068 31.9231 11.5068 31.9463 11.4835 31.9694ZM11.2293 19.8485C11.3417 19.8016 11.4495 19.7446 11.5513 19.6781C11.5746 19.7265 11.6 19.7517 11.6 19.8001C11.4772 19.8485 11.3776 19.9221 11.2547 19.9725C11.2488 19.9307 11.2403 19.8893 11.2293 19.8485V19.8485ZM11.0831 18.6265C11.0831 18.6033 11.1318 18.5297 11.1551 18.5297C11.2152 18.558 11.2732 18.5903 11.3289 18.6265C11.2547 18.677 11.2293 18.7253 11.1806 18.7506C11.1437 18.7143 11.1129 18.6724 11.0895 18.6265H11.0831ZM11.5068 19.2385C11.4514 19.2602 11.3939 19.2764 11.3352 19.2869C11.3049 19.2498 11.28 19.2088 11.2611 19.1649C11.2884 19.1389 11.3232 19.122 11.3607 19.1165C11.384 19.1165 11.4412 19.1649 11.5068 19.2385ZM11.5577 8.60667C11.5939 8.61408 11.6275 8.63076 11.6551 8.65505C11.6297 8.68028 11.6064 8.68028 11.5577 8.70552L11.5068 8.65505L11.5577 8.60667ZM11.0386 21.9748C10.9645 22.3429 10.4963 22.7572 10.1531 22.9045C10.0048 22.9528 9.88188 23.1148 9.75901 23.2473C9.61071 22.7825 9.65943 22.6352 9.95604 22.3177C10.0102 22.2537 10.051 22.1796 10.0761 22.0998C10.1012 22.02 10.1101 21.9361 10.1022 21.8528C10.0281 21.5836 9.83104 21.7561 9.6785 21.7792C9.62766 21.7792 9.57893 21.7077 9.43063 21.6341C9.74317 21.3654 10.0817 21.128 10.4412 20.9253C10.5641 20.8517 10.7865 21.0221 10.9581 21.0704C11.009 21.5605 10.6149 21.266 10.4179 21.4133C10.4145 21.5539 10.4223 21.6945 10.4412 21.8339H11.0174C11.0327 21.8537 11.0426 21.877 11.0463 21.9017C11.0501 21.9263 11.0474 21.9515 11.0386 21.9748V21.9748ZM10.4963 23.832C10.4568 23.8263 10.4198 23.8096 10.3894 23.784C10.3591 23.7583 10.3366 23.7246 10.3247 23.6869C10.2992 23.6385 10.3988 23.5649 10.4242 23.4913C10.4963 23.5396 10.5958 23.588 10.7441 23.6869C10.6213 23.7668 10.5704 23.832 10.4963 23.832ZM10.2844 25.544C10.259 25.5188 10.2357 25.5188 10.2357 25.4956C10.2412 25.4585 10.2582 25.4239 10.2844 25.3968C10.3029 25.3999 10.32 25.4087 10.3331 25.422C10.3292 25.4681 10.3089 25.5113 10.2759 25.544H10.2844ZM10.1361 29.4308C10.1107 29.4056 10.1107 29.4056 10.1107 29.3803C10.1107 29.3551 10.1361 29.3572 10.1615 29.3319L10.2103 29.3803C10.17 29.4056 10.1531 29.4308 10.1276 29.4308H10.1361ZM9.92426 17.7221C9.94968 17.9177 10.1954 18.0902 9.94968 18.5045C9.87553 18.1638 9.8268 17.9682 9.77807 17.7726C9.80773 17.7473 9.85646 17.7473 9.90519 17.7221H9.92426ZM14.1614 15.2298C14.1614 15.255 14.1847 15.255 14.1847 15.2781C14.1847 15.3013 14.1614 15.3034 14.136 15.3034C14.1106 15.3034 14.1106 15.2781 14.1106 15.255C14.124 15.2498 14.1357 15.2411 14.1445 15.2298H14.1614ZM14.4072 5.52754L14.7758 5.73786C14.7525 5.78623 14.7016 5.83461 14.6783 5.88298L14.3648 5.64952C14.3616 5.62731 14.3637 5.60465 14.3711 5.58343C14.3785 5.56221 14.3908 5.54305 14.4072 5.52754ZM38.9318 9.63305C38.9064 9.55944 38.9551 9.46269 38.9551 9.36383C38.9407 9.04342 38.8996 8.72475 38.8322 8.41107C38.6606 7.75065 38.4382 7.11548 38.2157 6.45717C38.0807 6.11345 37.9244 5.77839 37.7475 5.45392C37.6246 5.18471 37.4043 4.94073 37.3535 4.64838C37.256 4.20881 37.1077 3.86598 36.6395 3.74399L36.7136 3.0352L36.0781 2.96159L35.9298 3.18243C35.8625 3.24323 35.7918 3.30011 35.7179 3.35279C35.5696 3.0352 35.5209 2.79123 35.9149 2.74075C36.1374 2.71762 36.2603 2.61876 36.2348 2.40003C36.2094 2.18129 36.0166 2.08244 35.7518 2.10347C35.7285 2.27594 35.7031 2.4463 35.6544 2.73444C35.4828 2.41685 35.3578 2.22125 35.2603 2.02565C34.8662 2.02565 34.4955 2.00252 34.2497 1.68493C34.1099 1.49564 33.8981 1.26218 33.6862 1.20118C33.3642 1.10443 32.9955 1.15281 32.7985 0.780536C32.6425 0.801423 32.4917 0.850616 32.3536 0.92566C32.2694 0.962445 32.1874 1.00387 32.1079 1.04975C32.0119 0.932849 31.9015 0.828283 31.7795 0.738472C31.5825 0.835221 31.2859 1.03082 31.2371 0.982447C30.8918 0.687994 30.7943 1.03082 30.6715 1.19277C30.5046 1.46489 30.3628 1.75139 30.2478 2.04879C30.0507 2.19601 29.8537 2.24439 29.7795 2.36637C29.5571 2.7092 29.4342 3.12354 29.1885 3.41799C29.0669 3.54393 28.9733 3.69382 28.9138 3.85795C28.8543 4.02208 28.8303 4.19679 28.8431 4.37076C28.8431 4.44437 28.769 4.51798 28.7203 4.58108C28.5697 4.80086 28.4704 5.05124 28.4298 5.31396C28.3891 5.57667 28.408 5.84508 28.4851 6.09962C28.491 6.24786 28.4739 6.39613 28.4343 6.53919C28.3267 6.90831 28.2446 7.28425 28.1885 7.66442C28.0656 8.71604 27.966 9.79079 27.8432 10.8424L27.6313 13.4084C27.5593 14.0919 27.5084 14.7755 27.4195 15.4611C27.3199 16.0479 27.1483 16.6347 27.0741 17.2194C26.9018 18.515 26.7542 19.8106 26.6313 21.1062C26.5805 21.6446 26.5318 22.1809 26.5318 22.7194C26.5318 23.5018 26.6059 24.3073 26.5805 25.0897C26.5318 26.1645 26.089 27.1677 25.7924 28.1941C25.6695 28.5601 25.4725 28.9029 25.3687 29.2941C25.2458 29.7589 25.1716 30.2721 25.0742 30.7348C25.0255 30.9809 25.0255 31.2732 24.8623 31.4205C24.6619 31.6468 24.5336 31.9272 24.4937 32.226C24.4196 32.47 24.4196 32.8128 24.2818 32.96C23.8136 33.3996 23.7903 33.9864 23.5679 34.4996C23.2713 35.16 23.1738 35.8919 22.7543 36.5523C22.4577 36.9919 22.3306 37.5535 22.1633 38.0919C22.034 38.4577 21.8686 38.81 21.6696 39.1435C21.5235 39.4106 21.2459 39.5095 21.104 39.7303C20.8909 40.0304 20.5685 40.2365 20.2052 40.3048C19.8418 40.3731 19.4658 40.2983 19.157 40.0963C18.5405 39.6756 17.8265 39.3875 17.4621 38.6787C17.4367 38.6051 17.3372 38.5567 17.2651 38.5315C16.9198 38.4347 16.7461 38.1403 16.5257 37.9005C15.9644 37.2204 15.5375 36.4412 15.2673 35.6038C14.9241 34.6742 14.6021 33.7109 14.333 32.7434C14.1298 32.0818 13.9879 31.4031 13.9093 30.7159C13.8097 29.9335 13.761 29.1258 13.7356 28.3203C13.7123 26.9027 13.3924 25.4851 13.5237 24.0675C13.547 23.7983 13.3754 23.506 13.3119 23.2263C13.4114 23.079 13.583 22.9339 13.6085 22.7614C13.7313 21.9559 13.7546 21.1483 13.9029 20.3659C14.0512 19.5246 13.8288 18.6307 14.2737 17.842C14.297 17.8167 14.2737 17.7431 14.297 17.7179C14.3966 17.1079 14.5089 16.5211 14.6169 15.9112C14.7652 14.9816 14.9135 14.0183 15.0406 13.0992C15.1402 12.2684 15.2143 11.4629 15.2864 10.6321C15.3372 10.1673 15.2631 9.65408 15.3859 9.21451C15.5088 8.77493 15.4601 8.50572 15.1148 8.2365C15.0893 8.21126 15.0893 8.16289 15.066 8.11451L15.5237 7.7822C15.5237 7.24377 15.4982 6.65908 15.5237 6.07227C15.5724 5.28987 15.8203 4.55584 15.8436 3.77344C15.8865 3.19027 15.7207 2.61077 15.3754 2.13712C15.0542 1.74864 14.7738 1.32862 14.5385 0.883595C14.4156 0.883595 14.2186 0.931969 14.1148 0.883595C13.7015 0.632517 13.2532 0.443295 12.7843 0.322031C12.439 0.223179 12.0937 0.00444307 11.8479 0.322031C11.6361 0.566007 11.2123 0.761607 11.331 1.22642L11.3098 1.26218V1.22642C11.2124 1.32317 11.064 1.42202 11.0386 1.54401C10.9645 1.81322 10.9645 2.08244 10.8924 2.34955C10.5958 3.35279 10.8183 4.45278 10.3501 5.43079C10.3247 5.5023 10.3734 5.60115 10.3734 5.67476C10.3247 6.45716 10.3247 7.23747 10.2272 8.01987C10.1298 8.80227 9.78231 9.58467 10.0281 10.4155C10.0535 10.4891 9.97934 10.5858 9.95604 10.6594C9.8987 10.825 9.86518 10.9978 9.85646 11.1726C9.88188 12.3946 9.61071 13.5934 9.46241 14.7902C9.33953 15.7429 9.1425 16.6831 9.03869 17.6253C8.93488 18.5676 8.94124 19.5309 8.89251 20.4857V20.8033C8.86709 21.4133 8.81836 22.0001 8.81836 22.61C8.81836 22.8792 8.86709 23.1737 8.89251 23.4513C8.96454 24.0612 9.06411 24.648 9.08954 25.258C9.13826 26.236 9.13826 27.214 9.16157 28.2025C9.17061 28.5221 9.20389 28.8406 9.26114 29.1553C9.33529 29.5948 9.48359 30.0344 9.53232 30.4761C9.6552 31.6476 9.8035 32.7897 10.2463 33.896C10.2931 34.0226 10.3265 34.1537 10.3459 34.2872C10.5092 34.9792 10.7486 35.6514 11.0598 36.2915C11.3797 36.9751 11.6509 37.7091 12.0216 38.3695C12.3796 39.0384 12.8055 39.6692 13.2928 40.2519C13.958 41.0322 14.7228 41.741 15.3626 42.5655C15.708 43.0303 16.2101 43.3731 16.6444 43.7643C16.6895 43.8142 16.7497 43.8482 16.816 43.8611C17.335 43.6655 17.5554 44.1072 17.852 44.3259C18.5172 44.7907 19.1824 45.2555 20.0193 45.3775C20.3159 45.4259 20.5616 45.6467 20.8667 45.7435C21.3004 45.8923 21.7453 46.0069 22.1972 46.0863C22.5171 46.1599 22.8857 46.0127 23.2077 46.2567C23.2819 46.305 23.4535 46.2335 23.5509 46.2083C23.6484 46.1831 23.7628 46.1094 23.873 46.1347C24.2183 46.1831 24.5615 46.2083 24.7352 46.6226C24.7736 46.6942 24.8301 46.7546 24.8993 46.7977C24.9684 46.8409 25.0477 46.8654 25.1293 46.8687C25.5721 46.7951 25.7648 47.1863 26.089 47.3083C26.1398 47.2347 26.214 47.1611 26.286 47.0643C26.6313 47.1358 26.9512 47.2347 27.0021 47.649C26.8792 47.7731 26.7542 47.8446 26.6568 47.9435C26.9512 47.9687 27.3962 48.2127 27.2224 47.6006C27.5678 47.405 27.0762 47.0643 27.3707 46.8182C27.519 46.9171 27.6673 47.0391 27.8389 47.1611C28.0614 46.7404 28.4745 46.427 28.4067 45.9391C28.7012 45.8655 28.9724 45.7435 29.2181 45.7687C29.6143 45.8171 29.8346 45.5247 30.1545 45.4259C30.4744 45.327 30.2054 45.0599 30.3516 44.9611C30.7223 44.7507 31.0909 44.5215 31.485 44.3028C31.61 44.2291 31.807 44.1787 31.807 44.1072C31.807 43.6865 32.4723 43.594 32.324 43.0808C32.2985 43.0303 32.4468 42.9336 32.4956 42.8347C32.571 42.7182 32.6369 42.5958 32.6926 42.4687C32.7434 42.3468 32.7667 42.1995 32.8155 42.0775C32.915 41.9072 33.1375 41.76 33.1375 41.5896C33.1608 41.1689 33.432 40.9775 33.7731 40.7819C33.7046 40.6709 33.6819 40.538 33.7095 40.4107C33.7371 40.2835 33.813 40.1716 33.9214 40.0984C34.081 39.9499 34.1849 39.7518 34.2158 39.5368C34.2667 38.9059 34.29 38.828 34.6396 38.4368C34.7137 38.338 34.8133 38.1908 34.7879 38.094C34.7391 37.8248 34.9107 37.7028 35.0103 37.5072C35.1819 37.2149 35.4785 36.994 35.4785 36.6281C35.4712 36.5115 35.4894 36.3948 35.5318 36.2859C35.5743 36.177 35.6399 36.0784 35.7243 35.9971C35.933 35.7775 36.0555 35.491 36.0696 35.1894C36.0442 34.5585 36.3154 34.0663 36.684 33.6015C37.058 33.0798 37.2647 32.4582 37.2772 31.818C37.2752 31.5225 37.3796 31.2361 37.5717 31.0103C37.6204 30.6927 37.6712 30.4971 37.6945 30.3268C37.6945 30.2784 37.7433 30.1795 37.72 30.1543C37.4488 29.9103 37.6712 29.6664 37.7454 29.4455C37.7687 29.3488 37.8428 29.2352 37.8174 29.1784C37.5462 28.6147 37.9424 28.1268 38.0653 27.6388C38.1628 27.2476 38.3111 26.9048 38.3111 26.4884C38.3111 26.1476 38.2856 25.7796 38.6797 25.6092C38.5091 25.4574 38.3777 25.2672 38.2962 25.0546C38.2148 24.8421 38.1857 24.6132 38.2115 24.3872C38.2856 23.8004 38.5335 23.2136 38.4106 22.6773C38.1628 21.4553 38.5335 20.3301 38.6077 19.1565C38.631 18.6938 38.6564 18.2521 38.6797 17.7894C38.6797 17.6674 38.6564 17.5202 38.6564 17.3982C38.6564 16.7125 38.8534 16.029 38.7305 15.3202C38.6767 15.0304 38.6596 14.7351 38.6797 14.441C38.7538 13.8542 38.9509 13.2927 38.9276 12.7059C38.8809 11.6858 39.1945 10.6594 38.9318 9.63305Z" fill="#005BBB"/>
<path d="M59.7259 21.4702C61.24 22.7615 61.9971 24.6054 61.9971 27.0017H56.6159C56.6159 25.9893 56.3482 25.188 55.8129 24.5977C55.2776 24.0074 54.5171 23.7115 53.5312 23.7101C52.3914 23.7101 51.5539 24.0649 51.0186 24.7743C50.4833 25.4838 50.2135 26.471 50.2093 27.7357V29.3552C50.2093 30.6045 50.4769 31.586 51.0122 32.2997C51.5475 33.0134 52.3681 33.3717 53.474 33.3745C54.5601 33.3745 55.3843 33.094 55.9464 32.5332C56.5085 31.9723 56.791 31.1878 56.7938 30.1797H61.9971C61.9971 32.5633 61.2619 34.3861 59.7916 35.6481C58.3213 36.91 56.243 37.541 53.5567 37.541C50.5652 37.541 48.2998 36.7817 46.7603 35.2632C45.2208 33.7446 44.4517 31.5012 44.4531 28.5328C44.4531 25.5631 45.2222 23.3196 46.7603 21.8025C48.2983 20.2853 50.5638 19.5296 53.5567 19.5352C56.1583 19.5352 58.2147 20.1802 59.7259 21.4702Z" fill="#151515"/>
<path d="M76.7847 37.2527L76.0559 34.7982H69.9121L69.1727 37.2527H63.4102L69.8104 19.8379H76.3525L82.7527 37.2527H76.7847ZM71.0646 30.9009H74.8653L73.0285 24.6985H72.9268L71.0646 30.9009Z" fill="#151515"/>
<path d="M100.651 28.0656C100.038 28.9511 99.1527 29.6154 98.1274 29.9585L102.028 37.2483H95.7058L92.5936 30.8966H90.5026V37.2483H84.8672V19.8378H95.602C96.7215 19.8054 97.8312 20.0535 98.8286 20.5592C99.6773 20.9983 100.378 21.6746 100.843 22.5047C101.294 23.3236 101.526 24.2429 101.519 25.1758C101.53 26.204 101.227 27.2115 100.651 28.0656V28.0656ZM95.3224 24.2672C95.1763 24.1194 95.0014 24.0028 94.8083 23.9247C94.6152 23.8466 94.408 23.8085 94.1995 23.8129H90.5026V27.0266H94.1995C94.4093 27.0308 94.6176 26.9912 94.8111 26.9104C95.0045 26.8296 95.1787 26.7094 95.3224 26.5576C95.4726 26.4061 95.5906 26.2262 95.6696 26.0286C95.7486 25.831 95.7868 25.6197 95.7821 25.4071C95.7876 25.1961 95.7496 24.9861 95.6706 24.7901C95.5915 24.5941 95.4731 24.4162 95.3224 24.2672V24.2672Z" fill="#151515"/>
<path d="M104.707 19.8379H119.878V24.0149H110.345V26.4189H118.503V30.4151H110.342V33.0735H120.056V37.2485H104.707V19.8379Z" fill="#151515"/>
<path d="M46.5959 45.5601C46.2262 45.7951 45.7965 45.92 45.3576 45.92C44.9187 45.92 44.4889 45.7951 44.1193 45.5601C43.9697 45.4302 43.8525 45.2676 43.7768 45.0851C43.7011 44.9027 43.6689 44.7053 43.6828 44.5085V42.5146H44.7633V44.4938C44.7532 44.6568 44.8071 44.8174 44.9137 44.9418C45.0346 45.0509 45.1921 45.1113 45.3555 45.1113C45.5188 45.1113 45.6763 45.0509 45.7972 44.9418C45.9029 44.8176 45.9574 44.6583 45.9497 44.4959V42.5168H47.0323V44.5106C47.0459 44.7071 47.0136 44.9041 46.9379 45.0861C46.8622 45.2681 46.7451 45.4304 46.5959 45.5601V45.5601Z" fill="#151515"/>
<path d="M50.031 42.5234H51.37L50.1624 43.8968L51.3954 45.8613H50.1243L49.4251 44.6372L48.8383 45.1146V45.8613H47.7578V42.5234H48.8383V43.9578L50.031 42.5234Z" fill="#151515"/>
<path d="M54.8476 44.0984C54.7316 44.2694 54.5617 44.3974 54.3645 44.4623L55.1124 45.8609H53.9006L53.3031 44.6431H52.9027V45.8609H51.8223V42.5231H53.8815C54.0953 42.5164 54.3074 42.5634 54.498 42.6598C54.6615 42.7441 54.7963 42.8743 54.8857 43.0342C54.971 43.1912 55.0154 43.3669 55.015 43.5453C55.0175 43.7423 54.9591 43.9354 54.8476 44.0984ZM53.8264 43.3707C53.7986 43.3431 53.7656 43.3213 53.7292 43.3065C53.6929 43.2917 53.6539 43.2842 53.6146 43.2845H52.9049V43.9007H53.6146C53.6543 43.9012 53.6937 43.8934 53.7302 43.8778C53.7667 43.8622 53.7995 43.8392 53.8264 43.8103C53.8835 43.7511 53.9154 43.6724 53.9154 43.5905C53.9154 43.5086 53.8835 43.4298 53.8264 43.3707V43.3707Z" fill="#151515"/>
<path d="M57.8774 45.8613L57.7355 45.3901H56.566L56.4241 45.8613H55.3203L56.547 42.5234H57.8033L59.0299 45.8613H57.8774ZM56.7779 44.6435H57.5067L57.155 43.4552H57.1359L56.7779 44.6435Z" fill="#151515"/>
<path d="M59.4746 45.8613V42.5234H60.5551V45.8613H59.4746Z" fill="#151515"/>
<path d="M63.7308 45.8613L62.3177 44.2397V45.8613H61.3262V42.5234H62.2689L63.682 44.1682V42.5234H64.6735V45.8613H63.7308Z" fill="#151515"/>
<path d="M65.3965 42.5234H68.3053V43.3269H66.477V43.7875H68.0405V44.5552H66.477V45.0641H68.3392V45.8655H65.3965V42.5234Z" fill="#151515"/>
<path d="M69.4039 43.9305H69.0649L68.834 43.2364V42.5234H69.6306V43.2364L69.4039 43.9305Z" fill="#151515"/>
<path d="M72.7571 42.7234C72.8897 42.8034 72.9987 42.9166 73.0731 43.0518C73.1475 43.187 73.1847 43.3392 73.1808 43.4932V43.5521H72.1681V43.5374C72.169 43.4917 72.1597 43.4464 72.1411 43.4046C72.1224 43.3628 72.0947 43.3256 72.0601 43.2955C71.9675 43.2236 71.8509 43.189 71.7338 43.1988C71.6201 43.1925 71.5066 43.2142 71.4033 43.2619C71.3715 43.2747 71.344 43.296 71.3238 43.3235C71.3036 43.351 71.2915 43.3836 71.2889 43.4175C71.291 43.4621 71.3073 43.5049 71.3354 43.5397C71.3636 43.5745 71.4022 43.5994 71.4457 43.611C71.6088 43.6693 71.7768 43.713 71.9478 43.7414C72.1734 43.7859 72.3962 43.8435 72.6151 43.9139C72.7896 43.9734 72.9468 44.0745 73.0727 44.2083C73.2088 44.3603 73.2808 44.5583 73.274 44.7615C73.2872 44.929 73.2581 45.0971 73.1893 45.2507C73.1205 45.4042 73.0141 45.5382 72.8799 45.6406C72.56 45.8451 72.1837 45.9451 71.8037 45.9267C71.3792 45.9495 70.9563 45.8587 70.5792 45.6638C70.2868 45.4885 70.1406 45.1793 70.1406 44.7362H71.1618C71.1532 44.7993 71.161 44.8635 71.1843 44.9227C71.2077 44.982 71.2458 45.0343 71.2952 45.0749C71.421 45.14 71.5626 45.1691 71.7041 45.159C71.8195 45.1619 71.9345 45.147 72.0452 45.1148C72.0849 45.1051 72.12 45.0819 72.1444 45.0493C72.1687 45.0166 72.1809 44.9766 72.1787 44.936C72.1787 44.854 72.13 44.7951 72.0304 44.7531C71.8716 44.6976 71.7087 44.6547 71.5431 44.6248C71.3133 44.5795 71.0869 44.5191 70.8652 44.4439C70.6845 44.3801 70.5228 44.2723 70.3949 44.1305C70.2496 43.9675 70.1737 43.7549 70.183 43.5374C70.1733 43.3773 70.2076 43.2176 70.2823 43.0754C70.3569 42.9331 70.469 42.8137 70.6067 42.7298C70.9367 42.5462 71.3113 42.4566 71.6893 42.4711C72.0621 42.4531 72.4324 42.5406 72.7571 42.7234V42.7234Z" fill="#151515"/>
<path d="M78.1433 42.6266C78.2806 42.6923 78.3971 42.7942 78.4801 42.9211C78.5627 43.046 78.6061 43.1923 78.6051 43.3417C78.6221 43.5169 78.5746 43.6923 78.4714 43.8354C78.3682 43.9784 78.2162 44.0795 78.0437 44.1199V44.1388C78.238 44.1715 78.4124 44.277 78.5306 44.4335C78.6489 44.5901 78.7021 44.7858 78.6793 44.9801C78.6816 45.1435 78.6368 45.3041 78.55 45.4429C78.4623 45.5775 78.3392 45.6859 78.1941 45.7562C78.0406 45.8313 77.8715 45.8695 77.7005 45.8677H75.4336V42.5236H77.6729C77.8357 42.5211 77.9967 42.5564 78.1433 42.6266V42.6266ZM76.5183 43.8234H77.2598C77.2935 43.824 77.327 43.8176 77.358 43.8046C77.389 43.7915 77.4169 43.7721 77.4399 43.7476C77.4869 43.6967 77.512 43.6295 77.5098 43.5605V43.5121C77.5108 43.4785 77.5047 43.445 77.4919 43.4139C77.4792 43.3827 77.46 43.3546 77.4356 43.3312C77.4134 43.3069 77.3862 43.2876 77.3559 43.2746C77.3256 43.2615 77.2928 43.255 77.2598 43.2555H76.5183V43.8234ZM76.5183 45.0853H77.3382C77.3719 45.086 77.4053 45.0796 77.4364 45.0665C77.4674 45.0535 77.4953 45.0341 77.5183 45.0096C77.5653 44.9586 77.5904 44.8915 77.5882 44.8224V44.774C77.5901 44.705 77.5651 44.6379 77.5183 44.5868C77.4952 44.5626 77.4672 44.5435 77.4362 44.5308C77.4052 44.5182 77.3717 44.5122 77.3382 44.5132H76.5183V45.0853Z" fill="#151515"/>
<path d="M79.2344 42.5234H82.1432V43.3269H80.3148V43.7875H81.8784V44.5552H80.3148V45.0641H82.1771V45.8655H79.2344V42.5234Z" fill="#151515"/>
<path d="M85.2403 42.723C85.3727 42.8032 85.4814 42.9165 85.5558 43.0516C85.6302 43.1867 85.6675 43.3388 85.664 43.4927V43.5516H84.6514V43.5369C84.6522 43.4912 84.643 43.4459 84.6243 43.4041C84.6056 43.3623 84.578 43.3251 84.5433 43.295C84.4505 43.2235 84.3341 43.189 84.217 43.1983C84.1033 43.192 83.9898 43.2137 83.8865 43.2614C83.8548 43.2742 83.8272 43.2956 83.807 43.323C83.7868 43.3505 83.7747 43.3831 83.7721 43.417C83.7741 43.4613 83.7901 43.5039 83.8178 43.5387C83.8456 43.5734 83.8838 43.5986 83.9268 43.6105C84.0907 43.6685 84.2594 43.7121 84.431 43.7409C84.6567 43.7855 84.8795 43.843 85.0984 43.9134C85.2724 43.9739 85.4293 44.0748 85.556 44.2078C85.6922 44.3596 85.7636 44.5579 85.7551 44.761C85.7676 44.9293 85.7372 45.098 85.6669 45.2516C85.5966 45.4052 85.4885 45.5388 85.3526 45.6401C85.032 45.8449 84.655 45.9449 84.2742 45.9262C83.8498 45.9485 83.427 45.8578 83.0497 45.6633C82.7588 45.488 82.6133 45.1788 82.6133 44.7358H83.6344C83.626 44.7986 83.6336 44.8625 83.6566 44.9217C83.6795 44.9809 83.7171 45.0334 83.7658 45.0744C83.8924 45.1395 84.0346 45.1686 84.1768 45.1585C84.2914 45.1616 84.4058 45.1467 84.5158 45.1143C84.5559 45.105 84.5914 45.082 84.6162 45.0494C84.641 45.0167 84.6534 44.9764 84.6514 44.9356C84.6514 44.8535 84.6026 44.7946 84.5031 44.7526C84.3443 44.6971 84.1814 44.6542 84.0158 44.6243C83.7854 44.5787 83.5582 44.5183 83.3357 44.4434C83.1559 44.379 82.995 44.2713 82.8675 44.13C82.7223 43.967 82.6463 43.7544 82.6556 43.5369C82.646 43.3768 82.6803 43.2171 82.7549 43.0749C82.8295 42.9326 82.9417 42.8132 83.0794 42.7293C83.4093 42.5457 83.784 42.4561 84.162 42.4706C84.5383 42.4506 84.9126 42.5382 85.2403 42.723Z" fill="#151515"/>
<path d="M88.2311 43.3774V45.8613H87.1507V43.3774H86.0469V42.5234H89.3307V43.3774H88.2311Z" fill="#151515"/>
<path d="M93.8939 42.6657C94.0551 42.7585 94.1871 42.8939 94.2752 43.0569C94.3678 43.2297 94.4152 43.4228 94.4129 43.6185V43.6816C94.4152 43.878 94.3678 44.0717 94.2752 44.2453C94.1873 44.4095 94.0553 44.5463 93.8939 44.6407C93.7246 44.7375 93.532 44.7869 93.3367 44.7837H92.5316V45.8605H91.4512V42.5227H93.3367C93.5322 42.5184 93.725 42.5679 93.8939 42.6657V42.6657ZM92.5316 44.0013H92.9765C93.0229 44.0047 93.0695 43.9988 93.1135 43.984C93.1576 43.9692 93.1981 43.9457 93.2329 43.9151C93.2621 43.8829 93.2846 43.8454 93.2992 43.8046C93.3137 43.7638 93.32 43.7206 93.3176 43.6774V43.6374C93.3205 43.5939 93.3145 43.5502 93.2999 43.509C93.2854 43.4678 93.2626 43.4299 93.2329 43.3977C93.198 43.3674 93.1573 43.3443 93.1133 43.3299C93.0693 43.3154 93.0228 43.3099 92.9765 43.3135H92.5316V44.0013Z" fill="#151515"/>
<path d="M98.0038 44.0985C97.8878 44.2695 97.7179 44.3974 97.5208 44.4623L98.2687 45.861H97.0547L96.4594 44.6432H96.059V45.861H94.9785V42.5231H97.0314C97.2459 42.5161 97.4588 42.5632 97.65 42.6599C97.8134 42.7436 97.9477 42.874 98.0356 43.0342C98.1224 43.1907 98.1676 43.3666 98.167 43.5453C98.1698 43.7418 98.113 43.9345 98.0038 44.0985ZM96.9827 43.3707C96.9263 43.3154 96.8501 43.2844 96.7708 43.2845H96.0632V43.9008H96.7708C96.8105 43.901 96.8498 43.8931 96.8863 43.8775C96.9227 43.8619 96.9555 43.8391 96.9827 43.8103C97.0384 43.7505 97.0693 43.672 97.0693 43.5905C97.0693 43.5091 97.0384 43.4306 96.9827 43.3707V43.3707Z" fill="#151515"/>
<path d="M101.795 42.9058C102.102 43.2654 102.27 43.721 102.27 44.1919C102.27 44.6628 102.102 45.1185 101.795 45.4781C101.407 45.7642 100.936 45.9187 100.452 45.9187C99.9684 45.9187 99.4974 45.7642 99.1089 45.4781C98.8039 45.1171 98.6367 44.661 98.6367 44.1898C98.6367 43.7187 98.8039 43.2626 99.1089 42.9016C99.4974 42.6154 99.9684 42.4609 100.452 42.4609C100.936 42.4609 101.407 42.6154 101.795 42.9016V42.9058ZM99.9225 43.4737C99.7952 43.6326 99.7311 43.8325 99.7424 44.0352V44.3465C99.7317 44.5499 99.7957 44.7501 99.9225 44.9102C99.989 44.9821 100.071 45.0383 100.162 45.0747C100.253 45.1111 100.352 45.1268 100.45 45.1205C100.549 45.1268 100.648 45.1112 100.74 45.0748C100.832 45.0385 100.914 44.9822 100.982 44.9102C101.109 44.7504 101.174 44.5501 101.164 44.3465V44.0352C101.173 43.8324 101.109 43.6329 100.982 43.4737C100.914 43.4017 100.832 43.3454 100.74 43.309C100.648 43.2727 100.549 43.2571 100.45 43.2634C100.352 43.2571 100.253 43.2727 100.162 43.3091C100.071 43.3455 99.989 43.4018 99.9225 43.4737V43.4737Z" fill="#151515"/>
<path d="M106.07 44.1913C106.07 45.3046 105.482 45.8613 104.305 45.8613H102.85V42.5234H104.305C105.482 42.5234 106.07 43.0794 106.07 44.1913ZM103.93 45.0599H104.286C104.739 45.0599 104.966 44.8202 104.966 44.3364V44.0462C104.966 43.5652 104.739 43.3241 104.286 43.3227H103.93V45.0599Z" fill="#151515"/>
<path d="M109.565 45.5601C109.195 45.7951 108.765 45.92 108.326 45.92C107.887 45.92 107.458 45.7951 107.088 45.5601C106.938 45.4302 106.821 45.2676 106.746 45.0851C106.67 44.9027 106.638 44.7053 106.652 44.5085V42.5146H107.732V44.4938C107.724 44.6565 107.778 44.8164 107.882 44.9418C108.003 45.0509 108.161 45.1113 108.324 45.1113C108.488 45.1113 108.645 45.0509 108.766 44.9418C108.872 44.8176 108.926 44.6583 108.918 44.4959V42.5168H109.999V44.5106C110.013 44.7069 109.981 44.9038 109.905 45.0858C109.83 45.2678 109.713 45.4302 109.565 45.5601Z" fill="#151515"/>
<path d="M113.507 42.8342C113.656 42.9674 113.772 43.1321 113.847 43.3159C113.923 43.4998 113.956 43.6981 113.944 43.8963H112.92C112.93 43.7281 112.875 43.5626 112.766 43.4336C112.71 43.3756 112.642 43.3304 112.566 43.3013C112.491 43.2723 112.41 43.26 112.329 43.2653C112.238 43.2592 112.146 43.2751 112.062 43.3117C111.978 43.3483 111.904 43.4046 111.846 43.4757C111.736 43.6438 111.682 43.8429 111.694 44.0435V44.3548C111.682 44.5547 111.736 44.753 111.846 44.9206C111.902 44.9912 111.974 45.0474 112.056 45.084C112.139 45.1207 112.229 45.1368 112.319 45.1309C112.405 45.1376 112.491 45.1268 112.573 45.0994C112.654 45.0719 112.729 45.0282 112.793 44.971C112.905 44.8472 112.963 44.6847 112.954 44.5189H113.952C113.965 44.7144 113.933 44.9103 113.86 45.0922C113.787 45.2741 113.673 45.4375 113.528 45.5705C113.188 45.8319 112.763 45.9612 112.334 45.9343C111.759 45.9343 111.325 45.7871 111.031 45.4969C110.736 45.2066 110.588 44.7754 110.588 44.2055C110.588 43.6355 110.736 43.2064 111.031 42.9141C111.325 42.6217 111.759 42.4787 112.334 42.4787C112.755 42.4536 113.172 42.5798 113.507 42.8342V42.8342Z" fill="#151515"/>
<path d="M116.458 43.3774V45.8613H115.377V43.3774H114.273V42.5234H117.557V43.3774H116.458Z" fill="#151515"/>
<path d="M120.523 42.7234C120.655 42.8034 120.764 42.9166 120.839 43.0518C120.913 43.187 120.95 43.3392 120.946 43.4932V43.5521H119.934V43.5374C119.935 43.4917 119.925 43.4464 119.907 43.4046C119.888 43.3628 119.86 43.3256 119.826 43.2955C119.733 43.2236 119.617 43.189 119.499 43.1988C119.386 43.1925 119.272 43.2142 119.169 43.2619C119.137 43.2747 119.11 43.296 119.089 43.3235C119.069 43.351 119.057 43.3836 119.055 43.4175C119.057 43.4621 119.073 43.5049 119.101 43.5397C119.129 43.5745 119.168 43.5994 119.211 43.611C119.374 43.6693 119.542 43.713 119.713 43.7414C119.939 43.7859 120.162 43.8435 120.381 43.9139C120.555 43.9738 120.712 44.0749 120.838 44.2083C120.978 44.3587 121.054 44.5569 121.05 44.7615C121.062 44.9299 121.031 45.0987 120.961 45.2523C120.89 45.4058 120.782 45.5394 120.646 45.6406C120.326 45.8451 119.949 45.9451 119.569 45.9267C119.145 45.9495 118.722 45.8587 118.345 45.6638C118.052 45.4885 117.906 45.1793 117.906 44.7362H118.927C118.919 44.7993 118.927 44.8635 118.95 44.9227C118.973 44.982 119.011 45.0343 119.061 45.0749C119.187 45.14 119.328 45.1691 119.47 45.159C119.585 45.1619 119.7 45.147 119.811 45.1148C119.851 45.1051 119.886 45.0819 119.91 45.0493C119.934 45.0166 119.946 44.9766 119.944 44.936C119.944 44.854 119.896 44.7951 119.796 44.7531C119.637 44.6976 119.474 44.6547 119.309 44.6248C119.079 44.5795 118.852 44.5191 118.631 44.4439C118.45 44.3801 118.288 44.2723 118.16 44.1305C118.015 43.9675 117.939 43.7549 117.949 43.5374C117.939 43.3773 117.973 43.2176 118.048 43.0754C118.123 42.9331 118.235 42.8137 118.372 42.7298C118.702 42.5462 119.077 42.4566 119.455 42.4711C119.828 42.4531 120.198 42.5406 120.523 42.7234V42.7234Z" fill="#151515"/>
</g>
<path d="M159 23H153V17C153 16.7348 152.895 16.4804 152.707 16.2929C152.52 16.1054 152.265 16 152 16C151.735 16 151.48 16.1054 151.293 16.2929C151.105 16.4804 151 16.7348 151 17V23H145C144.735 23 144.48 23.1054 144.293 23.2929C144.105 23.4804 144 23.7348 144 24C144 24.2652 144.105 24.5196 144.293 24.7071C144.48 24.8946 144.735 25 145 25H151V31C151 31.2652 151.105 31.5196 151.293 31.7071C151.48 31.8946 151.735 32 152 32C152.265 32 152.52 31.8946 152.707 31.7071C152.895 31.5196 153 31.2652 153 31V25H159C159.265 25 159.52 24.8946 159.707 24.7071C159.895 24.5196 160 24.2652 160 24C160 23.7348 159.895 23.4804 159.707 23.2929C159.52 23.1054 159.265 23 159 23Z" fill="white"/>
<rect x="172" y="1" width="109" height="46" rx="4" fill="#001E35"/>
<path d="M182.737 22.0169V11.1857H190.924V13.3519H185.103V15.6574H190.233V17.8236H185.103V22.0169H182.737Z" fill="white"/>
<path d="M202.125 20.5779C201.04 21.661 199.678 22.2025 198.04 22.2025C196.401 22.2025 195.039 21.661 193.954 20.5779C192.879 19.4947 192.341 18.1692 192.341 16.6013C192.341 15.0436 192.884 13.7233 193.969 12.6402C195.065 11.5467 196.432 11 198.07 11C199.709 11 201.066 11.5416 202.141 12.6247C203.226 13.7078 203.769 15.0333 203.769 16.6013C203.769 18.1589 203.221 19.4844 202.125 20.5779ZM195.736 19.0151C196.35 19.6753 197.128 20.0054 198.07 20.0054C199.012 20.0054 199.786 19.6804 200.39 19.0305C200.994 18.3704 201.296 17.5606 201.296 16.6013C201.296 15.6523 200.989 14.8476 200.374 14.1875C199.76 13.5273 198.982 13.1972 198.04 13.1972C197.098 13.1972 196.324 13.5273 195.72 14.1875C195.116 14.8373 194.814 15.6419 194.814 16.6013C194.814 17.5503 195.121 18.3549 195.736 19.0151Z" fill="white"/>
<path d="M215.175 20.5779C214.09 21.661 212.728 22.2025 211.09 22.2025C209.451 22.2025 208.089 21.661 207.004 20.5779C205.929 19.4947 205.391 18.1692 205.391 16.6013C205.391 15.0436 205.934 13.7233 207.019 12.6402C208.115 11.5467 209.482 11 211.12 11C212.759 11 214.115 11.5416 215.191 12.6247C216.276 13.7078 216.819 15.0333 216.819 16.6013C216.819 18.1589 216.271 19.4844 215.175 20.5779ZM208.786 19.0151C209.4 19.6753 210.178 20.0054 211.12 20.0054C212.062 20.0054 212.835 19.6804 213.44 19.0305C214.044 18.3704 214.346 17.5606 214.346 16.6013C214.346 15.6523 214.039 14.8476 213.424 14.1875C212.81 13.5273 212.032 13.1972 211.09 13.1972C210.147 13.1972 209.374 13.5273 208.77 14.1875C208.166 14.8373 207.864 15.6419 207.864 16.6013C207.864 17.5503 208.171 18.3549 208.786 19.0151Z" fill="white"/>
<path d="M218.917 22.0169V11.1857H223.11C224.79 11.1857 226.162 11.7014 227.227 12.733C228.292 13.7542 228.824 15.0436 228.824 16.6013C228.824 18.1486 228.287 19.438 227.211 20.4695C226.147 21.5011 224.779 22.0169 223.11 22.0169H218.917ZM221.283 19.8661H223.11C224.083 19.8661 224.867 19.5669 225.46 18.9687C226.054 18.36 226.351 17.5709 226.351 16.6013C226.351 15.6419 226.049 14.858 225.445 14.2494C224.851 13.6407 224.073 13.3364 223.11 13.3364H221.283V19.8661Z" fill="white"/>
<path d="M232.821 22.0169V13.3829H229.549V11.1857H238.458V13.3829H235.186V22.0169H232.821Z" fill="white"/>
<path d="M240.277 22.0169V11.1857H248.387V13.3055H242.627V15.5027H247.696V17.6225H242.627V19.897H248.464V22.0169H240.277Z" fill="white"/>
<path d="M255.605 22.2025C254.028 22.2025 252.712 21.6661 251.658 20.5933C250.613 19.5102 250.091 18.1795 250.091 16.6013C250.091 15.0333 250.618 13.7078 251.673 12.6247C252.728 11.5416 254.069 11 255.697 11C256.629 11 257.412 11.1547 258.047 11.4642C258.682 11.7633 259.286 12.1966 259.86 12.7639L258.447 14.4041C257.986 13.9812 257.551 13.6768 257.141 13.4912C256.742 13.2952 256.255 13.1972 255.682 13.1972C254.781 13.1972 254.033 13.5273 253.439 14.1875C252.856 14.8373 252.564 15.6419 252.564 16.6013C252.564 17.5503 252.856 18.3549 253.439 19.0151C254.033 19.6753 254.781 20.0054 255.682 20.0054C256.255 20.0054 256.752 19.9022 257.172 19.6959C257.592 19.4896 258.037 19.1698 258.508 18.7366L260.013 20.3612C259.43 20.9905 258.795 21.4547 258.109 21.7538C257.433 22.053 256.598 22.2025 255.605 22.2025Z" fill="white"/>
<path d="M261.907 22.0169V11.1857H264.272V15.4717H268.635V11.1857H271V22.0169H268.635V17.6689H264.272V22.0169H261.907Z" fill="white"/>
<path d="M186.562 37C184.801 37 183.28 36.4223 182 35.267L183.398 33.5804C184.452 34.4572 185.523 34.8957 186.608 34.8957C187.089 34.8957 187.468 34.8028 187.745 34.6171C188.021 34.4315 188.159 34.1736 188.159 33.8435C188.159 33.534 188.016 33.2865 187.729 33.1008C187.443 32.9048 186.864 32.6933 185.994 32.4664C185.379 32.3116 184.883 32.1621 184.504 32.0177C184.125 31.8629 183.761 31.6618 183.413 31.4142C183.075 31.1666 182.824 30.8572 182.66 30.4858C182.507 30.1041 182.43 29.6503 182.43 29.1242C182.43 28.1442 182.778 27.3551 183.475 26.7568C184.181 26.1585 185.087 25.8594 186.193 25.8594C187.719 25.8594 189.05 26.3184 190.187 27.2365L188.958 29.0313C187.944 28.3196 187.012 27.9637 186.163 27.9637C185.722 27.9637 185.379 28.0565 185.133 28.2422C184.898 28.4176 184.78 28.6497 184.78 28.9385C184.78 29.2892 184.929 29.5523 185.226 29.7276C185.523 29.903 186.147 30.1145 187.099 30.362C188.267 30.6715 189.127 31.0686 189.68 31.5535C190.233 32.0383 190.509 32.7346 190.509 33.6423C190.509 34.6945 190.146 35.5197 189.419 36.118C188.702 36.706 187.75 37 186.562 37Z" fill="white"/>
<path d="M192.562 36.8453V26.0141H194.928V30.3001H199.29V26.0141H201.655V36.8453H199.29V32.4973H194.928V36.8453H192.562Z" fill="white"/>
<path d="M204.232 36.8453V26.0141H212.342V28.1339H206.582V30.3311H211.651V32.4509H206.582V34.7254H212.419V36.8453H204.232Z" fill="white"/>
<path d="M214.522 36.8453V26.0141H216.888V34.679H222.248V36.8453H214.522Z" fill="white"/>
<path d="M224.032 36.8453V26.0141H232.219V28.1803H226.398V30.4858H231.528V32.6521H226.398V36.8453H224.032Z" fill="white"/>
<defs>
<clipPath id="clip0_476_498">
<rect width="132" height="48" fill="white"/>
</clipPath>
</defs>
</svg>
