<?xml version="1.0" encoding="utf-8"?>
<svg xmlns="http://www.w3.org/2000/svg" xmlns:xlink="http://www.w3.org/1999/xlink">

    <symbol viewBox="0 0 10 6" id="arrow">
        <g fill="transparent" xmlns="http://www.w3.org/2000/svg">
            <path d="M1 1L5 5L9 1" />
        </g>
    </symbol>

    <symbol viewBox="0 0 81 80" id="factoryIcon">
        <g clip-path="url(#clip0_481_660)">
            <path d="M55.339 17.233V11.4266C55.339 10.376 56.1907 9.52439 57.2412 9.52439H68.8597C69.9102 9.52439 70.7618 10.376 70.7618 11.4266V17.233C70.7618 17.9761 70.3358 18.6196 69.7147 18.9326V31.5428C69.7147 32.5933 68.8631 33.445 67.8125 33.445C66.762 33.445 65.9103 32.5933 65.9103 31.5428V17.233C65.9103 16.4899 66.3364 15.8464 66.9575 15.5333V13.3288H59.1434V15.5333C59.7644 15.8464 60.1904 16.4899 60.1904 17.2328V28.8215C60.1904 29.8721 59.3387 30.7237 58.2882 30.7237C57.2376 30.7237 56.386 29.8721 56.386 28.8215V18.9325C55.7649 18.6194 55.339 17.9759 55.339 17.233V17.233ZM60.155 5.96438C61.0049 6.58232 62.1944 6.39464 62.8123 5.54499C64.0092 3.89932 64.8699 4.07142 67.748 5.45622C69.8247 6.45551 72.2227 7.60987 74.8469 7.60969C76.3623 7.60969 77.9534 7.22454 79.6005 6.20206C80.4931 5.64807 80.7678 4.47541 80.2138 3.58283C79.6598 2.69007 78.4869 2.41561 77.5945 2.9696C75.0007 4.57922 72.79 3.66037 69.3977 2.02792C67.9908 1.3511 66.5361 0.651095 64.9286 0.56468C62.8862 0.454715 61.1391 1.37755 59.7355 3.3071C59.1177 4.15675 59.3056 5.34644 60.155 5.96438ZM80.4995 78.0975C80.4995 79.148 79.6478 79.9997 78.5973 79.9997H2.4022C1.35164 79.9997 0.5 79.148 0.5 78.0975C0.5 77.0469 1.35164 76.1953 2.4022 76.1953H5.26219V44.725C5.26219 43.6744 6.11383 42.8228 7.16439 42.8228H11.5896L12.7699 32.4498H11.3945C10.344 32.4498 9.49231 31.5982 9.49231 30.5476C9.49231 29.4971 10.344 28.6454 11.3945 28.6454H13.2027L13.9107 22.4238H7.20841C7.08449 22.4269 6.95768 22.4173 6.83177 22.3948C6.61058 22.3559 6.40242 22.2785 6.21456 22.1702C5.96709 22.028 5.4073 21.5137 5.29118 20.8553C5.25313 20.639 5.25078 20.4142 5.29082 20.1903C5.31274 20.0656 5.34679 19.9452 5.39172 19.8303L9.00843 9.88707C9.04865 9.76769 9.11477 9.6608 9.16242 9.54631C9.49865 8.73814 10.0139 8.67021 10.4775 8.62275C10.6025 8.60988 10.7278 8.59068 10.8556 8.59358H15.484L16.2697 1.68716C16.3792 0.726095 17.1924 0 18.1598 0H23.1137C24.0811 0 24.8943 0.726095 25.0037 1.68716L25.7894 8.59358H30.4174C30.546 8.59032 30.6733 8.60137 30.7984 8.62329C31.521 8.74956 31.9004 9.10065 32.1091 9.54359C32.1625 9.657 32.2243 9.76714 32.2649 9.88762L35.8812 19.8307C35.9256 19.9444 35.9595 20.0635 35.9812 20.1868C36.022 20.4124 36.0131 20.6376 35.9814 20.8564C35.9178 21.2952 35.6234 21.8463 35.0638 22.1673C34.8714 22.2776 34.6591 22.3579 34.4326 22.3966C34.3096 22.418 34.1864 22.4274 34.0651 22.4242H27.3628L28.0706 28.6458H29.8786C30.9291 28.6458 31.7808 29.4974 31.7808 30.548C31.7808 31.5986 30.9291 32.4502 29.8786 32.4502H28.5034L29.6835 42.8231H37.337V30.2531C37.337 29.6561 37.6171 29.094 38.0937 28.7344C38.5702 28.375 39.1876 28.2599 39.7619 28.4241L73.0972 37.9484C73.9139 38.1818 74.4769 38.9282 74.4769 39.7775V76.1956H78.5973C79.6478 76.1953 80.4995 77.0469 80.4995 78.0975V78.0975ZM19.3129 8.59358H21.9604L21.4156 3.80439H19.8578L19.3129 8.59358ZM18.1721 18.6194H23.101L22.3932 12.3978H18.8801L18.1721 18.6194ZM17.0315 28.6454H24.2418L23.534 22.4238H17.7393L17.0315 28.6454ZM14.3433 18.6194L15.0511 12.3978H12.1434L9.88036 18.6194H14.3433ZM15.9319 46.6272H13.3152C13.2983 46.6274 13.2815 46.6274 13.2646 46.6272H9.06658V76.1953H15.9319V46.6272ZM17.8341 42.8228H25.8548L24.6747 32.4498H16.5986L15.4183 42.8228H17.8341V42.8228ZM26.6679 46.6272H19.7363V76.1953H26.6679V46.6272ZM26.93 18.6194H31.3927L29.1299 12.3978H26.2222L26.93 18.6194V18.6194ZM37.3372 46.6272H30.4723V76.1953H37.3372V46.6272ZM70.6725 41.2119L41.1416 32.7745V76.1953H70.6725V41.2119ZM47.2888 65.7129H64.525C65.5756 65.7129 66.4272 64.8613 66.4272 63.8107C66.4272 62.7601 65.5756 61.9085 64.525 61.9085H47.2888C46.2382 61.9085 45.3866 62.7601 45.3866 63.8107C45.3866 64.8613 46.2384 65.7129 47.2888 65.7129ZM47.2888 56.1887H64.525C65.5756 56.1887 66.4272 55.3371 66.4272 54.2865C66.4272 53.2359 65.5756 52.3843 64.525 52.3843H47.2888C46.2382 52.3843 45.3866 53.2359 45.3866 54.2865C45.3866 55.3371 46.2384 56.1887 47.2888 56.1887Z" fill="#0057B8"/>
        </g>
        <defs>
            <clipPath id="clip0_481_660">
            <rect width="80" height="80" fill="white" transform="translate(0.5)"/>
            </clipPath>
        </defs>
    </symbol>

    <symbol viewBox="0 0 81 80" id="rocketIcon">
        <g clip-path="url(#clip0_39_448)">
            <path d="M42.4783 38.0236C41.8673 37.4126 40.8783 37.4126 40.2673 38.0236C39.658 38.6329 39.658 39.622 40.2673 40.2329C40.8783 40.8423 41.8673 40.8423 42.4783 40.2329C43.0876 39.622 43.0876 38.6329 42.4783 38.0236Z" fill="#0057B8"/>
            <path d="M62.3645 18.1359C59.3114 15.0829 54.3689 15.0828 51.3156 18.1359C48.2705 21.1811 48.2703 26.1373 51.3161 29.185C54.3623 32.2293 59.3186 32.2306 62.3645 29.1846C65.4173 26.1318 65.4179 21.1892 62.3645 18.1359ZM60.1548 26.9748C58.3278 28.802 55.3537 28.802 53.5258 26.9751C51.6984 25.1467 51.6983 22.1726 53.5254 20.3456C55.3572 18.5139 58.3228 18.5136 60.1548 20.3456C61.9865 22.1772 61.9868 25.1429 60.1548 26.9748Z" fill="#0057B8"/>
            <path d="M80.0422 0.457671C79.7353 0.150953 79.3166 -0.0152972 78.8813 0.00110906C78.528 0.0137653 70.1163 0.35189 60.1171 3.8861C52.1046 6.71516 45.426 10.7656 40.2668 15.925C39.1107 17.0811 37.9857 18.307 36.9093 19.5806C31.8081 16.5778 27.7203 17.5194 25.136 18.9023C19.1859 22.0867 15.5029 30.7329 15.5029 36.9173C15.5034 37.5492 15.8842 38.119 16.4679 38.3607C16.6612 38.4409 16.8643 38.4798 17.0656 38.4798C17.4723 38.4798 17.8718 38.3209 18.1707 38.0221C21.3087 34.8842 25.1792 35.0804 26.4435 35.2467L26.9907 35.7938C25.9138 38.3563 25.0464 40.9045 24.4101 43.3827C24.1804 44.2796 24.2579 45.2287 24.5993 46.0968C23.0949 46.7901 21.6435 47.808 20.3798 49.0718C16.3578 53.094 15.5411 62.8961 15.5082 63.3115C15.4723 63.7672 15.6376 64.216 15.9609 64.5393C16.2551 64.8333 16.6531 64.9969 17.0656 64.9969C17.1065 64.9969 17.1476 64.9954 17.1887 64.9921C17.604 64.9594 27.4065 64.1427 31.4285 60.1207C32.6918 58.8574 33.7096 57.4062 34.4029 55.9021C35.322 56.2635 36.2679 56.308 37.1185 56.0901C39.5957 55.454 42.1435 54.5868 44.7063 53.5098L45.2535 54.0569C45.4196 55.3215 45.6158 59.1919 42.478 62.3296C42.0313 62.7765 41.8976 63.4485 42.1394 64.0322C42.3812 64.6161 42.9508 64.9968 43.5829 64.9968C49.7672 64.9968 58.4133 61.3138 61.5977 55.3637C62.9807 52.7798 63.9222 48.692 60.9194 43.5906C62.1924 42.5146 63.4185 41.3896 64.575 40.2331C69.7344 35.0737 73.7847 28.3951 76.6138 20.3833C80.1481 10.3836 80.4861 1.97173 80.4987 1.61861C80.5144 1.18501 80.3489 0.764545 80.0422 0.457671ZM18.9964 33.5565C19.967 28.8592 22.7862 23.7047 26.6112 21.6575C29.1673 20.2897 31.9612 20.4237 34.9318 22.0498C32.401 25.3782 30.2009 28.9642 28.367 32.7509C28.3437 32.7365 28.0624 32.3829 27.5399 32.2651C27.3251 32.2165 23.1909 31.3273 18.9964 33.5565ZM29.2188 57.9108C27.0704 60.0593 22.0306 61.1924 18.8451 61.6551C19.3079 58.4694 20.4412 53.4298 22.5895 51.2815C23.7926 50.0784 25.1876 49.1662 26.5898 48.6524L31.8479 53.9105C31.3342 55.3127 30.4221 56.7077 29.2188 57.9108ZM36.3423 53.0629C35.8901 53.1787 35.3663 53.0087 34.977 52.6199C32.9556 50.5985 32.1648 49.8077 31.9166 49.5598C31.4616 49.1048 30.3459 47.989 27.8813 45.5243C27.4917 45.1338 27.3217 44.6102 27.4371 44.1588C27.9376 42.2098 28.5921 40.2101 29.3881 38.1912L42.3091 51.1123C40.2899 51.9084 38.2905 52.5627 36.3423 53.0629ZM58.8429 53.8891C56.7957 57.714 51.6413 60.5333 46.9441 61.5038C48.4418 58.6855 48.7719 55.0979 48.2247 52.9224C48.0977 52.4171 47.768 52.163 47.7496 52.1332C51.536 50.2993 55.1218 48.0991 58.4505 45.5684C60.0766 48.5393 60.2105 51.3335 58.8429 53.8891ZM62.3657 38.0234C60.9577 39.4312 59.4416 40.7913 57.8594 42.0659C54.056 45.1284 49.8697 47.7224 45.4035 49.7874L30.7129 35.0971C32.7779 30.6306 35.372 26.4443 38.4341 22.6414C39.7098 21.0581 41.0698 19.5419 42.4771 18.1347C47.106 13.5056 53.08 9.82156 60.2382 7.16969L73.3306 20.2622C70.6791 27.4201 66.995 33.3942 62.3657 38.0234ZM74.4549 16.9667L63.5336 6.04547C69.4838 4.19735 74.6602 3.50532 77.2439 3.25657C76.995 5.84079 76.3028 11.0172 74.4549 16.9667Z" fill="#0057B8"/>
            <path d="M38.0579 64.5388C37.4474 63.9287 36.4581 63.929 35.8481 64.5391L31.4293 68.9594C30.8193 69.5697 30.8195 70.5591 31.4296 71.1691C32.0401 71.7791 33.0295 71.7791 33.6395 71.1688L38.0582 66.7485C38.6682 66.1382 38.6681 65.1488 38.0579 64.5388Z" fill="#0057B8"/>
            <path d="M15.9616 42.4423C15.3516 41.832 14.3624 41.832 13.7519 42.442L9.33163 46.8607C8.72132 47.4707 8.72116 48.4601 9.33116 49.0704C9.941 49.6804 10.9302 49.681 11.5408 49.0707L15.9612 44.652C16.5715 44.042 16.5716 43.0526 15.9616 42.4423Z" fill="#0057B8"/>
            <path d="M27.0098 66.7499C26.4 66.1397 25.4105 66.1397 24.8002 66.7497L14.2158 77.3325C13.6055 77.9427 13.6055 78.932 14.2157 79.5422C14.8255 80.1524 15.815 80.1527 16.4253 79.5424L27.0097 68.9596C27.62 68.3494 27.62 67.36 27.0098 66.7499Z" fill="#0057B8"/>
            <path d="M14.5098 66.7499C13.8999 66.1397 12.9103 66.1397 12.3002 66.7497L1.71581 77.3325C1.1055 77.9427 1.1055 78.932 1.71565 79.5422C2.3255 80.1524 3.31503 80.1527 3.92534 79.5424L14.5097 68.9596C15.12 68.3494 15.12 67.36 14.5098 66.7499Z" fill="#0057B8"/>
            <path d="M13.7503 53.4902C13.1403 52.8802 12.1508 52.8802 11.5406 53.4903L0.957841 64.0747C0.347686 64.685 0.347686 65.6742 0.957997 66.2845C1.56815 66.8947 2.55753 66.8947 3.16768 66.2844L13.7505 55.7C14.3606 55.0897 14.3606 54.1005 13.7503 53.4902Z" fill="#0057B8"/>
            <path d="M49.1066 31.3935C48.4962 30.7834 47.5072 30.7834 46.8967 31.3935L44.6874 33.6029C44.0772 34.2131 44.0772 35.2024 44.6874 35.8127C45.2977 36.4229 46.2869 36.4229 46.8972 35.8127L49.1066 33.6034C49.7167 32.9932 49.7167 32.0038 49.1066 31.3935Z" fill="#0057B8"/>
        </g>
        <defs>
            <clipPath id="clip0_39_448">
            <rect width="80" height="80" fill="white" transform="translate(0.5)"/>
            </clipPath>
        </defs>
    </symbol>

    <symbol viewBox="0 0 81 80" id="globalIcon">
        <g clip-path="url(#clip0_39_479)">
            <path d="M72.993 16.6695C73.783 15.5859 74.2508 14.2531 74.2508 12.8125C74.2508 9.19391 71.3069 6.25 67.6883 6.25C66.2477 6.25 64.9148 6.71781 63.8313 7.50781C57.008 2.59281 48.9694 0 40.5 0C32.1917 0 24.2247 2.52375 17.4598 7.29828C16.7548 7.79594 16.5867 8.77078 17.0844 9.47594C17.582 10.1809 18.557 10.3491 19.262 9.85141C23.7808 6.66203 28.8828 4.56344 34.2648 3.64922C33.6384 4.44516 33.0091 5.40313 32.388 6.55688C30.4923 10.0786 28.928 14.9284 27.8375 20.6441C24.9688 20.8503 22.6055 22.9072 21.9389 25.625H6.53234C7.44047 23.4814 8.55484 21.4178 9.87016 19.4605C10.3514 18.7442 10.1608 17.7734 9.44453 17.2922C8.72828 16.8108 7.7575 17.0014 7.27625 17.7177C2.84313 24.3152 0.5 32.0203 0.5 40C0.5 48.4664 3.09297 56.507 8.00734 63.3311C7.21766 64.4145 6.75 65.7472 6.75 67.1875C6.75 70.8061 9.69391 73.75 13.3125 73.75C14.753 73.75 16.0856 73.2823 17.1691 72.4925C23.9928 77.4072 32.0328 80 40.5 80C51.1844 80 61.2292 75.8392 68.7844 68.2842C76.3392 60.7294 80.5 50.6844 80.5 40C80.5 31.5316 77.9075 23.493 72.993 16.6695ZM75.6178 51.25H58.9558C58.4206 49.068 56.7919 47.3123 54.6858 46.5977C54.8091 44.427 54.875 42.2153 54.875 40C54.875 36.1366 54.6878 32.3563 54.327 28.7502H75.6372C76.7852 32.3431 77.375 36.1227 77.375 40C77.375 43.9219 76.7572 47.7017 75.6178 51.25ZM40.5 76.875C37.882 76.875 35.0494 73.0658 32.9225 66.6853C31.7305 63.1089 30.8083 58.9311 30.1859 54.3752H46.2095C46.7098 56.4148 48.1652 58.083 50.0734 58.8756C47.6964 71.2952 43.5977 76.875 40.5 76.875ZM13.3125 60.625C12.2677 60.625 11.2797 60.8717 10.402 61.308C8.84828 59.1206 7.55219 56.7997 6.52344 54.375H27.0353C27.6847 59.2917 28.6702 63.8105 29.9578 67.6734C31.1959 71.3881 32.6378 74.2939 34.2439 76.3502C28.8316 75.4322 23.7245 73.3178 19.192 70.0981C19.6283 69.2203 19.875 68.2323 19.875 67.1875C19.875 63.5689 16.9311 60.625 13.3125 60.625ZM29.25 40C29.25 37.868 29.3125 35.7406 29.4297 33.6528C32.0039 33.2089 34.0689 31.2617 34.6848 28.75H51.187C51.5575 32.3425 51.75 36.1248 51.75 40C51.75 42.125 51.6878 44.2459 51.5712 46.3281C48.9475 46.7358 46.8341 48.7036 46.2095 51.25H29.8128C29.4427 47.6577 29.25 43.8753 29.25 40ZM52.5827 56.25C50.6872 56.25 49.1452 54.708 49.1452 52.8125C49.1452 50.917 50.6872 49.375 52.5827 49.375C54.4781 49.375 56.0202 50.917 56.0202 52.8125C56.0202 54.708 54.4781 56.25 52.5827 56.25ZM51.0422 12.3266C49.8039 8.61172 48.362 5.70578 46.7558 3.64953C52.1691 4.5675 57.2761 6.68156 61.8088 9.90188C61.3725 10.7797 61.1258 11.7677 61.1258 12.8125C61.1258 16.4311 64.0697 19.375 67.6883 19.375C68.7331 19.375 69.7209 19.1283 70.5987 18.6922C72.1527 20.8794 73.4483 23.2006 74.4769 25.6252H53.9647C53.3153 20.7083 52.3297 16.1895 51.0422 12.3266ZM71.1258 12.8125C71.1258 14.708 69.5837 16.25 67.6883 16.25C65.7928 16.25 64.2508 14.708 64.2508 12.8125C64.2508 10.917 65.7928 9.375 67.6883 9.375C69.5837 9.375 71.1258 10.917 71.1258 12.8125ZM40.5 3.125C43.118 3.125 45.9506 6.93422 48.0775 13.3147C49.2695 16.8911 50.1917 21.0691 50.8141 25.625H34.685C34.1933 23.6202 32.7788 21.9747 30.9186 21.1663C33.2936 8.71813 37.3963 3.125 40.5 3.125ZM28.3119 23.7502C30.2073 23.7502 31.7494 25.2922 31.7494 27.1877C31.7494 29.0831 30.2073 30.6252 28.3119 30.6252C26.4164 30.6252 24.8744 29.0831 24.8744 27.1877C24.8744 25.2922 26.4164 23.7502 28.3119 23.7502ZM21.9389 28.7502C22.4828 30.9678 24.1559 32.7459 26.3122 33.4375C26.1903 35.5966 26.125 37.7962 26.125 40C26.125 43.8636 26.3122 47.6439 26.673 51.25H5.36359C4.21531 47.6564 3.625 43.8767 3.625 40C3.625 36.1431 4.21953 32.3566 5.37297 28.7502H21.9389ZM9.875 67.1875C9.875 65.292 11.417 63.75 13.3125 63.75C15.208 63.75 16.75 65.292 16.75 67.1875C16.75 69.083 15.208 70.625 13.3125 70.625C11.417 70.625 9.875 69.083 9.875 67.1875ZM46.7402 76.3444C47.3611 75.5545 47.985 74.6056 48.6008 73.4644C50.5022 69.9398 52.0716 65.0788 53.1644 59.3478C55.9848 59.0987 58.2977 57.0589 58.9558 54.375H74.4572C69.6267 65.7425 59.2483 74.2033 46.7402 76.3444Z" fill="#0057B8"/>
            <path d="M13.0093 14.6968C13.4219 14.6968 13.8233 14.5312 14.1155 14.239C14.4062 13.9484 14.5718 13.5453 14.5718 13.1343C14.5718 12.7234 14.4062 12.3218 14.1155 12.0297C13.8233 11.739 13.4219 11.5718 13.0093 11.5718C12.5983 11.5718 12.1952 11.739 11.9047 12.0297C11.6141 12.3218 11.4468 12.7234 11.4468 13.1343C11.4468 13.5453 11.614 13.9484 11.9047 14.239C12.1952 14.5312 12.5983 14.6968 13.0093 14.6968Z" fill="#0057B8"/>
        </g>
        <defs>
            <clipPath id="clip0_39_479">
                <rect width="80" height="80" fill="white" transform="translate(0.5)"/>
            </clipPath>
        </defs>
    </symbol>

    <symbol viewBox="0 0 81 80" id="storeIcon">
        <g clip-path="url(#clip0_39_487)">
            <path d="M2.0625 71.8303C1.19953 71.8303 0.5 72.53 0.5 73.3928C0.5 74.2556 1.19953 74.9553 2.0625 74.9553H78.9375C79.8003 74.9553 80.5 74.2556 80.5 73.3928C80.5 72.53 79.8003 71.8303 78.9375 71.8303H75.9375V63.3891C75.9375 62.5262 75.2378 61.8266 74.375 61.8266C73.5122 61.8266 72.8125 62.5262 72.8125 63.3891V71.8303H30.0655V48.6039C30.0655 47.7411 29.3659 47.0414 28.503 47.0414H14.7305C13.8675 47.0414 13.168 47.7411 13.168 48.6039V71.8302H8.1875V41.8922C8.72344 41.9831 9.27125 42.0256 9.81469 42.0217C12.855 42.0009 15.7448 40.4348 17.4375 37.912C19.1427 40.4531 22.0623 42.0234 25.125 42.0234C28.1856 42.0234 31.1103 40.4534 32.8125 37.912C34.5231 40.4508 37.433 42.0234 40.5 42.0234C43.5625 42.0234 46.4831 40.4528 48.1875 37.912C49.8152 40.3383 52.5564 41.8891 55.4778 42.0133C58.678 42.1492 61.7789 40.5703 63.5625 37.912C65.5762 40.9137 69.2461 42.497 72.8125 41.8922V49.6661C72.8125 50.5289 73.5122 51.2286 74.375 51.2286C75.2378 51.2286 75.9375 50.5289 75.9375 49.6661V40.7431C78.6653 39.1327 80.5 36.1641 80.5 32.7734V24.618C80.5 22.097 78.6016 19.8772 76.108 19.4912L65.9911 6.97187C65.0016 5.74702 63.5309 5.04468 61.9563 5.04468H19.0586C17.4708 5.04468 15.9923 5.75687 15.0023 6.99843L5.04969 19.4823C2.57234 19.8403 0.544219 22.0206 0.5 24.5262V29.8251V29.8387V32.7734C0.5 36.1641 2.33484 39.1325 5.0625 40.7431V71.8303H2.0625ZM16.293 50.1664H26.9405V71.8302H16.293V50.1664ZM62 32.7728C62 36.1502 59.2523 38.8978 55.8752 38.8978C52.4978 38.8978 49.7502 36.1502 49.7502 32.7728V31.4012H62V32.7728ZM62 28.2762H49.75V22.5555H62V28.2762ZM77.375 32.7734C77.375 36.1078 74.5831 38.8978 71.25 38.8978C67.8727 38.8978 65.125 36.1502 65.125 32.7728V31.4012H77.375V32.7734ZM77.375 24.618V28.2762H65.125V22.5555H75.3125C76.4497 22.5555 77.375 23.4806 77.375 24.618ZM61.9561 8.16968C62.5822 8.16968 63.1669 8.4489 63.5603 8.93577L72.0409 19.4303H64.4911L58.363 8.16968H61.9561ZM54.8052 8.16968L60.9333 19.4303H49.5597L48.092 8.16968H54.8052ZM35.9181 8.16968H44.9405L46.4081 19.4303H34.5728L35.9181 8.16968ZM34.375 22.5555H46.625V28.2762H34.375V22.5555ZM34.375 31.4012H46.625V32.7728C46.625 36.1502 43.8773 38.8978 40.5 38.8978C37.1227 38.8978 34.375 36.1502 34.375 32.7728V31.4012ZM31.25 32.7728C31.25 36.1502 28.5023 38.8978 25.125 38.8978C21.7477 38.8978 19 36.1502 19 32.7728V32.7726C19 32.7591 18.9998 32.7455 18.9995 32.7319L18.9641 31.4012H31.25V32.7728ZM31.25 28.2762H18.9219V22.5555H31.25V28.2762ZM26.1905 8.16968H32.7709L31.4256 19.4303H20.0012L26.1905 8.16968ZM17.4458 8.94655C17.8394 8.45296 18.4272 8.16968 19.0586 8.16968H22.6247L16.4353 19.4303H9.08781L17.4458 8.94655ZM3.71813 24.5814C3.73781 23.4642 4.66281 22.5553 5.78031 22.5553H5.84375H15.7969V28.2761H3.71813V24.5814ZM3.625 32.7734V31.4012H15.8378L15.8747 32.7844C15.8686 36.1081 13.0816 38.898 9.75 38.898C6.41687 38.8978 3.625 36.1078 3.625 32.7734Z" fill="#0057B8"/>
            <path d="M46.3159 49.7953H37.8406C36.9776 49.7953 36.2781 50.495 36.2781 51.3578V61.723H35.8997C35.0367 61.723 34.3372 62.4227 34.3372 63.2855C34.3372 64.1483 35.0367 64.848 35.8997 64.848H48.257C49.1198 64.848 49.8195 64.1483 49.8195 63.2855C49.8195 62.4227 49.1198 61.723 48.257 61.723H47.8784V51.3578C47.8784 50.495 47.1787 49.7953 46.3159 49.7953ZM44.7534 61.723H39.4031V52.9203H44.7534V61.723Z" fill="#0057B8"/>
            <path d="M65.6628 49.7953H57.1875C56.3247 49.7953 55.625 50.495 55.625 51.3578V61.723H55.2466C54.3838 61.723 53.6841 62.4227 53.6841 63.2855C53.6841 64.1483 54.3838 64.848 55.2466 64.848H67.6039C68.4667 64.848 69.1664 64.1483 69.1664 63.2855C69.1664 62.4227 68.4667 61.723 67.6039 61.723H67.2253V51.3578C67.2253 50.495 66.5258 49.7953 65.6628 49.7953ZM64.1003 61.723H58.75V52.9203H64.1003V61.723Z" fill="#0057B8"/>
            <path d="M18.0696 61.6642C18.3471 62.4369 19.2028 62.8733 19.9922 62.633C20.8591 62.3691 21.331 61.3797 20.9813 60.5408C20.2216 58.716 17.4052 59.8139 18.0696 61.6642Z" fill="#0057B8"/>
            <path d="M73.4457 55.0789C72.7743 55.577 72.6179 56.542 73.0952 57.2278C73.5738 57.9154 74.5461 58.0936 75.2421 57.6314C75.9507 57.1609 76.1444 56.1718 75.6733 55.4658C75.1915 54.7287 74.1474 54.5583 73.4457 55.0789Z" fill="#0057B8"/>
        </g>
        <defs>
            <clipPath id="clip0_39_487">
                <rect width="80" height="80" fill="white" transform="translate(0.5)"/>
            </clipPath>
        </defs>
    </symbol>

    <symbol viewBox="0 0 88 80" id="retailIcon-1">
        <g xmlns="http://www.w3.org/2000/svg">
            <path fill-rule="evenodd" clip-rule="evenodd" d="M41.185 0.0165046C49.8007 -0.180799 58.6916 1.3415 64.9901 7.25898C71.4714 13.3482 72.6306 22.4623 74.3844 31.2076C76.8471 43.4876 84.9285 57.5828 77.0231 67.2618C69.0753 76.9928 53.6924 72.3995 41.185 71.8555C29.5109 71.3478 16.5182 72.6475 8.31706 64.2738C0.147033 55.9318 -0.709477 42.7293 1.37506 31.2076C3.13952 21.4551 10.6656 14.4159 18.4395 8.32501C25.0552 3.14164 32.8019 0.208481 41.185 0.0165046Z" fill="#FFD700"/>
            <path d="M57.0769 42H53.7436V37C53.7436 36.558 53.568 36.134 53.2554 35.8215C52.9429 35.5089 52.5189 35.3333 52.0769 35.3333H42.0769V32H45.4102C45.8523 32 46.2762 31.8244 46.5887 31.5118C46.9013 31.1993 47.0769 30.7753 47.0769 30.3333V20.3333C47.0769 19.8913 46.9013 19.4674 46.5887 19.1548C46.2762 18.8423 45.8523 18.6667 45.4102 18.6667H35.4102C34.9682 18.6667 34.5443 18.8423 34.2317 19.1548C33.9192 19.4674 33.7436 19.8913 33.7436 20.3333V30.3333C33.7436 30.7753 33.9192 31.1993 34.2317 31.5118C34.5443 31.8244 34.9682 32 35.4102 32H38.7436V35.3333H28.7436C28.3015 35.3333 27.8776 35.5089 27.5651 35.8215C27.2525 36.134 27.0769 36.558 27.0769 37V42H23.7436C23.3015 42 22.8776 42.1756 22.5651 42.4881C22.2525 42.8007 22.0769 43.2246 22.0769 43.6667V53.6667C22.0769 54.1087 22.2525 54.5326 22.5651 54.8452C22.8776 55.1577 23.3015 55.3333 23.7436 55.3333H33.7436C34.1856 55.3333 34.6095 55.1577 34.9221 54.8452C35.2346 54.5326 35.4102 54.1087 35.4102 53.6667V43.6667C35.4102 43.2246 35.2346 42.8007 34.9221 42.4881C34.6095 42.1756 34.1856 42 33.7436 42H30.4102V38.6667H50.4102V42H47.0769C46.6349 42 46.211 42.1756 45.8984 42.4881C45.5858 42.8007 45.4102 43.2246 45.4102 43.6667V53.6667C45.4102 54.1087 45.5858 54.5326 45.8984 54.8452C46.211 55.1577 46.6349 55.3333 47.0769 55.3333H57.0769C57.5189 55.3333 57.9429 55.1577 58.2554 54.8452C58.568 54.5326 58.7436 54.1087 58.7436 53.6667V43.6667C58.7436 43.2246 58.568 42.8007 58.2554 42.4881C57.9429 42.1756 57.5189 42 57.0769 42ZM32.0769 45.3333V52H25.4102V45.3333H32.0769ZM37.0769 28.6667V22H43.7436V28.6667H37.0769ZM55.4102 52H48.7436V45.3333H55.4102V52Z" fill="#0057B8"/>
        </g>
    </symbol>

    <symbol viewBox="0 0 84 80" id="retailIcon-2">
        <g xmlns="http://www.w3.org/2000/svg">
            <path fill-rule="evenodd" clip-rule="evenodd" d="M42.3119 77.6055C54.9128 77.5997 69.8237 84.2549 78.5968 75.2097C87.356 66.179 80.4591 51.4897 79.829 38.9247C79.2536 27.4505 83.2965 14.1873 75.1315 6.10508C66.9793 -1.9645 53.559 -0.465907 42.3119 1.78796C33.2504 3.60383 26.9964 10.5397 20.4501 17.063C13.8854 23.6047 7.2792 29.9306 5.04435 38.9247C2.00846 51.1426 -2.74132 66.1769 5.99356 75.243C14.7439 84.3252 29.7002 77.6112 42.3119 77.6055Z" fill="#FFD700"/>
            <path d="M38.6636 28.3333C38.3339 28.3333 38.0117 28.4311 37.7376 28.6142C37.4635 28.7973 37.2499 29.0576 37.1238 29.3622C36.9976 29.6667 36.9646 30.0018 37.0289 30.3251C37.0932 30.6484 37.252 30.9454 37.4851 31.1785C37.7181 31.4116 38.0151 31.5703 38.3384 31.6346C38.6617 31.6989 38.9968 31.6659 39.3014 31.5398C39.6059 31.4136 39.8662 31.2 40.0494 30.9259C40.2325 30.6519 40.3302 30.3296 40.3302 30C40.3302 29.558 40.1546 29.134 39.8421 28.8215C39.5295 28.5089 39.1056 28.3333 38.6636 28.3333ZM31.9969 28.3333C31.6673 28.3333 31.345 28.4311 31.071 28.6142C30.7969 28.7973 30.5833 29.0576 30.4571 29.3622C30.331 29.6667 30.298 30.0018 30.3623 30.3251C30.4266 30.6484 30.5853 30.9454 30.8184 31.1785C31.0515 31.4116 31.3485 31.5703 31.6718 31.6346C31.9951 31.6989 32.3302 31.6659 32.6347 31.5398C32.9393 31.4136 33.1996 31.2 33.3827 30.9259C33.5658 30.6519 33.6636 30.3296 33.6636 30C33.6636 29.558 33.488 29.134 33.1754 28.8215C32.8629 28.5089 32.4389 28.3333 31.9969 28.3333ZM45.3302 28.3333C45.0006 28.3333 44.6784 28.4311 44.4043 28.6142C44.1302 28.7973 43.9166 29.0576 43.7904 29.3622C43.6643 29.6667 43.6313 30.0018 43.6956 30.3251C43.7599 30.6484 43.9186 30.9454 44.1517 31.1785C44.3848 31.4116 44.6818 31.5703 45.0051 31.6346C45.3284 31.6989 45.6635 31.6659 45.968 31.5398C46.2726 31.4136 46.5329 31.2 46.716 30.9259C46.8992 30.6519 46.9969 30.3296 46.9969 30C46.9969 29.558 46.8213 29.134 46.5087 28.8215C46.1962 28.5089 45.7723 28.3333 45.3302 28.3333ZM55.3302 21.6667H28.6636C27.3375 21.6667 26.0657 22.1934 25.128 23.1311C24.1904 24.0688 23.6636 25.3406 23.6636 26.6667V53.3333C23.6636 54.6594 24.1904 55.9312 25.128 56.8689C26.0657 57.8065 27.3375 58.3333 28.6636 58.3333H55.3302C56.6563 58.3333 57.9281 57.8065 58.8658 56.8689C59.8035 55.9312 60.3302 54.6594 60.3302 53.3333V26.6667C60.3302 25.3406 59.8035 24.0688 58.8658 23.1311C57.9281 22.1934 56.6563 21.6667 55.3302 21.6667ZM56.9969 53.3333C56.9969 53.7753 56.8213 54.1993 56.5088 54.5118C56.1962 54.8244 55.7723 55 55.3302 55H28.6636C28.2215 55 27.7976 54.8244 27.4851 54.5118C27.1725 54.1993 26.9969 53.7753 26.9969 53.3333V38.3333H56.9969V53.3333ZM56.9969 35H26.9969V26.6667C26.9969 26.2246 27.1725 25.8007 27.4851 25.4881C27.7976 25.1756 28.2215 25 28.6636 25H55.3302C55.7723 25 56.1962 25.1756 56.5088 25.4881C56.8213 25.8007 56.9969 26.2246 56.9969 26.6667V35Z" fill="#0057B8"/>
        </g>
    </symbol>

    <symbol viewBox="0 0 86 80" id="retailIcon-3">
        <g xmlns="http://www.w3.org/2000/svg">
            <path fill-rule="evenodd" clip-rule="evenodd" d="M40.4707 0.00770041C48.5125 -0.289627 53.7493 8.09249 60.3233 13.1584C69.4376 20.1817 83.5201 22.8818 85.6661 34.8347C87.8946 47.2467 78.5518 58.5443 70.0048 67.0818C61.8722 75.2053 51.4902 79.6994 40.4707 79.9797C29.1615 80.2674 17.3504 77.5424 9.52752 68.6204C1.82883 59.8401 -1.81661 46.6261 0.887011 34.8347C3.2471 24.5414 14.3515 21.2361 21.9186 14.5783C28.0849 9.15302 32.5562 0.300323 40.4707 0.00770041Z" fill="#FFD700"/>
            <path d="M59.1834 53.8167L53.0001 47.6833C55.4002 44.6907 56.5626 40.8922 56.2481 37.0688C55.9336 33.2455 54.1662 29.688 51.3093 27.1277C48.4524 24.5675 44.7231 23.1992 40.8883 23.3041C37.0535 23.4091 33.4046 24.9793 30.692 27.6919C27.9794 30.4045 26.4091 34.0534 26.3042 37.8882C26.1993 41.723 27.5676 45.4523 30.1278 48.3092C32.6881 51.1661 36.2456 52.9335 40.0689 53.248C43.8922 53.5625 47.6908 52.4002 50.6834 50L56.8168 56.1333C56.9717 56.2895 57.156 56.4135 57.3591 56.4981C57.5622 56.5828 57.7801 56.6263 58.0001 56.6263C58.2201 56.6263 58.4379 56.5828 58.641 56.4981C58.8441 56.4135 59.0285 56.2895 59.1834 56.1333C59.4838 55.8226 59.6517 55.4072 59.6517 54.975C59.6517 54.5428 59.4838 54.1274 59.1834 53.8167ZM41.3334 50C39.026 50 36.7703 49.3158 34.8518 48.0338C32.9332 46.7519 31.4378 44.9298 30.5548 42.798C29.6718 40.6662 29.4408 38.3204 29.8909 36.0573C30.3411 33.7942 31.4522 31.7154 33.0838 30.0838C34.7155 28.4521 36.7943 27.341 39.0574 26.8908C41.3205 26.4407 43.6663 26.6717 45.7981 27.5547C47.9299 28.4378 49.7519 29.9331 51.0339 31.8517C52.3158 33.7703 53.0001 36.0259 53.0001 38.3333C53.0001 41.4275 51.7709 44.395 49.583 46.5829C47.3951 48.7708 44.4276 50 41.3334 50Z" fill="#0057B8"/>
        </g>
    </symbol>

    <symbol viewBox="0 0 80 80" id="retailIcon-4">
        <g xmlns="http://www.w3.org/2000/svg">
            <path fill-rule="evenodd" clip-rule="evenodd" d="M45.4297 78.538C34.5869 79.7865 22.7113 82.1857 14.0789 75.507C4.76785 68.3032 0.290235 55.9079 0.990468 44.1563C1.65843 32.9462 9.62564 24.2337 17.605 16.3316C25.5305 8.48283 34.3725 -1.32138 45.4296 0.147426C56.1246 1.56812 60.1879 14.277 66.7288 22.8571C71.8908 29.6283 78.3218 35.6673 78.9795 44.1563C79.6846 53.2582 76.6818 62.4988 70.306 69.0327C63.8612 75.6373 54.5971 77.4824 45.4297 78.538Z" fill="#FFD700"/>
            <path d="M53.1027 45.85H45.5527C45.1107 45.85 44.6867 46.0256 44.3742 46.3382C44.0616 46.6507 43.886 47.0746 43.886 47.5167C43.886 47.9587 44.0616 48.3826 44.3742 48.6952C44.6867 49.0077 45.1107 49.1833 45.5527 49.1833H49.5527C47.7143 51.1046 45.3434 52.4322 42.7446 52.9957C40.1459 53.5591 37.438 53.3327 34.969 52.3454C32.4999 51.3582 30.3825 49.6552 28.8887 47.4553C27.3949 45.2554 26.593 42.6591 26.586 40C26.586 39.558 26.4104 39.1341 26.0979 38.8215C25.7853 38.5089 25.3614 38.3333 24.9194 38.3333C24.4773 38.3333 24.0534 38.5089 23.7408 38.8215C23.4283 39.1341 23.2527 39.558 23.2527 40C23.2615 43.2547 24.2231 46.4355 26.0187 49.1501C27.8143 51.8646 30.3655 53.9939 33.3573 55.2754C36.3491 56.5568 39.6506 56.9342 42.8544 56.3611C46.0582 55.7879 49.0241 54.2892 51.386 52.05V55C51.386 55.442 51.5616 55.866 51.8742 56.1785C52.1867 56.4911 52.6107 56.6667 53.0527 56.6667C53.4947 56.6667 53.9186 56.4911 54.2312 56.1785C54.5438 55.866 54.7194 55.442 54.7194 55V47.5C54.7152 47.0694 54.5446 46.6571 54.2432 46.3495C53.9419 46.0419 53.5331 45.8629 53.1027 45.85ZM39.9194 23.3333C35.6467 23.3455 31.5418 24.9982 28.4527 27.95V25C28.4527 24.558 28.2771 24.1341 27.9645 23.8215C27.652 23.5089 27.228 23.3333 26.786 23.3333C26.344 23.3333 25.9201 23.5089 25.6075 23.8215C25.2949 24.1341 25.1194 24.558 25.1194 25V32.5C25.1194 32.942 25.2949 33.366 25.6075 33.6785C25.9201 33.9911 26.344 34.1667 26.786 34.1667H34.286C34.728 34.1667 35.152 33.9911 35.4645 33.6785C35.7771 33.366 35.9527 32.942 35.9527 32.5C35.9527 32.058 35.7771 31.6341 35.4645 31.3215C35.152 31.0089 34.728 30.8333 34.286 30.8333H30.286C32.1235 28.9131 34.4928 27.5858 37.09 27.0218C39.6872 26.4579 42.3937 26.6829 44.862 27.6681C47.3304 28.6533 49.448 30.3537 50.9431 32.551C52.4381 34.7483 53.2424 37.3423 53.2527 40C53.2527 40.442 53.4283 40.866 53.7408 41.1785C54.0534 41.4911 54.4773 41.6667 54.9194 41.6667C55.3614 41.6667 55.7853 41.4911 56.0979 41.1785C56.4104 40.866 56.586 40.442 56.586 40C56.586 37.8113 56.1549 35.644 55.3173 33.6219C54.4798 31.5999 53.2521 29.7625 51.7045 28.2149C50.1568 26.6672 48.3195 25.4396 46.2974 24.602C44.2753 23.7644 42.1081 23.3333 39.9194 23.3333Z" fill="#0057B8"/>
        </g>
    </symbol>

    <symbol viewBox="0 0 88 80" id="retailManufacturesIcon-1">
        <g xmlns="http://www.w3.org/2000/svg">
            <path fill-rule="evenodd" clip-rule="evenodd" d="M41.1904 0.0165046C49.8061 -0.180799 58.697 1.3415 64.9955 7.25898C71.4768 13.3482 72.636 22.4623 74.3898 31.2076C76.8524 43.4876 84.9339 57.5828 77.0284 67.2618C69.0806 76.9928 53.6978 72.3995 41.1904 71.8555C29.5162 71.3478 16.5235 72.6475 8.32243 64.2738C0.152404 55.9318 -0.704106 42.7293 1.38043 31.2076C3.14489 21.4551 10.671 14.4159 18.4449 8.32501C25.0605 3.14164 32.8072 0.208481 41.1904 0.0165046Z" fill="#1A70D0"/>
            <path d="M55.8333 44.9999C55.8296 43.9995 55.5258 43.0231 54.9613 42.1971C54.3967 41.3711 53.5974 40.7334 52.6666 40.3666L55.7833 28.6999C55.8484 28.4515 55.8552 28.1913 55.8031 27.9398C55.7511 27.6883 55.6416 27.4522 55.4833 27.2499C55.3214 27.0604 55.119 26.9097 54.8912 26.8087C54.6633 26.7078 54.4157 26.6592 54.1666 26.6666H31.3333L30.7833 24.5666C30.6876 24.2115 30.4772 23.8979 30.1848 23.6748C29.8924 23.4517 29.5344 23.3317 29.1666 23.3333H25.8333V26.6666H27.8833L32.0166 42.0999C32.1143 42.4635 32.3322 42.7834 32.6348 43.0073C32.9374 43.2313 33.307 43.3462 33.6833 43.3333H50.8333C51.2753 43.3333 51.6992 43.5089 52.0118 43.8214C52.3243 44.134 52.4999 44.5579 52.4999 44.9999C52.4999 45.442 52.3243 45.8659 52.0118 46.1784C51.6992 46.491 51.2753 46.6666 50.8333 46.6666H29.1666C28.7246 46.6666 28.3006 46.8422 27.9881 47.1548C27.6755 47.4673 27.4999 47.8912 27.4999 48.3333C27.4999 48.7753 27.6755 49.1992 27.9881 49.5118C28.3006 49.8243 28.7246 49.9999 29.1666 49.9999H31.1333C30.8591 50.7552 30.7711 51.5653 30.8765 52.3618C30.9819 53.1583 31.2777 53.9176 31.7388 54.5755C32.1999 55.2334 32.8128 55.7706 33.5255 56.1414C34.2382 56.5122 35.0298 56.7058 35.8333 56.7058C36.6367 56.7058 37.4283 56.5122 38.141 56.1414C38.8537 55.7706 39.4666 55.2334 39.9277 54.5755C40.3888 53.9176 40.6846 53.1583 40.79 52.3618C40.8954 51.5653 40.8074 50.7552 40.5333 49.9999H44.4666C44.2171 50.6876 44.1215 51.4217 44.1866 52.1503C44.2517 52.879 44.4759 53.5844 44.8433 54.217C45.2108 54.8495 45.7126 55.3938 46.3133 55.8112C46.914 56.2287 47.5991 56.5093 48.32 56.6332C49.041 56.7571 49.7804 56.7212 50.486 56.5282C51.1916 56.3352 51.8463 55.9897 52.4039 55.516C52.9614 55.0424 53.4082 54.4522 53.7128 53.7871C54.0173 53.122 54.1723 52.3981 54.1666 51.6666C54.1635 50.8055 53.9335 49.9605 53.4999 49.2166C54.2126 48.7673 54.8002 48.1451 55.2081 47.4079C55.6161 46.6708 55.8311 45.8424 55.8333 44.9999ZM49.3166 39.9999H34.9999L32.2333 29.9999H51.9999L49.3166 39.9999ZM35.8333 53.3333C35.5036 53.3333 35.1814 53.2355 34.9073 53.0524C34.6332 52.8692 34.4196 52.6089 34.2935 52.3044C34.1673 51.9999 34.1343 51.6648 34.1986 51.3414C34.2629 51.0181 34.4217 50.7212 34.6547 50.4881C34.8878 50.255 35.1848 50.0963 35.5081 50.032C35.8314 49.9676 36.1665 50.0007 36.4711 50.1268C36.7756 50.2529 37.0359 50.4666 37.219 50.7407C37.4022 51.0147 37.4999 51.337 37.4999 51.6666C37.4999 52.1086 37.3243 52.5326 37.0118 52.8451C36.6992 53.1577 36.2753 53.3333 35.8333 53.3333ZM49.1666 53.3333C48.837 53.3333 48.5147 53.2355 48.2406 53.0524C47.9666 52.8692 47.7529 52.6089 47.6268 52.3044C47.5006 51.9999 47.4676 51.6648 47.5319 51.3414C47.5963 51.0181 47.755 50.7212 47.9881 50.4881C48.2212 50.255 48.5181 50.0963 48.8414 50.032C49.1647 49.9676 49.4998 50.0007 49.8044 50.1268C50.1089 50.2529 50.3692 50.4666 50.5524 50.7407C50.7355 51.0147 50.8333 51.337 50.8333 51.6666C50.8333 52.1086 50.6577 52.5326 50.3451 52.8451C50.0325 53.1577 49.6086 53.3333 49.1666 53.3333Z" fill="#FFD700"/>
        </g>
    </symbol>

    <symbol viewBox="0 0 83 80" id="retailManufacturesIcon-2">
        <g xmlns="http://www.w3.org/2000/svg">
            <path fill-rule="evenodd" clip-rule="evenodd" d="M41.3172 77.6055C53.9182 77.5997 68.8291 84.2549 77.6022 75.2097C86.3613 66.179 79.4645 51.4897 78.8344 38.9247C78.259 27.4505 82.3019 14.1873 74.1369 6.10508C65.9847 -1.9645 52.5643 -0.465907 41.3172 1.78796C32.2558 3.60383 26.0017 10.5397 19.4555 17.063C12.8908 23.6047 6.28458 29.9306 4.04973 38.9247C1.01383 51.1426 -3.73595 66.1769 4.99893 75.243C13.7493 84.3252 28.7055 77.6112 41.3172 77.6055Z" fill="#1A70D0"/>
            <path d="M39.3334 35.0001H46.0001C46.4421 35.0001 46.866 34.8245 47.1786 34.5119C47.4912 34.1994 47.6668 33.7754 47.6668 33.3334C47.6668 32.8914 47.4912 32.4675 47.1786 32.1549C46.866 31.8423 46.4421 31.6667 46.0001 31.6667H42.6668V30.0001C42.6668 29.5581 42.4912 29.1341 42.1786 28.8216C41.866 28.509 41.4421 28.3334 41.0001 28.3334C40.5581 28.3334 40.1341 28.509 39.8216 28.8216C39.509 29.1341 39.3334 29.5581 39.3334 30.0001V31.6667C38.0073 31.6667 36.7356 32.1935 35.7979 33.1312C34.8602 34.0689 34.3334 35.3407 34.3334 36.6667C34.3334 37.9928 34.8602 39.2646 35.7979 40.2023C36.7356 41.14 38.0073 41.6667 39.3334 41.6667H42.6668C43.1088 41.6667 43.5327 41.8423 43.8453 42.1549C44.1578 42.4675 44.3334 42.8914 44.3334 43.3334C44.3334 43.7754 44.1578 44.1994 43.8453 44.5119C43.5327 44.8245 43.1088 45.0001 42.6668 45.0001H36.0001C35.5581 45.0001 35.1341 45.1757 34.8216 45.4882C34.509 45.8008 34.3334 46.2247 34.3334 46.6667C34.3334 47.1088 34.509 47.5327 34.8216 47.8453C35.1341 48.1578 35.5581 48.3334 36.0001 48.3334H39.3334V50.0001C39.3334 50.4421 39.509 50.866 39.8216 51.1786C40.1341 51.4912 40.5581 51.6667 41.0001 51.6667C41.4421 51.6667 41.866 51.4912 42.1786 51.1786C42.4912 50.866 42.6668 50.4421 42.6668 50.0001V48.3334C43.9928 48.3334 45.2646 47.8066 46.2023 46.8689C47.14 45.9313 47.6668 44.6595 47.6668 43.3334C47.6668 42.0073 47.14 40.7356 46.2023 39.7979C45.2646 38.8602 43.9928 38.3334 42.6668 38.3334H39.3334C38.8914 38.3334 38.4675 38.1578 38.1549 37.8453C37.8424 37.5327 37.6668 37.1088 37.6668 36.6667C37.6668 36.2247 37.8424 35.8008 38.1549 35.4882C38.4675 35.1757 38.8914 35.0001 39.3334 35.0001ZM41.0001 21.6667C37.3741 21.6667 33.8295 22.742 30.8146 24.7565C27.7997 26.771 25.4499 29.6342 24.0623 32.9842C22.6747 36.3342 22.3116 40.0204 23.019 43.5767C23.7264 47.1331 25.4725 50.3997 28.0365 52.9637C30.6004 55.5277 33.8671 57.2737 37.4234 57.9811C40.9798 58.6885 44.666 58.3255 48.016 56.9379C51.3659 55.5503 54.2292 53.2004 56.2437 50.1855C58.2582 47.1706 59.3334 43.6261 59.3334 40.0001C59.3334 35.1378 57.4019 30.4746 53.9637 27.0365C50.5256 23.5983 45.8624 21.6667 41.0001 21.6667ZM41.0001 55.0001C38.0334 55.0001 35.1333 54.1203 32.6665 52.4721C30.1998 50.8239 28.2772 48.4812 27.1419 45.7403C26.0066 42.9994 25.7095 39.9834 26.2883 37.0737C26.8671 34.164 28.2957 31.4913 30.3935 29.3935C32.4913 27.2957 35.164 25.8671 38.0737 25.2883C40.9835 24.7095 43.9995 25.0066 46.7403 26.1419C49.4812 27.2772 51.8239 29.1998 53.4721 31.6665C55.1204 34.1333 56.0001 37.0334 56.0001 40.0001C56.0001 43.9783 54.4197 47.7936 51.6067 50.6067C48.7936 53.4197 44.9783 55.0001 41.0001 55.0001Z" fill="#FFD700"/>
        </g>
    </symbol>

    <symbol viewBox="0 0 87 80" id="retailManufacturesIcon-3">
        <g xmlns="http://www.w3.org/2000/svg">
            <path fill-rule="evenodd" clip-rule="evenodd" d="M40.4761 0.00770041C48.5179 -0.289627 53.7547 8.09249 60.3287 13.1584C69.443 20.1817 83.5255 22.8818 85.6715 34.8347C87.9 47.2467 78.5572 58.5443 70.0102 67.0818C61.8775 75.2053 51.4956 79.6994 40.4761 79.9797C29.1669 80.2674 17.3558 77.5424 9.53289 68.6204C1.8342 59.8401 -1.81124 46.6261 0.892382 34.8347C3.25247 24.5414 14.3569 21.2361 21.924 14.5783C28.0903 9.15302 32.5616 0.300323 40.4761 0.00770041Z" fill="#1A70D0"/>
            <path d="M46.3334 35.0001H39.6667C39.2247 35.0001 38.8008 35.1757 38.4882 35.4882C38.1757 35.8008 38.0001 36.2247 38.0001 36.6667V56.6667C38.0001 57.1088 38.1757 57.5327 38.4882 57.8453C38.8008 58.1578 39.2247 58.3334 39.6667 58.3334H46.3334C46.7754 58.3334 47.1994 58.1578 47.5119 57.8453C47.8245 57.5327 48.0001 57.1088 48.0001 56.6667V36.6667C48.0001 36.2247 47.8245 35.8008 47.5119 35.4882C47.1994 35.1757 46.7754 35.0001 46.3334 35.0001ZM44.6667 55.0001H41.3334V38.3334H44.6667V55.0001ZM59.6667 21.6667H53.0001C52.5581 21.6667 52.1341 21.8423 51.8216 22.1549C51.509 22.4675 51.3334 22.8914 51.3334 23.3334V56.6667C51.3334 57.1088 51.509 57.5327 51.8216 57.8453C52.1341 58.1578 52.5581 58.3334 53.0001 58.3334H59.6667C60.1088 58.3334 60.5327 58.1578 60.8453 57.8453C61.1578 57.5327 61.3334 57.1088 61.3334 56.6667V23.3334C61.3334 22.8914 61.1578 22.4675 60.8453 22.1549C60.5327 21.8423 60.1088 21.6667 59.6667 21.6667ZM58.0001 55.0001H54.6667V25.0001H58.0001V55.0001ZM33.0001 45.0001H26.3334C25.8914 45.0001 25.4675 45.1757 25.1549 45.4882C24.8423 45.8008 24.6667 46.2247 24.6667 46.6667V56.6667C24.6667 57.1088 24.8423 57.5327 25.1549 57.8453C25.4675 58.1578 25.8914 58.3334 26.3334 58.3334H33.0001C33.4421 58.3334 33.866 58.1578 34.1786 57.8453C34.4912 57.5327 34.6667 57.1088 34.6667 56.6667V46.6667C34.6667 46.2247 34.4912 45.8008 34.1786 45.4882C33.866 45.1757 33.4421 45.0001 33.0001 45.0001ZM31.3334 55.0001H28.0001V48.3334H31.3334V55.0001Z" fill="#FFD700"/>
        </g>
    </symbol>

    <symbol viewBox="0 0 80 80" id="retailManufacturesIcon-4">
        <g xmlns="http://www.w3.org/2000/svg">
            <path fill-rule="evenodd" clip-rule="evenodd" d="M45.435 78.538C34.5923 79.7865 22.7167 82.1857 14.0843 75.507C4.77322 68.3032 0.295606 55.9079 0.995839 44.1563C1.6638 32.9462 9.63101 24.2337 17.6103 16.3316C25.5359 8.48283 34.3779 -1.32138 45.435 0.147426C56.13 1.56812 60.1933 14.277 66.7342 22.8571C71.8962 29.6283 78.3272 35.6673 78.9848 44.1563C79.6899 53.2582 76.6872 62.4988 70.3114 69.0327C63.8666 75.6373 54.6025 77.4824 45.435 78.538Z" fill="#1A70D0"/>
            <path d="M51.6666 30H46.6666V28.3333C46.6666 27.4493 46.3154 26.6014 45.6903 25.9763C45.0652 25.3512 44.2173 25 43.3333 25H36.6666C35.7825 25 34.9347 25.3512 34.3096 25.9763C33.6844 26.6014 33.3333 27.4493 33.3333 28.3333V30H28.3333C27.0072 30 25.7354 30.5268 24.7977 31.4645C23.86 32.4021 23.3333 33.6739 23.3333 35V50C23.3333 51.3261 23.86 52.5979 24.7977 53.5355C25.7354 54.4732 27.0072 55 28.3333 55H51.6666C52.9927 55 54.2644 54.4732 55.2021 53.5355C56.1398 52.5979 56.6666 51.3261 56.6666 50V35C56.6666 33.6739 56.1398 32.4021 55.2021 31.4645C54.2644 30.5268 52.9927 30 51.6666 30ZM36.6666 28.3333H43.3333V30H36.6666V28.3333ZM53.3333 50C53.3333 50.442 53.1577 50.866 52.8451 51.1785C52.5325 51.4911 52.1086 51.6667 51.6666 51.6667H28.3333C27.8912 51.6667 27.4673 51.4911 27.1547 51.1785C26.8422 50.866 26.6666 50.442 26.6666 50V41.6667H33.3333V43.3333C33.3333 43.7754 33.5088 44.1993 33.8214 44.5118C34.134 44.8244 34.5579 45 34.9999 45C35.4419 45 35.8659 44.8244 36.1784 44.5118C36.491 44.1993 36.6666 43.7754 36.6666 43.3333V41.6667H43.3333V43.3333C43.3333 43.7754 43.5088 44.1993 43.8214 44.5118C44.134 44.8244 44.5579 45 44.9999 45C45.4419 45 45.8659 44.8244 46.1784 44.5118C46.491 44.1993 46.6666 43.7754 46.6666 43.3333V41.6667H53.3333V50ZM53.3333 38.3333H26.6666V35C26.6666 34.558 26.8422 34.134 27.1547 33.8215C27.4673 33.5089 27.8912 33.3333 28.3333 33.3333H51.6666C52.1086 33.3333 52.5325 33.5089 52.8451 33.8215C53.1577 34.134 53.3333 34.558 53.3333 35V38.3333Z" fill="#FFD700"/>
        </g>
    </symbol>

    <symbol viewBox="0 0 160 150" id="conditions-1">
        <g xmlns="http://www.w3.org/2000/svg">
            <path fill-rule="evenodd" clip-rule="evenodd" d="M79.8724 0.508823C99.2717 2.16276 116.069 12.0241 130.262 25.338C145.041 39.2021 159.784 55.4211 159.998 75.6726C160.212 96.0614 146.434 113.359 131.334 127.078C117.045 140.061 99.0986 146.621 79.8724 148.473C58.0356 150.576 33.6275 152.827 17.4291 138.048C0.84716 122.919 -0.406477 98.1004 0.0802104 75.6726C0.553687 53.8535 4.18372 30.9171 20.0788 15.944C35.6483 1.27767 58.5494 -1.30912 79.8724 0.508823Z" fill="#0057B8"/>
            <path d="M111.067 66.8334L104.767 64.7334L107.733 58.8001C108.034 58.179 108.135 57.48 108.021 56.7993C107.908 56.1187 107.586 55.49 107.1 55.0001L100 47.9001C99.5075 47.407 98.8728 47.0808 98.1852 46.9672C97.4976 46.8536 96.7917 46.9583 96.1668 47.2668L90.2334 50.2334L88.1334 43.9334C87.9116 43.2767 87.4907 42.7055 86.9291 42.2993C86.3675 41.893 85.6932 41.6719 85.0001 41.6668H75.0001C74.3013 41.665 73.6196 41.8828 73.0513 42.2896C72.4831 42.6963 72.057 43.2714 71.8334 43.9334L69.7334 50.2334L63.8001 47.2668C63.179 46.966 62.48 46.8654 61.7993 46.9789C61.1187 47.0923 60.49 47.4142 60.0001 47.9001L52.9001 55.0001C52.407 55.4926 52.0808 56.1273 51.9672 56.8149C51.8536 57.5025 51.9583 58.2085 52.2668 58.8334L55.2334 64.7668L48.9334 66.8668C48.2767 67.0885 47.7055 67.5095 47.2993 68.0711C46.893 68.6327 46.6719 69.307 46.6668 70.0001V80.0001C46.665 80.6989 46.8828 81.3806 47.2896 81.9489C47.6963 82.5171 48.2714 82.9431 48.9334 83.1668L55.2334 85.2668L52.2668 91.2001C51.966 91.8211 51.8654 92.5202 51.9789 93.2009C52.0923 93.8815 52.4142 94.5102 52.9001 95.0001L60.0001 102.1C60.4926 102.593 61.1273 102.919 61.8149 103.033C62.5025 103.147 63.2085 103.042 63.8334 102.733L69.7668 99.7668L71.8668 106.067C72.0904 106.729 72.5164 107.304 73.0847 107.711C73.6529 108.117 74.3346 108.335 75.0334 108.333H85.0334C85.7322 108.335 86.4139 108.117 86.9822 107.711C87.5504 107.304 87.9765 106.729 88.2001 106.067L90.3001 99.7668L96.2334 102.733C96.8505 103.027 97.5428 103.123 98.2165 103.01C98.8902 102.896 99.5128 102.579 100 102.1L107.1 95.0001C107.593 94.5075 107.919 93.8728 108.033 93.1852C108.147 92.4976 108.042 91.7917 107.733 91.1668L104.767 85.2334L111.067 83.1334C111.723 82.9116 112.295 82.4907 112.701 81.9291C113.107 81.3675 113.328 80.6932 113.333 80.0001V70.0001C113.335 69.3013 113.117 68.6196 112.711 68.0513C112.304 67.4831 111.729 67.057 111.067 66.8334ZM106.667 77.6001L102.667 78.9334C101.747 79.2318 100.903 79.7267 100.194 80.3838C99.4842 81.0409 98.9262 81.8444 98.5583 82.7387C98.1904 83.633 98.0215 84.5966 98.0633 85.5627C98.105 86.5288 98.3564 87.4742 98.8001 88.3334L100.7 92.1334L97.0334 95.8001L93.3334 93.8001C92.4786 93.3742 91.5423 93.137 90.5878 93.1044C89.6333 93.0719 88.683 93.2448 87.8012 93.6114C86.9193 93.9781 86.1265 94.5299 85.4765 95.2295C84.8265 95.9292 84.3343 96.7604 84.0334 97.6668L82.7001 101.667H77.4001L76.0668 97.6668C75.7684 96.7469 75.2735 95.9031 74.6164 95.1936C73.9593 94.4842 73.1558 93.9262 72.2615 93.5583C71.3672 93.1904 70.4036 93.0215 69.4375 93.0633C68.4714 93.105 67.526 93.3564 66.6668 93.8001L62.8668 95.7001L59.2001 92.0334L61.2001 88.3334C61.6437 87.4742 61.8952 86.5288 61.9369 85.5627C61.9787 84.5966 61.8098 83.633 61.4419 82.7387C61.074 81.8444 60.516 81.0409 59.8066 80.3838C59.0971 79.7267 58.2532 79.2318 57.3334 78.9334L53.3334 77.6001V72.4001L57.3334 71.0668C58.2532 70.7684 59.0971 70.2735 59.8066 69.6164C60.516 68.9593 61.074 68.1558 61.4419 67.2615C61.8098 66.3672 61.9787 65.4036 61.9369 64.4375C61.8952 63.4714 61.6437 62.526 61.2001 61.6668L59.3001 57.9668L62.9668 54.3001L66.6668 56.2001C67.526 56.6437 68.4714 56.8952 69.4375 56.9369C70.4036 56.9787 71.3672 56.8098 72.2615 56.4419C73.1558 56.074 73.9593 55.516 74.6164 54.8066C75.2735 54.0971 75.7684 53.2532 76.0668 52.3334L77.4001 48.3334H82.6001L83.9334 52.3334C84.2318 53.2532 84.7267 54.0971 85.3838 54.8066C86.0409 55.516 86.8444 56.074 87.7387 56.4419C88.633 56.8098 89.5966 56.9787 90.5627 56.9369C91.5288 56.8952 92.4742 56.6437 93.3334 56.2001L97.1334 54.3001L100.8 57.9668L98.8001 61.6668C98.3742 62.5216 98.137 63.4579 98.1044 64.4124C98.0719 65.3669 98.2448 66.3172 98.6114 67.199C98.9781 68.0809 99.5299 68.8737 100.23 69.5237C100.929 70.1737 101.76 70.6659 102.667 70.9668L106.667 72.3001V77.6001ZM80.0001 61.6668C77.363 61.6668 74.7851 62.4487 72.5925 63.9138C70.3998 65.3789 68.6909 67.4613 67.6817 69.8976C66.6725 72.334 66.4085 75.0149 66.923 77.6013C67.4374 80.1877 68.7073 82.5635 70.572 84.4282C72.4367 86.2929 74.8125 87.5628 77.3989 88.0772C79.9853 88.5917 82.6662 88.3277 85.1025 87.3185C87.5389 86.3093 89.6213 84.6003 91.0864 82.4077C92.5514 80.215 93.3334 77.6372 93.3334 75.0001C93.3334 71.4639 91.9287 68.0725 89.4282 65.572C86.9277 63.0715 83.5363 61.6668 80.0001 61.6668ZM80.0001 81.6668C78.6815 81.6668 77.3926 81.2758 76.2963 80.5432C75.2 79.8107 74.3455 78.7695 73.8409 77.5513C73.3363 76.3331 73.2043 74.9927 73.4615 73.6995C73.7188 72.4063 74.3537 71.2184 75.286 70.286C76.2184 69.3537 77.4063 68.7188 78.6995 68.4615C79.9927 68.2043 81.3331 68.3363 82.5513 68.8409C83.7695 69.3455 84.8107 70.2 85.5432 71.2963C86.2758 72.3926 86.6668 73.6815 86.6668 75.0001C86.6668 76.7682 85.9644 78.4639 84.7141 79.7141C83.4639 80.9644 81.7682 81.6668 80.0001 81.6668Z" fill="#FFD700"/>
        </g>
    </symbol>

    <symbol viewBox="0 0 160 150" id="conditions-2">
        <g xmlns="http://www.w3.org/2000/svg">
            <path fill-rule="evenodd" clip-rule="evenodd" d="M72.518 0.172994C94.5553 -0.0803451 118.133 -1.59008 134.877 12.233C152.578 26.845 159.983 49.9165 160 72.3905C160.017 94.8813 152.136 117.419 134.968 132.635C118.389 147.33 95.0223 150.56 72.518 149.926C50.8028 149.313 28.103 144.83 13.6169 129.212C-0.321505 114.185 0.948535 92.5526 0.601407 72.3905C0.245309 51.7074 -3.22818 28.5675 11.6272 13.6499C26.6247 -1.41037 50.8713 0.421841 72.518 0.172994Z" fill="#FFD700"/>
            <path d="M103.333 55H93.3334V51.6667C93.3334 49.8986 92.631 48.2029 91.3808 46.9527C90.1305 45.7024 88.4348 45 86.6667 45H73.3334C72.6418 44.997 71.9545 45.1096 71.3 45.3334C70.8806 45.4691 70.4922 45.6867 70.1574 45.9736C69.8226 46.2605 69.5481 46.611 69.3496 47.0047C69.1512 47.3984 69.0329 47.8276 69.0015 48.2674C68.9701 48.7072 69.0263 49.1488 69.1667 49.5667C69.4483 50.3923 70.0424 51.0747 70.8214 51.4673C71.6003 51.8599 72.5022 51.9315 73.3334 51.6667H86.6667V55H82.2C81.316 55 80.4681 55.3512 79.843 55.9764C79.2179 56.6015 78.8667 57.4493 78.8667 58.3334C78.8667 59.2174 79.2179 60.0653 79.843 60.6904C80.4681 61.3155 81.316 61.6667 82.2 61.6667H103.333C104.217 61.6667 105.065 62.0179 105.69 62.643C106.316 63.2681 106.667 64.116 106.667 65V69.2667L98.1 72.1334C97.6836 72.2725 97.2987 72.4926 96.9675 72.781C96.6363 73.0693 96.3654 73.4202 96.1703 73.8136C95.9751 74.207 95.8596 74.635 95.8304 75.0732C95.8012 75.5113 95.8589 75.9509 96 76.3667C96.2237 77.0288 96.6497 77.6038 97.2179 78.0106C97.7862 78.4173 98.4679 78.6352 99.1667 78.6334C99.5282 78.6267 99.8871 78.5706 100.233 78.4667L106.667 76.3V86.1334C106.667 87.0174 107.018 87.8653 107.643 88.4904C108.268 89.1155 109.116 89.4667 110 89.4667C110.884 89.4667 111.732 89.1155 112.357 88.4904C112.982 87.8653 113.333 87.0174 113.333 86.1334V65C113.333 62.3479 112.28 59.8043 110.404 57.929C108.529 56.0536 105.986 55 103.333 55ZM52.3667 42.6334C52.0559 42.3226 51.687 42.0761 51.2809 41.9078C50.8748 41.7396 50.4396 41.6531 50 41.6531C49.5605 41.6531 49.1253 41.7396 48.7192 41.9078C48.3131 42.0761 47.9442 42.3226 47.6334 42.6334C47.0057 43.2611 46.6531 44.1124 46.6531 45C46.6531 45.8877 47.0057 46.739 47.6334 47.3667L55.4 55C52.973 55.3099 50.7438 56.4988 49.1344 58.3416C47.525 60.1845 46.647 62.5534 46.6667 65V95C46.6667 97.6522 47.7203 100.196 49.5956 102.071C51.471 103.946 54.0146 105 56.6667 105H103.333C103.927 104.985 104.518 104.918 105.1 104.8L107.633 107.367C107.943 107.679 108.312 107.927 108.718 108.096C109.124 108.266 109.56 108.353 110 108.353C110.44 108.353 110.876 108.266 111.282 108.096C111.688 107.927 112.057 107.679 112.367 107.367C112.679 107.057 112.927 106.688 113.096 106.282C113.266 105.876 113.353 105.44 113.353 105C113.353 104.56 113.266 104.124 113.096 103.718C112.927 103.312 112.679 102.943 112.367 102.633L52.3667 42.6334ZM53.3334 65C53.3334 64.116 53.6846 63.2681 54.3097 62.643C54.9348 62.0179 55.7827 61.6667 56.6667 61.6667H61.9667L75.3 75H70.5334L53.3334 69.2667V65ZM56.6667 98.3334C55.7827 98.3334 54.9348 97.9822 54.3097 97.3571C53.6846 96.7319 53.3334 95.8841 53.3334 95V76.3L68.9334 81.6667C69.2873 81.7147 69.6461 81.7147 70 81.6667H81.9667L98.6334 98.3334H56.6667Z" fill="#0057B8"/>
        </g>
    </symbol>

    <symbol viewBox="0 0 160 150" id="conditions-3">
        <g xmlns="http://www.w3.org/2000/svg">
            <path fill-rule="evenodd" clip-rule="evenodd" d="M87.3559 0.000246093C106.834 0.0628356 124.41 10.8834 137.934 25.4025C151.193 39.6367 158.843 58.0358 159.813 77.7889C160.841 98.7105 157.931 121.266 143.355 135.79C128.958 150.135 107.334 150.07 87.3559 149.988C67.4907 149.905 47.3275 148.165 31.8029 135.328C14.474 120.998 -0.926289 100.734 0.0434692 77.7889C0.991877 55.3493 20.0221 39.7237 36.4626 25.0765C51.2683 11.8858 67.8265 -0.0625076 87.3559 0.000246093Z" fill="#0057B8"/>
            <path d="M109.567 92.5L100.533 76.9C102.382 73.505 103.345 69.6989 103.333 65.8333C103.333 59.6449 100.875 53.71 96.4992 49.3342C92.1234 44.9583 86.1885 42.5 80.0001 42.5C73.8117 42.5 67.8768 44.9583 63.5009 49.3342C59.1251 53.71 56.6667 59.6449 56.6667 65.8333C56.6553 69.6989 57.6183 73.505 59.4667 76.9L50.4334 92.5C50.1403 93.0077 49.9862 93.5837 49.9868 94.17C49.9874 94.7562 50.1426 95.332 50.4367 95.8391C50.7308 96.3462 51.1535 96.7668 51.6621 97.0584C52.1707 97.35 52.7472 97.5023 53.3334 97.5H62.9001L67.7667 105.7C67.9308 105.972 68.1328 106.219 68.3667 106.433C68.9847 107.029 69.8085 107.363 70.6667 107.367H71.1334C71.6366 107.298 72.1175 107.115 72.5392 106.832C72.9609 106.549 73.3124 106.173 73.5667 105.733L80.0001 94.6667L86.4334 105.833C86.6915 106.267 87.0446 106.636 87.4661 106.913C87.8876 107.19 88.3665 107.368 88.8667 107.433H89.3334C90.2032 107.439 91.0405 107.104 91.6667 106.5C91.8909 106.298 92.0821 106.061 92.2334 105.8L97.1001 97.6H106.667C107.254 97.6023 107.832 97.4494 108.341 97.1567C108.85 96.8641 109.273 96.442 109.567 95.9333C109.878 95.4149 110.043 94.8215 110.043 94.2167C110.043 93.6119 109.878 93.0184 109.567 92.5ZM70.6334 97.6L67.6667 92.6333C67.3746 92.1406 66.9604 91.7314 66.4642 91.4453C65.9679 91.1592 65.4062 91.0058 64.8334 91H59.0667L63.8334 82.7333C67.1158 85.8963 71.2528 88.0285 75.7334 88.8667L70.6334 97.6ZM80.0001 82.5C76.7037 82.5 73.4814 81.5225 70.7406 79.6912C67.9998 77.8598 65.8635 75.2568 64.6021 72.2114C63.3406 69.166 63.0106 65.8148 63.6537 62.5818C64.2967 59.3488 65.8841 56.3791 68.215 54.0482C70.5458 51.7173 73.5156 50.13 76.7486 49.4869C79.9816 48.8438 83.3327 49.1739 86.3781 50.4353C89.4236 51.6968 92.0266 53.833 93.8579 56.5738C95.6893 59.3146 96.6667 62.537 96.6667 65.8333C96.6667 70.2536 94.9108 74.4928 91.7852 77.6184C88.6596 80.7441 84.4204 82.5 80.0001 82.5ZM95.1667 91C94.5939 91.0058 94.0323 91.1592 93.536 91.4453C93.0397 91.7314 92.6255 92.1406 92.3334 92.6333L89.3667 97.6L84.3001 88.7667C88.765 87.9113 92.8866 85.7811 96.1667 82.6333L100.933 90.9L95.1667 91Z" fill="#FFD700"/>
        </g>
    </symbol>

    <symbol viewBox="0 0 160 150" id="conditions-4">
        <g xmlns="http://www.w3.org/2000/svg">
            <path fill-rule="evenodd" clip-rule="evenodd" d="M81.4909 0.149145C102.574 1.62415 117.618 17.4702 131.964 31.8152C145.512 45.3633 158.335 60.0343 159.774 78.4286C161.314 98.1071 155.011 118.425 139.825 132.302C124.703 146.119 102.756 150.476 81.4909 149.96C60.8468 149.458 41.1145 142.681 26.1489 129.539C10.7821 116.044 0.668352 98.0033 0.0358598 78.4286C-0.615128 58.2816 7.62178 38.7074 22.7444 24.1743C38.171 9.34912 59.2909 -1.40396 81.4909 0.149145Z" fill="#FFD700"/>
            <path d="M78.3333 101.667H58.3333C57.4492 101.667 56.6014 101.315 55.9762 100.69C55.3511 100.065 54.9999 99.2172 54.9999 98.3332V51.6665C54.9999 50.7824 55.3511 49.9346 55.9762 49.3095C56.6014 48.6844 57.4492 48.3332 58.3333 48.3332H74.9999V58.3332C74.9999 60.9853 76.0535 63.5289 77.9289 65.4042C79.8042 67.2796 82.3478 68.3332 84.9999 68.3332H94.9999V84.9998C94.9999 85.8839 95.3511 86.7317 95.9762 87.3569C96.6013 87.982 97.4492 88.3332 98.3333 88.3332C99.2173 88.3332 100.065 87.982 100.69 87.3569C101.315 86.7317 101.667 85.8839 101.667 84.9998V64.9998C101.667 64.9998 101.667 64.9998 101.667 64.7998C101.632 64.4936 101.565 64.1919 101.467 63.8998V63.5998C101.306 63.2571 101.093 62.9421 100.833 62.6665L80.8333 42.6665C80.5577 42.4072 80.2427 42.1934 79.8999 42.0332C79.7896 42.0139 79.6769 42.0139 79.5666 42.0332C79.2425 41.8598 78.8941 41.7362 78.5333 41.6665H58.3333C55.6811 41.6665 53.1375 42.7201 51.2622 44.5954C49.3868 46.4708 48.3333 49.0143 48.3333 51.6665V98.3332C48.3333 100.985 49.3868 103.529 51.2622 105.404C53.1375 107.28 55.6811 108.333 58.3333 108.333H78.3333C79.2173 108.333 80.0652 107.982 80.6903 107.357C81.3154 106.732 81.6666 105.884 81.6666 105C81.6666 104.116 81.3154 103.268 80.6903 102.643C80.0652 102.018 79.2173 101.667 78.3333 101.667ZM81.6666 53.0332L90.2999 61.6665H84.9999C84.1159 61.6665 83.268 61.3153 82.6429 60.6902C82.0178 60.0651 81.6666 59.2172 81.6666 58.3332V53.0332ZM64.9999 81.6665H84.9999C85.884 81.6665 86.7318 81.3153 87.3569 80.6902C87.9821 80.0651 88.3333 79.2172 88.3333 78.3332C88.3333 77.4491 87.9821 76.6013 87.3569 75.9762C86.7318 75.351 85.884 74.9998 84.9999 74.9998H64.9999C64.1159 74.9998 63.268 75.351 62.6429 75.9762C62.0178 76.6013 61.6666 77.4491 61.6666 78.3332C61.6666 79.2172 62.0178 80.0651 62.6429 80.6902C63.268 81.3153 64.1159 81.6665 64.9999 81.6665ZM78.3333 88.3332H64.9999C64.1159 88.3332 63.268 88.6844 62.6429 89.3095C62.0178 89.9346 61.6666 90.7825 61.6666 91.6665C61.6666 92.5506 62.0178 93.3984 62.6429 94.0235C63.268 94.6487 64.1159 94.9998 64.9999 94.9998H78.3333C79.2173 94.9998 80.0652 94.6487 80.6903 94.0235C81.3154 93.3984 81.6666 92.5506 81.6666 91.6665C81.6666 90.7825 81.3154 89.9346 80.6903 89.3095C80.0652 88.6844 79.2173 88.3332 78.3333 88.3332ZM64.9999 68.3332H68.3333C69.2173 68.3332 70.0652 67.982 70.6903 67.3569C71.3154 66.7317 71.6666 65.8839 71.6666 64.9998C71.6666 64.1158 71.3154 63.2679 70.6903 62.6428C70.0652 62.0177 69.2173 61.6665 68.3333 61.6665H64.9999C64.1159 61.6665 63.268 62.0177 62.6429 62.6428C62.0178 63.2679 61.6666 64.1158 61.6666 64.9998C61.6666 65.8839 62.0178 66.7317 62.6429 67.3569C63.268 67.982 64.1159 68.3332 64.9999 68.3332ZM110.7 89.2998C110.39 88.9874 110.021 88.7394 109.615 88.5702C109.209 88.401 108.773 88.3138 108.333 88.3138C107.893 88.3138 107.458 88.401 107.051 88.5702C106.645 88.7394 106.276 88.9874 105.967 89.2998L94.9999 100.3L90.6999 95.9665C90.3891 95.6557 90.0202 95.4092 89.6141 95.241C89.208 95.0728 88.7728 94.9862 88.3333 94.9862C87.8937 94.9862 87.4585 95.0728 87.0524 95.241C86.6463 95.4092 86.2774 95.6557 85.9666 95.9665C85.6558 96.2773 85.4093 96.6463 85.2411 97.0523C85.0729 97.4584 84.9863 97.8936 84.9863 98.3332C84.9863 98.7727 85.0729 99.2079 85.2411 99.614C85.4093 100.02 85.6558 100.389 85.9666 100.7L92.6333 107.367C92.9431 107.679 93.3118 107.927 93.718 108.096C94.1242 108.265 94.5599 108.353 94.9999 108.353C95.44 108.353 95.8756 108.265 96.2818 108.096C96.688 107.927 97.0567 107.679 97.3666 107.367L110.7 94.0332C111.012 93.7233 111.26 93.3546 111.43 92.9484C111.599 92.5422 111.686 92.1065 111.686 91.6665C111.686 91.2265 111.599 90.7908 111.43 90.3846C111.26 89.9784 111.012 89.6097 110.7 89.2998Z" fill="#0057B8"/>
        </g>
    </symbol>

    <symbol viewBox="0 0 160 150" id="conditions-5">
        <g xmlns="http://www.w3.org/2000/svg">
            <path fill-rule="evenodd" clip-rule="evenodd" d="M83.6562 0.0121117C104.908 -0.177833 127.592 1.71361 142.678 16.645C157.803 31.6157 159.633 54.2619 159.938 75.5132C160.249 97.1796 159.978 120.996 144.393 136.092C128.935 151.066 105.162 150.757 83.6562 149.401C63.8293 148.151 45.0098 142.03 30.1408 128.889C14.2181 114.817 0.90234 96.7153 0.0523375 75.5132C-0.825251 53.6231 9.40061 32.3948 25.6828 17.6907C41.255 3.62768 62.65 0.199857 83.6562 0.0121117Z" fill="#0057B8"/>
            <path d="M108.3 60.0667C108.281 59.9788 108.281 59.8879 108.3 59.8C108.284 59.7231 108.284 59.6436 108.3 59.5667V59.2667L108.1 58.7667C108.019 58.6303 107.918 58.5067 107.8 58.4L107.5 58.1334H107.333L94.2 49.8334L81.8 42.1667C81.5131 41.9391 81.1848 41.7693 80.8333 41.6667H80.5667C80.2687 41.617 79.9646 41.617 79.6666 41.6667H79.3333C78.9461 41.7523 78.5749 41.8986 78.2333 42.1L53.3333 57.6L53.0333 57.8334L52.7333 58.1L52.4 58.3334L52.2333 58.5334L52.0333 59.0334V59.3334V59.5334C52.0009 59.7544 52.0009 59.979 52.0333 60.2V89.3C52.0322 89.8665 52.1754 90.4239 52.4496 90.9197C52.7237 91.4154 53.1196 91.8331 53.6 92.1334L78.6 107.6L79.1 107.8H79.3667C79.9306 107.979 80.536 107.979 81.1 107.8H81.3666L81.8667 107.6L106.667 92.3667C107.147 92.0665 107.543 91.6487 107.817 91.153C108.091 90.6573 108.234 90.0998 108.233 89.5334V60.4334C108.233 60.4334 108.3 60.2 108.3 60.0667ZM80 48.9L85.9333 52.5667L67.3 64.1L61.3333 60.4334L80 48.9ZM76.6667 98.9L58.3333 87.7V66.4L76.6667 77.7334V98.9ZM80 71.8667L73.6333 68.0334L92.2667 56.4667L98.6667 60.4334L80 71.8667ZM101.667 87.6L83.3333 99V77.7334L101.667 66.4V87.6Z" fill="#FFD700"/>
        </g>
    </symbol>

    <symbol viewBox="0 0 80 80" id="likeIcon">
        <g xmlns="http://www.w3.org/2000/svg">
            <path d="M71.5001 33.6C70.5635 32.4755 69.3914 31.5703 68.0667 30.9482C66.742 30.3262 65.2969 30.0025 63.8334 30H48.6334L50.5001 25.2333C51.2765 23.1463 51.5351 20.902 51.2536 18.6931C50.9722 16.4841 50.159 14.3764 48.884 12.5507C47.609 10.7251 45.9102 9.23597 43.9332 8.21113C41.9563 7.18629 39.7602 6.65631 37.5334 6.66665C36.8922 6.66799 36.265 6.85424 35.727 7.20306C35.189 7.55189 34.763 8.04849 34.5001 8.63332L25.0001 30H17.1667C14.5146 30 11.971 31.0536 10.0957 32.9289C8.22032 34.8043 7.16675 37.3478 7.16675 40V63.3333C7.16675 65.9855 8.22032 68.529 10.0957 70.4044C11.971 72.2797 14.5146 73.3333 17.1667 73.3333H59.6001C61.9394 73.3325 64.2045 72.5116 66.0012 71.0134C67.7978 69.5152 69.0123 67.4345 69.4334 65.1333L73.6668 41.8C73.9286 40.3579 73.8702 38.8759 73.4958 37.4589C73.1214 36.0419 72.4401 34.7245 71.5001 33.6ZM23.8334 66.6666H17.1667C16.2827 66.6666 15.4348 66.3155 14.8097 65.6903C14.1846 65.0652 13.8334 64.2174 13.8334 63.3333V40C13.8334 39.1159 14.1846 38.2681 14.8097 37.643C15.4348 37.0178 16.2827 36.6667 17.1667 36.6667H23.8334V66.6666ZM67.1668 40.6L62.9334 63.9333C62.7914 64.7098 62.3785 65.4108 61.768 65.9113C61.1576 66.4119 60.3894 66.6795 59.6001 66.6666H30.5001V34.0333L39.5667 13.6333C40.5 13.9054 41.3668 14.368 42.1123 14.9919C42.8578 15.6159 43.4658 16.3875 43.8981 17.2583C44.3303 18.129 44.5774 19.08 44.6236 20.051C44.6698 21.022 44.5143 21.9921 44.1668 22.9L42.4001 27.6667C42.0236 28.6742 41.8966 29.7578 42.0297 30.8251C42.1628 31.8924 42.5521 32.9116 43.1645 33.7958C43.7769 34.68 44.5941 35.4029 45.5464 35.9028C46.4987 36.4027 47.5579 36.6648 48.6334 36.6667H63.8334C64.3231 36.6659 64.807 36.773 65.2506 36.9804C65.6942 37.1878 66.0867 37.4904 66.4001 37.8667C66.7212 38.2377 66.9564 38.6751 67.0889 39.1476C67.2215 39.6201 67.248 40.116 67.1668 40.6Z" fill="#0057B8"/>
        </g>
    </symbol>

    <symbol viewBox="0 0 80 80" id="infoIcon">
        <g xmlns="http://www.w3.org/2000/svg">
            <path d="M40.5001 36.6665C39.616 36.6665 38.7682 37.0177 38.1431 37.6428C37.518 38.2679 37.1668 39.1158 37.1668 39.9998V53.3332C37.1668 54.2172 37.518 55.0651 38.1431 55.6902C38.7682 56.3153 39.616 56.6665 40.5001 56.6665C41.3842 56.6665 42.232 56.3153 42.8571 55.6902C43.4822 55.0651 43.8334 54.2172 43.8334 53.3332V39.9998C43.8334 39.1158 43.4822 38.2679 42.8571 37.6428C42.232 37.0177 41.3842 36.6665 40.5001 36.6665ZM41.7668 23.5998C40.9552 23.2664 40.045 23.2664 39.2334 23.5998C38.8243 23.7585 38.4504 23.9964 38.1334 24.2998C37.839 24.6238 37.6022 24.9959 37.4334 25.3998C37.2468 25.7954 37.1555 26.2292 37.1668 26.6665C37.1642 27.1052 37.2483 27.5401 37.4142 27.9462C37.5801 28.3523 37.8245 28.7217 38.1334 29.0332C38.4574 29.3276 38.8295 29.5644 39.2334 29.7332C39.7384 29.9406 40.2866 30.0209 40.8299 29.9669C41.3732 29.9129 41.8949 29.7262 42.3491 29.4234C42.8034 29.1206 43.1763 28.7108 43.4351 28.2301C43.6939 27.7494 43.8307 27.2124 43.8334 26.6665C43.8212 25.7839 43.4759 24.9386 42.8668 24.2998C42.5498 23.9964 42.1759 23.7585 41.7668 23.5998ZM40.5001 6.6665C33.9074 6.6665 27.4627 8.62147 21.9811 12.2842C16.4994 15.9469 12.227 21.1529 9.70411 27.2437C7.18119 33.3346 6.52108 40.0368 7.80725 46.5028C9.09343 52.9689 12.2681 58.9083 16.9299 63.5701C21.5916 68.2318 27.5311 71.4065 33.9971 72.6927C40.4631 73.9789 47.1653 73.3187 53.2562 70.7958C59.3471 68.2729 64.553 64.0005 68.2157 58.5188C71.8785 53.0372 73.8334 46.5925 73.8334 39.9998C73.8334 35.6224 72.9712 31.2879 71.2961 27.2437C69.6209 23.1995 67.1656 19.5249 64.0703 16.4296C60.975 13.3343 57.3004 10.879 53.2562 9.20385C49.212 7.5287 44.8775 6.6665 40.5001 6.6665ZM40.5001 66.6665C35.2259 66.6665 30.0702 65.1025 25.6849 62.1724C21.2996 59.2422 17.8816 55.0774 15.8633 50.2047C13.845 45.332 13.3169 39.9703 14.3458 34.7974C15.3748 29.6246 17.9145 24.8731 21.6439 21.1437C25.3733 17.4143 30.1249 14.8745 35.2977 13.8456C40.4705 12.8166 45.8323 13.3447 50.705 15.3631C55.5777 17.3814 59.7424 20.7993 62.6726 25.1846C65.6028 29.5699 67.1668 34.7257 67.1668 39.9998C67.1668 47.0723 64.3572 53.8551 59.3563 58.856C54.3553 63.857 47.5725 66.6665 40.5001 66.6665Z" fill="#0057B8"/>
        </g>
    </symbol>

    <symbol viewBox="0 0 80 80" id="shareIcon">
        <g xmlns="http://www.w3.org/2000/svg">
            <path d="M60.5 46.6669C58.5306 46.6799 56.5885 47.1291 54.8134 47.9821C53.0382 48.8351 51.4741 50.0707 50.2333 51.6002L33.2333 43.7669C34.0326 41.3194 34.0326 38.6811 33.2333 36.2336L50.2333 28.4002C52.2387 30.8201 55.0345 32.4538 58.1272 33.013C61.2199 33.5722 64.4107 33.021 67.1365 31.4566C69.8623 29.8922 71.9479 27.4151 73.0252 24.4627C74.1024 21.5102 74.1022 18.2722 73.0243 15.3199C71.9465 12.3677 69.8605 9.89103 67.1344 8.32711C64.4083 6.7632 61.2174 6.21253 58.1248 6.7723C55.0322 7.33207 52.2368 8.96628 50.2318 11.3865C48.2268 13.8068 47.1413 16.8575 47.1667 20.0002C47.1767 20.7943 47.2548 21.5861 47.4 22.3669L29.8 30.4669C27.9236 28.6322 25.5475 27.3919 22.9694 26.9016C20.3912 26.4114 17.7257 26.6928 15.3068 27.7107C12.8879 28.7285 10.8232 30.4376 9.37135 32.6238C7.91947 34.8099 7.14502 37.3759 7.14502 40.0002C7.14502 42.6246 7.91947 45.1905 9.37135 47.3767C10.8232 49.5628 12.8879 51.2719 15.3068 52.2898C17.7257 53.3077 20.3912 53.5891 22.9694 53.0988C25.5475 52.6085 27.9236 51.3683 29.8 49.5336L47.4 57.6336C47.2548 58.4143 47.1767 59.2061 47.1667 60.0002C47.1667 62.6373 47.9487 65.2152 49.4138 67.4078C50.8788 69.6005 52.9612 71.3095 55.3976 72.3186C57.8339 73.3278 60.5148 73.5918 63.1012 73.0774C65.6876 72.5629 68.0634 71.293 69.9281 69.4283C71.7928 67.5636 73.0627 65.1878 73.5772 62.6014C74.0916 60.015 73.8276 57.3341 72.8184 54.8978C71.8092 52.4614 70.1003 50.379 67.9076 48.914C65.715 47.4489 63.1371 46.6669 60.5 46.6669ZM60.5 13.3336C61.8186 13.3336 63.1075 13.7245 64.2038 14.4571C65.3001 15.1896 66.1546 16.2308 66.6592 17.449C67.1638 18.6672 67.2958 20.0076 67.0386 21.3008C66.7814 22.594 66.1464 23.7819 65.2141 24.7143C64.2817 25.6466 63.0938 26.2816 61.8006 26.5388C60.5074 26.796 59.167 26.664 57.9488 26.1594C56.7306 25.6548 55.6894 24.8004 54.9569 23.704C54.2243 22.6077 53.8334 21.3188 53.8334 20.0002C53.8334 18.2321 54.5357 16.5364 55.786 15.2862C57.0362 14.0359 58.7319 13.3336 60.5 13.3336ZM20.5 46.6669C19.1815 46.6669 17.8925 46.2759 16.7962 45.5434C15.6999 44.8108 14.8454 43.7696 14.3408 42.5514C13.8362 41.3333 13.7042 39.9928 13.9614 38.6996C14.2187 37.4064 14.8536 36.2185 15.786 35.2862C16.7183 34.3538 17.9062 33.7189 19.1994 33.4617C20.4926 33.2044 21.8331 33.3364 23.0512 33.841C24.2694 34.3456 25.3106 35.2001 26.0431 36.2964C26.7757 37.3927 27.1667 38.6817 27.1667 40.0002C27.1667 41.7683 26.4643 43.464 25.2141 44.7143C23.9638 45.9645 22.2681 46.6669 20.5 46.6669ZM60.5 66.6669C59.1815 66.6669 57.8925 66.2759 56.7962 65.5434C55.6999 64.8108 54.8454 63.7696 54.3408 62.5514C53.8362 61.3333 53.7042 59.9928 53.9614 58.6996C54.2187 57.4064 54.8536 56.2185 55.786 55.2862C56.7183 54.3538 57.9062 53.7189 59.1994 53.4617C60.4926 53.2044 61.8331 53.3364 63.0512 53.841C64.2694 54.3456 65.3106 55.2001 66.0431 56.2964C66.7757 57.3927 67.1667 58.6817 67.1667 60.0002C67.1667 61.7683 66.4643 63.464 65.2141 64.7143C63.9638 65.9645 62.2681 66.6669 60.5 66.6669Z" fill="#0057B8"/>
        </g>
    </symbol>

    <symbol viewBox="0 0 24 24" id="languageIcon">
        <g xmlns="http://www.w3.org/2000/svg">
            <path d="M21.4092 8.64013C21.4092 8.64013 21.4092 8.64013 21.4092 8.59013C20.7046 6.66635 19.4261 5.00541 17.7467 3.83199C16.0673 2.65857 14.068 2.0293 12.0192 2.0293C9.97047 2.0293 7.97115 2.65857 6.29173 3.83199C4.6123 5.00541 3.33382 6.66635 2.62922 8.59013C2.62922 8.59013 2.62922 8.59013 2.62922 8.64013C1.84234 10.811 1.84234 13.1892 2.62922 15.3601C2.62922 15.3601 2.62922 15.3601 2.62922 15.4101C3.33382 17.3339 4.6123 18.9948 6.29173 20.1683C7.97115 21.3417 9.97047 21.971 12.0192 21.971C14.068 21.971 16.0673 21.3417 17.7467 20.1683C19.4261 18.9948 20.7046 17.3339 21.4092 15.4101C21.4092 15.4101 21.4092 15.4101 21.4092 15.3601C22.1961 13.1892 22.1961 10.811 21.4092 8.64013V8.64013ZM4.25922 14.0001C3.91245 12.6893 3.91245 11.3109 4.25922 10.0001H6.11922C5.95925 11.3287 5.95925 12.6716 6.11922 14.0001H4.25922ZM5.07922 16.0001H6.47922C6.71394 16.892 7.04943 17.7542 7.47922 18.5701C6.49852 17.9021 5.67872 17.0242 5.07922 16.0001ZM6.47922 8.00013H5.07922C5.67009 6.97921 6.47941 6.10159 7.44922 5.43013C7.02977 6.24737 6.70436 7.10954 6.47922 8.00013V8.00013ZM10.9992 19.7001C9.77098 18.7988 8.90837 17.4854 8.56922 16.0001H10.9992V19.7001ZM10.9992 14.0001H8.13922C7.95261 12.6733 7.95261 11.3269 8.13922 10.0001H10.9992V14.0001ZM10.9992 8.00013H8.56922C8.90837 6.51489 9.77098 5.20144 10.9992 4.30013V8.00013ZM18.9192 8.00013H17.5192C17.2845 7.10828 16.949 6.24606 16.5192 5.43013C17.4999 6.0982 18.3197 6.97607 18.9192 8.00013ZM12.9992 4.30013C14.2275 5.20144 15.0901 6.51489 15.4292 8.00013H12.9992V4.30013ZM12.9992 19.7001V16.0001H15.4292C15.0901 17.4854 14.2275 18.7988 12.9992 19.7001V19.7001ZM15.8592 14.0001H12.9992V10.0001H15.8592C16.0458 11.3269 16.0458 12.6733 15.8592 14.0001ZM16.5492 18.5701C16.979 17.7542 17.3145 16.892 17.5492 16.0001H18.9492C18.3497 17.0242 17.5299 17.9021 16.5492 18.5701ZM19.7392 14.0001H17.8792C17.9605 13.3366 18.0006 12.6686 17.9992 12.0001C18.0003 11.3316 17.9602 10.6637 17.8792 10.0001H19.7392C20.086 11.3109 20.086 12.6893 19.7392 14.0001Z" />
        </g>
    </symbol>

    <symbol viewBox="0 0 24 24" id="shortArrow">
        <g xmlns="http://www.w3.org/2000/svg">
            <path d="M6.08 12.3801C6.12759 12.5028 6.19896 12.615 6.29 12.7101L11.29 17.7101C11.3832 17.8033 11.4939 17.8773 11.6158 17.9277C11.7376 17.9782 11.8681 18.0042 12 18.0042C12.2663 18.0042 12.5217 17.8984 12.71 17.7101C12.8032 17.6168 12.8772 17.5061 12.9277 17.3843C12.9781 17.2625 13.0041 17.1319 13.0041 17.0001C13.0041 16.7338 12.8983 16.4784 12.71 16.2901L9.41 13.0001L17 13.0001C17.2652 13.0001 17.5196 12.8947 17.7071 12.7072C17.8946 12.5196 18 12.2653 18 12.0001C18 11.7348 17.8946 11.4805 17.7071 11.293C17.5196 11.1054 17.2652 11.0001 17 11.0001L9.41 11.0001L12.71 7.71006C12.8037 7.6171 12.8781 7.5065 12.9289 7.38464C12.9797 7.26278 13.0058 7.13207 13.0058 7.00006C13.0058 6.86805 12.9797 6.73734 12.9289 6.61548C12.8781 6.49362 12.8037 6.38302 12.71 6.29006C12.617 6.19633 12.5064 6.12194 12.3846 6.07117C12.2627 6.0204 12.132 5.99426 12 5.99426C11.868 5.99426 11.7373 6.0204 11.6154 6.07117C11.4936 6.12194 11.383 6.19633 11.29 6.29006L6.29 11.2901C6.19896 11.3852 6.12759 11.4973 6.08 11.6201C5.97998 11.8635 5.97998 12.1366 6.08 12.3801Z" />
        </g>
    </symbol>

    <symbol viewBox="0 0 24 24" id="closeIcon">
        <g xmlns="http://www.w3.org/2000/svg">
            <path d="M19 6.41L17.59 5L12 10.59L6.41 5L5 6.41L10.59 12L5 17.59L6.41 19L12 13.41L17.59 19L19 17.59L13.41 12L19 6.41Z" fill="#C4C4C4"/>
        </g>
    </symbol>
</svg>