<?xml version="1.0" encoding="utf-8"?>
<svg xmlns="http://www.w3.org/2000/svg" xmlns:xlink="http://www.w3.org/1999/xlink">

    <symbol viewBox="0 0 10 6" id="arrow">
        <g fill="transparent" xmlns="http://www.w3.org/2000/svg">
            <path d="M1 1L5 5L9 1" />
        </g>
    </symbol>

    <symbol viewBox="0 0 81 80" id="factoryIcon">
        <g clip-path="url(#clip0_481_660)">
            <path d="M55.339 17.233V11.4266C55.339 10.376 56.1907 9.52439 57.2412 9.52439H68.8597C69.9102 9.52439 70.7618 10.376 70.7618 11.4266V17.233C70.7618 17.9761 70.3358 18.6196 69.7147 18.9326V31.5428C69.7147 32.5933 68.8631 33.445 67.8125 33.445C66.762 33.445 65.9103 32.5933 65.9103 31.5428V17.233C65.9103 16.4899 66.3364 15.8464 66.9575 15.5333V13.3288H59.1434V15.5333C59.7644 15.8464 60.1904 16.4899 60.1904 17.2328V28.8215C60.1904 29.8721 59.3387 30.7237 58.2882 30.7237C57.2376 30.7237 56.386 29.8721 56.386 28.8215V18.9325C55.7649 18.6194 55.339 17.9759 55.339 17.233V17.233ZM60.155 5.96438C61.0049 6.58232 62.1944 6.39464 62.8123 5.54499C64.0092 3.89932 64.8699 4.07142 67.748 5.45622C69.8247 6.45551 72.2227 7.60987 74.8469 7.60969C76.3623 7.60969 77.9534 7.22454 79.6005 6.20206C80.4931 5.64807 80.7678 4.47541 80.2138 3.58283C79.6598 2.69007 78.4869 2.41561 77.5945 2.9696C75.0007 4.57922 72.79 3.66037 69.3977 2.02792C67.9908 1.3511 66.5361 0.651095 64.9286 0.56468C62.8862 0.454715 61.1391 1.37755 59.7355 3.3071C59.1177 4.15675 59.3056 5.34644 60.155 5.96438ZM80.4995 78.0975C80.4995 79.148 79.6478 79.9997 78.5973 79.9997H2.4022C1.35164 79.9997 0.5 79.148 0.5 78.0975C0.5 77.0469 1.35164 76.1953 2.4022 76.1953H5.26219V44.725C5.26219 43.6744 6.11383 42.8228 7.16439 42.8228H11.5896L12.7699 32.4498H11.3945C10.344 32.4498 9.49231 31.5982 9.49231 30.5476C9.49231 29.4971 10.344 28.6454 11.3945 28.6454H13.2027L13.9107 22.4238H7.20841C7.08449 22.4269 6.95768 22.4173 6.83177 22.3948C6.61058 22.3559 6.40242 22.2785 6.21456 22.1702C5.96709 22.028 5.4073 21.5137 5.29118 20.8553C5.25313 20.639 5.25078 20.4142 5.29082 20.1903C5.31274 20.0656 5.34679 19.9452 5.39172 19.8303L9.00843 9.88707C9.04865 9.76769 9.11477 9.6608 9.16242 9.54631C9.49865 8.73814 10.0139 8.67021 10.4775 8.62275C10.6025 8.60988 10.7278 8.59068 10.8556 8.59358H15.484L16.2697 1.68716C16.3792 0.726095 17.1924 0 18.1598 0H23.1137C24.0811 0 24.8943 0.726095 25.0037 1.68716L25.7894 8.59358H30.4174C30.546 8.59032 30.6733 8.60137 30.7984 8.62329C31.521 8.74956 31.9004 9.10065 32.1091 9.54359C32.1625 9.657 32.2243 9.76714 32.2649 9.88762L35.8812 19.8307C35.9256 19.9444 35.9595 20.0635 35.9812 20.1868C36.022 20.4124 36.0131 20.6376 35.9814 20.8564C35.9178 21.2952 35.6234 21.8463 35.0638 22.1673C34.8714 22.2776 34.6591 22.3579 34.4326 22.3966C34.3096 22.418 34.1864 22.4274 34.0651 22.4242H27.3628L28.0706 28.6458H29.8786C30.9291 28.6458 31.7808 29.4974 31.7808 30.548C31.7808 31.5986 30.9291 32.4502 29.8786 32.4502H28.5034L29.6835 42.8231H37.337V30.2531C37.337 29.6561 37.6171 29.094 38.0937 28.7344C38.5702 28.375 39.1876 28.2599 39.7619 28.4241L73.0972 37.9484C73.9139 38.1818 74.4769 38.9282 74.4769 39.7775V76.1956H78.5973C79.6478 76.1953 80.4995 77.0469 80.4995 78.0975V78.0975ZM19.3129 8.59358H21.9604L21.4156 3.80439H19.8578L19.3129 8.59358ZM18.1721 18.6194H23.101L22.3932 12.3978H18.8801L18.1721 18.6194ZM17.0315 28.6454H24.2418L23.534 22.4238H17.7393L17.0315 28.6454ZM14.3433 18.6194L15.0511 12.3978H12.1434L9.88036 18.6194H14.3433ZM15.9319 46.6272H13.3152C13.2983 46.6274 13.2815 46.6274 13.2646 46.6272H9.06658V76.1953H15.9319V46.6272ZM17.8341 42.8228H25.8548L24.6747 32.4498H16.5986L15.4183 42.8228H17.8341V42.8228ZM26.6679 46.6272H19.7363V76.1953H26.6679V46.6272ZM26.93 18.6194H31.3927L29.1299 12.3978H26.2222L26.93 18.6194V18.6194ZM37.3372 46.6272H30.4723V76.1953H37.3372V46.6272ZM70.6725 41.2119L41.1416 32.7745V76.1953H70.6725V41.2119ZM47.2888 65.7129H64.525C65.5756 65.7129 66.4272 64.8613 66.4272 63.8107C66.4272 62.7601 65.5756 61.9085 64.525 61.9085H47.2888C46.2382 61.9085 45.3866 62.7601 45.3866 63.8107C45.3866 64.8613 46.2384 65.7129 47.2888 65.7129ZM47.2888 56.1887H64.525C65.5756 56.1887 66.4272 55.3371 66.4272 54.2865C66.4272 53.2359 65.5756 52.3843 64.525 52.3843H47.2888C46.2382 52.3843 45.3866 53.2359 45.3866 54.2865C45.3866 55.3371 46.2384 56.1887 47.2888 56.1887Z" fill="#0057B8"/>
        </g>
        <defs>
            <clipPath id="clip0_481_660">
            <rect width="80" height="80" fill="white" transform="translate(0.5)"/>
            </clipPath>
        </defs>
    </symbol>

    <symbol viewBox="0 0 81 80" id="rocketIcon">
        <g clip-path="url(#clip0_39_448)">
            <path d="M42.4783 38.0236C41.8673 37.4126 40.8783 37.4126 40.2673 38.0236C39.658 38.6329 39.658 39.622 40.2673 40.2329C40.8783 40.8423 41.8673 40.8423 42.4783 40.2329C43.0876 39.622 43.0876 38.6329 42.4783 38.0236Z" fill="#0057B8"/>
            <path d="M62.3645 18.1359C59.3114 15.0829 54.3689 15.0828 51.3156 18.1359C48.2705 21.1811 48.2703 26.1373 51.3161 29.185C54.3623 32.2293 59.3186 32.2306 62.3645 29.1846C65.4173 26.1318 65.4179 21.1892 62.3645 18.1359ZM60.1548 26.9748C58.3278 28.802 55.3537 28.802 53.5258 26.9751C51.6984 25.1467 51.6983 22.1726 53.5254 20.3456C55.3572 18.5139 58.3228 18.5136 60.1548 20.3456C61.9865 22.1772 61.9868 25.1429 60.1548 26.9748Z" fill="#0057B8"/>
            <path d="M80.0422 0.457671C79.7353 0.150953 79.3166 -0.0152972 78.8813 0.00110906C78.528 0.0137653 70.1163 0.35189 60.1171 3.8861C52.1046 6.71516 45.426 10.7656 40.2668 15.925C39.1107 17.0811 37.9857 18.307 36.9093 19.5806C31.8081 16.5778 27.7203 17.5194 25.136 18.9023C19.1859 22.0867 15.5029 30.7329 15.5029 36.9173C15.5034 37.5492 15.8842 38.119 16.4679 38.3607C16.6612 38.4409 16.8643 38.4798 17.0656 38.4798C17.4723 38.4798 17.8718 38.3209 18.1707 38.0221C21.3087 34.8842 25.1792 35.0804 26.4435 35.2467L26.9907 35.7938C25.9138 38.3563 25.0464 40.9045 24.4101 43.3827C24.1804 44.2796 24.2579 45.2287 24.5993 46.0968C23.0949 46.7901 21.6435 47.808 20.3798 49.0718C16.3578 53.094 15.5411 62.8961 15.5082 63.3115C15.4723 63.7672 15.6376 64.216 15.9609 64.5393C16.2551 64.8333 16.6531 64.9969 17.0656 64.9969C17.1065 64.9969 17.1476 64.9954 17.1887 64.9921C17.604 64.9594 27.4065 64.1427 31.4285 60.1207C32.6918 58.8574 33.7096 57.4062 34.4029 55.9021C35.322 56.2635 36.2679 56.308 37.1185 56.0901C39.5957 55.454 42.1435 54.5868 44.7063 53.5098L45.2535 54.0569C45.4196 55.3215 45.6158 59.1919 42.478 62.3296C42.0313 62.7765 41.8976 63.4485 42.1394 64.0322C42.3812 64.6161 42.9508 64.9968 43.5829 64.9968C49.7672 64.9968 58.4133 61.3138 61.5977 55.3637C62.9807 52.7798 63.9222 48.692 60.9194 43.5906C62.1924 42.5146 63.4185 41.3896 64.575 40.2331C69.7344 35.0737 73.7847 28.3951 76.6138 20.3833C80.1481 10.3836 80.4861 1.97173 80.4987 1.61861C80.5144 1.18501 80.3489 0.764545 80.0422 0.457671ZM18.9964 33.5565C19.967 28.8592 22.7862 23.7047 26.6112 21.6575C29.1673 20.2897 31.9612 20.4237 34.9318 22.0498C32.401 25.3782 30.2009 28.9642 28.367 32.7509C28.3437 32.7365 28.0624 32.3829 27.5399 32.2651C27.3251 32.2165 23.1909 31.3273 18.9964 33.5565ZM29.2188 57.9108C27.0704 60.0593 22.0306 61.1924 18.8451 61.6551C19.3079 58.4694 20.4412 53.4298 22.5895 51.2815C23.7926 50.0784 25.1876 49.1662 26.5898 48.6524L31.8479 53.9105C31.3342 55.3127 30.4221 56.7077 29.2188 57.9108ZM36.3423 53.0629C35.8901 53.1787 35.3663 53.0087 34.977 52.6199C32.9556 50.5985 32.1648 49.8077 31.9166 49.5598C31.4616 49.1048 30.3459 47.989 27.8813 45.5243C27.4917 45.1338 27.3217 44.6102 27.4371 44.1588C27.9376 42.2098 28.5921 40.2101 29.3881 38.1912L42.3091 51.1123C40.2899 51.9084 38.2905 52.5627 36.3423 53.0629ZM58.8429 53.8891C56.7957 57.714 51.6413 60.5333 46.9441 61.5038C48.4418 58.6855 48.7719 55.0979 48.2247 52.9224C48.0977 52.4171 47.768 52.163 47.7496 52.1332C51.536 50.2993 55.1218 48.0991 58.4505 45.5684C60.0766 48.5393 60.2105 51.3335 58.8429 53.8891ZM62.3657 38.0234C60.9577 39.4312 59.4416 40.7913 57.8594 42.0659C54.056 45.1284 49.8697 47.7224 45.4035 49.7874L30.7129 35.0971C32.7779 30.6306 35.372 26.4443 38.4341 22.6414C39.7098 21.0581 41.0698 19.5419 42.4771 18.1347C47.106 13.5056 53.08 9.82156 60.2382 7.16969L73.3306 20.2622C70.6791 27.4201 66.995 33.3942 62.3657 38.0234ZM74.4549 16.9667L63.5336 6.04547C69.4838 4.19735 74.6602 3.50532 77.2439 3.25657C76.995 5.84079 76.3028 11.0172 74.4549 16.9667Z" fill="#0057B8"/>
            <path d="M38.0579 64.5388C37.4474 63.9287 36.4581 63.929 35.8481 64.5391L31.4293 68.9594C30.8193 69.5697 30.8195 70.5591 31.4296 71.1691C32.0401 71.7791 33.0295 71.7791 33.6395 71.1688L38.0582 66.7485C38.6682 66.1382 38.6681 65.1488 38.0579 64.5388Z" fill="#0057B8"/>
            <path d="M15.9616 42.4423C15.3516 41.832 14.3624 41.832 13.7519 42.442L9.33163 46.8607C8.72132 47.4707 8.72116 48.4601 9.33116 49.0704C9.941 49.6804 10.9302 49.681 11.5408 49.0707L15.9612 44.652C16.5715 44.042 16.5716 43.0526 15.9616 42.4423Z" fill="#0057B8"/>
            <path d="M27.0098 66.7499C26.4 66.1397 25.4105 66.1397 24.8002 66.7497L14.2158 77.3325C13.6055 77.9427 13.6055 78.932 14.2157 79.5422C14.8255 80.1524 15.815 80.1527 16.4253 79.5424L27.0097 68.9596C27.62 68.3494 27.62 67.36 27.0098 66.7499Z" fill="#0057B8"/>
            <path d="M14.5098 66.7499C13.8999 66.1397 12.9103 66.1397 12.3002 66.7497L1.71581 77.3325C1.1055 77.9427 1.1055 78.932 1.71565 79.5422C2.3255 80.1524 3.31503 80.1527 3.92534 79.5424L14.5097 68.9596C15.12 68.3494 15.12 67.36 14.5098 66.7499Z" fill="#0057B8"/>
            <path d="M13.7503 53.4902C13.1403 52.8802 12.1508 52.8802 11.5406 53.4903L0.957841 64.0747C0.347686 64.685 0.347686 65.6742 0.957997 66.2845C1.56815 66.8947 2.55753 66.8947 3.16768 66.2844L13.7505 55.7C14.3606 55.0897 14.3606 54.1005 13.7503 53.4902Z" fill="#0057B8"/>
            <path d="M49.1066 31.3935C48.4962 30.7834 47.5072 30.7834 46.8967 31.3935L44.6874 33.6029C44.0772 34.2131 44.0772 35.2024 44.6874 35.8127C45.2977 36.4229 46.2869 36.4229 46.8972 35.8127L49.1066 33.6034C49.7167 32.9932 49.7167 32.0038 49.1066 31.3935Z" fill="#0057B8"/>
        </g>
        <defs>
            <clipPath id="clip0_39_448">
            <rect width="80" height="80" fill="white" transform="translate(0.5)"/>
            </clipPath>
        </defs>
    </symbol>

    <symbol viewBox="0 0 81 80" id="globalIcon">
        <g clip-path="url(#clip0_39_479)">
            <path d="M72.993 16.6695C73.783 15.5859 74.2508 14.2531 74.2508 12.8125C74.2508 9.19391 71.3069 6.25 67.6883 6.25C66.2477 6.25 64.9148 6.71781 63.8313 7.50781C57.008 2.59281 48.9694 0 40.5 0C32.1917 0 24.2247 2.52375 17.4598 7.29828C16.7548 7.79594 16.5867 8.77078 17.0844 9.47594C17.582 10.1809 18.557 10.3491 19.262 9.85141C23.7808 6.66203 28.8828 4.56344 34.2648 3.64922C33.6384 4.44516 33.0091 5.40313 32.388 6.55688C30.4923 10.0786 28.928 14.9284 27.8375 20.6441C24.9688 20.8503 22.6055 22.9072 21.9389 25.625H6.53234C7.44047 23.4814 8.55484 21.4178 9.87016 19.4605C10.3514 18.7442 10.1608 17.7734 9.44453 17.2922C8.72828 16.8108 7.7575 17.0014 7.27625 17.7177C2.84313 24.3152 0.5 32.0203 0.5 40C0.5 48.4664 3.09297 56.507 8.00734 63.3311C7.21766 64.4145 6.75 65.7472 6.75 67.1875C6.75 70.8061 9.69391 73.75 13.3125 73.75C14.753 73.75 16.0856 73.2823 17.1691 72.4925C23.9928 77.4072 32.0328 80 40.5 80C51.1844 80 61.2292 75.8392 68.7844 68.2842C76.3392 60.7294 80.5 50.6844 80.5 40C80.5 31.5316 77.9075 23.493 72.993 16.6695ZM75.6178 51.25H58.9558C58.4206 49.068 56.7919 47.3123 54.6858 46.5977C54.8091 44.427 54.875 42.2153 54.875 40C54.875 36.1366 54.6878 32.3563 54.327 28.7502H75.6372C76.7852 32.3431 77.375 36.1227 77.375 40C77.375 43.9219 76.7572 47.7017 75.6178 51.25ZM40.5 76.875C37.882 76.875 35.0494 73.0658 32.9225 66.6853C31.7305 63.1089 30.8083 58.9311 30.1859 54.3752H46.2095C46.7098 56.4148 48.1652 58.083 50.0734 58.8756C47.6964 71.2952 43.5977 76.875 40.5 76.875ZM13.3125 60.625C12.2677 60.625 11.2797 60.8717 10.402 61.308C8.84828 59.1206 7.55219 56.7997 6.52344 54.375H27.0353C27.6847 59.2917 28.6702 63.8105 29.9578 67.6734C31.1959 71.3881 32.6378 74.2939 34.2439 76.3502C28.8316 75.4322 23.7245 73.3178 19.192 70.0981C19.6283 69.2203 19.875 68.2323 19.875 67.1875C19.875 63.5689 16.9311 60.625 13.3125 60.625ZM29.25 40C29.25 37.868 29.3125 35.7406 29.4297 33.6528C32.0039 33.2089 34.0689 31.2617 34.6848 28.75H51.187C51.5575 32.3425 51.75 36.1248 51.75 40C51.75 42.125 51.6878 44.2459 51.5712 46.3281C48.9475 46.7358 46.8341 48.7036 46.2095 51.25H29.8128C29.4427 47.6577 29.25 43.8753 29.25 40ZM52.5827 56.25C50.6872 56.25 49.1452 54.708 49.1452 52.8125C49.1452 50.917 50.6872 49.375 52.5827 49.375C54.4781 49.375 56.0202 50.917 56.0202 52.8125C56.0202 54.708 54.4781 56.25 52.5827 56.25ZM51.0422 12.3266C49.8039 8.61172 48.362 5.70578 46.7558 3.64953C52.1691 4.5675 57.2761 6.68156 61.8088 9.90188C61.3725 10.7797 61.1258 11.7677 61.1258 12.8125C61.1258 16.4311 64.0697 19.375 67.6883 19.375C68.7331 19.375 69.7209 19.1283 70.5987 18.6922C72.1527 20.8794 73.4483 23.2006 74.4769 25.6252H53.9647C53.3153 20.7083 52.3297 16.1895 51.0422 12.3266ZM71.1258 12.8125C71.1258 14.708 69.5837 16.25 67.6883 16.25C65.7928 16.25 64.2508 14.708 64.2508 12.8125C64.2508 10.917 65.7928 9.375 67.6883 9.375C69.5837 9.375 71.1258 10.917 71.1258 12.8125ZM40.5 3.125C43.118 3.125 45.9506 6.93422 48.0775 13.3147C49.2695 16.8911 50.1917 21.0691 50.8141 25.625H34.685C34.1933 23.6202 32.7788 21.9747 30.9186 21.1663C33.2936 8.71813 37.3963 3.125 40.5 3.125ZM28.3119 23.7502C30.2073 23.7502 31.7494 25.2922 31.7494 27.1877C31.7494 29.0831 30.2073 30.6252 28.3119 30.6252C26.4164 30.6252 24.8744 29.0831 24.8744 27.1877C24.8744 25.2922 26.4164 23.7502 28.3119 23.7502ZM21.9389 28.7502C22.4828 30.9678 24.1559 32.7459 26.3122 33.4375C26.1903 35.5966 26.125 37.7962 26.125 40C26.125 43.8636 26.3122 47.6439 26.673 51.25H5.36359C4.21531 47.6564 3.625 43.8767 3.625 40C3.625 36.1431 4.21953 32.3566 5.37297 28.7502H21.9389ZM9.875 67.1875C9.875 65.292 11.417 63.75 13.3125 63.75C15.208 63.75 16.75 65.292 16.75 67.1875C16.75 69.083 15.208 70.625 13.3125 70.625C11.417 70.625 9.875 69.083 9.875 67.1875ZM46.7402 76.3444C47.3611 75.5545 47.985 74.6056 48.6008 73.4644C50.5022 69.9398 52.0716 65.0788 53.1644 59.3478C55.9848 59.0987 58.2977 57.0589 58.9558 54.375H74.4572C69.6267 65.7425 59.2483 74.2033 46.7402 76.3444Z" fill="#0057B8"/>
            <path d="M13.0093 14.6968C13.4219 14.6968 13.8233 14.5312 14.1155 14.239C14.4062 13.9484 14.5718 13.5453 14.5718 13.1343C14.5718 12.7234 14.4062 12.3218 14.1155 12.0297C13.8233 11.739 13.4219 11.5718 13.0093 11.5718C12.5983 11.5718 12.1952 11.739 11.9047 12.0297C11.6141 12.3218 11.4468 12.7234 11.4468 13.1343C11.4468 13.5453 11.614 13.9484 11.9047 14.239C12.1952 14.5312 12.5983 14.6968 13.0093 14.6968Z" fill="#0057B8"/>
        </g>
        <defs>
            <clipPath id="clip0_39_479">
                <rect width="80" height="80" fill="white" transform="translate(0.5)"/>
            </clipPath>
        </defs>
    </symbol>

    <symbol viewBox="0 0 81 80" id="storeIcon">
        <g clip-path="url(#clip0_39_487)">
            <path d="M2.0625 71.8303C1.19953 71.8303 0.5 72.53 0.5 73.3928C0.5 74.2556 1.19953 74.9553 2.0625 74.9553H78.9375C79.8003 74.9553 80.5 74.2556 80.5 73.3928C80.5 72.53 79.8003 71.8303 78.9375 71.8303H75.9375V63.3891C75.9375 62.5262 75.2378 61.8266 74.375 61.8266C73.5122 61.8266 72.8125 62.5262 72.8125 63.3891V71.8303H30.0655V48.6039C30.0655 47.7411 29.3659 47.0414 28.503 47.0414H14.7305C13.8675 47.0414 13.168 47.7411 13.168 48.6039V71.8302H8.1875V41.8922C8.72344 41.9831 9.27125 42.0256 9.81469 42.0217C12.855 42.0009 15.7448 40.4348 17.4375 37.912C19.1427 40.4531 22.0623 42.0234 25.125 42.0234C28.1856 42.0234 31.1103 40.4534 32.8125 37.912C34.5231 40.4508 37.433 42.0234 40.5 42.0234C43.5625 42.0234 46.4831 40.4528 48.1875 37.912C49.8152 40.3383 52.5564 41.8891 55.4778 42.0133C58.678 42.1492 61.7789 40.5703 63.5625 37.912C65.5762 40.9137 69.2461 42.497 72.8125 41.8922V49.6661C72.8125 50.5289 73.5122 51.2286 74.375 51.2286C75.2378 51.2286 75.9375 50.5289 75.9375 49.6661V40.7431C78.6653 39.1327 80.5 36.1641 80.5 32.7734V24.618C80.5 22.097 78.6016 19.8772 76.108 19.4912L65.9911 6.97187C65.0016 5.74702 63.5309 5.04468 61.9563 5.04468H19.0586C17.4708 5.04468 15.9923 5.75687 15.0023 6.99843L5.04969 19.4823C2.57234 19.8403 0.544219 22.0206 0.5 24.5262V29.8251V29.8387V32.7734C0.5 36.1641 2.33484 39.1325 5.0625 40.7431V71.8303H2.0625ZM16.293 50.1664H26.9405V71.8302H16.293V50.1664ZM62 32.7728C62 36.1502 59.2523 38.8978 55.8752 38.8978C52.4978 38.8978 49.7502 36.1502 49.7502 32.7728V31.4012H62V32.7728ZM62 28.2762H49.75V22.5555H62V28.2762ZM77.375 32.7734C77.375 36.1078 74.5831 38.8978 71.25 38.8978C67.8727 38.8978 65.125 36.1502 65.125 32.7728V31.4012H77.375V32.7734ZM77.375 24.618V28.2762H65.125V22.5555H75.3125C76.4497 22.5555 77.375 23.4806 77.375 24.618ZM61.9561 8.16968C62.5822 8.16968 63.1669 8.4489 63.5603 8.93577L72.0409 19.4303H64.4911L58.363 8.16968H61.9561ZM54.8052 8.16968L60.9333 19.4303H49.5597L48.092 8.16968H54.8052ZM35.9181 8.16968H44.9405L46.4081 19.4303H34.5728L35.9181 8.16968ZM34.375 22.5555H46.625V28.2762H34.375V22.5555ZM34.375 31.4012H46.625V32.7728C46.625 36.1502 43.8773 38.8978 40.5 38.8978C37.1227 38.8978 34.375 36.1502 34.375 32.7728V31.4012ZM31.25 32.7728C31.25 36.1502 28.5023 38.8978 25.125 38.8978C21.7477 38.8978 19 36.1502 19 32.7728V32.7726C19 32.7591 18.9998 32.7455 18.9995 32.7319L18.9641 31.4012H31.25V32.7728ZM31.25 28.2762H18.9219V22.5555H31.25V28.2762ZM26.1905 8.16968H32.7709L31.4256 19.4303H20.0012L26.1905 8.16968ZM17.4458 8.94655C17.8394 8.45296 18.4272 8.16968 19.0586 8.16968H22.6247L16.4353 19.4303H9.08781L17.4458 8.94655ZM3.71813 24.5814C3.73781 23.4642 4.66281 22.5553 5.78031 22.5553H5.84375H15.7969V28.2761H3.71813V24.5814ZM3.625 32.7734V31.4012H15.8378L15.8747 32.7844C15.8686 36.1081 13.0816 38.898 9.75 38.898C6.41687 38.8978 3.625 36.1078 3.625 32.7734Z" fill="#0057B8"/>
            <path d="M46.3159 49.7953H37.8406C36.9776 49.7953 36.2781 50.495 36.2781 51.3578V61.723H35.8997C35.0367 61.723 34.3372 62.4227 34.3372 63.2855C34.3372 64.1483 35.0367 64.848 35.8997 64.848H48.257C49.1198 64.848 49.8195 64.1483 49.8195 63.2855C49.8195 62.4227 49.1198 61.723 48.257 61.723H47.8784V51.3578C47.8784 50.495 47.1787 49.7953 46.3159 49.7953ZM44.7534 61.723H39.4031V52.9203H44.7534V61.723Z" fill="#0057B8"/>
            <path d="M65.6628 49.7953H57.1875C56.3247 49.7953 55.625 50.495 55.625 51.3578V61.723H55.2466C54.3838 61.723 53.6841 62.4227 53.6841 63.2855C53.6841 64.1483 54.3838 64.848 55.2466 64.848H67.6039C68.4667 64.848 69.1664 64.1483 69.1664 63.2855C69.1664 62.4227 68.4667 61.723 67.6039 61.723H67.2253V51.3578C67.2253 50.495 66.5258 49.7953 65.6628 49.7953ZM64.1003 61.723H58.75V52.9203H64.1003V61.723Z" fill="#0057B8"/>
            <path d="M18.0696 61.6642C18.3471 62.4369 19.2028 62.8733 19.9922 62.633C20.8591 62.3691 21.331 61.3797 20.9813 60.5408C20.2216 58.716 17.4052 59.8139 18.0696 61.6642Z" fill="#0057B8"/>
            <path d="M73.4457 55.0789C72.7743 55.577 72.6179 56.542 73.0952 57.2278C73.5738 57.9154 74.5461 58.0936 75.2421 57.6314C75.9507 57.1609 76.1444 56.1718 75.6733 55.4658C75.1915 54.7287 74.1474 54.5583 73.4457 55.0789Z" fill="#0057B8"/>
        </g>
        <defs>
            <clipPath id="clip0_39_487">
                <rect width="80" height="80" fill="white" transform="translate(0.5)"/>
            </clipPath>
        </defs>
    </symbol>

    <symbol viewBox="0 0 88 80" id="retailIcon-1">
        <g xmlns="http://www.w3.org/2000/svg">
            <path fill-rule="evenodd" clip-rule="evenodd" d="M41.185 0.0165046C49.8007 -0.180799 58.6916 1.3415 64.9901 7.25898C71.4714 13.3482 72.6306 22.4623 74.3844 31.2076C76.8471 43.4876 84.9285 57.5828 77.0231 67.2618C69.0753 76.9928 53.6924 72.3995 41.185 71.8555C29.5109 71.3478 16.5182 72.6475 8.31706 64.2738C0.147033 55.9318 -0.709477 42.7293 1.37506 31.2076C3.13952 21.4551 10.6656 14.4159 18.4395 8.32501C25.0552 3.14164 32.8019 0.208481 41.185 0.0165046Z" fill="#FFD700"/>
            <path d="M57.0769 42H53.7436V37C53.7436 36.558 53.568 36.134 53.2554 35.8215C52.9429 35.5089 52.5189 35.3333 52.0769 35.3333H42.0769V32H45.4102C45.8523 32 46.2762 31.8244 46.5887 31.5118C46.9013 31.1993 47.0769 30.7753 47.0769 30.3333V20.3333C47.0769 19.8913 46.9013 19.4674 46.5887 19.1548C46.2762 18.8423 45.8523 18.6667 45.4102 18.6667H35.4102C34.9682 18.6667 34.5443 18.8423 34.2317 19.1548C33.9192 19.4674 33.7436 19.8913 33.7436 20.3333V30.3333C33.7436 30.7753 33.9192 31.1993 34.2317 31.5118C34.5443 31.8244 34.9682 32 35.4102 32H38.7436V35.3333H28.7436C28.3015 35.3333 27.8776 35.5089 27.5651 35.8215C27.2525 36.134 27.0769 36.558 27.0769 37V42H23.7436C23.3015 42 22.8776 42.1756 22.5651 42.4881C22.2525 42.8007 22.0769 43.2246 22.0769 43.6667V53.6667C22.0769 54.1087 22.2525 54.5326 22.5651 54.8452C22.8776 55.1577 23.3015 55.3333 23.7436 55.3333H33.7436C34.1856 55.3333 34.6095 55.1577 34.9221 54.8452C35.2346 54.5326 35.4102 54.1087 35.4102 53.6667V43.6667C35.4102 43.2246 35.2346 42.8007 34.9221 42.4881C34.6095 42.1756 34.1856 42 33.7436 42H30.4102V38.6667H50.4102V42H47.0769C46.6349 42 46.211 42.1756 45.8984 42.4881C45.5858 42.8007 45.4102 43.2246 45.4102 43.6667V53.6667C45.4102 54.1087 45.5858 54.5326 45.8984 54.8452C46.211 55.1577 46.6349 55.3333 47.0769 55.3333H57.0769C57.5189 55.3333 57.9429 55.1577 58.2554 54.8452C58.568 54.5326 58.7436 54.1087 58.7436 53.6667V43.6667C58.7436 43.2246 58.568 42.8007 58.2554 42.4881C57.9429 42.1756 57.5189 42 57.0769 42ZM32.0769 45.3333V52H25.4102V45.3333H32.0769ZM37.0769 28.6667V22H43.7436V28.6667H37.0769ZM55.4102 52H48.7436V45.3333H55.4102V52Z" fill="#0057B8"/>
        </g>
    </symbol>

    <symbol viewBox="0 0 84 80" id="retailIcon-2">
        <g xmlns="http://www.w3.org/2000/svg">
            <path fill-rule="evenodd" clip-rule="evenodd" d="M42.3119 77.6055C54.9128 77.5997 69.8237 84.2549 78.5968 75.2097C87.356 66.179 80.4591 51.4897 79.829 38.9247C79.2536 27.4505 83.2965 14.1873 75.1315 6.10508C66.9793 -1.9645 53.559 -0.465907 42.3119 1.78796C33.2504 3.60383 26.9964 10.5397 20.4501 17.063C13.8854 23.6047 7.2792 29.9306 5.04435 38.9247C2.00846 51.1426 -2.74132 66.1769 5.99356 75.243C14.7439 84.3252 29.7002 77.6112 42.3119 77.6055Z" fill="#FFD700"/>
            <path d="M38.6636 28.3333C38.3339 28.3333 38.0117 28.4311 37.7376 28.6142C37.4635 28.7973 37.2499 29.0576 37.1238 29.3622C36.9976 29.6667 36.9646 30.0018 37.0289 30.3251C37.0932 30.6484 37.252 30.9454 37.4851 31.1785C37.7181 31.4116 38.0151 31.5703 38.3384 31.6346C38.6617 31.6989 38.9968 31.6659 39.3014 31.5398C39.6059 31.4136 39.8662 31.2 40.0494 30.9259C40.2325 30.6519 40.3302 30.3296 40.3302 30C40.3302 29.558 40.1546 29.134 39.8421 28.8215C39.5295 28.5089 39.1056 28.3333 38.6636 28.3333ZM31.9969 28.3333C31.6673 28.3333 31.345 28.4311 31.071 28.6142C30.7969 28.7973 30.5833 29.0576 30.4571 29.3622C30.331 29.6667 30.298 30.0018 30.3623 30.3251C30.4266 30.6484 30.5853 30.9454 30.8184 31.1785C31.0515 31.4116 31.3485 31.5703 31.6718 31.6346C31.9951 31.6989 32.3302 31.6659 32.6347 31.5398C32.9393 31.4136 33.1996 31.2 33.3827 30.9259C33.5658 30.6519 33.6636 30.3296 33.6636 30C33.6636 29.558 33.488 29.134 33.1754 28.8215C32.8629 28.5089 32.4389 28.3333 31.9969 28.3333ZM45.3302 28.3333C45.0006 28.3333 44.6784 28.4311 44.4043 28.6142C44.1302 28.7973 43.9166 29.0576 43.7904 29.3622C43.6643 29.6667 43.6313 30.0018 43.6956 30.3251C43.7599 30.6484 43.9186 30.9454 44.1517 31.1785C44.3848 31.4116 44.6818 31.5703 45.0051 31.6346C45.3284 31.6989 45.6635 31.6659 45.968 31.5398C46.2726 31.4136 46.5329 31.2 46.716 30.9259C46.8992 30.6519 46.9969 30.3296 46.9969 30C46.9969 29.558 46.8213 29.134 46.5087 28.8215C46.1962 28.5089 45.7723 28.3333 45.3302 28.3333ZM55.3302 21.6667H28.6636C27.3375 21.6667 26.0657 22.1934 25.128 23.1311C24.1904 24.0688 23.6636 25.3406 23.6636 26.6667V53.3333C23.6636 54.6594 24.1904 55.9312 25.128 56.8689C26.0657 57.8065 27.3375 58.3333 28.6636 58.3333H55.3302C56.6563 58.3333 57.9281 57.8065 58.8658 56.8689C59.8035 55.9312 60.3302 54.6594 60.3302 53.3333V26.6667C60.3302 25.3406 59.8035 24.0688 58.8658 23.1311C57.9281 22.1934 56.6563 21.6667 55.3302 21.6667ZM56.9969 53.3333C56.9969 53.7753 56.8213 54.1993 56.5088 54.5118C56.1962 54.8244 55.7723 55 55.3302 55H28.6636C28.2215 55 27.7976 54.8244 27.4851 54.5118C27.1725 54.1993 26.9969 53.7753 26.9969 53.3333V38.3333H56.9969V53.3333ZM56.9969 35H26.9969V26.6667C26.9969 26.2246 27.1725 25.8007 27.4851 25.4881C27.7976 25.1756 28.2215 25 28.6636 25H55.3302C55.7723 25 56.1962 25.1756 56.5088 25.4881C56.8213 25.8007 56.9969 26.2246 56.9969 26.6667V35Z" fill="#0057B8"/>
        </g>
    </symbol>

    <symbol viewBox="0 0 86 80" id="retailIcon-3">
        <g xmlns="http://www.w3.org/2000/svg">
            <path fill-rule="evenodd" clip-rule="evenodd" d="M40.4707 0.00770041C48.5125 -0.289627 53.7493 8.09249 60.3233 13.1584C69.4376 20.1817 83.5201 22.8818 85.6661 34.8347C87.8946 47.2467 78.5518 58.5443 70.0048 67.0818C61.8722 75.2053 51.4902 79.6994 40.4707 79.9797C29.1615 80.2674 17.3504 77.5424 9.52752 68.6204C1.82883 59.8401 -1.81661 46.6261 0.887011 34.8347C3.2471 24.5414 14.3515 21.2361 21.9186 14.5783C28.0849 9.15302 32.5562 0.300323 40.4707 0.00770041Z" fill="#FFD700"/>
            <path d="M59.1834 53.8167L53.0001 47.6833C55.4002 44.6907 56.5626 40.8922 56.2481 37.0688C55.9336 33.2455 54.1662 29.688 51.3093 27.1277C48.4524 24.5675 44.7231 23.1992 40.8883 23.3041C37.0535 23.4091 33.4046 24.9793 30.692 27.6919C27.9794 30.4045 26.4091 34.0534 26.3042 37.8882C26.1993 41.723 27.5676 45.4523 30.1278 48.3092C32.6881 51.1661 36.2456 52.9335 40.0689 53.248C43.8922 53.5625 47.6908 52.4002 50.6834 50L56.8168 56.1333C56.9717 56.2895 57.156 56.4135 57.3591 56.4981C57.5622 56.5828 57.7801 56.6263 58.0001 56.6263C58.2201 56.6263 58.4379 56.5828 58.641 56.4981C58.8441 56.4135 59.0285 56.2895 59.1834 56.1333C59.4838 55.8226 59.6517 55.4072 59.6517 54.975C59.6517 54.5428 59.4838 54.1274 59.1834 53.8167ZM41.3334 50C39.026 50 36.7703 49.3158 34.8518 48.0338C32.9332 46.7519 31.4378 44.9298 30.5548 42.798C29.6718 40.6662 29.4408 38.3204 29.8909 36.0573C30.3411 33.7942 31.4522 31.7154 33.0838 30.0838C34.7155 28.4521 36.7943 27.341 39.0574 26.8908C41.3205 26.4407 43.6663 26.6717 45.7981 27.5547C47.9299 28.4378 49.7519 29.9331 51.0339 31.8517C52.3158 33.7703 53.0001 36.0259 53.0001 38.3333C53.0001 41.4275 51.7709 44.395 49.583 46.5829C47.3951 48.7708 44.4276 50 41.3334 50Z" fill="#0057B8"/>
        </g>
    </symbol>

    <symbol viewBox="0 0 80 80" id="retailIcon-4">
        <g xmlns="http://www.w3.org/2000/svg">
            <path fill-rule="evenodd" clip-rule="evenodd" d="M45.4297 78.538C34.5869 79.7865 22.7113 82.1857 14.0789 75.507C4.76785 68.3032 0.290235 55.9079 0.990468 44.1563C1.65843 32.9462 9.62564 24.2337 17.605 16.3316C25.5305 8.48283 34.3725 -1.32138 45.4296 0.147426C56.1246 1.56812 60.1879 14.277 66.7288 22.8571C71.8908 29.6283 78.3218 35.6673 78.9795 44.1563C79.6846 53.2582 76.6818 62.4988 70.306 69.0327C63.8612 75.6373 54.5971 77.4824 45.4297 78.538Z" fill="#FFD700"/>
            <path d="M53.1027 45.85H45.5527C45.1107 45.85 44.6867 46.0256 44.3742 46.3382C44.0616 46.6507 43.886 47.0746 43.886 47.5167C43.886 47.9587 44.0616 48.3826 44.3742 48.6952C44.6867 49.0077 45.1107 49.1833 45.5527 49.1833H49.5527C47.7143 51.1046 45.3434 52.4322 42.7446 52.9957C40.1459 53.5591 37.438 53.3327 34.969 52.3454C32.4999 51.3582 30.3825 49.6552 28.8887 47.4553C27.3949 45.2554 26.593 42.6591 26.586 40C26.586 39.558 26.4104 39.1341 26.0979 38.8215C25.7853 38.5089 25.3614 38.3333 24.9194 38.3333C24.4773 38.3333 24.0534 38.5089 23.7408 38.8215C23.4283 39.1341 23.2527 39.558 23.2527 40C23.2615 43.2547 24.2231 46.4355 26.0187 49.1501C27.8143 51.8646 30.3655 53.9939 33.3573 55.2754C36.3491 56.5568 39.6506 56.9342 42.8544 56.3611C46.0582 55.7879 49.0241 54.2892 51.386 52.05V55C51.386 55.442 51.5616 55.866 51.8742 56.1785C52.1867 56.4911 52.6107 56.6667 53.0527 56.6667C53.4947 56.6667 53.9186 56.4911 54.2312 56.1785C54.5438 55.866 54.7194 55.442 54.7194 55V47.5C54.7152 47.0694 54.5446 46.6571 54.2432 46.3495C53.9419 46.0419 53.5331 45.8629 53.1027 45.85ZM39.9194 23.3333C35.6467 23.3455 31.5418 24.9982 28.4527 27.95V25C28.4527 24.558 28.2771 24.1341 27.9645 23.8215C27.652 23.5089 27.228 23.3333 26.786 23.3333C26.344 23.3333 25.9201 23.5089 25.6075 23.8215C25.2949 24.1341 25.1194 24.558 25.1194 25V32.5C25.1194 32.942 25.2949 33.366 25.6075 33.6785C25.9201 33.9911 26.344 34.1667 26.786 34.1667H34.286C34.728 34.1667 35.152 33.9911 35.4645 33.6785C35.7771 33.366 35.9527 32.942 35.9527 32.5C35.9527 32.058 35.7771 31.6341 35.4645 31.3215C35.152 31.0089 34.728 30.8333 34.286 30.8333H30.286C32.1235 28.9131 34.4928 27.5858 37.09 27.0218C39.6872 26.4579 42.3937 26.6829 44.862 27.6681C47.3304 28.6533 49.448 30.3537 50.9431 32.551C52.4381 34.7483 53.2424 37.3423 53.2527 40C53.2527 40.442 53.4283 40.866 53.7408 41.1785C54.0534 41.4911 54.4773 41.6667 54.9194 41.6667C55.3614 41.6667 55.7853 41.4911 56.0979 41.1785C56.4104 40.866 56.586 40.442 56.586 40C56.586 37.8113 56.1549 35.644 55.3173 33.6219C54.4798 31.5999 53.2521 29.7625 51.7045 28.2149C50.1568 26.6672 48.3195 25.4396 46.2974 24.602C44.2753 23.7644 42.1081 23.3333 39.9194 23.3333Z" fill="#0057B8"/>
        </g>
    </symbol>

</svg>