<svg width="253" height="74" viewBox="0 0 253 74" fill="none" xmlns="http://www.w3.org/2000/svg">
<g clip-path="url(#clip0_507_602)">
<path d="M249.072 16.8055C244.755 11.5958 237.133 8.60691 228.171 8.60691C218.687 8.60691 210.15 11.8164 204.237 17.0235L205.201 11.0107L202.639 10.2534C199.008 9.17725 194.981 8.60691 190.986 8.60691C184.12 8.60691 177.553 10.7188 172.25 14.1987L173.776 9.19475H132.72L132.234 10.7928C128.587 9.33463 124.573 8.60691 120.051 8.60691C111.601 8.60691 102.451 11.8716 97.7029 18.1547C97.3919 17.6947 97.0661 17.2413 96.7024 16.8055C92.3838 11.5958 84.7649 8.60691 75.8006 8.60691C66.597 8.60691 58.2763 11.6254 52.3906 16.5648L54.6811 2.70314L52.0756 1.95389C47.6286 0.674664 42.6881 -0.00195312 37.7841 -0.00195312C19.792 -0.00195312 3.4183 11.3752 0.507269 25.8973C-0.73394 32.0755 0.714129 38.0601 4.57973 42.7505C7.8761 46.7469 12.7423 49.5959 18.5224 51.0514H0.69656V73.7317H91.4914L91.6321 73.456L91.6496 73.7317H102.579L104.06 71.3293L103.603 73.7317H128.311L128.675 71.8378C130.845 73.2367 133.664 73.9954 136.912 73.9954C139.813 73.9954 142.505 73.3981 144.826 72.3341L144.561 73.7317H179.205L179.263 73.4237C180.869 73.7842 182.557 73.9967 184.17 73.9967C185.147 73.9967 186.156 73.9106 187.159 73.7344H200.369L201.349 71.6643H202.23L202.497 73.7344H243.237L245.262 63.1199H244.517L244.797 61.6618H245.33L247.358 51.05H246.23C247.151 50.2228 247.819 49.1601 248.052 47.9495C248.188 47.2472 248.166 46.5236 247.988 45.8306C247.81 45.1376 247.48 44.4924 247.023 43.941C246.78 43.6557 246.507 43.3981 246.207 43.1729C249.44 39.8706 251.679 35.8742 252.55 31.3814C253.611 25.8731 252.412 20.8315 249.072 16.8055V16.8055ZM225.503 62.329H224.252L226.14 52.4611C226.57 52.4059 226.998 52.3441 227.423 52.2768L225.503 62.329ZM196.347 30.2286C196.217 30.8878 196.128 31.5402 196.061 32.1805C193.313 34.0098 190.737 34.8748 187.981 34.8748C186.117 34.8748 184.502 34.2694 183.663 33.2552C183.184 32.6795 183.023 32.0352 183.172 31.2859C183.663 28.7584 187.109 26.5416 190.545 26.5416C192.695 26.5416 194.715 27.2976 196.695 28.8459C196.572 29.3032 196.436 29.7592 196.347 30.2286V30.2286ZM199.129 51.0514L197.788 53.2507L196.674 52.6292C195.928 52.2249 195.145 51.8898 194.337 51.6284C194.932 51.4885 195.488 51.3285 195.972 51.1536L197.536 50.5873L199.074 43.8831C199.282 44.171 199.479 44.4656 199.711 44.7427C202.029 47.5392 205.373 49.678 209.408 51.05L199.129 51.0514ZM212.735 51.9795L212.201 54.7707L211.459 51.6701C211.879 51.7791 212.301 51.8854 212.735 51.9795V51.9795ZM225.807 26.8349C227.481 26.8349 228.769 27.2774 229.439 28.0805C230.051 28.8203 230.031 29.7632 229.898 30.4264C229.364 33.161 226.545 35.0711 223.027 35.0711C221.315 35.0711 219.963 34.6219 219.317 33.839C218.868 33.2969 218.733 32.5356 218.92 31.5765C219.374 29.2212 221.887 26.8349 225.807 26.8349V26.8349ZM148.491 53.0892C147.997 52.7612 147.478 52.4707 146.94 52.2203H148.659L148.491 53.0892ZM139.039 62.3263C138.817 62.5227 138.456 62.6545 138.038 62.6787C138.252 62.4958 138.587 62.3451 139.039 62.3263ZM136.352 27.0904L134.313 33.7677C134.197 32.0339 133.622 30.3617 132.645 28.9212C132.23 28.3283 131.756 27.7789 131.229 27.2815L136.352 27.0904ZM77.5245 30.425C76.9931 33.161 74.1686 35.0711 70.6532 35.0711C68.9442 35.0711 67.5907 34.6219 66.9431 33.839C66.4915 33.2969 66.359 32.5356 66.5469 31.5765C67.0039 29.2185 69.5174 26.8349 73.4371 26.8349C75.111 26.8349 76.3995 27.2774 77.0688 28.0805C77.6772 28.8203 77.6529 29.7646 77.5245 30.425V30.425ZM101.087 52.1369L101.021 52.2768L101.007 52.1248C101.034 52.1275 101.06 52.1329 101.087 52.1369V52.1369ZM131.424 43.2469L129.043 51.0514H119.897C124.573 49.5166 128.764 46.9433 131.424 43.2469V43.2469ZM132.415 52.2203H132.925C132.737 52.2996 132.553 52.379 132.37 52.4651L132.415 52.2203ZM34.0389 31.7487C31.4293 31.7487 29.1687 30.8958 27.991 29.47C27.3095 28.6441 27.0811 27.7294 27.2906 26.6748C27.9721 23.2783 32.5245 20.4092 37.2325 20.4092C40.4112 20.4092 43.352 21.5956 46.2279 24.0181C45.4673 25.4277 44.8626 26.9152 44.4242 28.4544C40.9128 30.6873 37.5948 31.7487 34.0389 31.7487V31.7487ZM87.826 47.8297L90.7951 49.1601C92.4366 49.8945 94.2605 50.5227 96.171 51.0527H90.6437L90.0515 52.2324L89.9744 51.0527H80.4206C83.0076 50.2712 85.4932 49.1894 87.826 47.8297V47.8297ZM160.223 62.329L162.378 51.0514H151.92L159.248 27.0205L161.482 27.1052C161.061 28.1991 160.731 29.3257 160.496 30.4735C159.454 35.8352 160.721 41.0126 164.07 45.0467C166.275 47.706 169.304 49.7264 172.847 51.05H163.629L161.474 62.3276L160.223 62.329ZM43.7197 50.208L45.2936 49.6564L46.67 43.8374C46.8917 44.1441 47.0973 44.4521 47.3406 44.744C49.6594 47.5406 53.0018 49.6793 57.0351 51.0514H40.3531C41.6146 50.816 42.7733 50.5375 43.7197 50.208V50.208ZM232.795 51.0514C234.126 50.6438 235.433 50.1614 236.709 49.6067C236.894 50.0452 237.116 50.4689 237.424 50.8415C237.492 50.9195 237.577 50.9801 237.646 51.0514H232.795V51.0514Z" fill="white"/>
<path d="M87.1098 54.0898L87.7412 64.0021H87.8994C88.2267 62.9893 88.589 61.932 89.096 60.9406L92.5317 54.0898H98.1117L98.9541 64.0021H99.1149C99.4056 63.031 99.7329 62.0167 100.179 61.0711L103.531 54.0898H111.104L100.863 70.6982H94.5138L93.9541 61.667H93.7147C93.4714 62.5279 93.2577 63.3632 92.8616 64.1784L89.5976 70.6982H83.4051L79.5625 54.0898H87.1098Z" fill="#005DAA"/>
<path d="M110.576 54.0898H117.59L116.523 59.6843H120.987L122.055 54.0898H129.069L125.897 70.6982H118.883L119.983 64.9276H115.518L114.417 70.6982H107.402L110.576 54.0898Z" fill="#005DAA"/>
<path d="M149.613 62.4371C148.595 67.7679 143.014 70.9613 136.907 70.9613C130.794 70.9613 126.433 67.7666 127.453 62.4371C128.451 57.2166 134.094 53.8242 140.179 53.8242C146.263 53.8242 150.609 57.2166 149.613 62.4371V62.4371ZM134.77 62.5246C134.407 64.4185 135.7 65.7193 137.906 65.7193C140.112 65.7193 141.901 64.4185 142.265 62.5246C142.6 60.7611 141.448 59.2881 139.138 59.2881C136.821 59.2881 135.106 60.7624 134.77 62.5246ZM151.209 54.0892H158.49L156.335 65.3668H162.447L161.428 70.6963H148.036L151.209 54.0892ZM179.672 64.7494L179.996 64.9942C181.137 65.8296 182.574 66.5142 184.25 66.5142C184.968 66.5142 186.156 66.2694 186.299 65.5229C186.443 64.7763 185.499 64.7091 184.858 64.5974L183.437 64.3768C180.672 63.9572 178.549 62.5689 179.043 59.9728C179.799 56.0302 184.549 53.8269 188.906 53.8269C191.191 53.8269 193.206 54.2923 194.98 55.281L192.201 59.533C191.087 58.8295 189.784 58.2766 188.215 58.2766C187.579 58.2766 186.609 58.473 186.482 59.155C186.363 59.7711 187.249 59.8599 187.787 59.9702L189.377 60.2782C192.347 60.8539 194.32 62.2165 193.785 65.0359C193.025 69.0014 188.292 70.9613 183.96 70.9613C181.439 70.9613 178.624 70.3882 176.547 69.4413L179.672 64.7494V64.7494Z" fill="#005DAA"/>
<path d="M204.685 64.6842L204.394 61.7544C204.316 61.0496 204.321 60.3232 204.325 59.617H204.059L201.764 64.6842H204.685V64.6842ZM198.346 70.6982H190.641L200.776 54.0898H208.826L212.801 70.6982H205.096L204.828 68.6281H199.329L198.346 70.6982V70.6982Z" fill="#005DAA"/>
<path d="M215.367 54.0898H222.648L220.493 65.3675H226.606L225.586 70.6969H212.195L215.367 54.0898ZM230.11 54.0898H243.585L242.717 58.6283H236.578L236.273 60.2143H241.879L241.056 64.5321H235.45L235.14 66.1611H241.492L240.623 70.6982H226.939L230.11 54.0898Z" fill="#005DAA"/>
<path d="M131.324 24.2391L140.517 23.896L132.803 49.1846H149.297L157.008 23.896L165.994 24.2391L169.654 12.2324H134.983L131.324 24.2391V24.2391ZM97.1717 30.8047C94.865 42.6607 82.2285 49.7698 68.3832 49.7698C54.5406 49.7698 44.665 42.6634 46.9716 30.8047C49.2296 19.1881 62.0135 11.6445 75.798 11.6445C89.5811 11.6445 99.431 19.1908 97.1717 30.8047V30.8047ZM63.5454 31.0011C62.7274 35.2154 65.6574 38.1074 70.652 38.1074C75.6466 38.1074 79.7001 35.2167 80.5208 31.0011C81.282 27.0813 78.6698 23.7992 73.4332 23.7992C68.1953 23.7965 64.308 27.0813 63.5454 31.0011Z" fill="#E31837"/>
<path d="M92.0475 46.3889C96.754 48.4927 103.128 49.7706 108.847 49.7706C118.658 49.7706 129.377 45.4096 131.093 36.5882C132.311 30.3159 127.848 27.2772 121.112 26.0034L117.514 25.3173C116.297 25.0698 114.288 24.8761 114.554 23.5014C114.85 21.9827 117.043 21.5402 118.489 21.5402C122.038 21.5402 124.992 22.7656 127.515 24.3341L133.808 14.8764C129.78 12.6717 125.226 11.6454 120.049 11.6454C110.177 11.6454 99.4122 16.5457 97.7086 25.3173C96.5837 31.1001 101.4 34.1872 107.659 35.118L110.875 35.6063C112.333 35.8551 114.472 35.9991 114.147 37.6644C113.823 39.3296 111.131 39.869 109.503 39.869C105.709 39.869 102.454 38.3503 99.8679 36.4887L99.131 35.9493L92.0475 46.3889V46.3889ZM201.762 13.164C198.463 12.1834 194.714 11.6454 190.979 11.6454C177.677 11.6454 165.588 20.2704 163.491 31.0516C161.44 41.5881 169.964 49.7719 182.905 49.7719C185.853 49.7719 192.077 49.3307 194.93 48.3017L198.099 34.4831C195.038 36.5896 191.774 37.9132 187.982 37.9132C183.048 37.9132 179.382 34.7763 180.175 30.7113C180.956 26.6921 185.611 23.5081 190.545 23.5081C194.277 23.5081 197.253 25.2232 199.514 27.2355L201.762 13.164V13.164ZM228.171 11.6454C214.389 11.6454 201.605 19.1889 199.345 30.8042C197.039 42.6615 206.915 49.7706 220.76 49.7706C234.601 49.7706 247.242 42.6642 249.546 30.8042C251.801 19.1916 241.953 11.6454 228.171 11.6454ZM225.807 23.7973C231.044 23.7973 233.659 27.0781 232.892 30.9992C232.074 35.2135 228.019 38.1056 223.023 38.1056C218.028 38.1056 215.099 35.2148 215.918 30.9992C216.681 27.0821 220.571 23.7973 225.807 23.7973V23.7973ZM51.2241 4.87129C47.107 3.68623 42.4356 3.03516 37.7804 3.03516C21.189 3.03516 6.10921 13.46 3.49564 26.4917C0.941559 39.2274 11.5689 49.1168 27.7087 49.1168C31.3877 49.1168 39.1541 48.5841 42.706 47.3426L46.6568 30.636C42.8439 33.185 38.7687 34.7844 34.0392 34.7844C27.8831 34.7844 23.3131 30.9925 24.3001 26.0733C25.275 21.2174 31.0781 17.3649 37.2314 17.3649C41.8839 17.3649 45.5981 19.4391 48.4145 21.8671L51.2241 4.87129V4.87129Z" fill="#E31837"/>
<path d="M239.395 47.3884C239.642 46.0971 241.088 45.0586 242.661 45.0586C244.222 45.0586 245.282 46.0984 245.036 47.3884C244.784 48.6865 243.332 49.7249 241.769 49.7249C240.197 49.7249 239.15 48.6824 239.395 47.3884ZM244.299 47.3884C244.496 46.35 243.749 45.6679 242.542 45.6679C241.318 45.6679 240.326 46.35 240.132 47.3884C239.934 48.4269 240.66 49.1156 241.887 49.1156C243.093 49.1156 244.101 48.4282 244.299 47.3884ZM243.296 48.6071H242.567L242.107 47.5727H241.631L241.434 48.6071H240.815L241.281 46.1656H242.71C243.342 46.1656 243.682 46.3392 243.574 46.9135C243.492 47.3319 243.162 47.5471 242.782 47.5767L243.296 48.6071V48.6071ZM242.392 47.1059C242.702 47.1059 242.968 47.1059 243.02 46.8463C243.06 46.6311 242.793 46.6311 242.483 46.6311H241.812L241.724 47.1059H242.392V47.1059Z" fill="#E31837"/>
<path d="M4.65234 70.7252H81.8466L81.8412 70.6983H81.7763L80.8028 66.4745H4.65234V70.7252ZM4.65234 64.6882H80.3877L79.4021 60.4389H4.65234V64.6882ZM4.65234 58.6257H78.9586L78.626 57.0774L77.9418 54.1221H4.65234V58.6257ZM165.957 54.0898H179.429L178.561 58.6283H172.424L172.12 60.2143H177.725L176.903 64.5322H171.298L170.987 66.1611H177.337L176.471 70.6983H162.783L165.957 54.0898Z" fill="#005DAA"/>
</g>
<defs>
<clipPath id="clip0_507_602">
<rect width="253" height="74" fill="white"/>
</clipPath>
</defs>
</svg>
