<svg width="255" height="61" viewBox="0 0 255 61" fill="none" xmlns="http://www.w3.org/2000/svg">
<g clip-path="url(#clip0_507_637)">
<path d="M223.958 20.5351C225.378 20.5351 226.546 19.792 226.704 18.8318L228.106 2.87241C228.106 1.29498 226.27 0 223.963 0C221.657 0 219.823 1.29497 219.823 2.87269L221.224 18.8318C221.378 19.7917 222.547 20.5351 223.963 20.5351H223.958V20.5351ZM215.391 25.52C216.103 24.2837 216.049 22.8942 215.299 22.2768L202.269 13.0751C200.915 12.2852 198.884 13.2359 197.731 15.2487C196.574 17.2589 196.779 19.5041 198.13 20.2942L212.557 27.0573C213.459 27.3938 214.689 26.7461 215.395 25.5106L215.391 25.52V25.52ZM232.533 25.5114C233.244 26.7469 234.467 27.395 235.37 27.0581L249.797 20.2951C251.157 19.5052 251.35 17.2598 250.204 15.2496C249.046 13.2388 247.011 12.2861 245.66 13.0759L232.63 22.2777C231.885 22.8942 231.829 24.2848 232.537 25.5208L232.533 25.5114V25.5114ZM223.958 40.4709C225.378 40.4709 226.546 41.2078 226.704 42.1687L228.106 58.1259C228.106 59.7082 226.27 61.0003 223.963 61.0003C221.657 61.0003 219.823 59.7082 219.823 58.1259L221.224 42.1687C221.378 41.2078 222.547 40.4709 223.963 40.4709H223.958V40.4709ZM232.533 35.4849C233.244 34.246 234.467 33.6036 235.37 33.9442L249.797 40.7026C251.157 41.4934 251.35 43.7408 250.204 45.7527C249.046 47.757 247.011 48.7123 245.66 47.9235L232.63 38.7303C231.885 38.109 231.829 36.7175 232.537 35.4823H232.532L232.533 35.4849ZM215.391 35.4832C216.103 36.7175 216.049 38.109 215.299 38.7314L202.269 47.9244C200.915 48.7131 198.884 47.7578 197.731 45.7536C196.574 43.7416 196.779 41.4942 198.13 40.7035L212.557 33.945C213.459 33.6045 214.689 34.2468 215.395 35.486H215.391" fill="#FDBB30"/>
<path d="M141.77 38.7004C141.77 39.1901 141.727 39.6952 141.594 40.1388C141.041 41.9814 139.146 43.5394 136.776 43.5394C134.799 43.5394 133.229 42.409 133.229 40.0215C133.229 36.3675 137.224 35.3584 141.771 35.3838L141.77 38.7001V38.7004ZM148.903 32.3325C148.903 26.3072 146.346 21.0055 137.705 21.0055C133.27 21.0055 129.75 22.2597 127.828 23.3776L129.235 28.2215C130.991 27.1054 133.79 26.1814 136.439 26.1814C140.821 26.1691 141.539 28.6802 141.539 30.2873V30.6677C131.986 30.6535 125.946 33.984 125.946 40.7687C125.946 44.9144 129.022 48.7974 134.369 48.7974C137.655 48.7974 140.406 47.477 142.053 45.36H142.216C142.216 45.36 143.305 49.9562 149.321 48.1977C149.007 46.2863 148.904 44.2459 148.904 41.7923L148.903 32.3325H148.903ZM0.046875 12.8C0.046875 12.8 6.28996 38.5554 7.28687 42.7353C8.44979 47.6143 10.5457 49.4104 16.5857 48.1977L20.4837 32.2303C21.4722 28.2622 22.1337 25.4331 22.7706 21.4007H22.8814C23.3285 25.4758 23.9629 28.2745 24.7763 32.2434C24.7763 32.2434 26.3623 39.4928 27.1759 43.2991C27.9904 47.1043 30.2574 49.5041 36.1744 48.1977L45.4631 12.7988H37.9658L34.7932 28.1042C33.9402 32.5575 33.167 36.0412 32.5703 40.1143H32.4642C31.9221 36.0771 31.2317 32.7354 30.3655 28.3955L27.0651 12.7988H19.2521L15.7198 28.0023C14.72 32.6235 13.7825 36.3536 13.1886 40.2912H13.0806C12.4708 36.5833 11.6591 31.8935 10.7807 27.4223C10.7807 27.4223 8.68368 16.5474 7.9461 12.7988L0.046875 12.8V12.8ZM59.645 38.7004C59.645 39.1901 59.6018 39.6952 59.4666 40.1388C58.9151 41.9814 57.0191 43.5394 54.6486 43.5394C52.6717 43.5394 51.1041 42.409 51.1041 40.0215C51.1041 36.3675 55.0977 35.3584 59.6459 35.3838L59.645 38.7001V38.7004ZM66.7767 32.3325C66.7767 26.3072 64.2195 21.0055 55.5807 21.0055C51.1443 21.0055 47.6213 22.2597 45.701 23.3776L47.1065 28.2215C48.8622 27.1054 51.661 26.1814 54.3103 26.1814C58.6962 26.1691 59.414 28.6802 59.414 30.2873V30.6677C49.8563 30.6535 43.82 33.984 43.82 40.7687C43.82 44.9144 46.8941 48.7974 52.237 48.7974C55.527 48.7974 58.2771 47.477 59.9259 45.36H60.0865C60.0865 45.36 61.1793 49.9562 67.1936 48.1977C66.8791 46.2863 66.7767 44.2459 66.7767 41.7923V32.3325V32.3325ZM78.6791 40.6835V12.8H71.5381V48.1988H78.6791V40.6835ZM172.097 12.8V38.913C172.097 42.515 172.771 45.0357 174.209 46.5784C175.469 47.9272 177.54 48.8002 180.023 48.8002C182.135 48.8002 184.211 48.3945 185.191 48.0286L185.099 42.4119C184.37 42.5913 183.533 42.7365 182.387 42.7365C179.954 42.7365 179.14 41.167 179.14 37.935V27.9436H185.358V21.1698H179.14V12.8H172.097V12.8ZM153.665 21.606V48.1988H161.031V34.5828C161.031 33.8468 161.075 33.2055 161.191 32.619C161.736 29.7654 163.902 27.9436 167.014 27.9436C167.867 27.9436 168.477 28.037 169.139 28.1315V21.1698C168.584 21.0584 168.207 21.0063 167.516 21.0063C164.767 21.0063 161.64 22.7922 160.327 26.623H160.128V21.606H153.665ZM83.6793 21.606V48.1988H90.8562V32.6047C90.8562 31.873 90.9416 31.0991 91.1933 30.4282C91.788 28.8582 93.2394 27.0194 95.5554 27.0194C98.4528 27.0194 99.8058 29.4843 99.8058 33.0418V48.1968H106.977V32.4128C106.977 31.7147 107.072 30.873 107.277 30.2574C107.866 28.4704 109.429 27.0174 111.582 27.0174C114.518 27.0174 115.927 29.4391 115.927 33.6264V48.196H123.104V32.5327C123.104 24.2734 118.938 21.0038 114.235 21.0038C112.154 21.0038 110.509 21.5285 109.022 22.446C107.774 23.2204 106.654 24.3178 105.677 25.7603H105.571C104.437 22.8944 101.768 21.0052 98.291 21.0052C93.824 21.0052 91.8163 23.2851 90.5985 25.2184H90.4916V21.6051H83.6793" fill="#1A75CF"/>
<path d="M253.415 46.9069H253.523C253.667 46.9069 253.759 46.8471 253.759 46.7583C253.759 46.6572 253.673 46.6022 253.539 46.6022C253.493 46.6022 253.446 46.6116 253.415 46.6116V46.9095V46.9066L253.415 46.9069ZM253.398 47.6239H253.017V46.3724C253.103 46.3553 253.305 46.3249 253.564 46.3249C253.845 46.3249 253.97 46.3647 254.063 46.4274C254.14 46.4821 254.197 46.5755 254.197 46.7016C254.197 46.83 254.08 46.9388 253.907 46.9863V47.0023C254.048 47.0401 254.125 47.1432 254.165 47.324C254.204 47.5046 254.227 47.5783 254.251 47.6247H253.819C253.782 47.5783 253.759 47.4675 253.734 47.3571C253.709 47.2303 253.65 47.1669 253.523 47.1669H253.397L253.398 47.6239V47.6239ZM253.556 45.9647C253.008 45.9647 252.595 46.414 252.595 46.9869C252.595 47.545 253.009 48.0003 253.571 48.0003C254.135 48.0097 254.549 47.5453 254.549 46.9778C254.549 46.4129 254.135 45.9647 253.565 45.9647H253.556ZM253.581 45.625C254.344 45.625 254.953 46.2304 254.953 46.9775C254.953 47.7335 254.344 48.3397 253.57 48.3397C252.796 48.3397 252.18 47.7326 252.18 46.9778C252.18 46.2304 252.797 45.6253 253.57 45.6253H253.579" fill="#FDBB30"/>
</g>
<defs>
<clipPath id="clip0_507_637">
<rect width="255" height="61" fill="white"/>
</clipPath>
</defs>
</svg>
