<svg width="160" height="169" viewBox="0 0 160 169" fill="none" xmlns="http://www.w3.org/2000/svg">
<path d="M153.568 162.584H6.37891V6.41797H153.568V162.584Z" fill="white"/>
<path d="M160 169V0H0V169H160ZM153.566 162.583H6.37743V6.417H153.566V162.583Z" fill="#C80000"/>
<path d="M14.3906 154.519V120.73H145.608V154.519H14.3906Z" fill="#001E78"/>
<path d="M133.589 150.487V124.705H122.075V150.487H133.589ZM119.479 137.653C119.479 130.554 113.779 124.762 106.781 124.762H89.7932V150.487H106.781C113.779 150.487 119.479 144.751 119.479 137.653ZM108.926 137.653C108.926 140.719 106.612 143.275 103.733 143.275H101.25V132.087H103.733C106.612 132.031 108.926 134.529 108.926 137.653V137.653ZM65.8074 150.487H87.5358V143.047H77.4899V124.705H65.8074V150.487ZM52.7139 150.487H64.34L51.2465 124.705H39.5075L26.4141 150.487H38.0402L39.2818 147.761H51.5287L52.7139 150.487ZM48.0296 141.003H42.668L45.2641 135.268L48.0296 141.003Z" fill="white"/>
<path d="M124.446 117.494C126.196 114.201 127.155 110.794 127.099 106.932C127.042 102.616 125.236 99.8335 122.809 96.1423L87.2539 42.4212L93.0105 33.6191L132.573 93.1326C135.846 98.0163 137.709 101.708 137.822 107.159C137.878 110.339 136.919 114.314 135.451 117.438H124.446V117.494Z" fill="#00B4DC"/>
<path d="M137.085 117.493C137.367 116.869 137.536 116.471 137.762 115.903C138.609 113.632 139.681 110.508 139.568 107.215C139.455 101.479 137.48 97.6743 134.15 92.7338L93.9666 32.3118L98.5945 25.2701L142.333 91.2573C146.171 97.0497 147.977 100.457 147.977 105.795C147.977 111.928 146.341 114.654 145.099 117.436H137.085V117.493ZM112.535 117.493C114.905 114.995 116.598 110.963 116.372 106.704C116.203 103.069 113.945 99.4915 111.349 95.5164L81.7197 50.8246L86.2347 43.9532L121.169 96.709C123.596 100.4 125.233 102.956 125.289 106.988C125.346 110.792 124.386 114.2 122.524 117.493H112.535ZM68.1747 14.4805L17.6633 91.3141C13.8255 97.1065 12.0195 100.514 12.0195 105.852C12.0195 111.985 13.6562 114.711 14.8978 117.493H22.9684C22.7426 117.039 22.5169 116.471 22.2911 115.846C21.4446 113.575 20.598 110.452 20.6545 107.215C20.7673 101.479 22.7426 97.6743 26.0724 92.7338L77.7126 14.4805H68.1747Z" fill="#001E78"/>
<path d="M79.4057 14.4805L27.4268 93.2449C24.1535 98.1286 22.291 101.82 22.1781 107.271C22.1217 110.452 23.0811 114.427 24.5485 117.55H35.5538C33.8042 114.256 32.8448 110.849 32.9012 106.988C32.9577 102.672 34.7637 99.8891 37.1905 96.1979L90.9189 14.4805H79.4057ZM46.9542 98.1854H109.825L105.536 91.7116H51.187L48.6473 95.5164C48.0829 96.3682 47.4621 97.3336 46.9542 98.1854V98.1854Z" fill="#00B4DC"/>
<path d="M92.6698 14.4805L38.6028 96.709C36.1759 100.4 34.5393 102.956 34.4828 106.988C34.4264 110.792 35.3858 114.2 37.2483 117.493H47.4634C45.0931 114.995 43.3999 110.963 43.6257 106.704C43.6821 105.852 43.8514 104.716 44.0772 103.864H112.874C112.423 102.501 111.971 101.366 110.786 99.7755H45.996C46.7297 98.4694 47.7456 96.8793 48.6486 95.5164L52.2042 90.1784H104.522L101.643 85.8625H55.0825L101.982 14.5373H92.6698V14.4805Z" fill="#001E78"/>
</svg>
