<svg width="233" height="48" viewBox="0 0 233 48" fill="none" xmlns="http://www.w3.org/2000/svg">
<path d="M143.826 46.8453H152.059V1.96652H143.826V46.8453ZM168.772 46.8453H177.023V13.5162H168.772V46.8453ZM205.402 37.807C202.679 43.0054 200.533 46.977 200.413 46.977H191.852L200.581 30.0393L190.415 13.5918H199.343L204.584 22.1714L208.984 13.5918H217.902C217.902 13.5918 213.71 21.8568 209.415 30.1394L219.692 46.977H211.122L205.402 37.807V37.807ZM48.9488 32.4381L48.9346 13.518H56.737C56.9069 19.683 56.6384 26.6775 56.737 32.5136C56.737 36.5134 59.996 39.9844 64.0733 39.9844C68.1472 39.9844 71.4204 36.997 71.4204 32.983L71.3976 13.518H79.3126C79.2984 23.3682 79.2113 25.3259 79.3126 32.7142C79.3126 40.9704 72.3605 47.659 63.9718 47.659C55.5741 47.659 48.9491 40.6979 48.9491 32.4381H48.9488ZM111.318 39.698C116.553 39.698 120.811 35.5153 120.811 30.3539C120.811 25.1958 116.553 21.0167 111.318 21.0167C106.074 21.0167 101.817 25.1958 101.817 30.3539C101.817 35.5153 106.074 39.698 111.318 39.698ZM111.377 12.6656C121.3 12.6656 129.346 20.5774 129.346 30.3329C129.346 40.0933 121.3 48 111.377 48C101.459 48 93.315 39.5503 93.315 29.7932L93.3334 1.94556H101.569L101.511 15.9642C104.379 14.0593 107.665 12.6656 111.378 12.6656H111.377ZM17.9259 27.644C23.1503 27.644 27.3849 23.4859 27.3849 18.3473C27.3849 13.2156 23.1503 9.05229 17.9261 9.05229C12.7122 9.05229 8.47948 13.2156 8.47948 18.3473C8.47948 23.4859 12.7122 27.644 17.9259 27.644V27.644ZM17.9443 0.660766C27.8573 0.660766 35.9012 8.57625 35.9012 18.3315C35.9012 28.0867 27.8573 36.0004 17.9445 36.0004C14.387 36.0004 11.0496 35.1042 8.25853 33.3467L8.23854 46.8963H0V17.9975C0 8.24044 8.02942 0.660766 17.9477 0.660766H17.9443ZM229.482 43.341C229.97 43.341 230.4 43.2903 230.4 42.7227C230.4 42.2446 229.934 42.1778 229.539 42.1778H228.751V43.341H229.482ZM228.751 45.5748H228.083V41.6397H229.593C230.57 41.6397 231.056 41.9651 231.056 42.7682C231.056 43.4797 230.618 43.7824 230.005 43.8489L231.133 45.5745H230.42L229.38 43.8773H228.751V45.5748ZM226.666 43.5995C226.666 45.232 227.888 46.4428 229.453 46.4428C231 46.4428 232.221 45.232 232.221 43.5995C232.221 41.9861 231 40.7768 229.453 40.7768C227.888 40.7768 226.666 41.9861 226.666 43.5995ZM225.889 43.5995C225.889 41.5802 227.541 40.1619 229.453 40.1619C231.352 40.1619 233 41.5802 233 43.5995C233 45.6309 231.352 47.0614 229.453 47.0614C227.541 47.0614 225.889 45.6309 225.889 43.5995ZM173.273 10.0189C176.085 10.0189 178.365 7.77655 178.365 5.01215C178.365 2.24257 176.085 0 173.273 0C170.459 0 168.17 2.24257 168.17 5.01215C168.17 7.77655 170.459 10.0189 173.273 10.0189" fill="#3E902D"/>
</svg>
