<svg width="257" height="70" viewBox="0 0 257 70" fill="none" xmlns="http://www.w3.org/2000/svg">
<path d="M20.4656 57.3301C15.3643 57.3301 11.2333 60.2418 9.23916 62.3054C9.23916 62.3054 4.38649 67.1014 1.10079 68.762C0.956718 68.8408 0.959268 68.9997 1.15944 68.9997H30.8594C36.7309 68.9997 39.4912 67.0162 42.9758 63.9049C42.9758 63.9049 48.0491 59.203 51.5286 57.6848C51.8792 57.5526 51.7963 57.3301 51.5286 57.3301H20.4656ZM71.4888 57.3301C66.3875 57.3301 62.2603 60.2418 60.2624 62.3054C60.2624 62.3054 55.411 67.1014 52.1253 68.762C51.9799 68.8408 51.9825 68.9997 52.1839 68.9997H81.9426C87.8127 68.9997 90.5757 67.0162 94.059 63.9049C94.059 63.9049 99.0761 59.203 102.553 57.6848C102.904 57.5526 102.878 57.3301 102.612 57.3301H71.4888ZM122.571 57.3301C117.471 57.3301 113.341 60.2418 111.344 62.3054C111.344 62.3054 106.492 67.1014 103.206 68.762C103.063 68.8408 103.067 68.9997 103.267 68.9997H133.026C138.896 68.9997 141.598 67.0162 145.083 63.9049C145.083 63.9049 150.157 59.203 153.635 57.6848C153.987 57.5526 153.961 57.3301 153.695 57.3301H122.571ZM173.594 57.3301C168.495 57.3301 164.424 60.2418 162.426 62.3054C162.426 62.3054 157.515 67.1014 154.228 68.762C154.085 68.8408 154.089 68.9997 154.289 68.9997H184.046C189.918 68.9997 192.679 67.0162 196.164 63.9049C196.164 63.9049 201.241 59.203 204.718 57.6848C205.071 57.5526 204.983 57.3301 204.718 57.3301H173.594ZM224.674 57.3301C219.574 57.3301 215.442 60.2418 213.448 62.3054C213.448 62.3054 208.593 67.1014 205.308 68.762C205.163 68.8408 205.168 68.9997 205.367 68.9997H235.128C240.998 68.9997 243.757 67.0162 247.246 63.9049C247.246 63.9049 252.264 59.203 255.737 57.6848C256.088 57.5526 256.066 57.3301 255.797 57.3301H224.674Z" fill="#0054A4" stroke="white" stroke-width="0.36309" stroke-miterlimit="11.474"/>
<path d="M124.413 1C113.556 1 102.97 4.2143 102.97 14.9786C102.97 33.6198 135.578 23.7722 135.578 35.1774C135.578 38.8952 129.796 40.3904 125.125 40.3904C116.736 40.3904 110.954 39.1457 103.624 34.7629V44.121C109.088 45.9176 116.523 46.7873 124.591 46.7873C135.853 46.7873 146.39 43.887 146.39 32.8671C146.39 13.4033 113.78 22.1485 113.78 12.6099C113.78 8.76874 119.013 7.45657 123.583 7.45657C131.272 7.45657 139.574 9.70074 144.135 13.9119V3.96128C138.233 2.10364 130.396 1 124.413 1ZM182.028 1.11825C162.445 1.11825 149.478 10.5056 149.478 24.811C149.478 37.9403 161.379 46.7275 179.177 46.7275C184.942 46.7275 190.088 45.9735 196.104 44.5342V33.4571C191.852 37.9378 186.798 39.7356 181.374 39.7356C170.862 39.7356 163.673 33.2053 163.673 23.8014C163.673 14.526 171.126 7.74901 181.55 7.74901C187.23 7.74901 191.783 9.80881 195.448 13.3779V2.30072C191.637 1.51749 186.857 1.11825 182.028 1.11825V1.11825ZM227.702 1.11825C210.828 1.11825 198.895 10.8057 198.895 24.455C198.895 37.8449 209.61 46.7288 225.565 46.7288C242.517 46.7288 254.193 37.2842 254.193 23.5688C254.197 10.1114 243.579 1.11825 227.702 1.11825V1.11825ZM2.76562 2.48V12.9646C6.43382 10.1292 14.1055 9.05991 22.4849 8.99634V37.6046C22.4849 41.7649 22.1164 42.9499 20.3467 45.128H36.9192C35.059 42.9499 34.7798 41.7649 34.7798 37.6046V8.7573C42.0422 8.82087 50.7122 10.1267 54.3804 12.9659V2.48127H2.76562V2.48ZM58.8366 2.48C60.5706 4.65678 60.9148 5.89774 60.9148 10.0618V37.6046C60.9148 41.7649 60.6012 43.0148 58.9552 45.128H98.9891V34.7629C93.4964 38.6625 83.0426 38.6765 78.7943 38.6116H72.9739V26.7068H77.2502C80.1483 26.7068 85.3771 27.0488 88.4167 27.9516V19.0677C85.4205 20.0277 80.1394 20.3125 77.2502 20.3125H72.9739V9.00142H78.7943C83.995 9.00142 93.0399 10.0746 96.4353 12.9112V2.48636H58.8366V2.48ZM226.578 7.57482C235.416 7.57482 241.248 14.8668 241.248 23.8637C241.248 32.8607 235.416 40.1539 226.578 40.1539C217.595 40.1539 211.844 32.8607 211.844 23.8637C211.845 14.868 217.595 7.57482 226.578 7.57482Z" fill="#F02E25" stroke="white" stroke-width="0.138408" stroke-miterlimit="3.864"/>
</svg>
