<svg width="161" height="157" viewBox="0 0 161 157" fill="none" xmlns="http://www.w3.org/2000/svg">
<path d="M160.326 156.223H0.816406V1.19141H160.326V156.223Z" fill="white"/>
<path d="M161 157H0V0H161V157Z" fill="#008061"/>
<path d="M99.2666 146.669V152.955H60.6513V146.658H31.4314C28.5755 146.658 26.2499 143.663 26.2499 139.97L14.0234 15.8661C14.0234 12.1709 16.8781 9.17383 20.4018 9.17383H138.48C141.981 9.17383 144.836 12.1709 144.836 15.8661L132.747 139.97C132.747 143.663 130.421 146.658 127.566 146.658L99.2666 146.669Z" fill="white"/>
<path d="M35.5273 27.3457H114.577C106.794 30.2735 83.0999 46.3736 77.1827 57.1983H35.597L35.5273 27.3457V27.3457Z" fill="#F5821F"/>
<path d="M98.5308 112.885C97.4025 123.695 97.3558 136.86 97.3558 150.689H63.0938C63.0938 136.86 63.6688 123.695 64.7971 112.885H98.5308Z" fill="#ED1B2D"/>
<path d="M40.0422 101.453V105.644H45.5225V110.447H32.9961V88.0977H45.5225V93.0757H40.0422V97.2626H45.5225V101.453H40.0422Z" fill="#008061"/>
<path d="M69.1945 101.453V105.644H74.6512V110.447H62.1484V88.0977H74.6512V93.0757H69.1945V97.2626H74.6512V101.453H69.1945Z" fill="#008061"/>
<path d="M101.269 101.453V105.644H106.749V110.447H94.2227V88.0977H106.749V93.0757H101.269V97.2626H106.749V101.453H101.269Z" fill="#008061"/>
<path d="M60.3969 105.644V110.447H47.8711V88.0977H54.9172V105.644H60.3969Z" fill="#008061"/>
<path d="M75.9414 88.0977L79.4408 110.447H88.4902L92.727 88.0977H87.5001L84.7605 103.202L82.0889 88.0977H75.9414Z" fill="#008061"/>
<path d="M116.489 110.444H109.719V88.0977H116.489V110.444Z" fill="#008061"/>
<path d="M116.488 94.7319C116.857 92.2847 120.311 92.9412 120.311 94.3391V110.446H127.103V91.5037C127.103 87.4868 121.462 85.8715 116.535 89.4073L116.488 94.7319V94.7319Z" fill="#008061"/>
<path d="M101.709 84.9547C102.4 76.4018 114.074 62.4349 125.38 58.767V25.7715C94.2719 39.7391 74.0547 60.8634 69.6797 84.8711L101.709 84.9541V84.9547Z" fill="#ED1B2D"/>
</svg>
