<svg width="397" height="96" viewBox="0 0 397 96" fill="none" xmlns="http://www.w3.org/2000/svg">
<path d="M95.8722 23.9357H87.525L85.4969 26.4889C85.1406 26.8459 85.258 27.2263 85.6143 27.344L88.355 28.552L96.1071 24.9279C96.2145 24.8766 96.3012 24.7899 96.3525 24.6823C96.4039 24.5748 96.4169 24.4528 96.3895 24.3368C96.362 24.2208 96.2957 24.1177 96.2016 24.0447C96.1075 23.9717 95.9912 23.9332 95.8722 23.9357V23.9357Z" fill="#4A835B"/>
<path d="M79.3678 28.4878C80.2702 27.5814 80.2682 26.1137 79.3633 25.2097C78.4585 24.3057 76.9934 24.3077 76.091 25.2142C75.1886 26.1206 75.1906 27.5883 76.0954 28.4923C77.0003 29.3963 78.4654 29.3943 79.3678 28.4878Z" fill="white"/>
<path d="M64.8854 64.9687H54.6119C52.3113 66.274 49.9148 67.4016 47.4431 68.3417C47.1886 68.4515 47.0868 68.5025 47.2082 68.8555L56.3894 94.3727H61.4048L52.9909 71.1225H53.218C58.6994 71.1225 71.7801 69.7537 78.8588 58.2972C77.237 60.4531 75.12 62.1852 72.6874 63.3466C70.2548 64.508 67.5785 65.0645 64.8854 64.9687ZM66.3419 49.7078C66.9057 48.8528 67.4421 47.9076 67.951 47.0212C67.7161 46.8957 67.5047 46.7466 67.2698 46.9937C63.7044 51.0888 59.2724 54.336 54.2964 56.499C49.3204 58.6619 43.9256 59.6863 38.5046 59.4974H26.4301C26.0659 59.4974 25.7645 59.1679 26.0385 58.811C33.9905 47.951 43.1525 38.0346 53.3472 29.2541L33.1212 46.2917C31.4382 47.7749 29.2665 48.5811 27.0252 48.5547H1.5762C0.855796 48.5547 1.09462 49.0764 1.21208 49.4333C2.19428 52.5799 4.19625 55.3084 6.901 57.1867C9.60575 59.0651 12.8587 59.9859 16.1448 59.8033L10.1897 66.0434C9.95478 66.2787 9.95478 67.02 10.546 67.02H33.2543C39.8061 67.3274 46.3219 65.8862 52.1354 62.8438C57.9489 59.8013 62.8515 55.2668 66.3419 49.7039V49.7078ZM59.6273 75.429L66.4319 94.3727H71.4552L64.2668 74.37C62.7465 74.8298 61.1963 75.1836 59.6273 75.429V75.429ZM95.9332 23.9357H87.5702L85.5421 26.4772C85.1859 26.842 85.3072 27.2106 85.6596 27.3283L88.4003 28.5285L96.1602 24.9241C96.2684 24.8745 96.3563 24.789 96.4088 24.6821C96.4614 24.5751 96.4756 24.4533 96.4489 24.3371C96.4222 24.221 96.3563 24.1176 96.2624 24.0445C96.1684 23.9713 96.0521 23.9329 95.9332 23.9357V23.9357ZM79.3639 28.4892C79.0396 28.8116 78.6273 29.0306 78.1789 29.1186C77.7306 29.2066 77.2662 29.1597 76.8444 28.9837C76.4227 28.8078 76.0623 28.5107 75.8089 28.1299C75.5554 27.7491 75.4201 27.3016 75.4201 26.8439C75.4201 26.3862 75.5554 25.9388 75.8089 25.558C76.0623 25.1772 76.4227 24.8801 76.8444 24.7041C77.2662 24.5282 77.7306 24.4812 78.1789 24.5692C78.6273 24.6572 79.0396 24.8762 79.3639 25.1986C78.581 24.4216 77.5223 23.9873 76.4202 23.9912C75.3181 23.9951 74.2625 24.4367 73.485 25.2192C72.7075 26.0017 72.2716 27.0612 72.2729 28.1652C72.2742 29.2693 72.7125 30.3277 73.4919 31.1084C74.2712 31.8891 75.3278 32.3283 76.4299 32.3296C77.532 32.3308 78.5897 31.8942 79.3708 31.1153C80.1519 30.3364 80.5928 29.279 80.5966 28.1749C80.6005 27.0709 80.167 26.0104 79.3913 25.2261C79.8181 25.6633 80.0547 26.2519 80.0496 26.8633C80.0444 27.4748 79.7979 28.0593 79.3639 28.4892Z" fill="#00985F"/>
<path d="M79.2616 28.13C80.0246 27.3657 80.0246 26.1265 79.2616 25.3622C78.4986 24.5979 77.2616 24.5979 76.4987 25.3622C75.7357 26.1265 75.7357 27.3657 76.4987 28.13C77.2616 28.8943 78.4986 28.8943 79.2616 28.13Z" fill="white"/>
<path d="M78.8526 58.2981C83.723 49.0192 86.955 38.9665 88.4058 28.5843L85.6651 27.3684C85.3089 27.2508 85.1914 26.8821 85.5477 26.5173L87.5758 23.9954C86.2144 21.9261 84.3505 20.2373 82.159 19.0875C79.9675 17.9377 77.5203 17.3646 75.047 17.422C71.2933 17.3723 67.6109 18.4516 64.4759 20.5204C60.6071 23.2553 56.8862 26.1945 53.3293 29.3256C43.1335 38.0802 33.971 47.9746 26.0206 58.8158C25.7661 59.1728 26.0676 59.5022 26.4121 59.5022H38.5062C43.9329 59.6832 49.3317 58.6506 54.3102 56.4796C59.2886 54.3086 63.7217 51.0537 67.2871 46.9515C67.3683 46.8525 67.4848 46.7889 67.6119 46.7743C67.739 46.7597 67.8668 46.7951 67.9683 46.873C68.0804 46.957 68.1581 47.0789 68.1869 47.2161C68.2157 47.3532 68.1937 47.4962 68.1249 47.6182C65.4451 54.6145 60.7487 60.6543 54.6331 64.9696H64.9066C67.5951 65.0609 70.266 64.5023 72.6934 63.341C75.1209 62.1798 77.2335 60.4501 78.8526 58.2981V58.2981ZM73.4731 31.118C72.8879 30.5354 72.4886 29.7919 72.3257 28.9816C72.1629 28.1714 72.2438 27.331 72.5584 26.5669C72.8729 25.8029 73.4068 25.1496 74.0924 24.6899C74.7781 24.2302 75.5845 23.9848 76.4096 23.9848C77.2346 23.9848 78.041 24.2302 78.7267 24.6899C79.4123 25.1496 79.9462 25.8029 80.2607 26.5669C80.5753 27.331 80.6562 28.1714 80.4934 28.9816C80.3305 29.7919 79.9312 30.5354 79.346 31.118C78.5652 31.8928 77.5106 32.3275 76.4115 32.3275C75.3125 32.3275 74.2579 31.8928 73.477 31.118H73.4731ZM83.0889 60.8318C79.7064 66.2515 74.6946 70.4564 68.7749 72.8413L76.4839 94.3736H98.9182C94.4313 81.3797 89.6274 68.6093 85.0974 57.0234C84.4867 58.2824 83.8132 59.6669 83.0928 60.8318H83.0889ZM0 94.3736H22.7083L30.0533 71.8058H7.89701C5.38735 78.646 2.72891 86.1686 0 94.3736ZM29.8928 42.2724L42.997 31.3807C45.1621 25.529 47.3899 19.736 49.7195 14.7393C50.894 17.4024 51.9864 20.0929 53.1414 22.9286C58.1998 18.7437 61.5199 16.4846 61.6844 16.3748L61.7588 16.3356C63.8231 14.9459 66.0912 13.8873 68.4812 13.1979C65.4978 6.66365 63.3914 2.05126 62.3774 0H36.9402C34.822 4.78889 26.9172 21.2029 17.6694 43.0843H27.0268C28.0503 43.1875 29.0748 42.8973 29.8928 42.2724V42.2724Z" fill="#E0001A"/>
<path d="M127.175 81.1329C126.029 81.2786 124.864 81.1656 123.767 80.8021C122.669 80.4387 121.667 79.834 120.833 79.0324C119.999 78.2308 119.354 77.2525 118.947 76.1691C118.539 75.0857 118.378 73.9247 118.476 72.771V37.6133H100.043V75.2655C100.043 89.1222 106.213 95.9349 119.228 95.9349" fill="#E0001A"/>
<path d="M136.224 77.078C133.833 79.5261 130.585 80.9455 127.168 81.0354C126.018 81.1806 124.851 81.066 123.752 80.7C122.652 80.334 121.649 79.726 120.815 78.9205C119.981 78.1151 119.337 77.1327 118.932 76.0456C118.526 74.9584 118.369 73.7941 118.472 72.6382V36.947H100.043V75.1758C100.043 89.0914 106.162 95.9276 119.228 95.9276C122.827 96.1969 126.44 95.6411 129.793 94.3023C133.145 92.9635 136.149 90.8769 138.577 88.2011L139.72 94.3902H154.668V36.9314H136.224V77.078ZM194.799 79.9529C185.579 79.9529 180.783 74.1992 180.783 65.4411C180.783 57.0478 185.575 51.8863 194.678 51.8863C199.057 51.8106 203.357 53.0644 207.011 55.4829L209.65 39.7631C203.508 37.0482 196.839 35.7366 190.128 35.9234C171.566 35.9234 161.383 46.6033 161.383 66.1589C161.383 85.8321 170.963 95.9119 189.651 95.9119C197.039 96.0199 204.333 94.2452 210.848 90.7544L208.213 76.1171C204.133 78.5012 199.521 79.8202 194.799 79.9529V79.9529ZM251.922 35.9234C245.952 35.5724 240.045 37.311 235.212 40.8417V15.7402H216.094V94.3745H235.208V54.7612C236.323 53.5521 237.668 52.579 239.164 51.8993C240.66 51.2196 242.277 50.8471 243.92 50.8038C245.053 50.6641 246.203 50.7854 247.282 51.1584C248.361 51.5313 249.342 52.1462 250.148 52.9561C250.954 53.7659 251.565 54.7494 251.934 55.8317C252.304 56.9139 252.421 58.0663 252.279 59.201V94.3745H271.393V56.6791C271.393 42.7635 264.976 35.9234 251.922 35.9234V35.9234ZM377.676 35.9234C374.078 35.6151 370.457 36.1253 367.083 37.4156C363.71 38.706 360.671 40.7433 358.193 43.3754L356.917 36.9196H341.706V94.3745H360.821V54.7612C361.935 53.5521 363.28 52.579 364.776 51.8993C366.273 51.2196 367.89 50.8471 369.532 50.8038C370.665 50.6648 371.814 50.7865 372.893 51.1598C373.972 51.5331 374.951 52.148 375.757 52.9578C376.563 53.7676 377.174 54.7508 377.543 55.8328C377.912 56.9147 378.029 58.0667 377.887 59.201V94.3745H397.001V56.6791C397.001 42.7635 390.608 35.9234 377.676 35.9234V35.9234ZM277.869 68.0846C277.869 87.5225 285.053 95.9315 298.952 95.9315C302.298 96.2095 305.661 95.6487 308.737 94.2998C311.812 92.951 314.505 90.8564 316.571 88.205L317.53 94.3941H332.85V39.5199C324.389 36.8708 315.546 35.6553 306.685 35.9234C288.099 35.9234 277.869 47.321 277.869 68.0807V68.0846ZM313.716 77.0819C312.571 78.3383 311.174 79.3398 309.618 80.0215C308.061 80.7032 306.379 81.0499 304.68 81.0393C299.653 81.0393 296.869 76.3602 296.869 67.3629C296.869 56.3261 299.907 50.8078 305.874 50.8078C308.51 50.7487 311.141 51.0308 313.705 51.6471L313.716 77.0819Z" fill="#E0001A"/>
</svg>
