<svg width="284" height="52" viewBox="0 0 284 52" fill="none" xmlns="http://www.w3.org/2000/svg">
<path d="M229.642 1.93475C229.737 1.82458 229.872 1.75677 230.016 1.74609C230.064 1.74912 230.111 1.76188 230.154 1.78362C230.197 1.80535 230.235 1.83561 230.266 1.87257C230.297 1.90954 230.32 1.95244 230.334 1.9987C230.348 2.04496 230.353 2.09363 230.348 2.14177C230.338 2.2944 230.271 2.43758 230.161 2.54274C225.21 8.7513 221.609 16.0119 221.609 26.0819C221.609 36.1518 225.227 43.2602 230.161 49.4687C230.271 49.574 230.338 49.7173 230.348 49.87C230.353 49.9182 230.348 49.9668 230.334 50.013C230.32 50.0592 230.297 50.1021 230.266 50.139C230.235 50.1759 230.197 50.2062 230.154 50.2279C230.111 50.2496 230.064 50.2623 230.016 50.2654C229.945 50.2604 229.875 50.2411 229.811 50.2088C229.746 50.1764 229.689 50.1315 229.642 50.0767L208.533 29.4931C207.998 29.0875 207.563 28.5618 207.264 27.9576C206.964 27.3534 206.809 26.6873 206.809 26.0119C206.809 25.3365 206.964 24.6704 207.264 24.0662C207.563 23.462 207.998 22.9363 208.533 22.5307L229.642 1.94075" fill="#ED1C24"/>
<path d="M245.86 0.189453C237.598 0.189453 234.371 11.9986 234.371 26.0758C234.371 40.1526 237.598 51.8098 245.86 51.8098C250.818 51.8098 255.046 48.8786 255.064 46.4707C255.061 46.1945 255.004 45.9217 254.894 45.6688C254.784 45.4158 254.624 45.188 254.424 44.9993C252.072 42.7128 251.155 40.4204 251.143 38.4014C251.143 34.5464 254.449 31.676 257.506 31.676C261.728 31.676 264.188 35.0085 264.188 39.3196C264.188 43.406 262.458 46.8172 260.57 49.5417C260.5 49.6433 260.462 49.7641 260.461 49.888C260.455 49.9345 260.459 49.9818 260.472 50.0269C260.484 50.072 260.506 50.114 260.536 50.1504C260.565 50.1868 260.601 50.2168 260.642 50.2386C260.684 50.2604 260.729 50.2736 260.775 50.2773C260.927 50.2609 261.067 50.187 261.167 50.0706L282.276 29.487C282.812 29.0814 283.246 28.5557 283.546 27.9515C283.845 27.3473 284.001 26.6811 284.001 26.0056C284.001 25.3302 283.845 24.664 283.546 24.0598C283.246 23.4555 282.812 22.9298 282.276 22.5242L261.167 1.93466C261.067 1.81825 260.927 1.74439 260.775 1.72799C260.582 1.72799 260.462 1.90428 260.462 2.12331C260.462 2.24718 260.5 2.36797 260.57 2.46953C262.446 5.19403 264.189 8.59895 264.189 12.6857C264.189 16.9968 261.71 20.3353 257.506 20.3353C254.449 20.3353 251.131 17.4589 251.143 13.6039C251.143 11.5909 252.072 9.29845 254.424 7.00601C254.624 6.81701 254.784 6.58919 254.893 6.33629C255.003 6.08339 255.061 5.81067 255.064 5.53459C255.064 3.10225 250.842 0.195459 245.86 0.195459V0.189453ZM30.0203 34.7894C30.0013 33.8038 30.2203 32.8283 30.6584 31.947C31.0965 31.0657 31.7405 30.305 32.535 29.7305C34.4051 28.4605 36.6267 27.8218 38.8799 27.9061C40.3778 27.8872 41.8656 28.1554 43.2643 28.6964V26.2641C43.2282 23.8317 42.3175 22.4575 39.6097 22.4274C38.7387 22.4568 37.8759 22.6081 37.0463 22.8772C37.1369 23.2206 37.1855 23.5739 37.191 23.9292C37.2088 24.7004 36.9448 25.4513 36.4492 26.039C36.187 26.3285 35.8659 26.5576 35.508 26.7108C35.1501 26.864 34.7636 26.9377 34.3749 26.9268C34.0108 26.9229 33.6511 26.8466 33.3163 26.7023C32.9815 26.558 32.6782 26.3485 32.4239 26.0858C32.1695 25.8231 31.969 25.5125 31.8339 25.1716C31.6989 24.8307 31.6318 24.4662 31.6366 24.0992C31.6727 21.15 35.219 19.1677 39.9594 19.1617C43.7226 19.1617 46.0807 20.0615 47.3474 21.6976C48.4932 23.169 48.5538 25.3095 48.5538 28.3378V36.2428C48.5538 37.769 49.4343 38.1823 51.3159 38.4805H51.5331V38.6996C51.4245 40.779 49.9045 41.6424 48.2763 41.7703H47.854C47.0415 41.793 46.2402 41.5746 45.5497 41.1422C44.8592 40.7098 44.3099 40.0824 43.97 39.3379C42.2331 40.844 40.0358 41.7027 37.746 41.7703C33.3731 41.7703 30.0504 38.7907 30.0444 34.7163L30.0203 34.7894ZM164.296 40.7426C163.906 40.1172 163.639 39.4213 163.512 38.6935C163.295 38.9426 163.041 39.204 162.65 39.581C161.184 40.9802 159.24 41.7556 157.221 41.7459C156.188 41.7801 155.16 41.5855 154.21 41.1757C153.26 40.766 152.41 40.1511 151.721 39.3743C149.809 37.0699 149.822 34.1511 149.822 30.0039V26.0086C149.78 24.3913 149.278 23.8377 147.789 23.8013C147.587 23.8028 147.386 23.8149 147.186 23.8377H147.011L146.945 23.6674C146.832 23.3935 146.773 23.1004 146.77 22.804C146.818 20.8705 149.242 19.8365 150.666 19.5387C151.136 19.4509 151.611 19.3981 152.089 19.3807C152.567 19.3448 153.047 19.421 153.49 19.6035C153.934 19.786 154.33 20.0698 154.646 20.4325C155.194 21.2157 155.46 22.1639 155.4 23.1202L155.364 29.9431C155.364 32.4606 155.539 34.3457 156.094 35.5617C156.649 36.7781 157.499 37.3313 159.055 37.3433C159.73 37.3874 160.403 37.2398 160.999 36.9174C161.595 36.595 162.09 36.1107 162.426 35.5193C163.066 34.2871 163.373 32.9075 163.319 31.5181V25.9963C163.277 24.379 162.77 23.8257 161.287 23.7893C161.085 23.7906 160.884 23.8027 160.683 23.8257H160.503L160.436 23.6554C160.32 23.4126 160.246 23.1513 160.219 22.8832C160.267 20.9493 162.692 19.9156 164.121 19.6178C164.591 19.5297 165.067 19.4768 165.545 19.4595C166.023 19.4241 166.504 19.5007 166.948 19.6832C167.393 19.8656 167.79 20.1491 168.108 20.5116C168.66 21.2927 168.928 22.242 168.868 23.1994C168.868 23.9836 168.795 25.3703 168.795 31.1835C168.795 33.6158 168.753 34.9477 168.753 35.3427C168.789 37.0151 169.356 37.775 170.888 37.775H171.588L171.654 37.9453C171.765 38.2114 171.824 38.4962 171.829 38.7847C171.769 40.6698 169.338 41.4297 167.927 41.7095C167.486 41.7923 167.041 41.8431 166.594 41.8614C166.157 41.8955 165.72 41.8187 165.32 41.6381C164.921 41.4576 164.573 41.1789 164.308 40.8277L164.296 40.7426ZM87.3818 30.8613C87.2839 27.7762 88.3632 24.7707 90.3973 22.4638C91.4256 21.3848 92.6657 20.5339 94.0386 19.9653C95.4114 19.3967 96.8867 19.123 98.3704 19.1617C99.6039 19.1124 100.834 19.3288 101.978 19.7965C103.122 20.2642 104.154 20.9724 105.005 21.8738C106.376 23.4001 107.139 25.3842 107.146 27.4437C107.163 28.5026 106.914 29.5488 106.422 30.4844L106.355 30.6059H93.063C93.2862 34.5156 95.753 37.2522 100.053 37.2949C101.059 37.3018 102.056 37.0971 102.979 36.694C103.902 36.2909 104.731 35.6982 105.415 34.9537L105.559 34.7711L105.746 34.911C106.016 35.1118 106.23 35.3787 106.368 35.6863C106.506 35.9939 106.564 36.332 106.537 36.6685C106.537 38.9246 103.901 41.8127 98.0929 41.8127C96.674 41.8128 95.2693 41.5287 93.9602 40.9769C92.6511 40.4251 91.4638 39.6165 90.4673 38.5982C89.4707 37.5799 88.6848 36.3721 88.155 35.0449C87.6253 33.7178 87.3624 32.2978 87.3815 30.8673L87.3818 30.8613ZM134.623 41.7823C133.194 41.8002 131.775 41.5334 130.448 40.997C129.121 40.4607 127.913 39.6654 126.891 38.6568C125.839 37.5728 125.013 36.2876 124.461 34.8767C123.909 33.4659 123.642 31.9579 123.677 30.4416C123.656 28.9598 123.93 27.4889 124.482 26.1154C125.034 24.7419 125.853 23.4935 126.89 22.4437C127.927 21.3938 129.162 20.5637 130.522 20.0022C131.883 19.4406 133.34 19.1589 134.81 19.1737C136.263 19.1344 137.709 19.3885 139.062 19.9212C140.416 20.4538 141.65 21.2542 142.693 22.2752C144.292 23.8682 145.382 25.9067 145.824 28.129C146.265 30.3513 146.038 32.6561 145.172 34.7474C144.305 36.8387 142.839 38.6212 140.96 39.866C139.081 41.1109 136.877 41.7613 134.629 41.7339L134.623 41.7823ZM175.472 41.1255C174.543 40.8705 173.946 40.3596 173.952 39.5873C173.966 39.2464 174.052 38.9125 174.205 38.6081L174.253 38.4985H174.368C174.897 38.394 175.394 38.1673 175.822 37.8361C176.376 37.38 176.587 36.7413 176.587 34.9477V25.8811C176.545 24.3609 176.201 23.8321 174.947 23.7953C174.613 23.8009 174.28 23.8375 173.952 23.9049L173.759 23.9412L173.686 23.7589C173.563 23.4515 173.498 23.1236 173.494 22.792C173.524 20.9677 175.484 20.0555 176.798 19.6422C177.278 19.4876 177.778 19.4056 178.282 19.3988C180.091 19.3988 181.044 20.6942 181.454 22.3603C182.625 20.4204 184.47 19.1373 186.334 19.1313C188.065 19.1313 189.801 20.2745 189.807 22.4391C189.839 23.2406 189.554 24.0221 189.017 24.6133C188.479 25.2044 187.731 25.5574 186.937 25.5953C186.296 25.6102 185.67 25.3999 185.166 25.0005C184.662 24.6011 184.311 24.0374 184.174 23.406C183.161 23.7406 181.726 25.0297 181.714 29.487V34.9594C181.714 36.747 181.967 37.3917 182.468 37.8418C183.07 38.1839 183.731 38.4088 184.416 38.5045H184.53L184.578 38.6141C184.745 38.9427 184.839 39.3035 184.856 39.6721C184.856 40.4017 184.319 40.8881 183.451 41.1435C182.17 41.4371 180.855 41.5578 179.543 41.5025C178.175 41.5543 176.807 41.4275 175.472 41.1252V41.1255ZM110.939 41.1252C110.01 40.8701 109.407 40.3529 109.407 39.5806C109.419 39.2421 109.503 38.9101 109.654 38.6077L109.703 38.4982H109.823C110.356 38.3935 110.859 38.1692 111.295 37.8418C111.832 37.3797 112.049 36.741 112.061 34.9534V23.0474L108.9 22.9379L108.846 22.798C108.693 22.445 108.611 22.0646 108.605 21.6792C108.603 21.4182 108.654 21.1596 108.755 20.9192C108.855 20.6788 109.004 20.4617 109.191 20.2812C109.378 20.1007 109.599 19.9606 109.842 19.8695C110.084 19.7785 110.343 19.7384 110.601 19.7517H111.97V18.4382C111.97 15.264 112.573 13.458 113.358 12.2476C114.564 10.3201 116.729 8.99463 119.992 8.99463C124.087 8.99463 127.525 10.9161 127.543 14.0052C127.556 14.3922 127.492 14.7779 127.354 15.1395C127.217 15.5012 127.009 15.8315 126.743 16.1109C126.478 16.3903 126.159 16.6132 125.806 16.7664C125.453 16.9197 125.074 17.0002 124.69 17.0032C123.964 16.9925 123.269 16.6993 122.752 16.1848C122.235 15.6704 121.936 14.9744 121.916 14.2423C121.923 13.6852 122.086 13.1415 122.386 12.6737C121.793 12.248 121.075 12.0339 120.348 12.0653C119.075 12.0653 118.381 12.5154 117.935 13.251C117.477 14.1949 117.269 15.2426 117.332 16.2916V19.7029H122.76L122.82 19.8488C122.974 20.2101 123.054 20.5989 123.056 20.992C123.074 21.5296 122.888 22.0539 122.536 22.4582C122.184 22.8626 121.693 23.1167 121.162 23.169C120.761 23.2035 120.358 23.2176 119.955 23.2114C119.051 23.2114 118.146 23.1446 117.495 23.1326V34.905C117.495 36.6866 117.79 37.3373 118.327 37.7874C118.864 38.2375 120.137 38.3954 120.541 38.4501H120.655L120.704 38.5657C120.842 38.8458 120.918 39.1528 120.927 39.4655C120.927 40.2805 120.269 40.7913 119.274 41.0648C117.877 41.3796 116.446 41.5126 115.016 41.4604C113.643 41.513 112.268 41.3862 110.927 41.0831L110.939 41.1252ZM73.052 41.0831C72.129 40.8277 71.532 40.3169 71.5383 39.5446C71.5544 39.2061 71.6406 38.8747 71.7913 38.5717L71.8396 38.4621H71.9601C72.4934 38.3574 72.9963 38.1329 73.4318 37.8054C73.9686 37.3433 74.1918 36.7049 74.1977 34.9173V25.8811C74.1557 24.3609 73.7997 23.8321 72.5512 23.7953C72.2169 23.8009 71.8838 23.8375 71.5561 23.9049L71.3634 23.9412L71.2909 23.7589C71.1618 23.4466 71.0942 23.112 71.0919 22.7736C71.122 20.9493 73.0821 20.0555 74.409 19.6422C74.8808 19.4884 75.3726 19.4064 75.8684 19.3988C77.6778 19.3988 78.6428 20.6759 79.065 22.3176C80.271 20.4021 82.1169 19.1373 83.9561 19.1253C85.6628 19.1253 87.4179 20.2622 87.4239 22.4271C87.4549 23.2326 87.1673 24.0175 86.6245 24.6093C86.0816 25.2011 85.3279 25.5513 84.529 25.5829C83.8909 25.598 83.2677 25.3874 82.7675 24.9875C82.2674 24.5877 81.9219 24.0239 81.791 23.394C80.7658 23.7346 79.312 25.0177 79.2941 29.4747V34.9477C79.2941 36.7353 79.5594 37.38 80.0902 37.8298C80.688 38.1773 81.3479 38.4025 82.0321 38.4925H82.1467L82.201 38.602C82.362 38.9277 82.4526 39.2841 82.4666 39.6478C82.4666 40.3776 81.9298 40.8641 81.0552 41.1255C79.7702 41.4211 78.452 41.5439 77.135 41.4905C75.7675 41.5427 74.3991 41.416 73.0639 41.1135L73.052 41.0831ZM55.1639 41.1135C54.2409 40.8581 53.6502 40.3473 53.6502 39.575C53.6634 39.2367 53.7476 38.9051 53.8972 38.602L53.9456 38.4925H54.0661C54.5993 38.3879 55.1023 38.1635 55.5377 37.8361C56.0745 37.3737 56.2977 36.7353 56.3037 34.9477V25.8811C56.2553 24.3609 55.9056 23.8321 54.6512 23.7953C54.3169 23.8009 53.9838 23.8375 53.6561 23.9049L53.4631 23.9412L53.3905 23.7589C53.2615 23.4466 53.1939 23.112 53.1915 22.7736C53.2217 20.9493 55.1817 20.0555 56.5087 19.6422C56.9785 19.4888 57.4683 19.4067 57.9621 19.3988C59.7715 19.3988 60.7365 20.6759 61.1587 22.3116C62.3647 20.4021 64.2106 19.1373 66.0501 19.125C67.7565 19.125 69.5176 20.2625 69.5239 22.4331C69.555 23.2386 69.2675 24.0237 68.7246 24.6155C68.1817 25.2074 67.4279 25.5577 66.629 25.5893C65.991 25.6033 65.3683 25.3922 64.8683 24.9924C64.3684 24.5927 64.0226 24.0295 63.8907 23.4C62.8654 23.7406 61.412 25.0237 61.3997 29.481V34.9534C61.3997 36.7413 61.659 37.3861 62.1958 37.8361C62.7934 38.1843 63.4536 38.4095 64.138 38.4989H64.2586L64.3069 38.6084C64.4703 38.9335 64.5628 39.29 64.5781 39.6541C64.5781 40.384 64.0354 40.8705 63.1608 41.1319C61.8758 41.4275 60.5576 41.5501 59.2407 41.4965C57.8733 41.5485 56.5049 41.4218 55.1698 41.1195L55.1639 41.1135ZM129.81 29.8276C129.81 35.7564 132.38 38.3102 134.888 38.3406C137.753 38.3406 139.828 35.7864 139.846 30.7945C139.846 28.1856 139.273 26.0998 138.338 24.7135C137.959 24.0647 137.421 23.5249 136.776 23.1458C136.131 22.7667 135.4 22.5611 134.653 22.5486C131.674 22.5486 129.828 25.2668 129.828 29.8824L129.81 29.8276ZM39.8631 31.1347C37.4986 31.1347 35.9124 32.278 35.9002 34.4916C35.9002 36.583 37.3119 37.988 39.519 38.0001C40.2546 37.973 40.9757 37.7857 41.6326 37.4509C42.2896 37.1161 42.8668 36.6417 43.3246 36.0605V33.0199C43.2947 32.7609 43.2005 32.5138 43.0509 32.3013C42.9012 32.0887 42.7008 31.9177 42.4682 31.8039C41.6709 31.3658 40.7702 31.1554 39.8631 31.1955V31.1347ZM101.03 27.6079C101.452 27.6079 101.567 27.5044 101.633 27.3649C101.724 27.1122 101.76 26.8422 101.736 26.5742C101.729 26.0433 101.617 25.5189 101.408 25.0316C101.199 24.5442 100.896 24.1035 100.517 23.7348C100.138 23.3661 99.6902 23.0769 99.1996 22.8837C98.709 22.6905 98.1853 22.5973 97.6587 22.6094C94.5767 22.6094 93.3283 25.0965 93.1352 27.6083H101.006L101.03 27.6079ZM6.1251 37.8849C3.52521 35.1964 1.84895 31.2683 1.84895 26.3792C1.76729 22.1758 3.27694 18.0988 6.07079 14.9778C7.30154 13.6129 8.79894 12.5195 10.4689 11.7661C12.1389 11.0127 13.9454 10.6157 15.7748 10.5999C22.3548 10.5999 26.9985 15.2516 27.0227 19.2652C27.0227 21.4117 25.6719 23.0718 23.8503 23.0778C22.9792 23.0916 22.1358 22.7696 21.4921 22.1777C21.1626 21.8551 20.9034 21.4667 20.731 21.0375C20.5587 20.6082 20.4769 20.1474 20.4911 19.6846C20.5009 19.2049 20.6046 18.7318 20.796 18.2926C20.9874 17.8533 21.2629 17.4564 21.6067 17.1247C20.7143 15.5861 19.0016 14.3702 16.3176 14.3702C14.0379 14.3702 12.0957 15.5861 10.7327 17.6659C9.36971 19.7453 8.53158 22.7797 8.53158 26.3496C8.53158 29.9195 9.38197 32.9103 10.8053 35.0021C12.2285 37.0942 14.1886 38.2799 16.4683 38.2859C19.1522 38.2859 20.8649 37.0699 21.7276 35.5253C21.0382 34.8573 20.6392 33.9413 20.6176 32.9775C20.6041 32.5137 20.6861 32.0521 20.8585 31.6219C21.0308 31.1917 21.2898 30.8022 21.619 30.478C22.2624 29.8851 23.1055 29.5612 23.9771 29.5722C25.7865 29.5722 27.1432 31.2262 27.1495 33.3664C27.1495 37.3981 22.4813 42.0197 15.9013 42.0377C14.0781 42.0409 12.2728 41.675 10.5924 40.9616C8.91206 40.2481 7.3909 39.2018 6.11915 37.8845L6.1251 37.8849ZM6.11915 37.8845C3.51961 35.1968 1.84299 31.2686 1.84299 26.3796C1.76133 22.1761 3.27099 18.0992 6.06483 14.9781C7.29555 13.6132 8.79294 12.5197 10.4629 11.7663C12.1329 11.0128 13.9394 10.6157 15.7689 10.5999C22.3485 10.5999 26.9925 15.2516 27.0164 19.2652C27.0164 21.4117 25.6656 23.0718 23.8443 23.0778C22.9732 23.0916 22.1298 22.7696 21.4862 22.1777C21.1566 21.8551 20.8974 21.4667 20.7251 21.0375C20.5527 20.6082 20.471 20.1474 20.4851 19.6846C20.495 19.2049 20.5986 18.7318 20.7901 18.2926C20.9815 17.8533 21.257 17.4564 21.6008 17.1247C20.7143 15.5861 19.0016 14.3702 16.3176 14.3702C14.0379 14.3702 12.0957 15.5861 10.7327 17.6659C9.36971 19.7453 8.53158 22.7797 8.53158 26.3496C8.53158 29.9195 9.38197 32.9103 10.8053 35.0021C12.2285 37.0942 14.1886 38.2799 16.4683 38.2859C19.1522 38.2859 20.8649 37.0699 21.7276 35.5253C21.0382 34.8573 20.6392 33.9413 20.6176 32.9775C20.6041 32.5137 20.6861 32.0521 20.8585 31.6219C21.0308 31.1917 21.2898 30.8022 21.619 30.478C22.2624 29.8851 23.1055 29.5612 23.9771 29.5722C25.7865 29.5722 27.1432 31.2262 27.1495 33.3664C27.1495 37.3981 22.4813 42.0197 15.9013 42.0377C14.0781 42.0409 12.2728 41.675 10.5924 40.9616C8.91206 40.2481 7.3909 39.2018 6.11915 37.8845V37.8845ZM6.11915 37.8845C3.51961 35.1968 1.84299 31.2686 1.84299 26.3796C1.76133 22.1761 3.27099 18.0992 6.06483 14.9781C7.29555 13.6132 8.79294 12.5197 10.4629 11.7663C12.1329 11.0128 13.9394 10.6157 15.7689 10.5999C22.3485 10.5999 26.9925 15.2516 27.0164 19.2652C27.0164 21.4117 25.6656 23.0718 23.8443 23.0778C22.9732 23.0916 22.1298 22.7696 21.4862 22.1777C21.1566 21.8551 20.8974 21.4667 20.7251 21.0375C20.5527 20.6082 20.471 20.1474 20.4851 19.6846C20.495 19.2049 20.5986 18.7318 20.7901 18.2926C20.9815 17.8533 21.257 17.4564 21.6008 17.1247C20.7143 15.5861 19.0016 14.3702 16.3176 14.3702C14.0379 14.3702 12.0957 15.5861 10.7327 17.6659C9.36971 19.7453 8.53158 22.7797 8.53158 26.3496C8.53158 29.9195 9.38197 32.9103 10.8053 35.0021C12.2285 37.0942 14.1886 38.2799 16.4683 38.2859C19.1522 38.2859 20.8649 37.0699 21.7276 35.5253C21.0382 34.8573 20.6392 33.9413 20.6176 32.9775C20.6041 32.5137 20.6861 32.0521 20.8585 31.6219C21.0308 31.1917 21.2898 30.8022 21.619 30.478C22.2624 29.8851 23.1055 29.5612 23.9771 29.5722C25.7865 29.5722 27.1432 31.2262 27.1495 33.3664C27.1495 37.3981 22.4813 42.0197 15.9013 42.0377C14.0781 42.0409 12.2728 41.675 10.5924 40.9616C8.91206 40.2481 7.3909 39.2018 6.11915 37.8845" fill="#005BAB"/>
</svg>
