<svg width="233" height="39" viewBox="0 0 233 39" fill="none" xmlns="http://www.w3.org/2000/svg">
<path fill-rule="evenodd" clip-rule="evenodd" d="M185.833 38.4313H0V0.517578H185.873L185.833 38.4313V38.4313Z" fill="#CC2229"/>
<path fill-rule="evenodd" clip-rule="evenodd" d="M227.827 13.3129C229.994 18.4337 228.713 25.277 224.724 29.2771C222.795 30.9121 220.721 32.6306 218.046 32.0926C216.587 31.7505 215.539 30.7342 215.176 29.3522C214.86 28.1523 214.94 26.9983 215.097 25.7539L225.949 25.7344L225.655 25.3618C220.179 18.8994 215.834 11.6042 212.925 3.92105C209.799 11.7029 205.414 19.3902 200.195 25.7748L210.828 25.7525C210.766 27.1749 211.097 28.9128 210.44 30.1349C209.78 31.4739 208.227 32.1384 206.793 32.169C202.503 31.7672 199.651 27.9924 198.019 24.4219C196.121 20.034 196.819 14.0095 199.806 10.2583C203.957 4.73998 211.293 2.50983 218.125 4.62457C222.293 5.93569 225.997 9.18218 227.827 13.3129V13.3129ZM230.855 10.339C234.417 16.6721 233.291 25.2395 228.838 30.6841C223.67 36.8559 214.63 39.556 206.635 37.0256C199.108 34.8427 193.288 27.8798 192.897 19.888C192.432 12.4287 196.837 5.56445 203.222 2.28042C209.449 -1.04672 218.296 -0.732492 224.256 3.21892C226.909 4.89847 229.256 7.53877 230.855 10.339V10.339Z" fill="#27824D"/>
<path fill-rule="evenodd" clip-rule="evenodd" d="M68.0783 10.7315C68.3981 11.3892 68.5649 12.1038 68.5441 12.9825L48.0029 12.9895C47.3759 12.9895 46.3929 13.3496 46.0328 14.1754C45.5837 15.2029 46.1009 16.3833 47.1187 16.8366C47.5246 17.0173 48.2435 16.9937 48.2435 16.9937H63.187C65.8607 17.1842 68.2438 18.9152 69.1642 21.7668C69.965 24.2486 69.5521 26.3132 67.9212 28.3418C66.0387 30.6831 63.4623 30.7123 60.6246 30.7068L44.0905 30.6873C42.2955 30.6873 40.7856 28.9063 40.5297 27.0752L40.5186 26.1492L62.3473 26.1714C63.0772 26.1714 64.0129 25.1565 64.0379 24.1151C64.0657 22.9903 63.2955 21.9239 62.1818 21.9239H46.4568C43.7373 21.9239 40.9649 19.349 40.5186 16.1331C40.1571 13.5303 41.0066 11.5616 43.0101 9.88064C44.5229 8.61263 45.6727 8.24975 47.7874 8.24697L62.3306 8.2275C64.5816 8.18579 67.0258 8.57509 68.0783 10.7315ZM102.077 8.32482C105.593 8.32761 108.443 11.9717 108.347 15.7841C108.256 19.463 105.073 22.861 102.155 22.861H89.8903C88.0953 22.6385 86.7175 21.326 86.0084 19.8092C85.7665 19.2155 85.7526 18.3813 85.6858 17.7612L86.3198 17.7737H101.145C101.785 17.7737 102.395 17.1842 102.698 16.4431C102.975 15.7646 102.958 15.2154 102.62 14.5647C102.248 13.8445 101.575 13.3913 100.913 13.3913H84.3789L84.2246 13.5484V28.3056C84.2246 29.6793 83.0358 30.6901 81.6329 30.6623C80.4038 30.64 79.2568 29.6362 79.2568 28.332V12.532C79.2568 11.2265 79.749 10.4549 80.6708 9.57476C81.5311 8.77221 82.6602 8.31998 83.8366 8.30675L102.077 8.32482ZM128.695 14.2825C130.325 16.5655 132.117 18.7664 133.67 21.1397H122.704L128.16 14.2533C128.16 14.2533 128.306 14.0211 128.448 14.0336C128.584 14.0461 128.695 14.2825 128.695 14.2825ZM133.179 11.7229C136.008 15.6881 141.72 23.1279 144.618 27.3199C144.982 28.2709 144.555 29.2886 144.074 30.0603C143.293 30.7958 142.013 30.9515 141.122 30.5302C139.723 29.2705 138.754 27.7036 137.63 26.3049L118.767 26.2646L116.536 29.3109C115.833 30.2716 114.94 30.932 113.565 30.6845C112.851 30.5399 112.172 29.9323 111.936 29.2775C111.57 28.428 111.61 27.6257 112.09 26.8499L124.046 10.8873C125.048 9.37594 126.131 8.29424 128.003 8.30536C130.95 8.34429 131.151 9.09091 133.179 11.7229ZM175.588 8.32482C178.181 8.32761 180.608 10.3089 181.582 13.1633C182.627 16.2234 181.664 18.9332 179.314 21.1397C178.793 21.6319 177.839 22.2339 177.839 22.2339L181.081 26.9125C181.377 27.3393 181.472 28.1888 181.195 28.9243C180.939 29.6056 180.6 30.0046 179.935 30.2924C179.032 30.6831 177.839 30.3216 177.454 29.8448C177.454 29.8448 174.355 26.0407 172.639 23.876C172.337 23.5576 172.18 23.2628 171.862 22.9389L163.599 22.9792C161.551 22.9875 159.132 20.5182 159.132 18.5523V17.7918L174.517 17.7723C175.093 17.7709 175.739 17.2287 176.054 16.5196C176.339 15.88 176.333 15.3628 176.054 14.7205C175.717 13.953 174.959 13.408 174.362 13.4094L157.626 13.458L157.58 13.6263V28.6588C157.58 29.6612 156.209 30.9501 154.865 30.8208C153.626 30.704 152.608 29.4304 152.611 28.5448L152.63 12.6099C152.633 10.9498 153.111 10.3047 154.151 9.39124C155.165 8.50141 156.08 8.30397 157.424 8.30675L175.588 8.32482Z" fill="white"/>
</svg>
