<svg width="160" height="132" viewBox="0 0 160 132" fill="none" xmlns="http://www.w3.org/2000/svg">
<g clip-path="url(#clip0_507_618)">
<path d="M79.9999 8.90039C119.225 8.90039 151.021 34.4296 151.021 65.9264C151.021 97.4105 119.225 122.946 79.9999 122.946C40.7679 122.946 8.97266 97.4105 8.97266 65.9264C8.97266 34.4296 40.7679 8.90039 79.9999 8.90039" fill="white"/>
<path d="M79.9987 6.41016C60.4659 6.41016 42.0723 12.5379 28.2163 23.6601C21.4259 29.1092 16.0883 35.4739 12.3571 42.5621C8.46588 49.9577 6.48828 57.8143 6.48828 65.927C6.48828 74.0269 8.45948 81.89 12.3571 89.2855C16.0947 96.3738 21.4323 102.732 28.2227 108.188C42.0787 119.323 60.4723 125.431 80.0051 125.431C99.5379 125.431 117.932 119.323 131.781 108.188C138.572 102.732 143.909 96.3802 147.653 89.2855C151.538 81.89 153.522 74.0269 153.522 65.927C153.522 57.8143 151.544 49.9577 147.653 42.5621C143.903 35.4739 138.572 29.1092 131.781 23.6537C117.925 12.5379 99.5379 6.41016 79.9987 6.41016" fill="#0468B3"/>
<path d="M80 0C58.72 0 38.7008 6.8065 23.616 19.1645C16.224 25.2154 10.4256 32.2652 6.368 40.1347C2.1376 48.3178 0 57.0196 0 65.9968C0 74.9739 2.1376 83.6758 6.368 91.8653C10.4256 99.7219 16.2304 106.778 23.616 112.835C38.7008 125.187 58.7264 131.994 80.0064 131.994C101.286 131.994 121.306 125.187 136.39 112.829C143.77 106.765 149.574 99.7091 153.645 91.8589C157.862 83.6694 160.006 74.9611 160.006 65.9904C160.006 57.0132 157.869 48.3178 153.645 40.1283C149.574 32.2588 143.77 25.209 136.39 19.1581C121.299 6.8065 101.28 0 80 0V0ZM80 2.49081C122.81 2.49081 157.51 30.927 157.51 65.9904C157.51 101.073 122.81 129.496 80 129.496C37.1904 129.496 2.4896 101.073 2.4896 65.9904C2.4896 30.927 37.1904 2.49081 80 2.49081" fill="#0468B3"/>
<path d="M59.074 55.7183C59.074 55.7183 58.1972 55.2637 56.6292 55.2893C53.8452 55.3277 51.9124 57.1142 51.9124 57.1142L51.202 55.2637H45.8132L45.7812 83.9111H52.4884V66.5651C52.4884 64.9836 53.2372 64.2152 53.8452 63.6645C55.6308 62.0446 59.074 61.9933 59.074 61.9933V55.7183ZM142.914 55.7183C142.914 55.7183 142.031 55.2637 140.463 55.2893C137.666 55.3277 135.746 57.1142 135.746 57.1142L135.036 55.2637H129.64L129.608 83.9111H136.322V66.5651C136.322 64.9836 137.064 64.2152 137.666 63.6645C139.464 62.0446 142.908 61.9933 142.908 61.9933V55.7183H142.914ZM108.424 88.7967H108.578L108.757 88.8095C108.879 88.8159 108.956 88.8351 109.026 88.8543C109.128 88.8991 109.205 88.976 109.237 89.072C109.256 89.1297 109.288 89.2577 109.288 89.4434C109.301 89.6163 109.308 89.7572 109.333 89.8532H110.082L110.063 89.77C110.05 89.7379 110.044 89.7123 110.044 89.6803C110.031 89.6547 110.031 89.6227 110.031 89.5907V89.3217C110.031 89.0208 109.948 88.7967 109.768 88.6558C109.679 88.5854 109.532 88.5278 109.34 88.4829C109.551 88.4637 109.724 88.3997 109.858 88.2844C110.005 88.1692 110.069 87.9899 110.069 87.7402C110.069 87.4072 109.941 87.1703 109.679 87.023C109.519 86.9398 109.32 86.895 109.084 86.8694C109.032 86.863 108.834 86.863 108.463 86.863H107.631V89.8532H108.418L108.424 88.7967ZM109.148 88.15C109.045 88.2268 108.904 88.2524 108.725 88.2524H108.424V87.3816H108.604C108.802 87.3816 108.949 87.4008 109.064 87.4456C109.224 87.5161 109.308 87.6185 109.308 87.785C109.308 87.9579 109.256 88.0667 109.148 88.15ZM110.722 86.4404C110.197 85.9153 109.564 85.6592 108.815 85.6592C108.111 85.6592 107.49 85.9025 106.965 86.3955C106.396 86.9142 106.114 87.5673 106.114 88.3613C106.114 89.1168 106.37 89.7508 106.901 90.2758C107.413 90.8009 108.053 91.057 108.808 91.057C109.544 91.057 110.178 90.8073 110.696 90.3014C111.24 89.7636 111.503 89.1232 111.503 88.3613C111.509 87.6057 111.253 86.9718 110.722 86.4404V86.4404ZM110.396 86.7797C110.824 87.2215 111.042 87.7466 111.042 88.3549C111.042 88.9696 110.824 89.4946 110.396 89.9428C109.96 90.3783 109.448 90.6024 108.821 90.6024C108.2 90.6024 107.688 90.3783 107.253 89.9493C106.805 89.5138 106.594 88.9824 106.594 88.3549C106.594 87.753 106.805 87.2151 107.24 86.7797C107.676 86.3379 108.2 86.1138 108.821 86.1138C109.436 86.1138 109.954 86.3379 110.396 86.7797V86.7797ZM65.5188 69.581C65.5188 64.4521 66.7924 60.7383 70.018 60.7383C73.2564 60.7383 74.5172 64.4521 74.5172 69.581C74.5172 74.7099 73.2564 78.4237 70.018 78.4237C66.7924 78.4237 65.5188 74.7099 65.5188 69.581ZM81.0004 69.6066C81.0004 61.6796 77.25 55.2701 69.9924 55.2701C62.9012 55.2701 58.9844 61.6796 58.9844 69.6066C58.9844 77.5144 62.3572 83.9431 69.9924 83.9431C77.4804 83.9431 81.0004 77.5144 81.0004 69.6066ZM116.687 60.7383C118.882 60.7383 120.156 62.4351 120.77 65.1052H112.636C113.237 62.4351 114.524 60.7383 116.687 60.7383ZM121.48 72.3984C121.071 76.0097 119.752 78.4237 117.148 78.4237C113.992 78.4237 112.7 74.8443 112.648 69.8819H121.64V69.8883H128.13V69.8819C128.213 67.2631 127.701 65.1052 127.701 65.1052H127.688C126.504 59.3873 122.946 55.2637 117.122 55.2637C110.031 55.2637 106.114 61.6732 106.114 69.6002C106.114 77.508 109.493 83.9367 117.122 83.9367C123.708 83.9367 127.221 78.9743 127.97 72.392L121.48 72.3984Z" fill="white"/>
<path d="M93.5943 78.4433C90.3623 78.4433 89.0631 74.7167 89.0631 69.5622C89.0631 64.4077 90.3559 60.6683 93.5943 60.6683C96.8519 60.6683 98.1127 64.4077 98.1127 69.5622C98.1127 74.7167 96.8519 78.4433 93.5943 78.4433ZM104.577 84.8464C104.558 82.759 104.577 55.2064 104.577 55.2064H97.4663V56.7752C96.6023 55.866 94.8167 55.2961 93.5687 55.2705C86.4391 55.0976 82.5095 61.6159 82.5095 69.5814C82.5095 77.5405 85.9079 83.9179 93.5815 83.9179C95.0791 83.9179 96.3975 83.2904 97.5751 82.8294C97.9015 88.4321 98.0935 106.918 85.8183 107.302C72.5191 107.603 73.9655 88.3361 73.8503 87.7854C72.9479 87.7854 66.6119 87.8046 66.6119 87.8046C66.6119 87.8431 65.6391 112.117 85.0311 112.117C106.042 112.124 104.602 86.9402 104.577 84.8464ZM55.6935 25.2207C46.3559 25.2207 41.0631 30.4648 38.4711 36.631L38.4519 36.6246C38.4135 36.7399 38.3687 36.8487 38.3303 36.9704C38.3111 36.996 38.2983 37.028 38.2919 37.0536C37.0503 40.3256 36.9031 43.0726 36.9031 43.4119C37.3319 58.837 29.9399 59.7975 29.9399 59.7975C29.8183 58.4784 29.9399 41.8111 29.9399 41.8111H22.8359V83.9179H29.9655V66.367C29.9655 65.6563 36.2631 66.3286 36.6919 74.3517C36.7303 75.0689 36.6919 83.9179 36.6919 83.9179H44.2183C44.0583 82.7654 45.7479 63.9787 36.3335 63.8378C34.8359 63.8122 44.0903 61.6992 43.8087 47.8429C43.7383 44.7502 44.0903 41.9584 44.7687 39.5444C46.3239 34.5884 49.1335 30.1319 54.9063 30.055C67.9175 29.8886 66.4391 51.0956 66.6055 51.4286C67.5143 51.4286 73.8503 51.4222 73.8503 51.4222C73.8503 51.3902 75.1303 25.2207 55.6935 25.2207" fill="white"/>
<path d="M73.4989 129.137C43.7837 126.736 18.9901 111.567 8.08452 89.137C2.03012 76.6702 1.08292 62.5321 5.44132 49.5082C8.50052 40.371 12.8717 33.4684 20.3213 26.028C26.0877 20.2716 31.4701 16.3145 38.4077 12.7416C47.0797 8.27222 55.1053 5.59572 65.3197 3.77724C71.3805 2.69511 88.4238 2.69511 94.5742 3.77084C113.23 7.03642 127.848 14.2591 139.617 26.0088C145.32 31.7012 148.475 35.9849 151.605 42.2727C159.643 58.4213 159.041 77.0031 149.973 92.8636C140.533 109.371 122.216 122.055 100.622 127.037C93.5758 128.651 80.2958 129.681 73.4989 129.137V129.137ZM95.4318 124.277C112.481 121.229 126.561 114.16 137.448 103.179C159.189 81.242 159.093 50.2574 137.205 28.3972C131.681 22.8777 126.267 19.0294 118.702 15.2516C92.5838 2.19567 59.8925 3.40586 35.5085 18.3315C11.1309 33.2571 0.756521 58.8888 9.37092 82.8812C17.1725 104.601 40.0525 120.954 68.1166 124.86C74.7406 125.782 88.667 125.487 95.4318 124.277V124.277Z" fill="white"/>
</g>
<defs>
<clipPath id="clip0_507_618">
<rect width="160" height="132" fill="white"/>
</clipPath>
</defs>
</svg>
