<svg width="160" height="160" viewBox="0 0 160 160" fill="none" xmlns="http://www.w3.org/2000/svg">
<path d="M0 0V160H160V0H0Z" fill="white"/>
<path d="M1.39062 1.39062H158.608V158.608H1.39062V1.39062Z" fill="#0050AA"/>
<path d="M80.0017 5.56445C65.2771 5.5617 50.8824 9.92535 38.6379 18.1036C26.3933 26.2818 16.8489 37.9073 11.2115 51.51C5.5741 65.1127 4.09697 80.0815 6.96689 94.5237C9.83681 108.966 16.9249 122.233 27.3348 132.646C37.7447 143.06 51.0088 150.153 65.4499 153.029C79.891 155.904 94.8605 154.432 108.465 148.8C122.07 143.168 133.699 133.628 141.882 121.386C150.065 109.145 154.434 94.7516 154.436 80.0271C154.433 60.2843 146.59 41.3508 132.633 27.388C118.675 13.4251 99.7445 5.57552 80.0017 5.56445V5.56445Z" fill="#E60A14"/>
<path fill-rule="evenodd" clip-rule="evenodd" d="M80.0017 10.2676C66.2112 10.2676 52.7303 14.3566 41.2635 22.0176C29.7967 29.6787 20.8589 40.5677 15.5803 53.308C10.3016 66.0483 8.91904 80.0676 11.6074 93.5936C14.2958 107.12 20.9344 119.545 30.6838 129.298C40.4332 139.051 52.8557 145.695 66.3806 148.389C79.9055 151.082 93.9254 149.705 106.668 144.432C119.41 139.158 130.303 130.225 137.968 118.761C145.634 107.297 149.728 93.8181 149.734 80.0276C149.734 61.5309 142.388 43.7914 129.312 30.7096C116.235 17.6279 98.4984 10.275 80.0017 10.2676V10.2676Z" fill="#FFF000"/>
<path fill-rule="evenodd" clip-rule="evenodd" d="M75.6723 81.9615L63.3593 69.6484L49.168 83.8676V88.6397L52.7436 85.0502L62.6497 94.9841L58.9906 98.6293L61.3697 101.022L81.1819 81.1823V76.4241L75.6723 81.9615Z" fill="#E60A14"/>
<path fill-rule="evenodd" clip-rule="evenodd" d="M18.1992 67.0605H40.1262V71.791H36.467V87.0953L49.1697 80.0275V92.9806H18.1992V88.2223H21.8723V71.791H18.1992V67.0605ZM110.651 67.0605V71.791H114.324V88.2223H110.651V92.9806H141.65V80.0275L128.933 87.0953V71.791H132.606V67.0605H110.651Z" fill="#0050AA"/>
<path fill-rule="evenodd" clip-rule="evenodd" d="M61.5514 52.3262C63.0963 52.3262 64.6064 52.7847 65.8906 53.6436C67.1747 54.5025 68.1751 55.7231 68.7651 57.151C69.355 58.5788 69.5079 60.1496 69.2045 61.6644C68.9011 63.1792 68.1549 64.5699 67.0606 65.6604C65.9662 66.7509 64.5728 67.492 63.057 67.7901C61.5411 68.0881 59.9708 67.9295 58.5451 67.3345C57.1194 66.7395 55.9023 65.7347 55.048 64.4475C54.1937 63.1603 53.7406 61.6485 53.7461 60.1036C53.7461 59.0799 53.9482 58.0663 54.3408 57.1209C54.7334 56.1755 55.3088 55.3169 56.0339 54.5943C56.7591 53.8717 57.6197 53.2994 58.5665 52.9102C59.5133 52.521 60.5277 52.3226 61.5514 52.3262V52.3262Z" fill="#E60A14"/>
<path d="M77.5652 67.0605V71.791H81.2243V88.2223H77.5234V92.9806H98.393C113.892 92.9806 114.087 67.0605 98.4347 67.0605H77.5652ZM94.4556 75.1301H95.3321C99.9095 75.1301 99.9095 84.8692 95.4991 84.8692H94.4556V75.1301Z" fill="#0050AA"/>
</svg>
