<svg width="75" height="77" viewBox="0 0 75 77" fill="none" xmlns="http://www.w3.org/2000/svg">
<g clip-path="url(#clip0_527_590)">
<ellipse cx="37.5" cy="38.416" rx="37.5" ry="38" fill="#5AAC52"/>
<g opacity="0.2">
<path opacity="0.2" d="M37.7363 52.6827C27.431 60.9894 15.9547 65.2614 5.18105 65.4987C-2.78217 51.7333 -1.14263 18.2694 8.22581 8.53876C16.6574 -0.242528 43.1231 -1.90393 58.3469 3.55471C62.0942 19.2188 54.3653 39.1546 37.7363 52.6827Z" fill="white"/>
</g>
<path d="M32.1126 59.5661C30.4731 59.5661 28.8337 58.854 27.8969 57.4301L14.7811 40.3421C12.9074 37.9688 13.3759 34.6461 15.718 32.7474C18.0601 30.8487 21.339 31.3235 23.2127 33.6968L32.1126 45.3261L51.7864 19.4568C53.6601 17.0836 56.939 16.6088 59.2811 18.5075C61.6231 20.4062 62.0917 23.7288 60.2179 26.1021L36.3284 57.4301C35.1574 58.6167 33.7522 59.5661 32.1126 59.5661Z" fill="white"/>
</g>
<defs>
<clipPath id="clip0_527_590">
<rect width="75" height="76" fill="white" transform="translate(0 0.416016)"/>
</clipPath>
</defs>
</svg>
