<svg width="95" height="72" viewBox="0 0 95 72" fill="none" xmlns="http://www.w3.org/2000/svg">
<g clip-path="url(#clip0_39_109)">
<path d="M50.6841 24.6969C51.0159 29.2511 50.4101 33.8739 51.1892 38.3917C51.2187 38.501 51.2695 38.6033 51.3387 38.6929C51.408 38.7824 51.4942 38.8573 51.5925 38.9133C51.6908 38.9692 51.7993 39.0052 51.9116 39.0189C52.0238 39.0327 52.1377 39.0241 52.2466 38.9936C53.8558 38.4873 55.5265 38.2034 57.2125 38.1496C58.0558 38.1089 58.9013 38.1239 59.7425 38.1496C60.4981 38.1732 61.2408 38.3231 61.9707 38.0896C62.5315 37.9097 62.737 37.0593 62.1441 36.7615C62.097 36.7379 62.0499 36.7187 62.0007 36.6972C61.96 36.1296 61.8166 35.5126 61.8102 35.0285C61.7952 33.831 61.9108 32.6357 62.0242 31.4425C62.189 29.5553 62.7434 27.441 62.4288 25.5559C62.4013 25.4491 62.3457 25.3516 62.2677 25.2736C62.1898 25.1956 62.0924 25.14 61.9857 25.1124C61.9098 25.0844 61.8288 25.0727 61.7481 25.0782C61.0032 25.3395 61.0289 26.3313 60.9433 27.0061C60.8277 27.9294 60.6929 28.8505 60.5644 29.7738C60.5524 29.742 60.5322 29.714 60.5059 29.6926C60.4796 29.6711 60.4481 29.657 60.4146 29.6517C59.7168 29.5296 59.0019 29.7331 58.2977 29.7866C57.692 29.8316 57.0862 29.8573 56.4783 29.8723C56.4783 29.1226 56.4783 28.3728 56.5511 27.6252C56.5982 27.0789 56.7352 26.5734 56.7416 26.0272C56.7416 25.6394 56.6988 25.5987 56.6517 25.648L56.5233 25.2753C56.5167 25.2521 56.5049 25.2307 56.4889 25.2128C56.4729 25.1948 56.4529 25.1808 56.4306 25.1717C56.4084 25.1626 56.3843 25.1587 56.3603 25.1604C56.3363 25.162 56.3129 25.169 56.2921 25.181C56.2197 25.2498 56.1631 25.3335 56.1262 25.4264C56.0892 25.5192 56.0728 25.6189 56.078 25.7187C56.1059 26.7705 55.8148 27.8608 55.7677 28.9319C55.7548 29.2554 55.7463 29.5746 55.7441 29.898H55.7142C54.7167 29.913 53.3211 29.7566 52.3665 30.2086C52.3065 28.3471 52.1524 26.5006 51.643 24.7033C52.7903 25.1981 54.8537 24.9175 55.7099 24.9347C56.9299 24.9454 58.15 24.9518 59.3679 24.9775C60.2883 24.9968 61.7374 25.3567 62.4009 24.5298C62.4738 24.4537 62.5204 24.3563 62.5339 24.2519C62.5474 24.1474 62.527 24.0413 62.4759 23.9493C61.9386 23.0303 60.6415 23.2081 59.7275 23.1909C58.3876 23.1652 57.0477 23.1781 55.7099 23.1909C55.2668 23.1909 50.5021 22.906 50.9003 24.005C50.9348 24.0977 50.9823 24.1849 51.0415 24.2642C50.9345 24.276 50.8364 24.3297 50.7687 24.4136C50.7009 24.4974 50.669 24.6046 50.6798 24.7119L50.6841 24.6969ZM55.7398 30.4057C55.7398 32.2844 55.8405 34.1416 55.3803 36.0053C55.3586 36.1011 55.3746 36.2015 55.4251 36.2857C55.4755 36.3699 55.5565 36.4314 55.6511 36.4574C55.7457 36.4833 55.8467 36.4717 55.933 36.425C56.0193 36.3783 56.0843 36.3001 56.1144 36.2067C56.6538 34.4137 56.5425 32.5222 56.4847 30.6735C56.4847 30.5899 56.4847 30.5043 56.4847 30.4207C57.7497 30.4871 59.4278 30.7078 60.466 30.0951C60.4882 30.0808 60.5078 30.0626 60.5238 30.0416C60.4867 30.3072 60.451 30.5735 60.4167 30.8406C60.2469 32.141 60.1469 33.4496 60.1171 34.7607C60.1171 35.1891 60.0743 35.7568 60.1171 36.3181C59.1261 36.2688 58.0858 36.3695 57.2211 36.3995C55.6962 36.4394 54.1815 36.6609 52.7089 37.0593C52.4029 34.9171 52.4435 32.7257 52.3857 30.5492C53.518 30.4507 54.6183 30.3971 55.7506 30.4036" fill="white"/>
<path d="M94.5763 42.7488C93.3562 41.2001 90.6421 40.5745 88.9361 39.7498C87.7161 39.1564 86.6437 38.3446 85.383 37.8026C83.8996 37.16 82.3606 36.6351 80.9094 35.9261C81.4916 35.0349 81.4681 33.7839 80.2502 33.2462C80.4642 33.3405 80.0533 32.987 79.912 32.7557C79.6615 32.3444 79.4389 31.9138 79.2121 31.4875C78.615 30.3694 77.9255 29.3031 77.1508 28.3C76.1491 26.9997 75.2244 25.6544 74.122 24.4441C74.0193 24.3306 73.908 24.2299 73.801 24.1164C78.0305 18.6346 83.433 14.0975 87.5941 8.55788C87.9344 8.10589 87.5577 7.48681 87.0975 7.33686C87.4828 7.46539 86.7379 7.09693 86.648 7.07123C86.2342 6.87241 85.8388 6.63728 85.4665 6.3686C84.1822 5.52887 82.8936 4.68915 81.6008 3.84943C79.6401 2.57913 77.5168 0.80114 75.28 0.0428168C75.1337 0.00536893 74.9793 0.0152538 74.839 0.0710548C74.6986 0.126856 74.5795 0.225706 74.4988 0.353429C72.3925 3.09325 70.9777 6.2465 69.276 9.23695C67.859 11.7283 65.8513 13.8447 64.4279 16.3168C64.1775 16.1347 63.927 15.9548 63.6723 15.7791C62.8568 15.2221 62.0113 14.708 61.183 14.1618C60.7998 13.9111 60.4081 13.6798 60.0121 13.4549C59.9286 13.4077 59.7874 13.3156 59.644 13.2256C59.2437 12.6965 58.5224 12.4202 57.6683 12.8379C54.9457 14.1639 52.6575 16.2782 50.3651 18.234L49.663 18.8338C49.6441 18.8054 49.6226 18.7789 49.5988 18.7545C49.6101 18.6221 49.5917 18.4887 49.5451 18.3642C49.4984 18.2397 49.4246 18.1272 49.3291 18.0348C46.5465 15.7277 43.811 13.3435 41.0562 10.9957C39.7976 9.92458 38.539 8.8535 37.2548 7.8017C35.5017 6.37503 33.8643 4.73842 31.9036 3.60736C31.7193 3.5016 31.5054 3.45921 31.2948 3.48668C31.0841 3.51415 30.8882 3.60996 30.7371 3.75946C27.5264 7.11621 25.8526 11.4905 23.2112 15.2564C22.8944 15.7084 23.1663 16.2547 23.5473 16.5417C25.0285 17.6492 26.7237 18.2833 28.4575 18.8788C30.6675 19.6702 32.8326 20.582 34.9431 21.61C37.548 22.8375 39.9774 24.2685 42.4989 25.6137C40.885 27.1689 39.1255 28.5228 37.5609 30.1444C35.8828 31.8817 33.327 34.553 33.2543 37.0807C33.1751 39.8655 38.3336 40.9666 39.1362 38.0661C39.4166 37.0486 39.2368 35.9239 39.9047 34.4844C40.412 33.3898 40.5275 32.7707 41.221 31.7896C42.623 29.8124 44.0036 27.9208 45.579 26.0807C47.4113 23.9386 49.2563 21.8157 51.2898 19.8685C53.4302 17.8184 56.2128 16.8352 58.9012 15.7384C58.9743 15.7086 59.0457 15.675 59.1153 15.6377C60.3311 16.1604 61.489 17.0494 62.51 17.7799C64.8902 19.4936 67.005 21.7321 69.1669 23.7158C71.2174 25.5966 72.8763 27.7666 74.3553 30.093C74.533 34.0046 74.8883 37.9011 75.0874 41.8106C75.3464 46.9132 75.0681 52.0694 74.4923 57.127C74.2076 59.6269 73.5377 61.6748 73.0861 64.1361C72.8406 65.4685 72.5959 66.8017 72.3519 68.1355C72.2085 68.9195 71.9238 69.7593 72.0008 70.5562C72.1207 71.8607 73.5869 72.6319 74.2034 71.2759C74.9975 69.5322 75.1002 66.8824 75.4534 64.9244L77.1272 48.0143C80.5306 50.3706 84.3235 52.2364 87.4014 55.0191C87.4909 55.1056 87.5987 55.1708 87.7168 55.2099C87.835 55.2491 87.9604 55.261 88.0838 55.245C88.2072 55.2289 88.3253 55.1853 88.4295 55.1172C88.5337 55.0492 88.6213 54.9586 88.6857 54.852C90.0792 52.3093 90.9803 49.6851 92.911 47.4402C93.9491 46.232 95.8605 44.3512 94.5891 42.7274L94.5763 42.7488ZM36.3365 38.7323C35.9428 38.7323 35.5579 38.6155 35.2306 38.3965C34.9032 38.1776 34.6481 37.8665 34.4974 37.5025C34.3468 37.1384 34.3073 36.7379 34.3841 36.3514C34.461 35.965 34.6505 35.61 34.9289 35.3314C35.2073 35.0528 35.562 34.863 35.9482 34.7862C36.3343 34.7093 36.7345 34.7487 37.0983 34.8995C37.462 35.0503 37.7729 35.3057 37.9917 35.6333C38.2104 35.9609 38.3271 36.3461 38.3271 36.7401C38.3271 37.2685 38.1174 37.7752 37.7441 38.1488C37.3708 38.5224 36.8645 38.7323 36.3365 38.7323ZM48.7961 19.5664C48.0641 20.2091 47.3406 20.8517 46.6278 21.4944C45.12 20.8629 43.6721 20.0965 42.302 19.2044L42.424 19.0223C42.927 18.2833 43.4172 17.5228 43.9223 16.7902C44.0507 16.6017 44.1749 16.4517 44.2626 16.3061C45.5469 17.3964 46.8676 18.4632 48.2268 19.47C48.3944 19.5753 48.5934 19.6192 48.7897 19.5943L48.7961 19.5664ZM43.6761 15.8048C42.9826 16.3339 42.3919 17.7135 42.0301 18.2404C41.9124 18.4161 41.7861 18.5939 41.6534 18.7717C40.4526 17.9705 39.2775 17.1222 38.0917 16.2954C38.706 15.0916 39.4396 13.9527 40.2814 12.8957C41.4137 13.8619 42.5396 14.8387 43.674 15.8048H43.6761ZM36.4949 20.3355C36.8113 19.1959 37.2252 18.0857 37.7321 17.0173C38.873 17.8249 40.0138 18.6346 41.1697 19.4208C40.5485 20.2022 39.9848 21.0276 39.483 21.8907C38.5027 21.353 37.5116 20.8196 36.4864 20.3355H36.4949ZM39.9539 12.6237C39.104 13.6975 38.3927 14.8743 37.837 16.1261C37.0493 15.5777 36.2573 15.0422 35.4482 14.5366C35.3412 14.4702 35.0865 14.3396 34.7354 14.1639C35.4546 12.7587 36.0968 11.317 36.6747 9.86246C37.7771 10.7729 38.8665 11.6983 39.956 12.6237H39.9539ZM36.1032 9.37833C35.3669 10.8457 34.6755 12.3195 33.9392 13.7676C32.9396 13.2835 31.6318 12.6665 30.5145 12.1439C31.4413 10.4301 32.4837 8.75711 33.4897 7.14192C34.3587 7.87025 35.2021 8.64143 36.069 9.35263L36.1032 9.38048V9.37833ZM31.574 5.6874C32.1218 6.05417 32.6505 6.44885 33.1579 6.86987C32.0535 8.53218 30.9897 10.1966 30.0115 11.9104L28.1728 11.0535L28.1386 11.1263C28.1164 11.1666 28.1078 11.2129 28.114 11.2584C28.1201 11.3039 28.1408 11.3462 28.1728 11.3791C28.6314 11.8095 29.1462 12.1756 29.7032 12.4673C28.9523 13.8109 28.2693 15.1915 27.657 16.6038C26.8409 16.3008 26.053 15.9267 25.3025 15.4856C27.4429 12.2488 28.9819 8.60715 31.5676 5.6874H31.574ZM28.4211 16.893C28.8972 15.4598 29.4908 14.0684 30.1955 12.7329C30.7927 13.0329 31.4028 13.3028 31.9657 13.5898C32.5286 13.8769 33.0659 14.1382 33.601 14.421C32.9618 15.6688 32.2529 16.8796 31.4777 18.0476C31.1266 17.902 30.7735 17.7606 30.4203 17.6192C29.7546 17.3664 29.0825 17.1351 28.4232 16.8952L28.4211 16.893ZM32.2632 18.3732C33.0342 17.2353 33.7437 16.0569 34.3887 14.843C35.0522 15.2136 35.7072 15.6099 36.3515 16.0576C36.7368 16.3261 37.1214 16.596 37.5052 16.8673C37.0236 17.9384 36.5698 19.0395 36.0197 20.1127C34.7783 19.515 33.5282 18.9216 32.2632 18.3732ZM43.8046 24.2727C42.5995 23.6301 41.4201 22.9682 40.2364 22.3105C40.8377 21.5475 41.3822 20.7413 41.8653 19.8985L41.9745 19.9734C43.1817 20.7725 44.4959 21.6615 45.8872 22.2077C45.1737 22.8761 44.4795 23.5651 43.8046 24.2749V24.2727ZM76.9239 17.8484C75.783 17.3429 74.6828 16.7045 73.5741 16.0747C74.1449 15.1522 74.7278 14.2339 75.3228 13.3199C76.6071 14.0054 77.8914 14.7509 79.1435 15.5477C78.4129 16.3189 77.6866 17.0937 76.9646 17.872L76.9239 17.8484ZM78.5935 9.04844C79.6444 9.60326 80.6954 10.1602 81.7571 10.6936C82.1757 10.9431 82.6121 11.1615 83.0627 11.347C81.9154 12.6173 80.7361 13.864 79.5567 15.1107C78.3788 14.1593 77.0927 13.3503 75.7252 12.7008C76.5814 11.4348 77.5082 10.1988 78.4094 8.94776L78.5935 9.04629V9.04844ZM75.3228 1.5616C76.0313 1.89578 76.7141 2.41847 77.3541 2.81477C78.7283 3.67163 80.0854 4.56491 81.4381 5.4539C82.6689 6.26364 83.8975 7.07766 85.1261 7.88739L85.7062 8.26655C85.4921 8.13802 85.5542 8.20229 85.6741 8.30725C85.0305 9.09985 84.3691 9.87817 83.6899 10.6422C83.1954 10.2823 82.4506 10.0788 81.9347 9.82604C80.9094 9.32478 79.8948 8.80209 78.8803 8.28155C79.542 7.35816 80.1551 6.40073 80.7168 5.4132C80.738 5.37652 80.7453 5.33339 80.7372 5.29178C80.7291 5.25016 80.7063 5.21287 80.673 5.18677C80.6396 5.16068 80.5979 5.14754 80.5556 5.14978C80.5133 5.15203 80.4732 5.1695 80.4428 5.19898C79.6025 6.03404 78.8322 6.93679 78.1397 7.8981C76.5771 7.08408 74.9954 6.22293 73.3344 5.64669C73.2862 5.63232 73.2352 5.63049 73.1861 5.64136C73.137 5.65223 73.0915 5.67545 73.0539 5.70882C73.0164 5.70984 72.9801 5.72261 72.9501 5.74534C72.9202 5.76806 72.8981 5.79961 72.887 5.83554C72.8759 5.87147 72.8764 5.90997 72.8883 5.94565C72.9002 5.98132 72.9229 6.01236 72.9534 6.03442C72.9711 6.0837 72.9994 6.12845 73.0364 6.16548C73.0734 6.20252 73.1182 6.23091 73.1674 6.24864C74.7192 6.8613 76.1983 7.73316 77.6624 8.54932C76.7655 9.81533 75.9286 11.1306 75.0938 12.3474L75.0638 12.3902C73.4285 11.6383 71.7226 11.0235 70.1087 10.4623C70.0867 10.459 70.0643 10.459 70.0423 10.4623L70.1022 10.3723C71.9302 7.48681 73.2723 4.31856 75.3164 1.57017L75.3228 1.5616ZM69.8454 10.7622C69.8545 10.797 69.8721 10.8291 69.8968 10.8553C69.9215 10.8815 69.9524 10.901 69.9867 10.9121C71.5849 11.5101 73.1466 12.2018 74.6636 12.9836C74.0528 13.8761 73.4564 14.7773 72.8742 15.687C71.2538 14.7808 69.5992 13.954 67.7799 13.6219C68.4969 12.6901 69.1968 11.7454 69.8454 10.7622ZM65.2562 16.9744C65.9776 15.959 66.7417 14.9779 67.5016 13.9925C69.3338 14.3524 70.9584 15.235 72.5509 16.1925L72.4418 16.3596C71.7633 17.4307 70.86 18.5703 70.5154 19.7871C70.4989 19.854 70.5044 19.9245 70.5313 19.988C70.5582 20.0515 70.6049 20.1046 70.6644 20.1393C70.7239 20.174 70.793 20.1885 70.8615 20.1806C70.9299 20.1728 70.994 20.1429 71.0441 20.0955C71.8146 19.2751 72.2984 18.1526 72.8806 17.1929C73.0004 16.9937 73.1267 16.7966 73.2487 16.5995C74.2893 17.2615 75.3662 17.8644 76.4744 18.4054C75.1131 19.8942 73.7924 21.4044 72.5616 23.0046C71.759 22.3512 70.9135 21.7364 70.1408 21.0766C68.5247 19.7099 66.9429 18.2619 65.2627 16.9573L65.2562 16.9744ZM86.9626 40.3282C87.6347 40.7352 88.3283 41.0887 89.0282 41.425C88.179 42.535 87.4487 43.7312 86.8492 44.9938C86.0829 44.5397 85.3124 44.092 84.5311 43.67C84.0003 43.3829 83.3281 42.9609 82.6047 42.5539C83.0328 41.3 83.4609 40.0447 83.8889 38.788C84.9456 39.2428 85.9755 39.7577 86.9734 40.3303L86.9626 40.3282ZM77.0673 35.5962C77.2685 35.9039 77.517 36.1779 77.8036 36.4081C78.6598 37.0636 79.4924 37.0314 80.1346 36.6587C81.1834 37.4984 82.3585 38.0854 83.5593 38.638C83.0713 39.8548 82.6261 41.0844 82.1744 42.3161C81.0164 41.7013 79.7707 41.1958 78.7626 41.3693C78.4629 41.4207 78.5485 41.8727 78.831 41.8791C79.8221 41.9027 80.9009 42.3761 81.9347 42.9502C81.8662 43.1387 81.7977 43.3251 81.7207 43.5114C81.3311 44.5482 80.8944 45.5593 80.4128 46.5533C80.2202 46.9539 79.9719 47.2645 79.8392 47.6244C78.983 47.0674 78.1268 46.4933 77.2899 45.8849L77.5232 43.2758C77.4483 40.7052 77.2557 38.1346 77.0652 35.5812L77.0673 35.5962ZM88.7028 51.3496C88.5123 51.7266 88.2747 52.6242 87.9558 53.2154C86.6159 51.868 84.8607 50.8398 83.3003 49.8244C82.3778 49.2246 81.4381 48.6441 80.507 48.0507C81.254 47.2109 81.5773 45.5272 81.8876 44.6018C82.0489 44.1348 82.2094 43.6671 82.3692 43.1987C83.2361 43.7171 84.0602 44.2848 84.7558 44.6982C85.3338 45.0388 85.9074 45.3901 86.481 45.7393C86.3911 45.9335 86.3027 46.1263 86.2156 46.3177C85.8239 47.1874 85.4515 48.0635 85.0619 48.9354C84.8329 49.4495 84.4476 49.955 84.5397 50.5313C84.55 50.5667 84.5682 50.5993 84.593 50.6267C84.6177 50.6541 84.6483 50.6754 84.6825 50.6893C84.7167 50.7031 84.7536 50.709 84.7904 50.7064C84.8272 50.7039 84.8629 50.6931 84.895 50.6748C85.8389 50.2357 86.3441 47.89 86.7079 47.0053L87.0782 46.1035C88.2234 46.8039 89.375 47.4916 90.5629 48.1064C90.2761 48.5198 90.0107 48.9461 89.7517 49.3917C89.3864 50.0329 89.0368 50.6834 88.7028 51.3432V51.3496ZM93.3498 44.349C92.8831 45.3451 92.0655 46.1956 91.3634 47.0353C91.2671 47.1531 91.1772 47.2709 91.0852 47.3887C89.833 46.7461 88.6194 46.0242 87.4057 45.3023C87.9198 43.9881 88.5819 42.7368 89.3792 41.5728C90.2354 41.9798 91.1151 42.3697 91.9777 42.8002C92.6392 43.1323 93.75 43.49 93.3498 44.349Z" fill="white"/>
<path d="M31.6896 31.0975C31.5847 31.5538 30.0907 36.0438 29.7054 37.0956L25.4416 49.0916C25.4416 49.0916 21.3876 36.5215 20.6791 34.3108C19.9706 32.1 16.152 33.0512 16.5523 34.3108C16.9525 35.5703 22.9073 53.8044 22.9073 53.8044H24.5576L30.4995 37.3098C31.295 35.2101 32.2363 33.1686 33.3163 31.2003C34.3352 29.4866 32.0535 29.5637 31.696 31.1018" fill="white"/>
<path d="M37.413 53.3932C37.5871 53.3926 37.754 53.3231 37.8771 53.1999C38.0002 53.0767 38.0696 52.9098 38.0702 52.7355V41.6863C38.0702 41.6006 38.0531 41.5158 38.0199 41.4368C37.9867 41.3579 37.938 41.2863 37.8768 41.2265C37.8156 41.1666 37.743 41.1196 37.6634 41.0882C37.5837 41.0568 37.4986 41.0416 37.413 41.0436L35.2618 41.0608C35.0875 41.063 34.921 41.1336 34.7982 41.2574C34.6753 41.3811 34.6058 41.5482 34.6047 41.7227V52.7419C34.6053 52.9162 34.6747 53.0831 34.7978 53.2063C34.9209 53.3296 35.0877 53.399 35.2618 53.3996H37.4237L37.413 53.3932Z" fill="white"/>
<path d="M46.9661 53.5859C47.5227 53.3527 47.9733 52.9215 48.2311 52.3756C48.5522 51.77 48.7034 50.9439 48.6849 49.8971H47.97C47.97 52.1178 47.3927 53.146 46.2383 52.9818C46.088 52.9569 45.9462 52.8947 45.8262 52.8007C45.7061 52.7068 45.6116 52.5842 45.5512 52.4441C45.3966 52.1108 45.3079 51.7508 45.2901 51.3837C45.263 50.9796 45.2494 50.484 45.2494 49.8971V41.6969H46.7349V41.0543H45.2494V37.6268C45.2494 35.9324 41.8097 35.8295 41.8097 37.6932V41.0543H40.4077V41.6969H41.8097V50.0513C41.7994 50.2274 41.8182 50.404 41.8654 50.574C41.9866 51.3361 42.2882 52.0581 42.7451 52.6797C43.2217 53.3495 44.0929 53.7208 45.3586 53.7937C45.9045 53.8515 46.4564 53.7781 46.9682 53.5794" fill="white"/>
<path d="M14.6109 49.4626H11.8797C11.7056 49.4632 11.5388 49.5326 11.4157 49.6558C11.2925 49.779 11.2231 49.946 11.2226 50.1202V56.9066C11.222 57.0808 11.1526 57.2478 11.0295 57.371C10.9064 57.4942 10.7396 57.5637 10.5654 57.5642H4.75409C4.57998 57.5637 4.41317 57.4942 4.29005 57.371C4.16694 57.2478 4.09754 57.0808 4.09698 56.9066V50.1181C4.09641 49.9438 4.027 49.7769 3.90389 49.6537C3.78077 49.5305 3.61396 49.461 3.43985 49.4604H0.652972C0.478693 49.4604 0.311547 49.5297 0.188313 49.6531C0.0650792 49.7764 -0.00415039 49.9437 -0.00415039 50.1181V67.416C-0.00358602 67.5903 0.0658284 67.7572 0.18894 67.8804C0.312052 68.0036 0.478866 68.0731 0.652972 68.0737H3.43557C3.60967 68.0731 3.77649 68.0036 3.8996 67.8804C4.02271 67.7572 4.09213 67.5903 4.09269 67.416V59.3058C4.09326 59.1316 4.16267 58.9646 4.28578 58.8414C4.40889 58.7182 4.57571 58.6487 4.74981 58.6482H10.5612C10.7353 58.6487 10.9021 58.7182 11.0252 58.8414C11.1483 58.9646 11.2177 59.1316 11.2183 59.3058V67.4182C11.2188 67.5924 11.2883 67.7593 11.4114 67.8826C11.5345 68.0058 11.7013 68.0752 11.8754 68.0758H14.6066C14.7807 68.0752 14.9475 68.0058 15.0707 67.8826C15.1938 67.7593 15.2632 67.5924 15.2637 67.4182V50.1181C15.2632 49.9438 15.1938 49.7769 15.0707 49.6537C14.9475 49.5305 14.7807 49.461 14.6066 49.4604" fill="white"/>
<path d="M26.3384 56.5788C25.1709 55.8506 23.7862 55.5525 22.4227 55.7358C21.0592 55.9192 19.8022 56.5726 18.8682 57.5835C17.6838 58.8502 17.0924 60.4568 17.0938 62.4033C17.0902 63.5081 17.3345 64.5996 17.8087 65.5973C18.2789 66.5985 19.0205 67.4476 19.9492 68.0479C20.9352 68.6835 22.0926 69.0006 23.2647 68.9562C25.0798 68.9562 26.5703 68.3135 27.7361 67.0282C28.8915 65.769 29.5171 64.1125 29.4827 62.4033C29.4947 61.2214 29.2059 60.056 28.6437 59.0166C28.1062 58.0128 27.3103 57.1711 26.3384 56.5788ZM25.54 64.8796C25.54 66.1464 25.3474 67.0746 24.9621 67.6644C24.7489 67.9087 24.4856 68.1041 24.1901 68.2372C23.8945 68.3703 23.5738 68.438 23.2497 68.4356C22.6202 68.4036 22.0281 68.1269 21.5994 67.6644C21.2327 67.1875 21.0122 66.2592 20.938 64.8796C20.9009 64.3084 20.8824 63.4829 20.8824 62.4033C20.8824 61.3237 20.9009 60.4882 20.938 59.897C20.9631 59.3432 21.0231 58.7916 21.1178 58.2454C21.1796 57.8516 21.346 57.4817 21.5994 57.1743C21.7914 56.9196 22.0412 56.7142 22.3281 56.5753C22.6151 56.4363 22.931 56.3678 23.2497 56.3753C23.5781 56.3624 23.9048 56.4281 24.2027 56.5671C24.5005 56.7061 24.7609 56.9143 24.9621 57.1743C25.3474 57.6884 25.54 58.5967 25.54 59.8991C25.6128 61.0745 25.6492 61.9099 25.6492 62.4054C25.6492 62.901 25.6128 63.7264 25.54 64.8818" fill="white"/>
<path d="M59.6697 41.483C58.502 40.7551 57.1175 40.4573 55.7541 40.6407C54.3907 40.824 53.1338 41.4771 52.1995 42.4876C51.0166 43.7544 50.4251 45.3603 50.4251 47.3053C50.4212 48.4101 50.6655 49.5017 51.14 50.4993C51.611 51.5 52.3525 52.3489 53.2805 52.9499C54.2666 53.5855 55.424 53.9026 56.596 53.8582C58.4111 53.8582 59.9016 53.2155 61.0674 51.9302C62.2228 50.6711 62.8484 49.0145 62.8141 47.3053C62.8261 46.1234 62.5373 44.9579 61.975 43.9186C61.4376 42.9154 60.6416 42.0744 59.6697 41.483ZM58.8735 49.7752C58.8735 51.042 58.6808 51.9702 58.2956 52.56C58.0824 52.8043 57.819 52.9997 57.5235 53.1328C57.228 53.2659 56.9073 53.3336 56.5832 53.3312C55.9537 53.2994 55.3614 53.0227 54.9329 52.56C54.5647 52.083 54.3443 51.1548 54.2715 49.7752C54.2344 49.204 54.2166 48.3778 54.218 47.2968C54.2194 46.2157 54.2372 45.3802 54.2715 44.7904C54.2968 44.2367 54.3568 43.6851 54.4513 43.1388C54.5135 42.7452 54.6798 42.3754 54.9329 42.0678C55.1248 41.813 55.3746 41.6077 55.6616 41.4687C55.9486 41.3298 56.2645 41.2612 56.5832 41.2687C56.9115 41.256 57.2382 41.3219 57.536 41.4608C57.8338 41.5998 58.0942 41.8079 58.2956 42.0678C58.6808 42.5819 58.8735 43.4909 58.8735 44.7947C58.9463 45.9701 58.9826 46.8055 58.9826 47.301C58.9826 47.7966 58.9463 48.6213 58.8735 49.7752Z" fill="white"/>
<path d="M41.4759 56.208H39.2905C39.1162 56.208 38.9491 56.2773 38.8259 56.4006C38.7026 56.524 38.6334 56.6912 38.6334 56.8657V61.3063V63.7805C38.6334 65.0658 38.308 66.0941 37.6573 66.8652C37.0066 67.6364 36.3417 67.9934 35.6624 67.9363C34.8919 67.8449 34.4288 67.4779 34.2732 66.8352C34.117 66.1926 34.0592 64.436 34.0592 64.436C34.0464 64.074 34.0378 63.4828 34.0378 63.1207V56.8657C34.0372 56.6914 33.9678 56.5245 33.8447 56.4013C33.7216 56.278 33.5548 56.2086 33.3807 56.208H31.3087C31.1346 56.2086 30.9678 56.278 30.8447 56.4013C30.7216 56.5245 30.6522 56.6914 30.6516 56.8657V63.1743C30.647 64.0872 30.7078 64.9992 30.8335 65.9034C31.3473 67.887 32.4753 68.906 34.2176 68.9603C35.0826 69.0142 35.9452 68.8234 36.7069 68.4097C37.5032 67.9813 38.2438 67.0302 38.2438 67.0302C38.4579 66.7431 38.6462 66.816 38.6462 67.1673V67.8913C38.6468 68.0656 38.7162 68.2325 38.8393 68.3557C38.9624 68.4789 39.1292 68.5484 39.3033 68.549H41.5187C41.6926 68.5484 41.8592 68.4789 41.982 68.3556C42.1048 68.2323 42.1737 68.0654 42.1737 67.8913L42.1416 56.8699C42.1405 56.6955 42.0706 56.5286 41.9471 56.4054C41.8237 56.2823 41.6566 56.2129 41.4823 56.2123" fill="white"/>
<path d="M53.8581 62.0735C53.4589 61.5975 52.9548 61.2206 52.3855 60.9724C51.737 60.7262 51.0639 60.551 50.3777 60.4498C49.8068 60.2988 49.228 60.1794 48.644 60.092C47.7264 59.8721 47.1556 59.6793 46.9316 59.5136C46.7789 59.3907 46.6553 59.2356 46.5695 59.0593C46.4836 58.8831 46.4377 58.69 46.435 58.494C46.4469 57.9653 46.6361 57.456 46.9723 57.048C47.3304 56.5796 47.9676 56.3547 48.8837 56.3732C50.2407 56.3732 51.2953 56.9609 52.0473 58.1362C52.0837 58.2283 52.1672 58.4061 52.2956 58.6739L52.5096 59.1281C52.5524 59.1907 52.5989 59.2508 52.6488 59.308C52.7028 59.3662 52.7326 59.4428 52.7322 59.5222H53.5306V55.6856H52.7322C52.5296 56.144 52.2178 56.3732 51.7968 56.3732C51.592 56.3778 51.3906 56.3203 51.2189 56.2083L50.7095 56.0562L50.0909 55.8763C49.6954 55.7708 49.2902 55.7062 48.8815 55.6835C47.8196 55.6697 46.7905 56.0514 45.9941 56.7545C45.5881 57.1039 45.2659 57.5403 45.0514 58.0313C44.8368 58.5222 44.7355 59.0552 44.7548 59.5908C44.809 61.8672 46.405 63.2624 49.543 63.7765C50.1576 63.8928 50.764 64.0495 51.3581 64.2457C52.6423 64.7412 53.2295 65.4938 53.1196 66.5035C53.0931 66.7823 53.0069 67.0521 52.8669 67.2945C52.727 67.537 52.5365 67.7465 52.3084 67.9088C51.8047 68.3129 51.1033 68.4871 50.2044 68.4314C48.756 68.3029 47.6857 67.8166 46.9937 66.9726C46.3307 66.1782 45.8728 65.2329 45.6602 64.22H44.8361V68.9563H45.6602C45.6602 68.6449 45.8899 68.4707 46.3494 68.4336C46.6393 68.4093 46.931 68.4465 47.2056 68.5428C47.6031 68.587 47.9982 68.6513 48.3892 68.7356C48.9888 68.9019 49.6105 68.9741 50.2322 68.9498C51.6263 68.9313 52.7358 68.5414 53.5606 67.7802C53.9529 67.4414 54.2673 67.0217 54.4823 66.5499C54.6973 66.0781 54.8078 65.5654 54.8063 65.0468C54.8398 64.5412 54.784 64.0336 54.6415 63.5473C54.4855 63.0069 54.2186 62.505 53.8581 62.0735Z" fill="white"/>
<path d="M67.1528 62.2106C67.1157 60.8153 66.8538 59.6357 66.3672 58.6717C65.931 57.7635 65.2497 56.9955 64.4001 56.4546C63.5571 55.9355 62.5836 55.6679 61.594 55.6834C60.7913 55.6658 59.9947 55.8272 59.2621 56.1558C58.5294 56.4844 57.879 56.9721 57.358 57.5835C56.2379 58.8503 55.6506 60.4212 55.5964 62.2963C55.5455 63.4757 55.7913 64.6491 56.3113 65.7087C56.8164 66.7285 57.6108 67.5765 58.5952 68.1465C59.6368 68.7504 60.8335 69.0328 62.0349 68.9584C63.5204 68.9398 64.6755 68.5042 65.5003 67.6516C66.2783 66.8791 66.8463 65.9205 67.1506 64.8668H66.5085C66.2563 65.8067 65.724 66.6474 64.9823 67.2768C64.6234 67.6079 64.1997 67.8609 63.7381 68.0199C63.2764 68.1788 62.7869 68.2401 62.3003 68.2C61.2729 68.1443 60.5437 67.768 60.1128 67.0711C59.6819 66.3742 59.4207 65.4017 59.3294 64.1535C59.3108 63.915 59.3016 63.5387 59.3016 63.0246V62.2256H67.142L67.1528 62.2106ZM59.7939 57.847C60.1149 56.8473 60.725 56.3561 61.6239 56.3732C62.5229 56.3903 63.1144 56.8773 63.3984 57.8342C63.6833 58.6754 63.8095 59.5623 63.7708 60.4497C63.7708 60.9453 63.6652 61.248 63.454 61.358C63.2429 61.468 62.844 61.5229 62.2575 61.5229H59.3016C59.2733 60.2802 59.4357 59.0405 59.7832 57.847" fill="white"/>
</g>
<defs>
<clipPath id="clip0_39_109">
<rect width="95" height="72" fill="white"/>
</clipPath>
</defs>
</svg>
