<svg width="259" height="86" viewBox="0 0 259 86" fill="none" xmlns="http://www.w3.org/2000/svg">
<path d="M0 0H170V34H0V0Z" fill="#FFD400"/>
<path d="M28.3589 38L23.2069 15.984H30.5669L32.4869 25.392C32.5295 25.5627 32.5829 25.8293 32.6469 26.192C32.7109 26.5333 32.7855 26.9173 32.8709 27.344C32.9562 27.7493 33.0309 28.1227 33.0949 28.464H33.2229C33.2655 28.272 33.3082 28.048 33.3509 27.792C33.4149 27.5147 33.4682 27.2373 33.5109 26.96C33.5749 26.6827 33.6282 26.4053 33.6709 26.128C33.7349 25.8507 33.7882 25.6053 33.8309 25.392L35.7189 15.984H42.6949L44.7109 25.392C44.7535 25.6053 44.8069 25.8933 44.8709 26.256C44.9562 26.6187 45.0415 27.0027 45.1269 27.408C45.2122 27.792 45.2869 28.144 45.3509 28.464H45.4789C45.5215 28.2507 45.5642 28.016 45.6069 27.76C45.6709 27.4827 45.7242 27.2053 45.7669 26.928C45.8095 26.6507 45.8522 26.384 45.8949 26.128C45.9589 25.8507 46.0122 25.6053 46.0549 25.392L47.8469 15.984H54.8869L49.7349 38H41.9589L39.7829 27.696C39.7402 27.4187 39.6762 27.0987 39.5909 26.736C39.5055 26.352 39.4202 25.968 39.3349 25.584C39.2495 25.2 39.1749 24.8693 39.1109 24.592H38.9829C38.9189 24.848 38.8442 25.168 38.7589 25.552C38.6949 25.9147 38.6202 26.288 38.5349 26.672C38.4495 27.0347 38.3749 27.376 38.3109 27.696L36.1349 38H28.3589ZM57.4149 38V15.984H64.4869V24.016H72.2629V15.984H79.3349V38H72.2629V29.648H64.4869V38H57.4149ZM95.0151 38.384C92.5191 38.384 90.3858 37.9573 88.6151 37.104C86.8445 36.2507 85.4898 34.9813 84.5511 33.296C83.6125 31.5893 83.1431 29.488 83.1431 26.992C83.1431 24.4747 83.6125 22.3733 84.5511 20.688C85.4898 19.0027 86.8445 17.7333 88.6151 16.88C90.3858 16.0267 92.5191 15.6 95.0151 15.6C97.5325 15.6 99.6765 16.0267 101.447 16.88C103.218 17.7333 104.572 19.0027 105.511 20.688C106.45 22.3733 106.919 24.4747 106.919 26.992C106.919 29.488 106.45 31.5893 105.511 33.296C104.572 34.9813 103.218 36.2507 101.447 37.104C99.6765 37.9573 97.5325 38.384 95.0151 38.384ZM95.0151 33.104C95.7831 33.104 96.4551 32.9867 97.0311 32.752C97.6285 32.496 98.1191 32.144 98.5031 31.696C98.9085 31.248 99.2071 30.7147 99.3991 30.096C99.5911 29.456 99.6871 28.7627 99.6871 28.016V25.968C99.6871 25.2213 99.5911 24.5387 99.3991 23.92C99.2071 23.28 98.9085 22.736 98.5031 22.288C98.1191 21.84 97.6285 21.4987 97.0311 21.264C96.4551 21.008 95.7831 20.88 95.0151 20.88C94.2471 20.88 93.5645 21.008 92.9671 21.264C92.3911 21.4987 91.9111 21.84 91.5271 22.288C91.1431 22.736 90.8551 23.28 90.6631 23.92C90.4711 24.5387 90.3751 25.2213 90.3751 25.968V28.016C90.3751 28.7627 90.4711 29.456 90.6631 30.096C90.8551 30.7147 91.1431 31.248 91.5271 31.696C91.9111 32.144 92.3911 32.496 92.9671 32.752C93.5645 32.9867 94.2471 33.104 95.0151 33.104ZM126.973 38.384C124.477 38.384 122.376 37.9573 120.669 37.104C118.984 36.2507 117.704 34.9813 116.829 33.296C115.976 31.5893 115.549 29.488 115.549 26.992C115.549 23.2373 116.509 20.4 118.429 18.48C120.371 16.56 123.219 15.6 126.973 15.6C129.107 15.6 130.963 15.9627 132.541 16.688C134.141 17.392 135.379 18.448 136.253 19.856C137.128 21.264 137.565 22.992 137.565 25.04H130.813C130.813 24.1867 130.664 23.4507 130.365 22.832C130.067 22.2133 129.629 21.7333 129.053 21.392C128.499 21.0507 127.795 20.88 126.941 20.88C125.939 20.88 125.128 21.0933 124.509 21.52C123.912 21.9467 123.475 22.544 123.197 23.312C122.92 24.08 122.781 24.9653 122.781 25.968V28.016C122.781 29.0187 122.92 29.904 123.197 30.672C123.496 31.44 123.944 32.0373 124.541 32.464C125.139 32.8907 125.917 33.104 126.877 33.104C127.816 33.104 128.584 32.944 129.181 32.624C129.8 32.304 130.259 31.8453 130.557 31.248C130.877 30.6293 131.037 29.904 131.037 29.072H137.565C137.565 31.0773 137.149 32.7733 136.317 34.16C135.485 35.5467 134.28 36.6027 132.701 37.328C131.123 38.032 129.213 38.384 126.973 38.384ZM138.711 38L146.743 15.984H154.967L162.999 38H155.511L154.583 34.896H146.871L145.943 38H138.711ZM148.343 29.968H153.143L152.087 26.448C152.001 26.192 151.905 25.8827 151.799 25.52C151.692 25.1573 151.585 24.7733 151.479 24.368C151.372 23.9627 151.265 23.568 151.159 23.184C151.052 22.7787 150.956 22.4267 150.871 22.128H150.615C150.529 22.512 150.412 22.9493 150.263 23.44C150.135 23.9307 149.996 24.4427 149.847 24.976C149.697 25.488 149.548 25.9787 149.399 26.448L148.343 29.968ZM165.665 38V15.984H179.457C181.1 15.984 182.465 16.3147 183.553 16.976C184.662 17.6373 185.494 18.5013 186.049 19.568C186.604 20.6347 186.881 21.7867 186.881 23.024C186.881 24.432 186.55 25.6907 185.889 26.8C185.228 27.888 184.332 28.7627 183.201 29.424L187.521 38H179.585L176.225 30.608H172.737V38H165.665ZM172.737 25.712H177.697C178.252 25.712 178.721 25.4987 179.105 25.072C179.489 24.624 179.681 24.0373 179.681 23.312C179.681 22.864 179.596 22.4693 179.425 22.128C179.254 21.7867 179.02 21.52 178.721 21.328C178.422 21.1147 178.081 21.008 177.697 21.008H172.737V25.712ZM190.667 38V15.984H209.707V21.264H197.739V24.304H207.979V29.36H197.739V32.72H209.931V38H190.667ZM223.553 38.384C222.038 38.384 220.62 38.2667 219.297 38.032C217.996 37.8187 216.844 37.4453 215.841 36.912C214.86 36.3573 214.081 35.6 213.505 34.64C212.95 33.6587 212.673 32.432 212.673 30.96C212.673 30.9173 212.673 30.864 212.673 30.8C212.673 30.7147 212.684 30.6293 212.705 30.544H219.393C219.372 30.6293 219.361 30.7147 219.361 30.8C219.361 30.864 219.361 30.928 219.361 30.992C219.361 31.632 219.51 32.1227 219.809 32.464C220.108 32.8053 220.524 33.04 221.057 33.168C221.612 33.2747 222.23 33.328 222.913 33.328C223.169 33.328 223.436 33.328 223.713 33.328C224.012 33.3067 224.289 33.2747 224.545 33.232C224.822 33.168 225.068 33.0827 225.281 32.976C225.516 32.8693 225.697 32.7307 225.825 32.56C225.953 32.368 226.017 32.1333 226.017 31.856C226.017 31.4507 225.836 31.1307 225.473 30.896C225.11 30.6613 224.62 30.4587 224.001 30.288C223.382 30.1173 222.689 29.9573 221.921 29.808C221.153 29.6587 220.353 29.488 219.521 29.296C218.689 29.0827 217.889 28.816 217.121 28.496C216.353 28.176 215.66 27.7707 215.041 27.28C214.422 26.768 213.932 26.1387 213.569 25.392C213.206 24.624 213.025 23.7067 213.025 22.64C213.025 21.36 213.292 20.272 213.825 19.376C214.358 18.48 215.084 17.7547 216.001 17.2C216.94 16.6453 217.996 16.24 219.169 15.984C220.364 15.728 221.612 15.6 222.913 15.6C224.236 15.6 225.473 15.7387 226.625 16.016C227.798 16.272 228.833 16.6773 229.729 17.232C230.625 17.7867 231.329 18.4907 231.841 19.344C232.353 20.1973 232.62 21.2107 232.641 22.384V22.768H226.017V22.64C226.017 22.256 225.921 21.8933 225.729 21.552C225.537 21.2107 225.228 20.9333 224.801 20.72C224.396 20.5067 223.852 20.4 223.169 20.4C222.529 20.4 221.985 20.464 221.537 20.592C221.11 20.72 220.79 20.9013 220.577 21.136C220.364 21.3493 220.257 21.584 220.257 21.84C220.257 22.2453 220.438 22.576 220.801 22.832C221.164 23.088 221.654 23.3013 222.273 23.472C222.892 23.6427 223.585 23.8027 224.353 23.952C225.121 24.1013 225.921 24.272 226.753 24.464C227.585 24.6347 228.385 24.8693 229.153 25.168C229.921 25.4667 230.614 25.8613 231.233 26.352C231.852 26.8213 232.342 27.408 232.705 28.112C233.068 28.816 233.249 29.68 233.249 30.704C233.249 32.5173 232.822 33.9893 231.969 35.12C231.137 36.2507 229.985 37.0827 228.513 37.616C227.062 38.128 225.409 38.384 223.553 38.384ZM241.559 30.128V28.528C241.559 28.144 241.655 27.7813 241.847 27.44C242.06 27.0987 242.316 26.768 242.615 26.448C242.935 26.128 243.276 25.808 243.639 25.488C244.001 25.168 244.332 24.848 244.631 24.528C244.951 24.1867 245.207 23.8347 245.399 23.472C245.612 23.088 245.719 22.6827 245.719 22.256C245.719 21.9573 245.676 21.68 245.591 21.424C245.505 21.1467 245.377 20.9013 245.207 20.688C245.036 20.4747 244.833 20.3147 244.599 20.208C244.364 20.08 244.087 20.016 243.767 20.016C243.297 20.016 242.913 20.0907 242.615 20.24C242.337 20.3893 242.113 20.592 241.943 20.848C241.793 21.104 241.687 21.392 241.623 21.712C241.559 22.032 241.527 22.3627 241.527 22.704C241.527 22.8533 241.527 23.0027 241.527 23.152C241.527 23.28 241.537 23.4187 241.559 23.568H235.671C235.649 23.3547 235.628 23.152 235.607 22.96C235.585 22.768 235.575 22.5653 235.575 22.352C235.575 21.52 235.713 20.752 235.991 20.048C236.268 19.344 236.663 18.7253 237.175 18.192C237.708 17.6373 238.337 17.168 239.063 16.784C239.788 16.4 240.588 16.112 241.463 15.92C242.359 15.7067 243.308 15.6 244.311 15.6C245.292 15.6 246.199 15.7067 247.031 15.92C247.884 16.112 248.641 16.4 249.303 16.784C249.985 17.1467 250.561 17.5947 251.031 18.128C251.5 18.6613 251.863 19.2693 252.119 19.952C252.375 20.6133 252.503 21.3387 252.503 22.128C252.503 22.8533 252.364 23.504 252.087 24.08C251.831 24.6347 251.489 25.136 251.063 25.584C250.657 26.032 250.22 26.4373 249.751 26.8C249.303 27.1413 248.865 27.4613 248.439 27.76C248.033 28.0587 247.692 28.3467 247.415 28.624C247.159 28.9013 247.031 29.1787 247.031 29.456V30.128H241.559ZM241.175 38V32.08H247.511V38H241.175Z" fill="#151515"/>
<path d="M116 52H259V86H116V52Z" fill="#FFD400"/>
<path d="M39.714 69V46.984H58.754V52.264H46.786V55.304H57.026V60.36H46.786V63.72H58.978V69H39.714ZM68.6958 69L60.8878 46.984H68.4398L71.4798 57.16C71.5651 57.4373 71.6824 57.8427 71.8318 58.376C71.9811 58.9093 72.1411 59.4747 72.3118 60.072C72.5038 60.6693 72.6638 61.2133 72.7918 61.704H73.0478C73.1758 61.256 73.3251 60.744 73.4958 60.168C73.6664 59.592 73.8264 59.0373 73.9758 58.504C74.1464 57.9493 74.2744 57.5013 74.3598 57.16L77.4318 46.984H84.6638L76.8878 69H68.6958ZM87.714 69V46.984H106.754V52.264H94.786V55.304H105.026V60.36H94.786V63.72H106.978V69H87.714ZM110.712 69V46.984H124.504C126.146 46.984 127.512 47.3147 128.6 47.976C129.709 48.6373 130.541 49.5013 131.096 50.568C131.65 51.6347 131.928 52.7867 131.928 54.024C131.928 55.432 131.597 56.6907 130.936 57.8C130.274 58.888 129.378 59.7627 128.248 60.424L132.568 69H124.632L121.272 61.608H117.784V69H110.712ZM117.784 56.712H122.744C123.298 56.712 123.768 56.4987 124.152 56.072C124.536 55.624 124.728 55.0373 124.728 54.312C124.728 53.864 124.642 53.4693 124.472 53.128C124.301 52.7867 124.066 52.52 123.768 52.328C123.469 52.1147 123.128 52.008 122.744 52.008H117.784V56.712ZM141.585 69V60.456L132.849 46.984H140.977L145.201 54.312H145.329L149.553 46.984H157.265L148.657 60.456V69H141.585ZM169.906 69.384C167.41 69.384 165.276 68.9573 163.506 68.104C161.735 67.2507 160.38 65.9813 159.442 64.296C158.503 62.5893 158.034 60.488 158.034 57.992C158.034 55.4747 158.503 53.3733 159.442 51.688C160.38 50.0027 161.735 48.7333 163.506 47.88C165.276 47.0267 167.41 46.6 169.906 46.6C172.423 46.6 174.567 47.0267 176.338 47.88C178.108 48.7333 179.463 50.0027 180.402 51.688C181.34 53.3733 181.81 55.4747 181.81 57.992C181.81 60.488 181.34 62.5893 180.402 64.296C179.463 65.9813 178.108 67.2507 176.338 68.104C174.567 68.9573 172.423 69.384 169.906 69.384ZM169.906 64.104C170.674 64.104 171.346 63.9867 171.922 63.752C172.519 63.496 173.01 63.144 173.394 62.696C173.799 62.248 174.098 61.7147 174.29 61.096C174.482 60.456 174.578 59.7627 174.578 59.016V56.968C174.578 56.2213 174.482 55.5387 174.29 54.92C174.098 54.28 173.799 53.736 173.394 53.288C173.01 52.84 172.519 52.4987 171.922 52.264C171.346 52.008 170.674 51.88 169.906 51.88C169.138 51.88 168.455 52.008 167.858 52.264C167.282 52.4987 166.802 52.84 166.418 53.288C166.034 53.736 165.746 54.28 165.554 54.92C165.362 55.5387 165.266 56.2213 165.266 56.968V59.016C165.266 59.7627 165.362 60.456 165.554 61.096C165.746 61.7147 166.034 62.248 166.418 62.696C166.802 63.144 167.282 63.496 167.858 63.752C168.455 63.9867 169.138 64.104 169.906 64.104ZM185.618 69V46.984H191.634L198.482 54.888C198.674 55.1013 198.93 55.4107 199.25 55.816C199.57 56.2213 199.89 56.6373 200.21 57.064C200.551 57.4693 200.807 57.8 200.978 58.056L201.138 57.992C201.117 57.3947 201.106 56.808 201.106 56.232C201.106 55.6347 201.106 55.1867 201.106 54.888V46.984H207.538V69H201.554L193.842 60.2C193.479 59.7733 193.17 59.3893 192.914 59.048C192.658 58.6853 192.413 58.344 192.178 58.024L192.018 58.088C192.039 58.4933 192.05 58.8987 192.05 59.304C192.05 59.7093 192.05 60.008 192.05 60.2V69H185.618ZM212.37 69V46.984H231.41V52.264H219.442V55.304H229.682V60.36H219.442V63.72H231.634V69H212.37Z" fill="#151515"/>
</svg>
